%TF.GenerationSoftware,KiCad,Pcbnew,8.0.8*%
%TF.CreationDate,2025-02-09T18:41:23-06:00*%
%TF.ProjectId,Autofluorescence_Hardware,4175746f-666c-4756-9f72-657363656e63,rev?*%
%TF.SameCoordinates,Original*%
%TF.FileFunction,Paste,Top*%
%TF.FilePolarity,Positive*%
%FSLAX46Y46*%
G04 Gerber Fmt 4.6, Leading zero omitted, Abs format (unit mm)*
G04 Created by KiCad (PCBNEW 8.0.8) date 2025-02-09 18:41:23*
%MOMM*%
%LPD*%
G01*
G04 APERTURE LIST*
G04 Aperture macros list*
%AMRoundRect*
0 Rectangle with rounded corners*
0 $1 Rounding radius*
0 $2 $3 $4 $5 $6 $7 $8 $9 X,Y pos of 4 corners*
0 Add a 4 corners polygon primitive as box body*
4,1,4,$2,$3,$4,$5,$6,$7,$8,$9,$2,$3,0*
0 Add four circle primitives for the rounded corners*
1,1,$1+$1,$2,$3*
1,1,$1+$1,$4,$5*
1,1,$1+$1,$6,$7*
1,1,$1+$1,$8,$9*
0 Add four rect primitives between the rounded corners*
20,1,$1+$1,$2,$3,$4,$5,0*
20,1,$1+$1,$4,$5,$6,$7,0*
20,1,$1+$1,$6,$7,$8,$9,0*
20,1,$1+$1,$8,$9,$2,$3,0*%
G04 Aperture macros list end*
%ADD10C,0.010000*%
%ADD11RoundRect,0.416667X-0.853333X2.123333X-0.853333X-2.123333X0.853333X-2.123333X0.853333X2.123333X0*%
%ADD12RoundRect,0.416667X0.853333X-2.123333X0.853333X2.123333X-0.853333X2.123333X-0.853333X-2.123333X0*%
%ADD13RoundRect,0.254000X2.286000X-2.286000X2.286000X2.286000X-2.286000X2.286000X-2.286000X-2.286000X0*%
%ADD14R,1.625600X1.574800*%
%ADD15R,1.574800X1.625600*%
%ADD16RoundRect,0.250000X-0.475000X0.337500X-0.475000X-0.337500X0.475000X-0.337500X0.475000X0.337500X0*%
%ADD17R,0.533400X1.460500*%
%ADD18R,2.286000X2.286000*%
%ADD19RoundRect,0.250000X0.475000X-0.337500X0.475000X0.337500X-0.475000X0.337500X-0.475000X-0.337500X0*%
%ADD20R,2.990000X1.340000*%
%ADD21R,5.100000X2.350000*%
%ADD22R,1.460500X0.533400*%
%ADD23RoundRect,0.250000X0.337500X0.475000X-0.337500X0.475000X-0.337500X-0.475000X0.337500X-0.475000X0*%
%ADD24RoundRect,0.237500X-0.237500X0.250000X-0.237500X-0.250000X0.237500X-0.250000X0.237500X0.250000X0*%
%ADD25RoundRect,0.187500X0.187500X1.292500X-0.187500X1.292500X-0.187500X-1.292500X0.187500X-1.292500X0*%
%ADD26RoundRect,0.250000X0.250000X1.230000X-0.250000X1.230000X-0.250000X-1.230000X0.250000X-1.230000X0*%
%ADD27RoundRect,0.237500X-0.237500X0.287500X-0.237500X-0.287500X0.237500X-0.287500X0.237500X0.287500X0*%
G04 APERTURE END LIST*
D10*
%TO.C,R1*%
X130033000Y-61382000D02*
X128653000Y-61382000D01*
X128653000Y-60002000D01*
X130033000Y-60002000D01*
X130033000Y-61382000D01*
G36*
X130033000Y-61382000D02*
G01*
X128653000Y-61382000D01*
X128653000Y-60002000D01*
X130033000Y-60002000D01*
X130033000Y-61382000D01*
G37*
X130033000Y-63682000D02*
X128653000Y-63682000D01*
X128653000Y-62302000D01*
X130033000Y-62302000D01*
X130033000Y-63682000D01*
G36*
X130033000Y-63682000D02*
G01*
X128653000Y-63682000D01*
X128653000Y-62302000D01*
X130033000Y-62302000D01*
X130033000Y-63682000D01*
G37*
X130033000Y-65982000D02*
X128653000Y-65982000D01*
X128653000Y-64602000D01*
X130033000Y-64602000D01*
X130033000Y-65982000D01*
G36*
X130033000Y-65982000D02*
G01*
X128653000Y-65982000D01*
X128653000Y-64602000D01*
X130033000Y-64602000D01*
X130033000Y-65982000D01*
G37*
X132103000Y-61382000D02*
X130723000Y-61382000D01*
X130723000Y-60002000D01*
X132103000Y-60002000D01*
X132103000Y-61382000D01*
G36*
X132103000Y-61382000D02*
G01*
X130723000Y-61382000D01*
X130723000Y-60002000D01*
X132103000Y-60002000D01*
X132103000Y-61382000D01*
G37*
X132103000Y-63682000D02*
X130723000Y-63682000D01*
X130723000Y-62302000D01*
X132103000Y-62302000D01*
X132103000Y-63682000D01*
G36*
X132103000Y-63682000D02*
G01*
X130723000Y-63682000D01*
X130723000Y-62302000D01*
X132103000Y-62302000D01*
X132103000Y-63682000D01*
G37*
X132103000Y-65982000D02*
X130723000Y-65982000D01*
X130723000Y-64602000D01*
X132103000Y-64602000D01*
X132103000Y-65982000D01*
G36*
X132103000Y-65982000D02*
G01*
X130723000Y-65982000D01*
X130723000Y-64602000D01*
X132103000Y-64602000D01*
X132103000Y-65982000D01*
G37*
X134173000Y-61382000D02*
X132793000Y-61382000D01*
X132793000Y-60002000D01*
X134173000Y-60002000D01*
X134173000Y-61382000D01*
G36*
X134173000Y-61382000D02*
G01*
X132793000Y-61382000D01*
X132793000Y-60002000D01*
X134173000Y-60002000D01*
X134173000Y-61382000D01*
G37*
X134173000Y-63682000D02*
X132793000Y-63682000D01*
X132793000Y-62302000D01*
X134173000Y-62302000D01*
X134173000Y-63682000D01*
G36*
X134173000Y-63682000D02*
G01*
X132793000Y-63682000D01*
X132793000Y-62302000D01*
X134173000Y-62302000D01*
X134173000Y-63682000D01*
G37*
X134173000Y-65982000D02*
X132793000Y-65982000D01*
X132793000Y-64602000D01*
X134173000Y-64602000D01*
X134173000Y-65982000D01*
G36*
X134173000Y-65982000D02*
G01*
X132793000Y-65982000D01*
X132793000Y-64602000D01*
X134173000Y-64602000D01*
X134173000Y-65982000D01*
G37*
X136243000Y-61382000D02*
X134863000Y-61382000D01*
X134863000Y-60002000D01*
X136243000Y-60002000D01*
X136243000Y-61382000D01*
G36*
X136243000Y-61382000D02*
G01*
X134863000Y-61382000D01*
X134863000Y-60002000D01*
X136243000Y-60002000D01*
X136243000Y-61382000D01*
G37*
X136243000Y-63682000D02*
X134863000Y-63682000D01*
X134863000Y-62302000D01*
X136243000Y-62302000D01*
X136243000Y-63682000D01*
G36*
X136243000Y-63682000D02*
G01*
X134863000Y-63682000D01*
X134863000Y-62302000D01*
X136243000Y-62302000D01*
X136243000Y-63682000D01*
G37*
X136243000Y-65982000D02*
X134863000Y-65982000D01*
X134863000Y-64602000D01*
X136243000Y-64602000D01*
X136243000Y-65982000D01*
G36*
X136243000Y-65982000D02*
G01*
X134863000Y-65982000D01*
X134863000Y-64602000D01*
X136243000Y-64602000D01*
X136243000Y-65982000D01*
G37*
%TO.C,R6*%
X130033000Y-70272000D02*
X128653000Y-70272000D01*
X128653000Y-68892000D01*
X130033000Y-68892000D01*
X130033000Y-70272000D01*
G36*
X130033000Y-70272000D02*
G01*
X128653000Y-70272000D01*
X128653000Y-68892000D01*
X130033000Y-68892000D01*
X130033000Y-70272000D01*
G37*
X130033000Y-72572000D02*
X128653000Y-72572000D01*
X128653000Y-71192000D01*
X130033000Y-71192000D01*
X130033000Y-72572000D01*
G36*
X130033000Y-72572000D02*
G01*
X128653000Y-72572000D01*
X128653000Y-71192000D01*
X130033000Y-71192000D01*
X130033000Y-72572000D01*
G37*
X130033000Y-74872000D02*
X128653000Y-74872000D01*
X128653000Y-73492000D01*
X130033000Y-73492000D01*
X130033000Y-74872000D01*
G36*
X130033000Y-74872000D02*
G01*
X128653000Y-74872000D01*
X128653000Y-73492000D01*
X130033000Y-73492000D01*
X130033000Y-74872000D01*
G37*
X132103000Y-70272000D02*
X130723000Y-70272000D01*
X130723000Y-68892000D01*
X132103000Y-68892000D01*
X132103000Y-70272000D01*
G36*
X132103000Y-70272000D02*
G01*
X130723000Y-70272000D01*
X130723000Y-68892000D01*
X132103000Y-68892000D01*
X132103000Y-70272000D01*
G37*
X132103000Y-72572000D02*
X130723000Y-72572000D01*
X130723000Y-71192000D01*
X132103000Y-71192000D01*
X132103000Y-72572000D01*
G36*
X132103000Y-72572000D02*
G01*
X130723000Y-72572000D01*
X130723000Y-71192000D01*
X132103000Y-71192000D01*
X132103000Y-72572000D01*
G37*
X132103000Y-74872000D02*
X130723000Y-74872000D01*
X130723000Y-73492000D01*
X132103000Y-73492000D01*
X132103000Y-74872000D01*
G36*
X132103000Y-74872000D02*
G01*
X130723000Y-74872000D01*
X130723000Y-73492000D01*
X132103000Y-73492000D01*
X132103000Y-74872000D01*
G37*
X134173000Y-70272000D02*
X132793000Y-70272000D01*
X132793000Y-68892000D01*
X134173000Y-68892000D01*
X134173000Y-70272000D01*
G36*
X134173000Y-70272000D02*
G01*
X132793000Y-70272000D01*
X132793000Y-68892000D01*
X134173000Y-68892000D01*
X134173000Y-70272000D01*
G37*
X134173000Y-72572000D02*
X132793000Y-72572000D01*
X132793000Y-71192000D01*
X134173000Y-71192000D01*
X134173000Y-72572000D01*
G36*
X134173000Y-72572000D02*
G01*
X132793000Y-72572000D01*
X132793000Y-71192000D01*
X134173000Y-71192000D01*
X134173000Y-72572000D01*
G37*
X134173000Y-74872000D02*
X132793000Y-74872000D01*
X132793000Y-73492000D01*
X134173000Y-73492000D01*
X134173000Y-74872000D01*
G36*
X134173000Y-74872000D02*
G01*
X132793000Y-74872000D01*
X132793000Y-73492000D01*
X134173000Y-73492000D01*
X134173000Y-74872000D01*
G37*
X136243000Y-70272000D02*
X134863000Y-70272000D01*
X134863000Y-68892000D01*
X136243000Y-68892000D01*
X136243000Y-70272000D01*
G36*
X136243000Y-70272000D02*
G01*
X134863000Y-70272000D01*
X134863000Y-68892000D01*
X136243000Y-68892000D01*
X136243000Y-70272000D01*
G37*
X136243000Y-72572000D02*
X134863000Y-72572000D01*
X134863000Y-71192000D01*
X136243000Y-71192000D01*
X136243000Y-72572000D01*
G36*
X136243000Y-72572000D02*
G01*
X134863000Y-72572000D01*
X134863000Y-71192000D01*
X136243000Y-71192000D01*
X136243000Y-72572000D01*
G37*
X136243000Y-74872000D02*
X134863000Y-74872000D01*
X134863000Y-73492000D01*
X136243000Y-73492000D01*
X136243000Y-74872000D01*
G36*
X136243000Y-74872000D02*
G01*
X134863000Y-74872000D01*
X134863000Y-73492000D01*
X136243000Y-73492000D01*
X136243000Y-74872000D01*
G37*
%TO.C,R5*%
X170051000Y-85540000D02*
X168671000Y-85540000D01*
X168671000Y-84160000D01*
X170051000Y-84160000D01*
X170051000Y-85540000D01*
G36*
X170051000Y-85540000D02*
G01*
X168671000Y-85540000D01*
X168671000Y-84160000D01*
X170051000Y-84160000D01*
X170051000Y-85540000D01*
G37*
X170051000Y-83240000D02*
X168671000Y-83240000D01*
X168671000Y-81860000D01*
X170051000Y-81860000D01*
X170051000Y-83240000D01*
G36*
X170051000Y-83240000D02*
G01*
X168671000Y-83240000D01*
X168671000Y-81860000D01*
X170051000Y-81860000D01*
X170051000Y-83240000D01*
G37*
X170051000Y-80940000D02*
X168671000Y-80940000D01*
X168671000Y-79560000D01*
X170051000Y-79560000D01*
X170051000Y-80940000D01*
G36*
X170051000Y-80940000D02*
G01*
X168671000Y-80940000D01*
X168671000Y-79560000D01*
X170051000Y-79560000D01*
X170051000Y-80940000D01*
G37*
X167981000Y-85540000D02*
X166601000Y-85540000D01*
X166601000Y-84160000D01*
X167981000Y-84160000D01*
X167981000Y-85540000D01*
G36*
X167981000Y-85540000D02*
G01*
X166601000Y-85540000D01*
X166601000Y-84160000D01*
X167981000Y-84160000D01*
X167981000Y-85540000D01*
G37*
X167981000Y-83240000D02*
X166601000Y-83240000D01*
X166601000Y-81860000D01*
X167981000Y-81860000D01*
X167981000Y-83240000D01*
G36*
X167981000Y-83240000D02*
G01*
X166601000Y-83240000D01*
X166601000Y-81860000D01*
X167981000Y-81860000D01*
X167981000Y-83240000D01*
G37*
X167981000Y-80940000D02*
X166601000Y-80940000D01*
X166601000Y-79560000D01*
X167981000Y-79560000D01*
X167981000Y-80940000D01*
G36*
X167981000Y-80940000D02*
G01*
X166601000Y-80940000D01*
X166601000Y-79560000D01*
X167981000Y-79560000D01*
X167981000Y-80940000D01*
G37*
X165911000Y-85540000D02*
X164531000Y-85540000D01*
X164531000Y-84160000D01*
X165911000Y-84160000D01*
X165911000Y-85540000D01*
G36*
X165911000Y-85540000D02*
G01*
X164531000Y-85540000D01*
X164531000Y-84160000D01*
X165911000Y-84160000D01*
X165911000Y-85540000D01*
G37*
X165911000Y-83240000D02*
X164531000Y-83240000D01*
X164531000Y-81860000D01*
X165911000Y-81860000D01*
X165911000Y-83240000D01*
G36*
X165911000Y-83240000D02*
G01*
X164531000Y-83240000D01*
X164531000Y-81860000D01*
X165911000Y-81860000D01*
X165911000Y-83240000D01*
G37*
X165911000Y-80940000D02*
X164531000Y-80940000D01*
X164531000Y-79560000D01*
X165911000Y-79560000D01*
X165911000Y-80940000D01*
G36*
X165911000Y-80940000D02*
G01*
X164531000Y-80940000D01*
X164531000Y-79560000D01*
X165911000Y-79560000D01*
X165911000Y-80940000D01*
G37*
X163841000Y-85540000D02*
X162461000Y-85540000D01*
X162461000Y-84160000D01*
X163841000Y-84160000D01*
X163841000Y-85540000D01*
G36*
X163841000Y-85540000D02*
G01*
X162461000Y-85540000D01*
X162461000Y-84160000D01*
X163841000Y-84160000D01*
X163841000Y-85540000D01*
G37*
X163841000Y-83240000D02*
X162461000Y-83240000D01*
X162461000Y-81860000D01*
X163841000Y-81860000D01*
X163841000Y-83240000D01*
G36*
X163841000Y-83240000D02*
G01*
X162461000Y-83240000D01*
X162461000Y-81860000D01*
X163841000Y-81860000D01*
X163841000Y-83240000D01*
G37*
X163841000Y-80940000D02*
X162461000Y-80940000D01*
X162461000Y-79560000D01*
X163841000Y-79560000D01*
X163841000Y-80940000D01*
G36*
X163841000Y-80940000D02*
G01*
X162461000Y-80940000D01*
X162461000Y-79560000D01*
X163841000Y-79560000D01*
X163841000Y-80940000D01*
G37*
%TD*%
D11*
%TO.C,Conn3*%
X159893000Y-92329000D03*
X156337000Y-92329000D03*
%TD*%
D12*
%TO.C,Conn2*%
X155321000Y-53594000D03*
X158877000Y-53594000D03*
%TD*%
D13*
%TO.C,Conn1*%
X139742000Y-54095600D03*
X147616000Y-54095600D03*
%TD*%
D14*
%TO.C,D7*%
X130810000Y-80137000D03*
X130810000Y-84455000D03*
%TD*%
D15*
%TO.C,D2*%
X151765000Y-59436000D03*
X156083000Y-59436000D03*
%TD*%
%TO.C,D5*%
X162763200Y-75438000D03*
X167081200Y-75438000D03*
%TD*%
D16*
%TO.C,C2*%
X168910000Y-68120350D03*
X168910000Y-70195350D03*
%TD*%
D17*
%TO.C,U2*%
X166497000Y-66617850D03*
X165227000Y-66617850D03*
X163957000Y-66617850D03*
X162687000Y-66617850D03*
X162687000Y-72066150D03*
X163957000Y-72066150D03*
X165227000Y-72066150D03*
X166497000Y-72066150D03*
D18*
X164592000Y-69342000D03*
%TD*%
D19*
%TO.C,C1*%
X144018000Y-66569500D03*
X144018000Y-64494500D03*
%TD*%
D20*
%TO.C,R1*%
X140208000Y-65532000D03*
X140208000Y-60452000D03*
%TD*%
D21*
%TO.C,L1*%
X155448000Y-67861000D03*
X155448000Y-63711000D03*
%TD*%
D22*
%TO.C,U3*%
X133927850Y-78613000D03*
X133927850Y-79883000D03*
X133927850Y-81153000D03*
X133927850Y-82423000D03*
X139376150Y-82423000D03*
X139376150Y-81153000D03*
X139376150Y-79883000D03*
X139376150Y-78613000D03*
D18*
X136652000Y-80518000D03*
%TD*%
D21*
%TO.C,L2*%
X151892000Y-79205000D03*
X151892000Y-83355000D03*
%TD*%
D23*
%TO.C,C3*%
X131847500Y-77216000D03*
X129772500Y-77216000D03*
%TD*%
D20*
%TO.C,R6*%
X140208000Y-74422000D03*
X140208000Y-69342000D03*
%TD*%
D24*
%TO.C,R2*%
X165608000Y-59539500D03*
X165608000Y-61364500D03*
%TD*%
D25*
%TO.C,D4*%
X157937000Y-73025000D03*
X154737000Y-73025000D03*
D26*
X156337000Y-73025000D03*
%TD*%
D25*
%TO.C,D6*%
X152552000Y-73025000D03*
X149352000Y-73025000D03*
D26*
X150952000Y-73025000D03*
%TD*%
D25*
%TO.C,D1*%
X147269000Y-73025000D03*
X144069000Y-73025000D03*
D26*
X145669000Y-73025000D03*
%TD*%
D21*
%TO.C,L3*%
X144272000Y-79205000D03*
X144272000Y-83355000D03*
%TD*%
D20*
%TO.C,R5*%
X158496000Y-80010000D03*
X158496000Y-85090000D03*
%TD*%
D17*
%TO.C,U1*%
X147066000Y-68440300D03*
X148336000Y-68440300D03*
X149606000Y-68440300D03*
X150876000Y-68440300D03*
X150876000Y-62992000D03*
X149606000Y-62992000D03*
X148336000Y-62992000D03*
X147066000Y-62992000D03*
D18*
X148971000Y-65716150D03*
%TD*%
D27*
%TO.C,D3*%
X167386000Y-59577000D03*
X167386000Y-61327000D03*
%TD*%
M02*
