%TF.GenerationSoftware,KiCad,Pcbnew,8.0.8*%
%TF.CreationDate,2025-02-09T18:41:23-06:00*%
%TF.ProjectId,Autofluorescence_Hardware,4175746f-666c-4756-9f72-657363656e63,rev?*%
%TF.SameCoordinates,Original*%
%TF.FileFunction,Legend,Top*%
%TF.FilePolarity,Positive*%
%FSLAX46Y46*%
G04 Gerber Fmt 4.6, Leading zero omitted, Abs format (unit mm)*
G04 Created by KiCad (PCBNEW 8.0.8) date 2025-02-09 18:41:23*
%MOMM*%
%LPD*%
G01*
G04 APERTURE LIST*
%ADD10C,0.300000*%
%ADD11C,0.150000*%
%ADD12C,0.000000*%
%ADD13C,0.152400*%
%ADD14C,0.120000*%
%ADD15C,0.127000*%
%ADD16C,0.200000*%
G04 APERTURE END LIST*
D10*
G36*
X170925838Y-62932857D02*
G01*
X168792504Y-62932857D01*
X168792504Y-62098606D01*
X168960349Y-62098606D01*
X168961682Y-62117367D01*
X168960349Y-62136128D01*
X168963738Y-62146295D01*
X168964498Y-62156987D01*
X168972909Y-62173810D01*
X168978857Y-62191652D01*
X168985879Y-62199748D01*
X168990672Y-62209334D01*
X169004880Y-62221657D01*
X169017204Y-62235866D01*
X169026789Y-62240658D01*
X169034886Y-62247681D01*
X169061737Y-62259669D01*
X170561737Y-62759670D01*
X170590411Y-62766190D01*
X170648791Y-62762040D01*
X170701138Y-62735866D01*
X170739485Y-62691652D01*
X170757994Y-62636128D01*
X170753844Y-62577748D01*
X170727671Y-62525400D01*
X170683456Y-62487053D01*
X170656605Y-62475065D01*
X169583511Y-62117367D01*
X170656605Y-61759669D01*
X170683456Y-61747681D01*
X170727671Y-61709334D01*
X170753844Y-61656986D01*
X170757994Y-61598606D01*
X170739485Y-61543082D01*
X170701138Y-61498868D01*
X170648791Y-61472694D01*
X170590411Y-61468544D01*
X170561737Y-61475064D01*
X169061737Y-61975065D01*
X169034886Y-61987053D01*
X169026789Y-61994075D01*
X169017204Y-61998868D01*
X169004880Y-62013076D01*
X168990672Y-62025400D01*
X168985879Y-62034985D01*
X168978857Y-62043082D01*
X168972909Y-62060923D01*
X168964498Y-62077747D01*
X168963738Y-62088438D01*
X168960349Y-62098606D01*
X168792504Y-62098606D01*
X168792504Y-60260224D01*
X168959171Y-60260224D01*
X168959171Y-61188796D01*
X168962053Y-61218060D01*
X168984451Y-61272132D01*
X169025835Y-61313516D01*
X169079907Y-61335914D01*
X169138435Y-61335914D01*
X169192507Y-61313516D01*
X169233891Y-61272132D01*
X169256289Y-61218060D01*
X169259171Y-61188796D01*
X169259171Y-60622356D01*
X169860248Y-61223433D01*
X169882978Y-61242088D01*
X169887959Y-61244151D01*
X169892029Y-61247681D01*
X169918880Y-61259669D01*
X170133165Y-61331098D01*
X170147674Y-61334397D01*
X170151336Y-61335914D01*
X170156644Y-61336436D01*
X170161839Y-61337618D01*
X170165788Y-61337337D01*
X170180600Y-61338796D01*
X170323457Y-61338796D01*
X170352721Y-61335914D01*
X170357701Y-61333850D01*
X170363076Y-61333469D01*
X170390539Y-61322960D01*
X170533396Y-61251531D01*
X170545989Y-61243603D01*
X170549649Y-61242088D01*
X170553768Y-61238706D01*
X170558282Y-61235866D01*
X170560878Y-61232872D01*
X170572380Y-61223433D01*
X170643808Y-61152005D01*
X170653248Y-61140502D01*
X170656241Y-61137907D01*
X170659079Y-61133397D01*
X170662463Y-61129275D01*
X170663979Y-61125612D01*
X170671906Y-61113021D01*
X170743335Y-60970163D01*
X170753845Y-60942700D01*
X170754227Y-60937322D01*
X170756289Y-60932345D01*
X170759171Y-60903081D01*
X170759171Y-60545939D01*
X170756289Y-60516675D01*
X170754227Y-60511697D01*
X170753845Y-60506320D01*
X170743335Y-60478857D01*
X170671906Y-60335999D01*
X170663979Y-60323407D01*
X170662463Y-60319745D01*
X170659079Y-60315622D01*
X170656241Y-60311113D01*
X170653248Y-60308517D01*
X170643808Y-60297015D01*
X170572380Y-60225587D01*
X170549649Y-60206932D01*
X170495577Y-60184535D01*
X170437051Y-60184535D01*
X170382979Y-60206932D01*
X170341593Y-60248318D01*
X170319196Y-60302390D01*
X170319196Y-60360916D01*
X170341593Y-60414988D01*
X170360248Y-60437719D01*
X170414464Y-60491935D01*
X170459171Y-60581349D01*
X170459171Y-60867671D01*
X170414464Y-60957085D01*
X170377460Y-60994088D01*
X170288047Y-61038796D01*
X170204943Y-61038796D01*
X170047341Y-60986262D01*
X169215237Y-60154158D01*
X169192506Y-60135503D01*
X169160832Y-60122383D01*
X169138435Y-60113106D01*
X169079907Y-60113106D01*
X169057510Y-60122383D01*
X169025836Y-60135503D01*
X168984450Y-60176889D01*
X168981283Y-60184535D01*
X168962053Y-60230960D01*
X168959171Y-60260224D01*
X168792504Y-60260224D01*
X168792504Y-58903082D01*
X168959171Y-58903082D01*
X168959171Y-59760225D01*
X168962053Y-59789489D01*
X168984451Y-59843561D01*
X169025835Y-59884945D01*
X169079907Y-59907343D01*
X169138435Y-59907343D01*
X169192507Y-59884945D01*
X169233891Y-59843561D01*
X169256289Y-59789489D01*
X169259171Y-59760225D01*
X169259171Y-59481653D01*
X170609171Y-59481653D01*
X170609276Y-59481642D01*
X170609329Y-59481653D01*
X170609482Y-59481622D01*
X170638435Y-59478771D01*
X170652155Y-59473087D01*
X170666718Y-59470175D01*
X170678930Y-59461996D01*
X170692507Y-59456373D01*
X170703005Y-59445874D01*
X170715348Y-59437609D01*
X170723502Y-59425378D01*
X170733891Y-59414989D01*
X170739573Y-59401270D01*
X170747814Y-59388910D01*
X170750666Y-59374491D01*
X170756289Y-59360917D01*
X170756289Y-59346065D01*
X170759171Y-59331496D01*
X170756289Y-59317086D01*
X170756289Y-59302389D01*
X170750605Y-59288667D01*
X170747693Y-59274106D01*
X170739514Y-59261893D01*
X170733891Y-59248317D01*
X170723392Y-59237818D01*
X170715127Y-59225476D01*
X170692618Y-59207044D01*
X170692507Y-59206933D01*
X170692456Y-59206912D01*
X170692376Y-59206846D01*
X170490447Y-59072226D01*
X170375305Y-58957084D01*
X170314764Y-58836000D01*
X170299099Y-58811115D01*
X170254884Y-58772768D01*
X170199362Y-58754260D01*
X170140982Y-58758408D01*
X170088633Y-58784583D01*
X170050286Y-58828798D01*
X170031778Y-58884320D01*
X170035926Y-58942700D01*
X170046436Y-58970164D01*
X170117864Y-59113021D01*
X170125791Y-59125614D01*
X170127307Y-59129274D01*
X170130688Y-59133393D01*
X170133529Y-59137907D01*
X170136522Y-59140503D01*
X170145962Y-59152005D01*
X170175610Y-59181653D01*
X169259171Y-59181653D01*
X169259171Y-58903082D01*
X169256289Y-58873818D01*
X169233891Y-58819746D01*
X169192507Y-58778362D01*
X169138435Y-58755964D01*
X169079907Y-58755964D01*
X169025835Y-58778362D01*
X168984451Y-58819746D01*
X168962053Y-58873818D01*
X168959171Y-58903082D01*
X168792504Y-58903082D01*
X168792504Y-58587593D01*
X170925838Y-58587593D01*
X170925838Y-62932857D01*
G37*
D11*
X135379064Y-89527858D02*
X135760017Y-89527858D01*
X135302874Y-89756430D02*
X135569541Y-88956430D01*
X135569541Y-88956430D02*
X135836207Y-89756430D01*
X136445731Y-89223096D02*
X136445731Y-89756430D01*
X136102874Y-89223096D02*
X136102874Y-89642144D01*
X136102874Y-89642144D02*
X136140969Y-89718335D01*
X136140969Y-89718335D02*
X136217159Y-89756430D01*
X136217159Y-89756430D02*
X136331445Y-89756430D01*
X136331445Y-89756430D02*
X136407636Y-89718335D01*
X136407636Y-89718335D02*
X136445731Y-89680239D01*
X136712398Y-89223096D02*
X137017160Y-89223096D01*
X136826684Y-88956430D02*
X136826684Y-89642144D01*
X136826684Y-89642144D02*
X136864779Y-89718335D01*
X136864779Y-89718335D02*
X136940969Y-89756430D01*
X136940969Y-89756430D02*
X137017160Y-89756430D01*
X137398112Y-89756430D02*
X137321922Y-89718335D01*
X137321922Y-89718335D02*
X137283827Y-89680239D01*
X137283827Y-89680239D02*
X137245731Y-89604049D01*
X137245731Y-89604049D02*
X137245731Y-89375477D01*
X137245731Y-89375477D02*
X137283827Y-89299287D01*
X137283827Y-89299287D02*
X137321922Y-89261192D01*
X137321922Y-89261192D02*
X137398112Y-89223096D01*
X137398112Y-89223096D02*
X137512398Y-89223096D01*
X137512398Y-89223096D02*
X137588589Y-89261192D01*
X137588589Y-89261192D02*
X137626684Y-89299287D01*
X137626684Y-89299287D02*
X137664779Y-89375477D01*
X137664779Y-89375477D02*
X137664779Y-89604049D01*
X137664779Y-89604049D02*
X137626684Y-89680239D01*
X137626684Y-89680239D02*
X137588589Y-89718335D01*
X137588589Y-89718335D02*
X137512398Y-89756430D01*
X137512398Y-89756430D02*
X137398112Y-89756430D01*
X137893351Y-89223096D02*
X138198113Y-89223096D01*
X138007637Y-89756430D02*
X138007637Y-89070715D01*
X138007637Y-89070715D02*
X138045732Y-88994525D01*
X138045732Y-88994525D02*
X138121922Y-88956430D01*
X138121922Y-88956430D02*
X138198113Y-88956430D01*
X138579065Y-89756430D02*
X138502875Y-89718335D01*
X138502875Y-89718335D02*
X138464780Y-89642144D01*
X138464780Y-89642144D02*
X138464780Y-88956430D01*
X139226685Y-89223096D02*
X139226685Y-89756430D01*
X138883828Y-89223096D02*
X138883828Y-89642144D01*
X138883828Y-89642144D02*
X138921923Y-89718335D01*
X138921923Y-89718335D02*
X138998113Y-89756430D01*
X138998113Y-89756430D02*
X139112399Y-89756430D01*
X139112399Y-89756430D02*
X139188590Y-89718335D01*
X139188590Y-89718335D02*
X139226685Y-89680239D01*
X139721923Y-89756430D02*
X139645733Y-89718335D01*
X139645733Y-89718335D02*
X139607638Y-89680239D01*
X139607638Y-89680239D02*
X139569542Y-89604049D01*
X139569542Y-89604049D02*
X139569542Y-89375477D01*
X139569542Y-89375477D02*
X139607638Y-89299287D01*
X139607638Y-89299287D02*
X139645733Y-89261192D01*
X139645733Y-89261192D02*
X139721923Y-89223096D01*
X139721923Y-89223096D02*
X139836209Y-89223096D01*
X139836209Y-89223096D02*
X139912400Y-89261192D01*
X139912400Y-89261192D02*
X139950495Y-89299287D01*
X139950495Y-89299287D02*
X139988590Y-89375477D01*
X139988590Y-89375477D02*
X139988590Y-89604049D01*
X139988590Y-89604049D02*
X139950495Y-89680239D01*
X139950495Y-89680239D02*
X139912400Y-89718335D01*
X139912400Y-89718335D02*
X139836209Y-89756430D01*
X139836209Y-89756430D02*
X139721923Y-89756430D01*
X140331448Y-89756430D02*
X140331448Y-89223096D01*
X140331448Y-89375477D02*
X140369543Y-89299287D01*
X140369543Y-89299287D02*
X140407638Y-89261192D01*
X140407638Y-89261192D02*
X140483829Y-89223096D01*
X140483829Y-89223096D02*
X140560019Y-89223096D01*
X141131448Y-89718335D02*
X141055257Y-89756430D01*
X141055257Y-89756430D02*
X140902876Y-89756430D01*
X140902876Y-89756430D02*
X140826686Y-89718335D01*
X140826686Y-89718335D02*
X140788590Y-89642144D01*
X140788590Y-89642144D02*
X140788590Y-89337382D01*
X140788590Y-89337382D02*
X140826686Y-89261192D01*
X140826686Y-89261192D02*
X140902876Y-89223096D01*
X140902876Y-89223096D02*
X141055257Y-89223096D01*
X141055257Y-89223096D02*
X141131448Y-89261192D01*
X141131448Y-89261192D02*
X141169543Y-89337382D01*
X141169543Y-89337382D02*
X141169543Y-89413573D01*
X141169543Y-89413573D02*
X140788590Y-89489763D01*
X141474304Y-89718335D02*
X141550495Y-89756430D01*
X141550495Y-89756430D02*
X141702876Y-89756430D01*
X141702876Y-89756430D02*
X141779066Y-89718335D01*
X141779066Y-89718335D02*
X141817162Y-89642144D01*
X141817162Y-89642144D02*
X141817162Y-89604049D01*
X141817162Y-89604049D02*
X141779066Y-89527858D01*
X141779066Y-89527858D02*
X141702876Y-89489763D01*
X141702876Y-89489763D02*
X141588590Y-89489763D01*
X141588590Y-89489763D02*
X141512400Y-89451668D01*
X141512400Y-89451668D02*
X141474304Y-89375477D01*
X141474304Y-89375477D02*
X141474304Y-89337382D01*
X141474304Y-89337382D02*
X141512400Y-89261192D01*
X141512400Y-89261192D02*
X141588590Y-89223096D01*
X141588590Y-89223096D02*
X141702876Y-89223096D01*
X141702876Y-89223096D02*
X141779066Y-89261192D01*
X142502876Y-89718335D02*
X142426685Y-89756430D01*
X142426685Y-89756430D02*
X142274304Y-89756430D01*
X142274304Y-89756430D02*
X142198114Y-89718335D01*
X142198114Y-89718335D02*
X142160019Y-89680239D01*
X142160019Y-89680239D02*
X142121923Y-89604049D01*
X142121923Y-89604049D02*
X142121923Y-89375477D01*
X142121923Y-89375477D02*
X142160019Y-89299287D01*
X142160019Y-89299287D02*
X142198114Y-89261192D01*
X142198114Y-89261192D02*
X142274304Y-89223096D01*
X142274304Y-89223096D02*
X142426685Y-89223096D01*
X142426685Y-89223096D02*
X142502876Y-89261192D01*
X143150495Y-89718335D02*
X143074304Y-89756430D01*
X143074304Y-89756430D02*
X142921923Y-89756430D01*
X142921923Y-89756430D02*
X142845733Y-89718335D01*
X142845733Y-89718335D02*
X142807637Y-89642144D01*
X142807637Y-89642144D02*
X142807637Y-89337382D01*
X142807637Y-89337382D02*
X142845733Y-89261192D01*
X142845733Y-89261192D02*
X142921923Y-89223096D01*
X142921923Y-89223096D02*
X143074304Y-89223096D01*
X143074304Y-89223096D02*
X143150495Y-89261192D01*
X143150495Y-89261192D02*
X143188590Y-89337382D01*
X143188590Y-89337382D02*
X143188590Y-89413573D01*
X143188590Y-89413573D02*
X142807637Y-89489763D01*
X143531447Y-89223096D02*
X143531447Y-89756430D01*
X143531447Y-89299287D02*
X143569542Y-89261192D01*
X143569542Y-89261192D02*
X143645732Y-89223096D01*
X143645732Y-89223096D02*
X143760018Y-89223096D01*
X143760018Y-89223096D02*
X143836209Y-89261192D01*
X143836209Y-89261192D02*
X143874304Y-89337382D01*
X143874304Y-89337382D02*
X143874304Y-89756430D01*
X144598114Y-89718335D02*
X144521923Y-89756430D01*
X144521923Y-89756430D02*
X144369542Y-89756430D01*
X144369542Y-89756430D02*
X144293352Y-89718335D01*
X144293352Y-89718335D02*
X144255257Y-89680239D01*
X144255257Y-89680239D02*
X144217161Y-89604049D01*
X144217161Y-89604049D02*
X144217161Y-89375477D01*
X144217161Y-89375477D02*
X144255257Y-89299287D01*
X144255257Y-89299287D02*
X144293352Y-89261192D01*
X144293352Y-89261192D02*
X144369542Y-89223096D01*
X144369542Y-89223096D02*
X144521923Y-89223096D01*
X144521923Y-89223096D02*
X144598114Y-89261192D01*
X145245733Y-89718335D02*
X145169542Y-89756430D01*
X145169542Y-89756430D02*
X145017161Y-89756430D01*
X145017161Y-89756430D02*
X144940971Y-89718335D01*
X144940971Y-89718335D02*
X144902875Y-89642144D01*
X144902875Y-89642144D02*
X144902875Y-89337382D01*
X144902875Y-89337382D02*
X144940971Y-89261192D01*
X144940971Y-89261192D02*
X145017161Y-89223096D01*
X145017161Y-89223096D02*
X145169542Y-89223096D01*
X145169542Y-89223096D02*
X145245733Y-89261192D01*
X145245733Y-89261192D02*
X145283828Y-89337382D01*
X145283828Y-89337382D02*
X145283828Y-89413573D01*
X145283828Y-89413573D02*
X144902875Y-89489763D01*
X146502875Y-89337382D02*
X146617161Y-89375477D01*
X146617161Y-89375477D02*
X146655256Y-89413573D01*
X146655256Y-89413573D02*
X146693352Y-89489763D01*
X146693352Y-89489763D02*
X146693352Y-89604049D01*
X146693352Y-89604049D02*
X146655256Y-89680239D01*
X146655256Y-89680239D02*
X146617161Y-89718335D01*
X146617161Y-89718335D02*
X146540971Y-89756430D01*
X146540971Y-89756430D02*
X146236209Y-89756430D01*
X146236209Y-89756430D02*
X146236209Y-88956430D01*
X146236209Y-88956430D02*
X146502875Y-88956430D01*
X146502875Y-88956430D02*
X146579066Y-88994525D01*
X146579066Y-88994525D02*
X146617161Y-89032620D01*
X146617161Y-89032620D02*
X146655256Y-89108811D01*
X146655256Y-89108811D02*
X146655256Y-89185001D01*
X146655256Y-89185001D02*
X146617161Y-89261192D01*
X146617161Y-89261192D02*
X146579066Y-89299287D01*
X146579066Y-89299287D02*
X146502875Y-89337382D01*
X146502875Y-89337382D02*
X146236209Y-89337382D01*
X147150494Y-89756430D02*
X147074304Y-89718335D01*
X147074304Y-89718335D02*
X147036209Y-89680239D01*
X147036209Y-89680239D02*
X146998113Y-89604049D01*
X146998113Y-89604049D02*
X146998113Y-89375477D01*
X146998113Y-89375477D02*
X147036209Y-89299287D01*
X147036209Y-89299287D02*
X147074304Y-89261192D01*
X147074304Y-89261192D02*
X147150494Y-89223096D01*
X147150494Y-89223096D02*
X147264780Y-89223096D01*
X147264780Y-89223096D02*
X147340971Y-89261192D01*
X147340971Y-89261192D02*
X147379066Y-89299287D01*
X147379066Y-89299287D02*
X147417161Y-89375477D01*
X147417161Y-89375477D02*
X147417161Y-89604049D01*
X147417161Y-89604049D02*
X147379066Y-89680239D01*
X147379066Y-89680239D02*
X147340971Y-89718335D01*
X147340971Y-89718335D02*
X147264780Y-89756430D01*
X147264780Y-89756430D02*
X147150494Y-89756430D01*
X148102876Y-89756430D02*
X148102876Y-89337382D01*
X148102876Y-89337382D02*
X148064781Y-89261192D01*
X148064781Y-89261192D02*
X147988590Y-89223096D01*
X147988590Y-89223096D02*
X147836209Y-89223096D01*
X147836209Y-89223096D02*
X147760019Y-89261192D01*
X148102876Y-89718335D02*
X148026685Y-89756430D01*
X148026685Y-89756430D02*
X147836209Y-89756430D01*
X147836209Y-89756430D02*
X147760019Y-89718335D01*
X147760019Y-89718335D02*
X147721923Y-89642144D01*
X147721923Y-89642144D02*
X147721923Y-89565954D01*
X147721923Y-89565954D02*
X147760019Y-89489763D01*
X147760019Y-89489763D02*
X147836209Y-89451668D01*
X147836209Y-89451668D02*
X148026685Y-89451668D01*
X148026685Y-89451668D02*
X148102876Y-89413573D01*
X148483829Y-89756430D02*
X148483829Y-89223096D01*
X148483829Y-89375477D02*
X148521924Y-89299287D01*
X148521924Y-89299287D02*
X148560019Y-89261192D01*
X148560019Y-89261192D02*
X148636210Y-89223096D01*
X148636210Y-89223096D02*
X148712400Y-89223096D01*
X149321924Y-89756430D02*
X149321924Y-88956430D01*
X149321924Y-89718335D02*
X149245733Y-89756430D01*
X149245733Y-89756430D02*
X149093352Y-89756430D01*
X149093352Y-89756430D02*
X149017162Y-89718335D01*
X149017162Y-89718335D02*
X148979067Y-89680239D01*
X148979067Y-89680239D02*
X148940971Y-89604049D01*
X148940971Y-89604049D02*
X148940971Y-89375477D01*
X148940971Y-89375477D02*
X148979067Y-89299287D01*
X148979067Y-89299287D02*
X149017162Y-89261192D01*
X149017162Y-89261192D02*
X149093352Y-89223096D01*
X149093352Y-89223096D02*
X149245733Y-89223096D01*
X149245733Y-89223096D02*
X149321924Y-89261192D01*
X150769544Y-89756430D02*
X150502877Y-89375477D01*
X150312401Y-89756430D02*
X150312401Y-88956430D01*
X150312401Y-88956430D02*
X150617163Y-88956430D01*
X150617163Y-88956430D02*
X150693353Y-88994525D01*
X150693353Y-88994525D02*
X150731448Y-89032620D01*
X150731448Y-89032620D02*
X150769544Y-89108811D01*
X150769544Y-89108811D02*
X150769544Y-89223096D01*
X150769544Y-89223096D02*
X150731448Y-89299287D01*
X150731448Y-89299287D02*
X150693353Y-89337382D01*
X150693353Y-89337382D02*
X150617163Y-89375477D01*
X150617163Y-89375477D02*
X150312401Y-89375477D01*
X151417163Y-89718335D02*
X151340972Y-89756430D01*
X151340972Y-89756430D02*
X151188591Y-89756430D01*
X151188591Y-89756430D02*
X151112401Y-89718335D01*
X151112401Y-89718335D02*
X151074305Y-89642144D01*
X151074305Y-89642144D02*
X151074305Y-89337382D01*
X151074305Y-89337382D02*
X151112401Y-89261192D01*
X151112401Y-89261192D02*
X151188591Y-89223096D01*
X151188591Y-89223096D02*
X151340972Y-89223096D01*
X151340972Y-89223096D02*
X151417163Y-89261192D01*
X151417163Y-89261192D02*
X151455258Y-89337382D01*
X151455258Y-89337382D02*
X151455258Y-89413573D01*
X151455258Y-89413573D02*
X151074305Y-89489763D01*
X151721924Y-89223096D02*
X151912400Y-89756430D01*
X151912400Y-89756430D02*
X152102877Y-89223096D01*
X152369543Y-89032620D02*
X152407639Y-88994525D01*
X152407639Y-88994525D02*
X152483829Y-88956430D01*
X152483829Y-88956430D02*
X152674305Y-88956430D01*
X152674305Y-88956430D02*
X152750496Y-88994525D01*
X152750496Y-88994525D02*
X152788591Y-89032620D01*
X152788591Y-89032620D02*
X152826686Y-89108811D01*
X152826686Y-89108811D02*
X152826686Y-89185001D01*
X152826686Y-89185001D02*
X152788591Y-89299287D01*
X152788591Y-89299287D02*
X152331448Y-89756430D01*
X152331448Y-89756430D02*
X152826686Y-89756430D01*
X135417160Y-91044385D02*
X135417160Y-90244385D01*
X135417160Y-90244385D02*
X135683826Y-90815813D01*
X135683826Y-90815813D02*
X135950493Y-90244385D01*
X135950493Y-90244385D02*
X135950493Y-91044385D01*
X136674303Y-91044385D02*
X136674303Y-90625337D01*
X136674303Y-90625337D02*
X136636208Y-90549147D01*
X136636208Y-90549147D02*
X136560017Y-90511051D01*
X136560017Y-90511051D02*
X136407636Y-90511051D01*
X136407636Y-90511051D02*
X136331446Y-90549147D01*
X136674303Y-91006290D02*
X136598112Y-91044385D01*
X136598112Y-91044385D02*
X136407636Y-91044385D01*
X136407636Y-91044385D02*
X136331446Y-91006290D01*
X136331446Y-91006290D02*
X136293350Y-90930099D01*
X136293350Y-90930099D02*
X136293350Y-90853909D01*
X136293350Y-90853909D02*
X136331446Y-90777718D01*
X136331446Y-90777718D02*
X136407636Y-90739623D01*
X136407636Y-90739623D02*
X136598112Y-90739623D01*
X136598112Y-90739623D02*
X136674303Y-90701528D01*
X137055256Y-91044385D02*
X137055256Y-90511051D01*
X137055256Y-90663432D02*
X137093351Y-90587242D01*
X137093351Y-90587242D02*
X137131446Y-90549147D01*
X137131446Y-90549147D02*
X137207637Y-90511051D01*
X137207637Y-90511051D02*
X137283827Y-90511051D01*
X137512398Y-91006290D02*
X137588589Y-91044385D01*
X137588589Y-91044385D02*
X137740970Y-91044385D01*
X137740970Y-91044385D02*
X137817160Y-91006290D01*
X137817160Y-91006290D02*
X137855256Y-90930099D01*
X137855256Y-90930099D02*
X137855256Y-90892004D01*
X137855256Y-90892004D02*
X137817160Y-90815813D01*
X137817160Y-90815813D02*
X137740970Y-90777718D01*
X137740970Y-90777718D02*
X137626684Y-90777718D01*
X137626684Y-90777718D02*
X137550494Y-90739623D01*
X137550494Y-90739623D02*
X137512398Y-90663432D01*
X137512398Y-90663432D02*
X137512398Y-90625337D01*
X137512398Y-90625337D02*
X137550494Y-90549147D01*
X137550494Y-90549147D02*
X137626684Y-90511051D01*
X137626684Y-90511051D02*
X137740970Y-90511051D01*
X137740970Y-90511051D02*
X137817160Y-90549147D01*
X139264780Y-91044385D02*
X138998113Y-90663432D01*
X138807637Y-91044385D02*
X138807637Y-90244385D01*
X138807637Y-90244385D02*
X139112399Y-90244385D01*
X139112399Y-90244385D02*
X139188589Y-90282480D01*
X139188589Y-90282480D02*
X139226684Y-90320575D01*
X139226684Y-90320575D02*
X139264780Y-90396766D01*
X139264780Y-90396766D02*
X139264780Y-90511051D01*
X139264780Y-90511051D02*
X139226684Y-90587242D01*
X139226684Y-90587242D02*
X139188589Y-90625337D01*
X139188589Y-90625337D02*
X139112399Y-90663432D01*
X139112399Y-90663432D02*
X138807637Y-90663432D01*
X139721922Y-91044385D02*
X139645732Y-91006290D01*
X139645732Y-91006290D02*
X139607637Y-90968194D01*
X139607637Y-90968194D02*
X139569541Y-90892004D01*
X139569541Y-90892004D02*
X139569541Y-90663432D01*
X139569541Y-90663432D02*
X139607637Y-90587242D01*
X139607637Y-90587242D02*
X139645732Y-90549147D01*
X139645732Y-90549147D02*
X139721922Y-90511051D01*
X139721922Y-90511051D02*
X139836208Y-90511051D01*
X139836208Y-90511051D02*
X139912399Y-90549147D01*
X139912399Y-90549147D02*
X139950494Y-90587242D01*
X139950494Y-90587242D02*
X139988589Y-90663432D01*
X139988589Y-90663432D02*
X139988589Y-90892004D01*
X139988589Y-90892004D02*
X139950494Y-90968194D01*
X139950494Y-90968194D02*
X139912399Y-91006290D01*
X139912399Y-91006290D02*
X139836208Y-91044385D01*
X139836208Y-91044385D02*
X139721922Y-91044385D01*
X140255256Y-90511051D02*
X140445732Y-91044385D01*
X140445732Y-91044385D02*
X140636209Y-90511051D01*
X141245733Y-91006290D02*
X141169542Y-91044385D01*
X141169542Y-91044385D02*
X141017161Y-91044385D01*
X141017161Y-91044385D02*
X140940971Y-91006290D01*
X140940971Y-91006290D02*
X140902875Y-90930099D01*
X140902875Y-90930099D02*
X140902875Y-90625337D01*
X140902875Y-90625337D02*
X140940971Y-90549147D01*
X140940971Y-90549147D02*
X141017161Y-90511051D01*
X141017161Y-90511051D02*
X141169542Y-90511051D01*
X141169542Y-90511051D02*
X141245733Y-90549147D01*
X141245733Y-90549147D02*
X141283828Y-90625337D01*
X141283828Y-90625337D02*
X141283828Y-90701528D01*
X141283828Y-90701528D02*
X140902875Y-90777718D01*
X141626685Y-91044385D02*
X141626685Y-90511051D01*
X141626685Y-90663432D02*
X141664780Y-90587242D01*
X141664780Y-90587242D02*
X141702875Y-90549147D01*
X141702875Y-90549147D02*
X141779066Y-90511051D01*
X141779066Y-90511051D02*
X141855256Y-90511051D01*
X142731447Y-91044385D02*
X142731447Y-90244385D01*
X142731447Y-90244385D02*
X142921923Y-90244385D01*
X142921923Y-90244385D02*
X143036209Y-90282480D01*
X143036209Y-90282480D02*
X143112399Y-90358670D01*
X143112399Y-90358670D02*
X143150494Y-90434861D01*
X143150494Y-90434861D02*
X143188590Y-90587242D01*
X143188590Y-90587242D02*
X143188590Y-90701528D01*
X143188590Y-90701528D02*
X143150494Y-90853909D01*
X143150494Y-90853909D02*
X143112399Y-90930099D01*
X143112399Y-90930099D02*
X143036209Y-91006290D01*
X143036209Y-91006290D02*
X142921923Y-91044385D01*
X142921923Y-91044385D02*
X142731447Y-91044385D01*
X143836209Y-91006290D02*
X143760018Y-91044385D01*
X143760018Y-91044385D02*
X143607637Y-91044385D01*
X143607637Y-91044385D02*
X143531447Y-91006290D01*
X143531447Y-91006290D02*
X143493351Y-90930099D01*
X143493351Y-90930099D02*
X143493351Y-90625337D01*
X143493351Y-90625337D02*
X143531447Y-90549147D01*
X143531447Y-90549147D02*
X143607637Y-90511051D01*
X143607637Y-90511051D02*
X143760018Y-90511051D01*
X143760018Y-90511051D02*
X143836209Y-90549147D01*
X143836209Y-90549147D02*
X143874304Y-90625337D01*
X143874304Y-90625337D02*
X143874304Y-90701528D01*
X143874304Y-90701528D02*
X143493351Y-90777718D01*
X144179065Y-91006290D02*
X144255256Y-91044385D01*
X144255256Y-91044385D02*
X144407637Y-91044385D01*
X144407637Y-91044385D02*
X144483827Y-91006290D01*
X144483827Y-91006290D02*
X144521923Y-90930099D01*
X144521923Y-90930099D02*
X144521923Y-90892004D01*
X144521923Y-90892004D02*
X144483827Y-90815813D01*
X144483827Y-90815813D02*
X144407637Y-90777718D01*
X144407637Y-90777718D02*
X144293351Y-90777718D01*
X144293351Y-90777718D02*
X144217161Y-90739623D01*
X144217161Y-90739623D02*
X144179065Y-90663432D01*
X144179065Y-90663432D02*
X144179065Y-90625337D01*
X144179065Y-90625337D02*
X144217161Y-90549147D01*
X144217161Y-90549147D02*
X144293351Y-90511051D01*
X144293351Y-90511051D02*
X144407637Y-90511051D01*
X144407637Y-90511051D02*
X144483827Y-90549147D01*
X144864780Y-91044385D02*
X144864780Y-90511051D01*
X144864780Y-90244385D02*
X144826684Y-90282480D01*
X144826684Y-90282480D02*
X144864780Y-90320575D01*
X144864780Y-90320575D02*
X144902875Y-90282480D01*
X144902875Y-90282480D02*
X144864780Y-90244385D01*
X144864780Y-90244385D02*
X144864780Y-90320575D01*
X145588589Y-90511051D02*
X145588589Y-91158670D01*
X145588589Y-91158670D02*
X145550494Y-91234861D01*
X145550494Y-91234861D02*
X145512398Y-91272956D01*
X145512398Y-91272956D02*
X145436208Y-91311051D01*
X145436208Y-91311051D02*
X145321922Y-91311051D01*
X145321922Y-91311051D02*
X145245732Y-91272956D01*
X145588589Y-91006290D02*
X145512398Y-91044385D01*
X145512398Y-91044385D02*
X145360017Y-91044385D01*
X145360017Y-91044385D02*
X145283827Y-91006290D01*
X145283827Y-91006290D02*
X145245732Y-90968194D01*
X145245732Y-90968194D02*
X145207636Y-90892004D01*
X145207636Y-90892004D02*
X145207636Y-90663432D01*
X145207636Y-90663432D02*
X145245732Y-90587242D01*
X145245732Y-90587242D02*
X145283827Y-90549147D01*
X145283827Y-90549147D02*
X145360017Y-90511051D01*
X145360017Y-90511051D02*
X145512398Y-90511051D01*
X145512398Y-90511051D02*
X145588589Y-90549147D01*
X145969542Y-90511051D02*
X145969542Y-91044385D01*
X145969542Y-90587242D02*
X146007637Y-90549147D01*
X146007637Y-90549147D02*
X146083827Y-90511051D01*
X146083827Y-90511051D02*
X146198113Y-90511051D01*
X146198113Y-90511051D02*
X146274304Y-90549147D01*
X146274304Y-90549147D02*
X146312399Y-90625337D01*
X146312399Y-90625337D02*
X146312399Y-91044385D01*
X147188590Y-90244385D02*
X147645733Y-90244385D01*
X147417161Y-91044385D02*
X147417161Y-90244385D01*
X148217162Y-91006290D02*
X148140971Y-91044385D01*
X148140971Y-91044385D02*
X147988590Y-91044385D01*
X147988590Y-91044385D02*
X147912400Y-91006290D01*
X147912400Y-91006290D02*
X147874304Y-90930099D01*
X147874304Y-90930099D02*
X147874304Y-90625337D01*
X147874304Y-90625337D02*
X147912400Y-90549147D01*
X147912400Y-90549147D02*
X147988590Y-90511051D01*
X147988590Y-90511051D02*
X148140971Y-90511051D01*
X148140971Y-90511051D02*
X148217162Y-90549147D01*
X148217162Y-90549147D02*
X148255257Y-90625337D01*
X148255257Y-90625337D02*
X148255257Y-90701528D01*
X148255257Y-90701528D02*
X147874304Y-90777718D01*
X148940971Y-91044385D02*
X148940971Y-90625337D01*
X148940971Y-90625337D02*
X148902876Y-90549147D01*
X148902876Y-90549147D02*
X148826685Y-90511051D01*
X148826685Y-90511051D02*
X148674304Y-90511051D01*
X148674304Y-90511051D02*
X148598114Y-90549147D01*
X148940971Y-91006290D02*
X148864780Y-91044385D01*
X148864780Y-91044385D02*
X148674304Y-91044385D01*
X148674304Y-91044385D02*
X148598114Y-91006290D01*
X148598114Y-91006290D02*
X148560018Y-90930099D01*
X148560018Y-90930099D02*
X148560018Y-90853909D01*
X148560018Y-90853909D02*
X148598114Y-90777718D01*
X148598114Y-90777718D02*
X148674304Y-90739623D01*
X148674304Y-90739623D02*
X148864780Y-90739623D01*
X148864780Y-90739623D02*
X148940971Y-90701528D01*
X149321924Y-91044385D02*
X149321924Y-90511051D01*
X149321924Y-90587242D02*
X149360019Y-90549147D01*
X149360019Y-90549147D02*
X149436209Y-90511051D01*
X149436209Y-90511051D02*
X149550495Y-90511051D01*
X149550495Y-90511051D02*
X149626686Y-90549147D01*
X149626686Y-90549147D02*
X149664781Y-90625337D01*
X149664781Y-90625337D02*
X149664781Y-91044385D01*
X149664781Y-90625337D02*
X149702876Y-90549147D01*
X149702876Y-90549147D02*
X149779067Y-90511051D01*
X149779067Y-90511051D02*
X149893352Y-90511051D01*
X149893352Y-90511051D02*
X149969543Y-90549147D01*
X149969543Y-90549147D02*
X150007638Y-90625337D01*
X150007638Y-90625337D02*
X150007638Y-91044385D01*
X135417160Y-92332340D02*
X135417160Y-91532340D01*
X135417160Y-91532340D02*
X135683826Y-92103768D01*
X135683826Y-92103768D02*
X135950493Y-91532340D01*
X135950493Y-91532340D02*
X135950493Y-92332340D01*
X136331446Y-92332340D02*
X136331446Y-91799006D01*
X136331446Y-91532340D02*
X136293350Y-91570435D01*
X136293350Y-91570435D02*
X136331446Y-91608530D01*
X136331446Y-91608530D02*
X136369541Y-91570435D01*
X136369541Y-91570435D02*
X136331446Y-91532340D01*
X136331446Y-91532340D02*
X136331446Y-91608530D01*
X136674302Y-92294245D02*
X136750493Y-92332340D01*
X136750493Y-92332340D02*
X136902874Y-92332340D01*
X136902874Y-92332340D02*
X136979064Y-92294245D01*
X136979064Y-92294245D02*
X137017160Y-92218054D01*
X137017160Y-92218054D02*
X137017160Y-92179959D01*
X137017160Y-92179959D02*
X136979064Y-92103768D01*
X136979064Y-92103768D02*
X136902874Y-92065673D01*
X136902874Y-92065673D02*
X136788588Y-92065673D01*
X136788588Y-92065673D02*
X136712398Y-92027578D01*
X136712398Y-92027578D02*
X136674302Y-91951387D01*
X136674302Y-91951387D02*
X136674302Y-91913292D01*
X136674302Y-91913292D02*
X136712398Y-91837102D01*
X136712398Y-91837102D02*
X136788588Y-91799006D01*
X136788588Y-91799006D02*
X136902874Y-91799006D01*
X136902874Y-91799006D02*
X136979064Y-91837102D01*
X137321921Y-92294245D02*
X137398112Y-92332340D01*
X137398112Y-92332340D02*
X137550493Y-92332340D01*
X137550493Y-92332340D02*
X137626683Y-92294245D01*
X137626683Y-92294245D02*
X137664779Y-92218054D01*
X137664779Y-92218054D02*
X137664779Y-92179959D01*
X137664779Y-92179959D02*
X137626683Y-92103768D01*
X137626683Y-92103768D02*
X137550493Y-92065673D01*
X137550493Y-92065673D02*
X137436207Y-92065673D01*
X137436207Y-92065673D02*
X137360017Y-92027578D01*
X137360017Y-92027578D02*
X137321921Y-91951387D01*
X137321921Y-91951387D02*
X137321921Y-91913292D01*
X137321921Y-91913292D02*
X137360017Y-91837102D01*
X137360017Y-91837102D02*
X137436207Y-91799006D01*
X137436207Y-91799006D02*
X137550493Y-91799006D01*
X137550493Y-91799006D02*
X137626683Y-91837102D01*
X138121921Y-92332340D02*
X138045731Y-92294245D01*
X138045731Y-92294245D02*
X138007636Y-92256149D01*
X138007636Y-92256149D02*
X137969540Y-92179959D01*
X137969540Y-92179959D02*
X137969540Y-91951387D01*
X137969540Y-91951387D02*
X138007636Y-91875197D01*
X138007636Y-91875197D02*
X138045731Y-91837102D01*
X138045731Y-91837102D02*
X138121921Y-91799006D01*
X138121921Y-91799006D02*
X138236207Y-91799006D01*
X138236207Y-91799006D02*
X138312398Y-91837102D01*
X138312398Y-91837102D02*
X138350493Y-91875197D01*
X138350493Y-91875197D02*
X138388588Y-91951387D01*
X138388588Y-91951387D02*
X138388588Y-92179959D01*
X138388588Y-92179959D02*
X138350493Y-92256149D01*
X138350493Y-92256149D02*
X138312398Y-92294245D01*
X138312398Y-92294245D02*
X138236207Y-92332340D01*
X138236207Y-92332340D02*
X138121921Y-92332340D01*
X139074303Y-91799006D02*
X139074303Y-92332340D01*
X138731446Y-91799006D02*
X138731446Y-92218054D01*
X138731446Y-92218054D02*
X138769541Y-92294245D01*
X138769541Y-92294245D02*
X138845731Y-92332340D01*
X138845731Y-92332340D02*
X138960017Y-92332340D01*
X138960017Y-92332340D02*
X139036208Y-92294245D01*
X139036208Y-92294245D02*
X139074303Y-92256149D01*
X139455256Y-92332340D02*
X139455256Y-91799006D01*
X139455256Y-91951387D02*
X139493351Y-91875197D01*
X139493351Y-91875197D02*
X139531446Y-91837102D01*
X139531446Y-91837102D02*
X139607637Y-91799006D01*
X139607637Y-91799006D02*
X139683827Y-91799006D01*
X139950494Y-92332340D02*
X139950494Y-91799006D01*
X139950494Y-91532340D02*
X139912398Y-91570435D01*
X139912398Y-91570435D02*
X139950494Y-91608530D01*
X139950494Y-91608530D02*
X139988589Y-91570435D01*
X139988589Y-91570435D02*
X139950494Y-91532340D01*
X139950494Y-91532340D02*
X139950494Y-91608530D01*
X140902874Y-92294245D02*
X141017160Y-92332340D01*
X141017160Y-92332340D02*
X141207636Y-92332340D01*
X141207636Y-92332340D02*
X141283827Y-92294245D01*
X141283827Y-92294245D02*
X141321922Y-92256149D01*
X141321922Y-92256149D02*
X141360017Y-92179959D01*
X141360017Y-92179959D02*
X141360017Y-92103768D01*
X141360017Y-92103768D02*
X141321922Y-92027578D01*
X141321922Y-92027578D02*
X141283827Y-91989483D01*
X141283827Y-91989483D02*
X141207636Y-91951387D01*
X141207636Y-91951387D02*
X141055255Y-91913292D01*
X141055255Y-91913292D02*
X140979065Y-91875197D01*
X140979065Y-91875197D02*
X140940970Y-91837102D01*
X140940970Y-91837102D02*
X140902874Y-91760911D01*
X140902874Y-91760911D02*
X140902874Y-91684721D01*
X140902874Y-91684721D02*
X140940970Y-91608530D01*
X140940970Y-91608530D02*
X140979065Y-91570435D01*
X140979065Y-91570435D02*
X141055255Y-91532340D01*
X141055255Y-91532340D02*
X141245732Y-91532340D01*
X141245732Y-91532340D02*
X141360017Y-91570435D01*
X142350494Y-92332340D02*
X142312399Y-92332340D01*
X142312399Y-92332340D02*
X142236208Y-92294245D01*
X142236208Y-92294245D02*
X142121922Y-92179959D01*
X142121922Y-92179959D02*
X141931446Y-91951387D01*
X141931446Y-91951387D02*
X141855256Y-91837102D01*
X141855256Y-91837102D02*
X141817160Y-91722816D01*
X141817160Y-91722816D02*
X141817160Y-91646625D01*
X141817160Y-91646625D02*
X141855256Y-91570435D01*
X141855256Y-91570435D02*
X141931446Y-91532340D01*
X141931446Y-91532340D02*
X141969541Y-91532340D01*
X141969541Y-91532340D02*
X142045732Y-91570435D01*
X142045732Y-91570435D02*
X142083827Y-91646625D01*
X142083827Y-91646625D02*
X142083827Y-91684721D01*
X142083827Y-91684721D02*
X142045732Y-91760911D01*
X142045732Y-91760911D02*
X142007637Y-91799006D01*
X142007637Y-91799006D02*
X141779065Y-91951387D01*
X141779065Y-91951387D02*
X141740970Y-91989483D01*
X141740970Y-91989483D02*
X141702875Y-92065673D01*
X141702875Y-92065673D02*
X141702875Y-92179959D01*
X141702875Y-92179959D02*
X141740970Y-92256149D01*
X141740970Y-92256149D02*
X141779065Y-92294245D01*
X141779065Y-92294245D02*
X141855256Y-92332340D01*
X141855256Y-92332340D02*
X141969541Y-92332340D01*
X141969541Y-92332340D02*
X142045732Y-92294245D01*
X142045732Y-92294245D02*
X142083827Y-92256149D01*
X142083827Y-92256149D02*
X142198113Y-92103768D01*
X142198113Y-92103768D02*
X142236208Y-91989483D01*
X142236208Y-91989483D02*
X142236208Y-91913292D01*
X142579065Y-91532340D02*
X143036208Y-91532340D01*
X142807636Y-92332340D02*
X142807636Y-91532340D01*
X143340970Y-92294245D02*
X143340970Y-92332340D01*
X143340970Y-92332340D02*
X143302875Y-92408530D01*
X143302875Y-92408530D02*
X143264779Y-92446625D01*
X144255255Y-91608530D02*
X144293351Y-91570435D01*
X144293351Y-91570435D02*
X144369541Y-91532340D01*
X144369541Y-91532340D02*
X144560017Y-91532340D01*
X144560017Y-91532340D02*
X144636208Y-91570435D01*
X144636208Y-91570435D02*
X144674303Y-91608530D01*
X144674303Y-91608530D02*
X144712398Y-91684721D01*
X144712398Y-91684721D02*
X144712398Y-91760911D01*
X144712398Y-91760911D02*
X144674303Y-91875197D01*
X144674303Y-91875197D02*
X144217160Y-92332340D01*
X144217160Y-92332340D02*
X144712398Y-92332340D01*
X145207637Y-91532340D02*
X145283827Y-91532340D01*
X145283827Y-91532340D02*
X145360018Y-91570435D01*
X145360018Y-91570435D02*
X145398113Y-91608530D01*
X145398113Y-91608530D02*
X145436208Y-91684721D01*
X145436208Y-91684721D02*
X145474303Y-91837102D01*
X145474303Y-91837102D02*
X145474303Y-92027578D01*
X145474303Y-92027578D02*
X145436208Y-92179959D01*
X145436208Y-92179959D02*
X145398113Y-92256149D01*
X145398113Y-92256149D02*
X145360018Y-92294245D01*
X145360018Y-92294245D02*
X145283827Y-92332340D01*
X145283827Y-92332340D02*
X145207637Y-92332340D01*
X145207637Y-92332340D02*
X145131446Y-92294245D01*
X145131446Y-92294245D02*
X145093351Y-92256149D01*
X145093351Y-92256149D02*
X145055256Y-92179959D01*
X145055256Y-92179959D02*
X145017160Y-92027578D01*
X145017160Y-92027578D02*
X145017160Y-91837102D01*
X145017160Y-91837102D02*
X145055256Y-91684721D01*
X145055256Y-91684721D02*
X145093351Y-91608530D01*
X145093351Y-91608530D02*
X145131446Y-91570435D01*
X145131446Y-91570435D02*
X145207637Y-91532340D01*
X145779065Y-91608530D02*
X145817161Y-91570435D01*
X145817161Y-91570435D02*
X145893351Y-91532340D01*
X145893351Y-91532340D02*
X146083827Y-91532340D01*
X146083827Y-91532340D02*
X146160018Y-91570435D01*
X146160018Y-91570435D02*
X146198113Y-91608530D01*
X146198113Y-91608530D02*
X146236208Y-91684721D01*
X146236208Y-91684721D02*
X146236208Y-91760911D01*
X146236208Y-91760911D02*
X146198113Y-91875197D01*
X146198113Y-91875197D02*
X145740970Y-92332340D01*
X145740970Y-92332340D02*
X146236208Y-92332340D01*
X146960018Y-91532340D02*
X146579066Y-91532340D01*
X146579066Y-91532340D02*
X146540970Y-91913292D01*
X146540970Y-91913292D02*
X146579066Y-91875197D01*
X146579066Y-91875197D02*
X146655256Y-91837102D01*
X146655256Y-91837102D02*
X146845732Y-91837102D01*
X146845732Y-91837102D02*
X146921923Y-91875197D01*
X146921923Y-91875197D02*
X146960018Y-91913292D01*
X146960018Y-91913292D02*
X146998113Y-91989483D01*
X146998113Y-91989483D02*
X146998113Y-92179959D01*
X146998113Y-92179959D02*
X146960018Y-92256149D01*
X146960018Y-92256149D02*
X146921923Y-92294245D01*
X146921923Y-92294245D02*
X146845732Y-92332340D01*
X146845732Y-92332340D02*
X146655256Y-92332340D01*
X146655256Y-92332340D02*
X146579066Y-92294245D01*
X146579066Y-92294245D02*
X146540970Y-92256149D01*
X135645731Y-92820295D02*
X135645731Y-93391723D01*
X135645731Y-93391723D02*
X135607636Y-93506009D01*
X135607636Y-93506009D02*
X135531445Y-93582200D01*
X135531445Y-93582200D02*
X135417160Y-93620295D01*
X135417160Y-93620295D02*
X135340969Y-93620295D01*
X136331446Y-93582200D02*
X136255255Y-93620295D01*
X136255255Y-93620295D02*
X136102874Y-93620295D01*
X136102874Y-93620295D02*
X136026684Y-93582200D01*
X136026684Y-93582200D02*
X135988588Y-93506009D01*
X135988588Y-93506009D02*
X135988588Y-93201247D01*
X135988588Y-93201247D02*
X136026684Y-93125057D01*
X136026684Y-93125057D02*
X136102874Y-93086961D01*
X136102874Y-93086961D02*
X136255255Y-93086961D01*
X136255255Y-93086961D02*
X136331446Y-93125057D01*
X136331446Y-93125057D02*
X136369541Y-93201247D01*
X136369541Y-93201247D02*
X136369541Y-93277438D01*
X136369541Y-93277438D02*
X135988588Y-93353628D01*
X136674302Y-93582200D02*
X136750493Y-93620295D01*
X136750493Y-93620295D02*
X136902874Y-93620295D01*
X136902874Y-93620295D02*
X136979064Y-93582200D01*
X136979064Y-93582200D02*
X137017160Y-93506009D01*
X137017160Y-93506009D02*
X137017160Y-93467914D01*
X137017160Y-93467914D02*
X136979064Y-93391723D01*
X136979064Y-93391723D02*
X136902874Y-93353628D01*
X136902874Y-93353628D02*
X136788588Y-93353628D01*
X136788588Y-93353628D02*
X136712398Y-93315533D01*
X136712398Y-93315533D02*
X136674302Y-93239342D01*
X136674302Y-93239342D02*
X136674302Y-93201247D01*
X136674302Y-93201247D02*
X136712398Y-93125057D01*
X136712398Y-93125057D02*
X136788588Y-93086961D01*
X136788588Y-93086961D02*
X136902874Y-93086961D01*
X136902874Y-93086961D02*
X136979064Y-93125057D01*
X137321921Y-93582200D02*
X137398112Y-93620295D01*
X137398112Y-93620295D02*
X137550493Y-93620295D01*
X137550493Y-93620295D02*
X137626683Y-93582200D01*
X137626683Y-93582200D02*
X137664779Y-93506009D01*
X137664779Y-93506009D02*
X137664779Y-93467914D01*
X137664779Y-93467914D02*
X137626683Y-93391723D01*
X137626683Y-93391723D02*
X137550493Y-93353628D01*
X137550493Y-93353628D02*
X137436207Y-93353628D01*
X137436207Y-93353628D02*
X137360017Y-93315533D01*
X137360017Y-93315533D02*
X137321921Y-93239342D01*
X137321921Y-93239342D02*
X137321921Y-93201247D01*
X137321921Y-93201247D02*
X137360017Y-93125057D01*
X137360017Y-93125057D02*
X137436207Y-93086961D01*
X137436207Y-93086961D02*
X137550493Y-93086961D01*
X137550493Y-93086961D02*
X137626683Y-93125057D01*
X138312398Y-93582200D02*
X138236207Y-93620295D01*
X138236207Y-93620295D02*
X138083826Y-93620295D01*
X138083826Y-93620295D02*
X138007636Y-93582200D01*
X138007636Y-93582200D02*
X137969540Y-93506009D01*
X137969540Y-93506009D02*
X137969540Y-93201247D01*
X137969540Y-93201247D02*
X138007636Y-93125057D01*
X138007636Y-93125057D02*
X138083826Y-93086961D01*
X138083826Y-93086961D02*
X138236207Y-93086961D01*
X138236207Y-93086961D02*
X138312398Y-93125057D01*
X138312398Y-93125057D02*
X138350493Y-93201247D01*
X138350493Y-93201247D02*
X138350493Y-93277438D01*
X138350493Y-93277438D02*
X137969540Y-93353628D01*
X139302874Y-93620295D02*
X139302874Y-92820295D01*
X139302874Y-92820295D02*
X139493350Y-92820295D01*
X139493350Y-92820295D02*
X139607636Y-92858390D01*
X139607636Y-92858390D02*
X139683826Y-92934580D01*
X139683826Y-92934580D02*
X139721921Y-93010771D01*
X139721921Y-93010771D02*
X139760017Y-93163152D01*
X139760017Y-93163152D02*
X139760017Y-93277438D01*
X139760017Y-93277438D02*
X139721921Y-93429819D01*
X139721921Y-93429819D02*
X139683826Y-93506009D01*
X139683826Y-93506009D02*
X139607636Y-93582200D01*
X139607636Y-93582200D02*
X139493350Y-93620295D01*
X139493350Y-93620295D02*
X139302874Y-93620295D01*
X140407636Y-93582200D02*
X140331445Y-93620295D01*
X140331445Y-93620295D02*
X140179064Y-93620295D01*
X140179064Y-93620295D02*
X140102874Y-93582200D01*
X140102874Y-93582200D02*
X140064778Y-93506009D01*
X140064778Y-93506009D02*
X140064778Y-93201247D01*
X140064778Y-93201247D02*
X140102874Y-93125057D01*
X140102874Y-93125057D02*
X140179064Y-93086961D01*
X140179064Y-93086961D02*
X140331445Y-93086961D01*
X140331445Y-93086961D02*
X140407636Y-93125057D01*
X140407636Y-93125057D02*
X140445731Y-93201247D01*
X140445731Y-93201247D02*
X140445731Y-93277438D01*
X140445731Y-93277438D02*
X140064778Y-93353628D01*
X141131445Y-93086961D02*
X141131445Y-93620295D01*
X140788588Y-93086961D02*
X140788588Y-93506009D01*
X140788588Y-93506009D02*
X140826683Y-93582200D01*
X140826683Y-93582200D02*
X140902873Y-93620295D01*
X140902873Y-93620295D02*
X141017159Y-93620295D01*
X141017159Y-93620295D02*
X141093350Y-93582200D01*
X141093350Y-93582200D02*
X141131445Y-93544104D01*
X141817160Y-93582200D02*
X141740969Y-93620295D01*
X141740969Y-93620295D02*
X141588588Y-93620295D01*
X141588588Y-93620295D02*
X141512398Y-93582200D01*
X141512398Y-93582200D02*
X141474302Y-93506009D01*
X141474302Y-93506009D02*
X141474302Y-93201247D01*
X141474302Y-93201247D02*
X141512398Y-93125057D01*
X141512398Y-93125057D02*
X141588588Y-93086961D01*
X141588588Y-93086961D02*
X141740969Y-93086961D01*
X141740969Y-93086961D02*
X141817160Y-93125057D01*
X141817160Y-93125057D02*
X141855255Y-93201247D01*
X141855255Y-93201247D02*
X141855255Y-93277438D01*
X141855255Y-93277438D02*
X141474302Y-93353628D01*
X142312397Y-93620295D02*
X142236207Y-93582200D01*
X142236207Y-93582200D02*
X142198112Y-93506009D01*
X142198112Y-93506009D02*
X142198112Y-92820295D01*
X136249580Y-56133809D02*
X136297200Y-56181428D01*
X136297200Y-56181428D02*
X136344819Y-56324285D01*
X136344819Y-56324285D02*
X136344819Y-56419523D01*
X136344819Y-56419523D02*
X136297200Y-56562380D01*
X136297200Y-56562380D02*
X136201961Y-56657618D01*
X136201961Y-56657618D02*
X136106723Y-56705237D01*
X136106723Y-56705237D02*
X135916247Y-56752856D01*
X135916247Y-56752856D02*
X135773390Y-56752856D01*
X135773390Y-56752856D02*
X135582914Y-56705237D01*
X135582914Y-56705237D02*
X135487676Y-56657618D01*
X135487676Y-56657618D02*
X135392438Y-56562380D01*
X135392438Y-56562380D02*
X135344819Y-56419523D01*
X135344819Y-56419523D02*
X135344819Y-56324285D01*
X135344819Y-56324285D02*
X135392438Y-56181428D01*
X135392438Y-56181428D02*
X135440057Y-56133809D01*
X136344819Y-55562380D02*
X136297200Y-55657618D01*
X136297200Y-55657618D02*
X136249580Y-55705237D01*
X136249580Y-55705237D02*
X136154342Y-55752856D01*
X136154342Y-55752856D02*
X135868628Y-55752856D01*
X135868628Y-55752856D02*
X135773390Y-55705237D01*
X135773390Y-55705237D02*
X135725771Y-55657618D01*
X135725771Y-55657618D02*
X135678152Y-55562380D01*
X135678152Y-55562380D02*
X135678152Y-55419523D01*
X135678152Y-55419523D02*
X135725771Y-55324285D01*
X135725771Y-55324285D02*
X135773390Y-55276666D01*
X135773390Y-55276666D02*
X135868628Y-55229047D01*
X135868628Y-55229047D02*
X136154342Y-55229047D01*
X136154342Y-55229047D02*
X136249580Y-55276666D01*
X136249580Y-55276666D02*
X136297200Y-55324285D01*
X136297200Y-55324285D02*
X136344819Y-55419523D01*
X136344819Y-55419523D02*
X136344819Y-55562380D01*
X135678152Y-54800475D02*
X136344819Y-54800475D01*
X135773390Y-54800475D02*
X135725771Y-54752856D01*
X135725771Y-54752856D02*
X135678152Y-54657618D01*
X135678152Y-54657618D02*
X135678152Y-54514761D01*
X135678152Y-54514761D02*
X135725771Y-54419523D01*
X135725771Y-54419523D02*
X135821009Y-54371904D01*
X135821009Y-54371904D02*
X136344819Y-54371904D01*
X135678152Y-53895713D02*
X136344819Y-53895713D01*
X135773390Y-53895713D02*
X135725771Y-53848094D01*
X135725771Y-53848094D02*
X135678152Y-53752856D01*
X135678152Y-53752856D02*
X135678152Y-53609999D01*
X135678152Y-53609999D02*
X135725771Y-53514761D01*
X135725771Y-53514761D02*
X135821009Y-53467142D01*
X135821009Y-53467142D02*
X136344819Y-53467142D01*
X136344819Y-52467142D02*
X136344819Y-53038570D01*
X136344819Y-52752856D02*
X135344819Y-52752856D01*
X135344819Y-52752856D02*
X135487676Y-52848094D01*
X135487676Y-52848094D02*
X135582914Y-52943332D01*
X135582914Y-52943332D02*
X135630533Y-53038570D01*
X132865905Y-86179819D02*
X132865905Y-85179819D01*
X132865905Y-85179819D02*
X133104000Y-85179819D01*
X133104000Y-85179819D02*
X133246857Y-85227438D01*
X133246857Y-85227438D02*
X133342095Y-85322676D01*
X133342095Y-85322676D02*
X133389714Y-85417914D01*
X133389714Y-85417914D02*
X133437333Y-85608390D01*
X133437333Y-85608390D02*
X133437333Y-85751247D01*
X133437333Y-85751247D02*
X133389714Y-85941723D01*
X133389714Y-85941723D02*
X133342095Y-86036961D01*
X133342095Y-86036961D02*
X133246857Y-86132200D01*
X133246857Y-86132200D02*
X133104000Y-86179819D01*
X133104000Y-86179819D02*
X132865905Y-86179819D01*
X133770667Y-85179819D02*
X134437333Y-85179819D01*
X134437333Y-85179819D02*
X134008762Y-86179819D01*
X150645905Y-57096819D02*
X150645905Y-56096819D01*
X150645905Y-56096819D02*
X150884000Y-56096819D01*
X150884000Y-56096819D02*
X151026857Y-56144438D01*
X151026857Y-56144438D02*
X151122095Y-56239676D01*
X151122095Y-56239676D02*
X151169714Y-56334914D01*
X151169714Y-56334914D02*
X151217333Y-56525390D01*
X151217333Y-56525390D02*
X151217333Y-56668247D01*
X151217333Y-56668247D02*
X151169714Y-56858723D01*
X151169714Y-56858723D02*
X151122095Y-56953961D01*
X151122095Y-56953961D02*
X151026857Y-57049200D01*
X151026857Y-57049200D02*
X150884000Y-57096819D01*
X150884000Y-57096819D02*
X150645905Y-57096819D01*
X151598286Y-56192057D02*
X151645905Y-56144438D01*
X151645905Y-56144438D02*
X151741143Y-56096819D01*
X151741143Y-56096819D02*
X151979238Y-56096819D01*
X151979238Y-56096819D02*
X152074476Y-56144438D01*
X152074476Y-56144438D02*
X152122095Y-56192057D01*
X152122095Y-56192057D02*
X152169714Y-56287295D01*
X152169714Y-56287295D02*
X152169714Y-56382533D01*
X152169714Y-56382533D02*
X152122095Y-56525390D01*
X152122095Y-56525390D02*
X151550667Y-57096819D01*
X151550667Y-57096819D02*
X152169714Y-57096819D01*
X159789905Y-77162819D02*
X159789905Y-76162819D01*
X159789905Y-76162819D02*
X160028000Y-76162819D01*
X160028000Y-76162819D02*
X160170857Y-76210438D01*
X160170857Y-76210438D02*
X160266095Y-76305676D01*
X160266095Y-76305676D02*
X160313714Y-76400914D01*
X160313714Y-76400914D02*
X160361333Y-76591390D01*
X160361333Y-76591390D02*
X160361333Y-76734247D01*
X160361333Y-76734247D02*
X160313714Y-76924723D01*
X160313714Y-76924723D02*
X160266095Y-77019961D01*
X160266095Y-77019961D02*
X160170857Y-77115200D01*
X160170857Y-77115200D02*
X160028000Y-77162819D01*
X160028000Y-77162819D02*
X159789905Y-77162819D01*
X161266095Y-76162819D02*
X160789905Y-76162819D01*
X160789905Y-76162819D02*
X160742286Y-76639009D01*
X160742286Y-76639009D02*
X160789905Y-76591390D01*
X160789905Y-76591390D02*
X160885143Y-76543771D01*
X160885143Y-76543771D02*
X161123238Y-76543771D01*
X161123238Y-76543771D02*
X161218476Y-76591390D01*
X161218476Y-76591390D02*
X161266095Y-76639009D01*
X161266095Y-76639009D02*
X161313714Y-76734247D01*
X161313714Y-76734247D02*
X161313714Y-76972342D01*
X161313714Y-76972342D02*
X161266095Y-77067580D01*
X161266095Y-77067580D02*
X161218476Y-77115200D01*
X161218476Y-77115200D02*
X161123238Y-77162819D01*
X161123238Y-77162819D02*
X160885143Y-77162819D01*
X160885143Y-77162819D02*
X160789905Y-77115200D01*
X160789905Y-77115200D02*
X160742286Y-77067580D01*
X142329819Y-70222904D02*
X142329819Y-69651476D01*
X143329819Y-69937190D02*
X142329819Y-69937190D01*
X143329819Y-69318142D02*
X142329819Y-69318142D01*
X142329819Y-69318142D02*
X142329819Y-68937190D01*
X142329819Y-68937190D02*
X142377438Y-68841952D01*
X142377438Y-68841952D02*
X142425057Y-68794333D01*
X142425057Y-68794333D02*
X142520295Y-68746714D01*
X142520295Y-68746714D02*
X142663152Y-68746714D01*
X142663152Y-68746714D02*
X142758390Y-68794333D01*
X142758390Y-68794333D02*
X142806009Y-68841952D01*
X142806009Y-68841952D02*
X142853628Y-68937190D01*
X142853628Y-68937190D02*
X142853628Y-69318142D01*
X143329819Y-67794333D02*
X143329819Y-68365761D01*
X143329819Y-68080047D02*
X142329819Y-68080047D01*
X142329819Y-68080047D02*
X142472676Y-68175285D01*
X142472676Y-68175285D02*
X142567914Y-68270523D01*
X142567914Y-68270523D02*
X142615533Y-68365761D01*
X159139095Y-74003819D02*
X159710523Y-74003819D01*
X159424809Y-75003819D02*
X159424809Y-74003819D01*
X160043857Y-75003819D02*
X160043857Y-74003819D01*
X160043857Y-74003819D02*
X160424809Y-74003819D01*
X160424809Y-74003819D02*
X160520047Y-74051438D01*
X160520047Y-74051438D02*
X160567666Y-74099057D01*
X160567666Y-74099057D02*
X160615285Y-74194295D01*
X160615285Y-74194295D02*
X160615285Y-74337152D01*
X160615285Y-74337152D02*
X160567666Y-74432390D01*
X160567666Y-74432390D02*
X160520047Y-74480009D01*
X160520047Y-74480009D02*
X160424809Y-74527628D01*
X160424809Y-74527628D02*
X160043857Y-74527628D01*
X160996238Y-74099057D02*
X161043857Y-74051438D01*
X161043857Y-74051438D02*
X161139095Y-74003819D01*
X161139095Y-74003819D02*
X161377190Y-74003819D01*
X161377190Y-74003819D02*
X161472428Y-74051438D01*
X161472428Y-74051438D02*
X161520047Y-74099057D01*
X161520047Y-74099057D02*
X161567666Y-74194295D01*
X161567666Y-74194295D02*
X161567666Y-74289533D01*
X161567666Y-74289533D02*
X161520047Y-74432390D01*
X161520047Y-74432390D02*
X160948619Y-75003819D01*
X160948619Y-75003819D02*
X161567666Y-75003819D01*
X168743333Y-72565430D02*
X168695714Y-72613050D01*
X168695714Y-72613050D02*
X168552857Y-72660669D01*
X168552857Y-72660669D02*
X168457619Y-72660669D01*
X168457619Y-72660669D02*
X168314762Y-72613050D01*
X168314762Y-72613050D02*
X168219524Y-72517811D01*
X168219524Y-72517811D02*
X168171905Y-72422573D01*
X168171905Y-72422573D02*
X168124286Y-72232097D01*
X168124286Y-72232097D02*
X168124286Y-72089240D01*
X168124286Y-72089240D02*
X168171905Y-71898764D01*
X168171905Y-71898764D02*
X168219524Y-71803526D01*
X168219524Y-71803526D02*
X168314762Y-71708288D01*
X168314762Y-71708288D02*
X168457619Y-71660669D01*
X168457619Y-71660669D02*
X168552857Y-71660669D01*
X168552857Y-71660669D02*
X168695714Y-71708288D01*
X168695714Y-71708288D02*
X168743333Y-71755907D01*
X169124286Y-71755907D02*
X169171905Y-71708288D01*
X169171905Y-71708288D02*
X169267143Y-71660669D01*
X169267143Y-71660669D02*
X169505238Y-71660669D01*
X169505238Y-71660669D02*
X169600476Y-71708288D01*
X169600476Y-71708288D02*
X169648095Y-71755907D01*
X169648095Y-71755907D02*
X169695714Y-71851145D01*
X169695714Y-71851145D02*
X169695714Y-71946383D01*
X169695714Y-71946383D02*
X169648095Y-72089240D01*
X169648095Y-72089240D02*
X169076667Y-72660669D01*
X169076667Y-72660669D02*
X169695714Y-72660669D01*
X161327180Y-65786095D02*
X160517657Y-65786095D01*
X160517657Y-65786095D02*
X160422419Y-65833714D01*
X160422419Y-65833714D02*
X160374800Y-65881333D01*
X160374800Y-65881333D02*
X160327180Y-65976571D01*
X160327180Y-65976571D02*
X160327180Y-66167047D01*
X160327180Y-66167047D02*
X160374800Y-66262285D01*
X160374800Y-66262285D02*
X160422419Y-66309904D01*
X160422419Y-66309904D02*
X160517657Y-66357523D01*
X160517657Y-66357523D02*
X161327180Y-66357523D01*
X161231942Y-66786095D02*
X161279561Y-66833714D01*
X161279561Y-66833714D02*
X161327180Y-66928952D01*
X161327180Y-66928952D02*
X161327180Y-67167047D01*
X161327180Y-67167047D02*
X161279561Y-67262285D01*
X161279561Y-67262285D02*
X161231942Y-67309904D01*
X161231942Y-67309904D02*
X161136704Y-67357523D01*
X161136704Y-67357523D02*
X161041466Y-67357523D01*
X161041466Y-67357523D02*
X160898609Y-67309904D01*
X160898609Y-67309904D02*
X160327180Y-66738476D01*
X160327180Y-66738476D02*
X160327180Y-67357523D01*
X166967819Y-66363849D02*
X167205914Y-66363849D01*
X167110676Y-66601944D02*
X167205914Y-66363849D01*
X167205914Y-66363849D02*
X167110676Y-66125754D01*
X167396390Y-66506706D02*
X167205914Y-66363849D01*
X167205914Y-66363849D02*
X167396390Y-66220992D01*
X143851333Y-63097580D02*
X143803714Y-63145200D01*
X143803714Y-63145200D02*
X143660857Y-63192819D01*
X143660857Y-63192819D02*
X143565619Y-63192819D01*
X143565619Y-63192819D02*
X143422762Y-63145200D01*
X143422762Y-63145200D02*
X143327524Y-63049961D01*
X143327524Y-63049961D02*
X143279905Y-62954723D01*
X143279905Y-62954723D02*
X143232286Y-62764247D01*
X143232286Y-62764247D02*
X143232286Y-62621390D01*
X143232286Y-62621390D02*
X143279905Y-62430914D01*
X143279905Y-62430914D02*
X143327524Y-62335676D01*
X143327524Y-62335676D02*
X143422762Y-62240438D01*
X143422762Y-62240438D02*
X143565619Y-62192819D01*
X143565619Y-62192819D02*
X143660857Y-62192819D01*
X143660857Y-62192819D02*
X143803714Y-62240438D01*
X143803714Y-62240438D02*
X143851333Y-62288057D01*
X144803714Y-63192819D02*
X144232286Y-63192819D01*
X144518000Y-63192819D02*
X144518000Y-62192819D01*
X144518000Y-62192819D02*
X144422762Y-62335676D01*
X144422762Y-62335676D02*
X144327524Y-62430914D01*
X144327524Y-62430914D02*
X144232286Y-62478533D01*
X142835333Y-59636819D02*
X142502000Y-59160628D01*
X142263905Y-59636819D02*
X142263905Y-58636819D01*
X142263905Y-58636819D02*
X142644857Y-58636819D01*
X142644857Y-58636819D02*
X142740095Y-58684438D01*
X142740095Y-58684438D02*
X142787714Y-58732057D01*
X142787714Y-58732057D02*
X142835333Y-58827295D01*
X142835333Y-58827295D02*
X142835333Y-58970152D01*
X142835333Y-58970152D02*
X142787714Y-59065390D01*
X142787714Y-59065390D02*
X142740095Y-59113009D01*
X142740095Y-59113009D02*
X142644857Y-59160628D01*
X142644857Y-59160628D02*
X142263905Y-59160628D01*
X143787714Y-59636819D02*
X143216286Y-59636819D01*
X143502000Y-59636819D02*
X143502000Y-58636819D01*
X143502000Y-58636819D02*
X143406762Y-58779676D01*
X143406762Y-58779676D02*
X143311524Y-58874914D01*
X143311524Y-58874914D02*
X143216286Y-58922533D01*
X157854666Y-62084295D02*
X157473714Y-62084295D01*
X157473714Y-62084295D02*
X157473714Y-61284295D01*
X158540380Y-62084295D02*
X158083237Y-62084295D01*
X158311809Y-62084295D02*
X158311809Y-61284295D01*
X158311809Y-61284295D02*
X158235618Y-61398580D01*
X158235618Y-61398580D02*
X158159428Y-61474771D01*
X158159428Y-61474771D02*
X158083237Y-61512866D01*
X134366095Y-83528819D02*
X134366095Y-84338342D01*
X134366095Y-84338342D02*
X134413714Y-84433580D01*
X134413714Y-84433580D02*
X134461333Y-84481200D01*
X134461333Y-84481200D02*
X134556571Y-84528819D01*
X134556571Y-84528819D02*
X134747047Y-84528819D01*
X134747047Y-84528819D02*
X134842285Y-84481200D01*
X134842285Y-84481200D02*
X134889904Y-84433580D01*
X134889904Y-84433580D02*
X134937523Y-84338342D01*
X134937523Y-84338342D02*
X134937523Y-83528819D01*
X135318476Y-83528819D02*
X135937523Y-83528819D01*
X135937523Y-83528819D02*
X135604190Y-83909771D01*
X135604190Y-83909771D02*
X135747047Y-83909771D01*
X135747047Y-83909771D02*
X135842285Y-83957390D01*
X135842285Y-83957390D02*
X135889904Y-84005009D01*
X135889904Y-84005009D02*
X135937523Y-84100247D01*
X135937523Y-84100247D02*
X135937523Y-84338342D01*
X135937523Y-84338342D02*
X135889904Y-84433580D01*
X135889904Y-84433580D02*
X135842285Y-84481200D01*
X135842285Y-84481200D02*
X135747047Y-84528819D01*
X135747047Y-84528819D02*
X135461333Y-84528819D01*
X135461333Y-84528819D02*
X135366095Y-84481200D01*
X135366095Y-84481200D02*
X135318476Y-84433580D01*
X133788150Y-77051819D02*
X133788150Y-77289914D01*
X133550055Y-77194676D02*
X133788150Y-77289914D01*
X133788150Y-77289914D02*
X134026245Y-77194676D01*
X133645293Y-77480390D02*
X133788150Y-77289914D01*
X133788150Y-77289914D02*
X133931007Y-77480390D01*
X156062295Y-80453333D02*
X156062295Y-80834285D01*
X156062295Y-80834285D02*
X155262295Y-80834285D01*
X155338485Y-80224762D02*
X155300390Y-80186666D01*
X155300390Y-80186666D02*
X155262295Y-80110476D01*
X155262295Y-80110476D02*
X155262295Y-79920000D01*
X155262295Y-79920000D02*
X155300390Y-79843809D01*
X155300390Y-79843809D02*
X155338485Y-79805714D01*
X155338485Y-79805714D02*
X155414676Y-79767619D01*
X155414676Y-79767619D02*
X155490866Y-79767619D01*
X155490866Y-79767619D02*
X155605152Y-79805714D01*
X155605152Y-79805714D02*
X156062295Y-80262857D01*
X156062295Y-80262857D02*
X156062295Y-79767619D01*
X128756580Y-79414666D02*
X128804200Y-79462285D01*
X128804200Y-79462285D02*
X128851819Y-79605142D01*
X128851819Y-79605142D02*
X128851819Y-79700380D01*
X128851819Y-79700380D02*
X128804200Y-79843237D01*
X128804200Y-79843237D02*
X128708961Y-79938475D01*
X128708961Y-79938475D02*
X128613723Y-79986094D01*
X128613723Y-79986094D02*
X128423247Y-80033713D01*
X128423247Y-80033713D02*
X128280390Y-80033713D01*
X128280390Y-80033713D02*
X128089914Y-79986094D01*
X128089914Y-79986094D02*
X127994676Y-79938475D01*
X127994676Y-79938475D02*
X127899438Y-79843237D01*
X127899438Y-79843237D02*
X127851819Y-79700380D01*
X127851819Y-79700380D02*
X127851819Y-79605142D01*
X127851819Y-79605142D02*
X127899438Y-79462285D01*
X127899438Y-79462285D02*
X127947057Y-79414666D01*
X127851819Y-79081332D02*
X127851819Y-78462285D01*
X127851819Y-78462285D02*
X128232771Y-78795618D01*
X128232771Y-78795618D02*
X128232771Y-78652761D01*
X128232771Y-78652761D02*
X128280390Y-78557523D01*
X128280390Y-78557523D02*
X128328009Y-78509904D01*
X128328009Y-78509904D02*
X128423247Y-78462285D01*
X128423247Y-78462285D02*
X128661342Y-78462285D01*
X128661342Y-78462285D02*
X128756580Y-78509904D01*
X128756580Y-78509904D02*
X128804200Y-78557523D01*
X128804200Y-78557523D02*
X128851819Y-78652761D01*
X128851819Y-78652761D02*
X128851819Y-78938475D01*
X128851819Y-78938475D02*
X128804200Y-79033713D01*
X128804200Y-79033713D02*
X128756580Y-79081332D01*
X141184333Y-77416819D02*
X140851000Y-76940628D01*
X140612905Y-77416819D02*
X140612905Y-76416819D01*
X140612905Y-76416819D02*
X140993857Y-76416819D01*
X140993857Y-76416819D02*
X141089095Y-76464438D01*
X141089095Y-76464438D02*
X141136714Y-76512057D01*
X141136714Y-76512057D02*
X141184333Y-76607295D01*
X141184333Y-76607295D02*
X141184333Y-76750152D01*
X141184333Y-76750152D02*
X141136714Y-76845390D01*
X141136714Y-76845390D02*
X141089095Y-76893009D01*
X141089095Y-76893009D02*
X140993857Y-76940628D01*
X140993857Y-76940628D02*
X140612905Y-76940628D01*
X142041476Y-76416819D02*
X141851000Y-76416819D01*
X141851000Y-76416819D02*
X141755762Y-76464438D01*
X141755762Y-76464438D02*
X141708143Y-76512057D01*
X141708143Y-76512057D02*
X141612905Y-76654914D01*
X141612905Y-76654914D02*
X141565286Y-76845390D01*
X141565286Y-76845390D02*
X141565286Y-77226342D01*
X141565286Y-77226342D02*
X141612905Y-77321580D01*
X141612905Y-77321580D02*
X141660524Y-77369200D01*
X141660524Y-77369200D02*
X141755762Y-77416819D01*
X141755762Y-77416819D02*
X141946238Y-77416819D01*
X141946238Y-77416819D02*
X142041476Y-77369200D01*
X142041476Y-77369200D02*
X142089095Y-77321580D01*
X142089095Y-77321580D02*
X142136714Y-77226342D01*
X142136714Y-77226342D02*
X142136714Y-76988247D01*
X142136714Y-76988247D02*
X142089095Y-76893009D01*
X142089095Y-76893009D02*
X142041476Y-76845390D01*
X142041476Y-76845390D02*
X141946238Y-76797771D01*
X141946238Y-76797771D02*
X141755762Y-76797771D01*
X141755762Y-76797771D02*
X141660524Y-76845390D01*
X141660524Y-76845390D02*
X141612905Y-76893009D01*
X141612905Y-76893009D02*
X141565286Y-76988247D01*
X166062819Y-63412666D02*
X165586628Y-63745999D01*
X166062819Y-63984094D02*
X165062819Y-63984094D01*
X165062819Y-63984094D02*
X165062819Y-63603142D01*
X165062819Y-63603142D02*
X165110438Y-63507904D01*
X165110438Y-63507904D02*
X165158057Y-63460285D01*
X165158057Y-63460285D02*
X165253295Y-63412666D01*
X165253295Y-63412666D02*
X165396152Y-63412666D01*
X165396152Y-63412666D02*
X165491390Y-63460285D01*
X165491390Y-63460285D02*
X165539009Y-63507904D01*
X165539009Y-63507904D02*
X165586628Y-63603142D01*
X165586628Y-63603142D02*
X165586628Y-63984094D01*
X165158057Y-63031713D02*
X165110438Y-62984094D01*
X165110438Y-62984094D02*
X165062819Y-62888856D01*
X165062819Y-62888856D02*
X165062819Y-62650761D01*
X165062819Y-62650761D02*
X165110438Y-62555523D01*
X165110438Y-62555523D02*
X165158057Y-62507904D01*
X165158057Y-62507904D02*
X165253295Y-62460285D01*
X165253295Y-62460285D02*
X165348533Y-62460285D01*
X165348533Y-62460285D02*
X165491390Y-62507904D01*
X165491390Y-62507904D02*
X166062819Y-63079332D01*
X166062819Y-63079332D02*
X166062819Y-62460285D01*
X158599094Y-75110180D02*
X158599094Y-76110180D01*
X158599094Y-76110180D02*
X158360999Y-76110180D01*
X158360999Y-76110180D02*
X158218142Y-76062561D01*
X158218142Y-76062561D02*
X158122904Y-75967323D01*
X158122904Y-75967323D02*
X158075285Y-75872085D01*
X158075285Y-75872085D02*
X158027666Y-75681609D01*
X158027666Y-75681609D02*
X158027666Y-75538752D01*
X158027666Y-75538752D02*
X158075285Y-75348276D01*
X158075285Y-75348276D02*
X158122904Y-75253038D01*
X158122904Y-75253038D02*
X158218142Y-75157800D01*
X158218142Y-75157800D02*
X158360999Y-75110180D01*
X158360999Y-75110180D02*
X158599094Y-75110180D01*
X157170523Y-75776847D02*
X157170523Y-75110180D01*
X157408618Y-76157800D02*
X157646713Y-75443514D01*
X157646713Y-75443514D02*
X157027666Y-75443514D01*
X154857220Y-75441133D02*
X154095316Y-75441133D01*
X154476268Y-75060180D02*
X154476268Y-75822085D01*
X153138094Y-75110180D02*
X153138094Y-76110180D01*
X153138094Y-76110180D02*
X152899999Y-76110180D01*
X152899999Y-76110180D02*
X152757142Y-76062561D01*
X152757142Y-76062561D02*
X152661904Y-75967323D01*
X152661904Y-75967323D02*
X152614285Y-75872085D01*
X152614285Y-75872085D02*
X152566666Y-75681609D01*
X152566666Y-75681609D02*
X152566666Y-75538752D01*
X152566666Y-75538752D02*
X152614285Y-75348276D01*
X152614285Y-75348276D02*
X152661904Y-75253038D01*
X152661904Y-75253038D02*
X152757142Y-75157800D01*
X152757142Y-75157800D02*
X152899999Y-75110180D01*
X152899999Y-75110180D02*
X153138094Y-75110180D01*
X151709523Y-76110180D02*
X151899999Y-76110180D01*
X151899999Y-76110180D02*
X151995237Y-76062561D01*
X151995237Y-76062561D02*
X152042856Y-76014942D01*
X152042856Y-76014942D02*
X152138094Y-75872085D01*
X152138094Y-75872085D02*
X152185713Y-75681609D01*
X152185713Y-75681609D02*
X152185713Y-75300657D01*
X152185713Y-75300657D02*
X152138094Y-75205419D01*
X152138094Y-75205419D02*
X152090475Y-75157800D01*
X152090475Y-75157800D02*
X151995237Y-75110180D01*
X151995237Y-75110180D02*
X151804761Y-75110180D01*
X151804761Y-75110180D02*
X151709523Y-75157800D01*
X151709523Y-75157800D02*
X151661904Y-75205419D01*
X151661904Y-75205419D02*
X151614285Y-75300657D01*
X151614285Y-75300657D02*
X151614285Y-75538752D01*
X151614285Y-75538752D02*
X151661904Y-75633990D01*
X151661904Y-75633990D02*
X151709523Y-75681609D01*
X151709523Y-75681609D02*
X151804761Y-75729228D01*
X151804761Y-75729228D02*
X151995237Y-75729228D01*
X151995237Y-75729228D02*
X152090475Y-75681609D01*
X152090475Y-75681609D02*
X152138094Y-75633990D01*
X152138094Y-75633990D02*
X152185713Y-75538752D01*
X149650220Y-75441133D02*
X148888316Y-75441133D01*
X149269268Y-75060180D02*
X149269268Y-75822085D01*
X147804094Y-75110180D02*
X147804094Y-76110180D01*
X147804094Y-76110180D02*
X147565999Y-76110180D01*
X147565999Y-76110180D02*
X147423142Y-76062561D01*
X147423142Y-76062561D02*
X147327904Y-75967323D01*
X147327904Y-75967323D02*
X147280285Y-75872085D01*
X147280285Y-75872085D02*
X147232666Y-75681609D01*
X147232666Y-75681609D02*
X147232666Y-75538752D01*
X147232666Y-75538752D02*
X147280285Y-75348276D01*
X147280285Y-75348276D02*
X147327904Y-75253038D01*
X147327904Y-75253038D02*
X147423142Y-75157800D01*
X147423142Y-75157800D02*
X147565999Y-75110180D01*
X147565999Y-75110180D02*
X147804094Y-75110180D01*
X146280285Y-75110180D02*
X146851713Y-75110180D01*
X146565999Y-75110180D02*
X146565999Y-76110180D01*
X146565999Y-76110180D02*
X146661237Y-75967323D01*
X146661237Y-75967323D02*
X146756475Y-75872085D01*
X146756475Y-75872085D02*
X146851713Y-75824466D01*
X144316220Y-75441133D02*
X143554316Y-75441133D01*
X143935268Y-75060180D02*
X143935268Y-75822085D01*
X148442295Y-80453333D02*
X148442295Y-80834285D01*
X148442295Y-80834285D02*
X147642295Y-80834285D01*
X147642295Y-80262857D02*
X147642295Y-79767619D01*
X147642295Y-79767619D02*
X147947057Y-80034285D01*
X147947057Y-80034285D02*
X147947057Y-79920000D01*
X147947057Y-79920000D02*
X147985152Y-79843809D01*
X147985152Y-79843809D02*
X148023247Y-79805714D01*
X148023247Y-79805714D02*
X148099438Y-79767619D01*
X148099438Y-79767619D02*
X148289914Y-79767619D01*
X148289914Y-79767619D02*
X148366104Y-79805714D01*
X148366104Y-79805714D02*
X148404200Y-79843809D01*
X148404200Y-79843809D02*
X148442295Y-79920000D01*
X148442295Y-79920000D02*
X148442295Y-80148571D01*
X148442295Y-80148571D02*
X148404200Y-80224762D01*
X148404200Y-80224762D02*
X148366104Y-80262857D01*
X162647333Y-88338819D02*
X162314000Y-87862628D01*
X162075905Y-88338819D02*
X162075905Y-87338819D01*
X162075905Y-87338819D02*
X162456857Y-87338819D01*
X162456857Y-87338819D02*
X162552095Y-87386438D01*
X162552095Y-87386438D02*
X162599714Y-87434057D01*
X162599714Y-87434057D02*
X162647333Y-87529295D01*
X162647333Y-87529295D02*
X162647333Y-87672152D01*
X162647333Y-87672152D02*
X162599714Y-87767390D01*
X162599714Y-87767390D02*
X162552095Y-87815009D01*
X162552095Y-87815009D02*
X162456857Y-87862628D01*
X162456857Y-87862628D02*
X162075905Y-87862628D01*
X163552095Y-87338819D02*
X163075905Y-87338819D01*
X163075905Y-87338819D02*
X163028286Y-87815009D01*
X163028286Y-87815009D02*
X163075905Y-87767390D01*
X163075905Y-87767390D02*
X163171143Y-87719771D01*
X163171143Y-87719771D02*
X163409238Y-87719771D01*
X163409238Y-87719771D02*
X163504476Y-87767390D01*
X163504476Y-87767390D02*
X163552095Y-87815009D01*
X163552095Y-87815009D02*
X163599714Y-87910247D01*
X163599714Y-87910247D02*
X163599714Y-88148342D01*
X163599714Y-88148342D02*
X163552095Y-88243580D01*
X163552095Y-88243580D02*
X163504476Y-88291200D01*
X163504476Y-88291200D02*
X163409238Y-88338819D01*
X163409238Y-88338819D02*
X163171143Y-88338819D01*
X163171143Y-88338819D02*
X163075905Y-88291200D01*
X163075905Y-88291200D02*
X163028286Y-88243580D01*
X146939095Y-60668819D02*
X146939095Y-61478342D01*
X146939095Y-61478342D02*
X146986714Y-61573580D01*
X146986714Y-61573580D02*
X147034333Y-61621200D01*
X147034333Y-61621200D02*
X147129571Y-61668819D01*
X147129571Y-61668819D02*
X147320047Y-61668819D01*
X147320047Y-61668819D02*
X147415285Y-61621200D01*
X147415285Y-61621200D02*
X147462904Y-61573580D01*
X147462904Y-61573580D02*
X147510523Y-61478342D01*
X147510523Y-61478342D02*
X147510523Y-60668819D01*
X148510523Y-61668819D02*
X147939095Y-61668819D01*
X148224809Y-61668819D02*
X148224809Y-60668819D01*
X148224809Y-60668819D02*
X148129571Y-60811676D01*
X148129571Y-60811676D02*
X148034333Y-60906914D01*
X148034333Y-60906914D02*
X147939095Y-60954533D01*
X146774819Y-70230999D02*
X147012914Y-70230999D01*
X146917676Y-70469094D02*
X147012914Y-70230999D01*
X147012914Y-70230999D02*
X146917676Y-69992904D01*
X147203390Y-70373856D02*
X147012914Y-70230999D01*
X147012914Y-70230999D02*
X147203390Y-70088142D01*
X167840819Y-63984094D02*
X166840819Y-63984094D01*
X166840819Y-63984094D02*
X166840819Y-63745999D01*
X166840819Y-63745999D02*
X166888438Y-63603142D01*
X166888438Y-63603142D02*
X166983676Y-63507904D01*
X166983676Y-63507904D02*
X167078914Y-63460285D01*
X167078914Y-63460285D02*
X167269390Y-63412666D01*
X167269390Y-63412666D02*
X167412247Y-63412666D01*
X167412247Y-63412666D02*
X167602723Y-63460285D01*
X167602723Y-63460285D02*
X167697961Y-63507904D01*
X167697961Y-63507904D02*
X167793200Y-63603142D01*
X167793200Y-63603142D02*
X167840819Y-63745999D01*
X167840819Y-63745999D02*
X167840819Y-63984094D01*
X166840819Y-63079332D02*
X166840819Y-62460285D01*
X166840819Y-62460285D02*
X167221771Y-62793618D01*
X167221771Y-62793618D02*
X167221771Y-62650761D01*
X167221771Y-62650761D02*
X167269390Y-62555523D01*
X167269390Y-62555523D02*
X167317009Y-62507904D01*
X167317009Y-62507904D02*
X167412247Y-62460285D01*
X167412247Y-62460285D02*
X167650342Y-62460285D01*
X167650342Y-62460285D02*
X167745580Y-62507904D01*
X167745580Y-62507904D02*
X167793200Y-62555523D01*
X167793200Y-62555523D02*
X167840819Y-62650761D01*
X167840819Y-62650761D02*
X167840819Y-62936475D01*
X167840819Y-62936475D02*
X167793200Y-63031713D01*
X167793200Y-63031713D02*
X167745580Y-63079332D01*
%TO.C,Conn1*%
X151511000Y-24993600D02*
X135763000Y-24993600D01*
X151511000Y-25019000D02*
X151511000Y-32766000D01*
X143662400Y-25019000D02*
X143662400Y-33909000D01*
X135763000Y-32740600D02*
X135763000Y-33909000D01*
X135763000Y-32766000D02*
X135763000Y-25019000D01*
X151511000Y-33909000D02*
X151511000Y-32689800D01*
X150368000Y-35052000D02*
X149199600Y-35052000D01*
X145923000Y-35052000D02*
X149199600Y-35052000D01*
X145923000Y-35052000D02*
X144780000Y-35052000D01*
X141351000Y-35052000D02*
X142494000Y-35052000D01*
X141351000Y-35052000D02*
X138049000Y-35052000D01*
X138074400Y-35052000D02*
X136906000Y-35052000D01*
X151511000Y-37312600D02*
X151511000Y-36220400D01*
X151511000Y-37338000D02*
X151511000Y-49631600D01*
X143637000Y-37338000D02*
X143637000Y-36195000D01*
X143637000Y-37338000D02*
X143637000Y-49631600D01*
X135763000Y-37338000D02*
X135763000Y-49631600D01*
X135763000Y-37363400D02*
X135763000Y-36169600D01*
X151511000Y-49631600D02*
X135763000Y-49631600D01*
X135763000Y-33934400D02*
G75*
G02*
X136880600Y-35052000I2J-1117598D01*
G01*
X150368000Y-35052000D02*
G75*
G02*
X151511000Y-33909000I1143000J0D01*
G01*
X136880600Y-35052000D02*
G75*
G02*
X135763000Y-36169600I-1117598J-2D01*
G01*
X151511000Y-36195000D02*
G75*
G02*
X150368000Y-35052000I0J1143000D01*
G01*
X144780000Y-35052000D02*
G75*
G02*
X142494000Y-35052000I-1143000J0D01*
G01*
X142494000Y-35052000D02*
G75*
G02*
X144780000Y-35052000I1143000J0D01*
G01*
D12*
%TO.C,G\u002A\u002A\u002A*%
G36*
X161304795Y-56682664D02*
G01*
X161354628Y-56689224D01*
X161387732Y-56703458D01*
X161413594Y-56726298D01*
X161450042Y-56789219D01*
X161456120Y-56859161D01*
X161432338Y-56923317D01*
X161404595Y-56953198D01*
X161365496Y-56976533D01*
X161315297Y-56989089D01*
X161241700Y-56993535D01*
X161218092Y-56993693D01*
X161142672Y-56991843D01*
X161094003Y-56984157D01*
X161059849Y-56967427D01*
X161035112Y-56945735D01*
X160995159Y-56882782D01*
X160987154Y-56837385D01*
X161005418Y-56768810D01*
X161035112Y-56729035D01*
X161065099Y-56703714D01*
X161099395Y-56689209D01*
X161149573Y-56682627D01*
X161227090Y-56681077D01*
X161304795Y-56682664D01*
G37*
G36*
X160903932Y-58316847D02*
G01*
X160917230Y-58328762D01*
X160931309Y-58343969D01*
X160942261Y-58361260D01*
X160950603Y-58385589D01*
X160956853Y-58421907D01*
X160961528Y-58475166D01*
X160965146Y-58550317D01*
X160968223Y-58652313D01*
X160971277Y-58786106D01*
X160972847Y-58861185D01*
X160976659Y-59023204D01*
X160981125Y-59154828D01*
X160986984Y-59264742D01*
X160994975Y-59361627D01*
X161005839Y-59454167D01*
X161020314Y-59551043D01*
X161039139Y-59660940D01*
X161042590Y-59680231D01*
X161098046Y-59978168D01*
X161153159Y-60253088D01*
X161206786Y-60499491D01*
X161252253Y-60690003D01*
X161277574Y-60794330D01*
X161292301Y-60868604D01*
X161296423Y-60920386D01*
X161289930Y-60957238D01*
X161272811Y-60986722D01*
X161251811Y-61009735D01*
X161187937Y-61049817D01*
X161118056Y-61055101D01*
X161052469Y-61025457D01*
X161037826Y-61012449D01*
X161015709Y-60981383D01*
X160992967Y-60929581D01*
X160967857Y-60851977D01*
X160938633Y-60743505D01*
X160921764Y-60675411D01*
X160826565Y-60257099D01*
X160750870Y-59867317D01*
X160694808Y-59507042D01*
X160658508Y-59177249D01*
X160642100Y-58878917D01*
X160645714Y-58613022D01*
X160646620Y-58597285D01*
X160653390Y-58498331D01*
X160660731Y-58430286D01*
X160670429Y-58385002D01*
X160684270Y-58354328D01*
X160704041Y-58330117D01*
X160705516Y-58328631D01*
X160768407Y-58290292D01*
X160838359Y-58286366D01*
X160903932Y-58316847D01*
G37*
G36*
X161916773Y-55329834D02*
G01*
X161996080Y-55377859D01*
X162090361Y-55455476D01*
X162197094Y-55560698D01*
X162267866Y-55638304D01*
X162466756Y-55881006D01*
X162636653Y-56126210D01*
X162780198Y-56379731D01*
X162900031Y-56647377D01*
X162998794Y-56934963D01*
X163079128Y-57248298D01*
X163136770Y-57550539D01*
X163152102Y-57649532D01*
X163164561Y-57741525D01*
X163172789Y-57815708D01*
X163175457Y-57858688D01*
X163180287Y-57910614D01*
X163200466Y-57939163D01*
X163229192Y-57953684D01*
X163270579Y-57971638D01*
X163335743Y-58001603D01*
X163413394Y-58038350D01*
X163449000Y-58055510D01*
X163622544Y-58160072D01*
X163773256Y-58292488D01*
X163897221Y-58447975D01*
X163990526Y-58621749D01*
X164043091Y-58781462D01*
X164069436Y-58916802D01*
X164079837Y-59032219D01*
X164073968Y-59121708D01*
X164063482Y-59158191D01*
X164021645Y-59213529D01*
X163960863Y-59242992D01*
X163892741Y-59245070D01*
X163828881Y-59218256D01*
X163801116Y-59192281D01*
X163740783Y-59143019D01*
X163695908Y-59121195D01*
X163649471Y-59098612D01*
X163535217Y-59061707D01*
X163406055Y-59034952D01*
X163283563Y-59021731D01*
X163186510Y-59015923D01*
X163153788Y-59299231D01*
X163137926Y-59427345D01*
X163118865Y-59567264D01*
X163098993Y-59702147D01*
X163080697Y-59815153D01*
X163080544Y-59816037D01*
X163065294Y-59905961D01*
X163053380Y-59980195D01*
X163045956Y-60031254D01*
X163044173Y-60051653D01*
X163044242Y-60051729D01*
X163252660Y-60171818D01*
X163424503Y-60297399D01*
X163562173Y-60431187D01*
X163668071Y-60575895D01*
X163744601Y-60734237D01*
X163791453Y-60895780D01*
X163811215Y-61021819D01*
X163817531Y-61142997D01*
X163810943Y-61251406D01*
X163791991Y-61339137D01*
X163761214Y-61398282D01*
X163756815Y-61403020D01*
X163719601Y-61424576D01*
X163665458Y-61440578D01*
X163660116Y-61441510D01*
X163620892Y-61444970D01*
X163588335Y-61436762D01*
X163551877Y-61411439D01*
X163500952Y-61363553D01*
X163492357Y-61355027D01*
X163455681Y-61323585D01*
X163414724Y-61288473D01*
X163327055Y-61236348D01*
X163221259Y-61195206D01*
X163089241Y-61161600D01*
X162997196Y-61144157D01*
X162895607Y-61127114D01*
X162824674Y-61119942D01*
X162776416Y-61126666D01*
X162742849Y-61151314D01*
X162715994Y-61197913D01*
X162687868Y-61270489D01*
X162674793Y-61306808D01*
X162647682Y-61383282D01*
X162627047Y-61443852D01*
X162615520Y-61480660D01*
X162614146Y-61488118D01*
X162633350Y-61494231D01*
X162680679Y-61510029D01*
X162747285Y-61532549D01*
X162774625Y-61541849D01*
X162860808Y-61574078D01*
X162916647Y-61602919D01*
X162950066Y-61632894D01*
X162959595Y-61647401D01*
X162976484Y-61714321D01*
X162956675Y-61781230D01*
X162902078Y-61842084D01*
X162896771Y-61846135D01*
X162867042Y-61866741D01*
X162840924Y-61875989D01*
X162806785Y-61874111D01*
X162752997Y-61861341D01*
X162711155Y-61849851D01*
X162618085Y-61825161D01*
X162554650Y-61813494D01*
X162513074Y-61816574D01*
X162485585Y-61836129D01*
X162464408Y-61873882D01*
X162450874Y-61907616D01*
X162430884Y-61965456D01*
X162419875Y-62008582D01*
X162419226Y-62022551D01*
X162439491Y-62039085D01*
X162484188Y-62061103D01*
X162510003Y-62071397D01*
X162593150Y-62115840D01*
X162644163Y-62172571D01*
X162661281Y-62236650D01*
X162642747Y-62303134D01*
X162608349Y-62347728D01*
X162550628Y-62379861D01*
X162470688Y-62382034D01*
X162376124Y-62357614D01*
X162337553Y-62343799D01*
X162311520Y-62339041D01*
X162292464Y-62348948D01*
X162274823Y-62379125D01*
X162253037Y-62435180D01*
X162226818Y-62508162D01*
X162200456Y-62581169D01*
X162292305Y-62633428D01*
X162495175Y-62751523D01*
X162666996Y-62857703D01*
X162812668Y-62955373D01*
X162937090Y-63047938D01*
X163045162Y-63138804D01*
X163117460Y-63206923D01*
X163217293Y-63316820D01*
X163297948Y-63428283D01*
X163355570Y-63534758D01*
X163386304Y-63629685D01*
X163390384Y-63671130D01*
X163377199Y-63756270D01*
X163341863Y-63830375D01*
X163290710Y-63881602D01*
X163272879Y-63890883D01*
X163247256Y-63899041D01*
X163219838Y-63899604D01*
X163183688Y-63890305D01*
X163131871Y-63868875D01*
X163057451Y-63833046D01*
X162986057Y-63797101D01*
X162704614Y-63668254D01*
X162430951Y-63572490D01*
X162156592Y-63507357D01*
X161873061Y-63470404D01*
X161850703Y-63468664D01*
X161737791Y-63456472D01*
X161658681Y-63437453D01*
X161608289Y-63408639D01*
X161581530Y-63367057D01*
X161573322Y-63309739D01*
X161573307Y-63306603D01*
X161585576Y-63236998D01*
X161621734Y-63187779D01*
X161644636Y-63168154D01*
X161668686Y-63155729D01*
X161702142Y-63149494D01*
X161753263Y-63148437D01*
X161830309Y-63151545D01*
X161890387Y-63154874D01*
X162207880Y-63191644D01*
X162522750Y-63264508D01*
X162645518Y-63303275D01*
X162814000Y-63360753D01*
X162745615Y-63302578D01*
X162672406Y-63245587D01*
X162573379Y-63175991D01*
X162457284Y-63099406D01*
X162332871Y-63021448D01*
X162208890Y-62947733D01*
X162094092Y-62883877D01*
X162089315Y-62881343D01*
X161990296Y-62827018D01*
X161921803Y-62783658D01*
X161878610Y-62746458D01*
X161855490Y-62710612D01*
X161847215Y-62671316D01*
X161846846Y-62658449D01*
X161853522Y-62631758D01*
X161872638Y-62572365D01*
X161902824Y-62484126D01*
X161942711Y-62370893D01*
X161990929Y-62236522D01*
X162046109Y-62084867D01*
X162106881Y-61919781D01*
X162161436Y-61773049D01*
X162228281Y-61593379D01*
X162292782Y-61418712D01*
X162353232Y-61253763D01*
X162407923Y-61103245D01*
X162455149Y-60971873D01*
X162493202Y-60864361D01*
X162520376Y-60785423D01*
X162521363Y-60782393D01*
X162862846Y-60782393D01*
X162880651Y-60791923D01*
X162927830Y-60804293D01*
X162995024Y-60817148D01*
X163011506Y-60819798D01*
X163104951Y-60838079D01*
X163213146Y-60864794D01*
X163314304Y-60894512D01*
X163324278Y-60897802D01*
X163405912Y-60924561D01*
X163455681Y-60936042D01*
X163476749Y-60928008D01*
X163472278Y-60896221D01*
X163445429Y-60836445D01*
X163415176Y-60776000D01*
X163349128Y-60672114D01*
X163259684Y-60568779D01*
X163159308Y-60478957D01*
X163076661Y-60423976D01*
X163022361Y-60396043D01*
X162983745Y-60379224D01*
X162971068Y-60376794D01*
X162963726Y-60397327D01*
X162949437Y-60446001D01*
X162930803Y-60513062D01*
X162910426Y-60588757D01*
X162890908Y-60663336D01*
X162874851Y-60727045D01*
X162864858Y-60770131D01*
X162862846Y-60782393D01*
X162521363Y-60782393D01*
X162531962Y-60749850D01*
X162613633Y-60460323D01*
X162689444Y-60140654D01*
X162757559Y-59799570D01*
X162816144Y-59445799D01*
X162836966Y-59299231D01*
X162851152Y-59165595D01*
X162862027Y-59004266D01*
X162869595Y-58822963D01*
X162873859Y-58629409D01*
X162874545Y-58488123D01*
X163195000Y-58488123D01*
X163195000Y-58693539D01*
X163251056Y-58693539D01*
X163297287Y-58697051D01*
X163368227Y-58706263D01*
X163451987Y-58719192D01*
X163536676Y-58733851D01*
X163610405Y-58748256D01*
X163661285Y-58760422D01*
X163671241Y-58763686D01*
X163695908Y-58768946D01*
X163700287Y-58754305D01*
X163684377Y-58714212D01*
X163671259Y-58687684D01*
X163589792Y-58563833D01*
X163480356Y-58450409D01*
X163354059Y-58357659D01*
X163263168Y-58311189D01*
X163195000Y-58282707D01*
X163195000Y-58488123D01*
X162874545Y-58488123D01*
X162874821Y-58431324D01*
X162872485Y-58236430D01*
X162866854Y-58052447D01*
X162857930Y-57887096D01*
X162845717Y-57748099D01*
X162836336Y-57677539D01*
X162821759Y-57588697D01*
X162808824Y-57515187D01*
X162798979Y-57464906D01*
X162793811Y-57445851D01*
X162775102Y-57451724D01*
X162732285Y-57473754D01*
X162674333Y-57507296D01*
X162669667Y-57510122D01*
X162408199Y-57649042D01*
X162142648Y-57751449D01*
X161875296Y-57817206D01*
X161631033Y-57843724D01*
X161608428Y-57846178D01*
X161344325Y-57838228D01*
X161085270Y-57793219D01*
X160833546Y-57711017D01*
X160660515Y-57629995D01*
X160610774Y-57602885D01*
X160575287Y-57586133D01*
X160550508Y-57584137D01*
X160532893Y-57601293D01*
X160518895Y-57641996D01*
X160504971Y-57710642D01*
X160487575Y-57811628D01*
X160480366Y-57853385D01*
X160435081Y-58174091D01*
X160407979Y-58505664D01*
X160399591Y-58835215D01*
X160410446Y-59149859D01*
X160421684Y-59282507D01*
X160442143Y-59446894D01*
X160472233Y-59639949D01*
X160510193Y-59853371D01*
X160554262Y-60078860D01*
X160602679Y-60308115D01*
X160653682Y-60532835D01*
X160705511Y-60744719D01*
X160756403Y-60935468D01*
X160804598Y-61096780D01*
X160810458Y-61114805D01*
X160832831Y-61176543D01*
X160868897Y-61268303D01*
X160916314Y-61384470D01*
X160972741Y-61519432D01*
X161035837Y-61667574D01*
X161103260Y-61823283D01*
X161156822Y-61945190D01*
X161222765Y-62095717D01*
X161283349Y-62236774D01*
X161336773Y-62363952D01*
X161381235Y-62472842D01*
X161414932Y-62559037D01*
X161436062Y-62618128D01*
X161442857Y-62644941D01*
X161437815Y-62684009D01*
X161419163Y-62719334D01*
X161382070Y-62754903D01*
X161321702Y-62794698D01*
X161233230Y-62842706D01*
X161156512Y-62881112D01*
X160930482Y-63000935D01*
X160737250Y-63122971D01*
X160570587Y-63251386D01*
X160482224Y-63331800D01*
X160401360Y-63411549D01*
X160349808Y-63466716D01*
X160327592Y-63498592D01*
X160334736Y-63508463D01*
X160371263Y-63497616D01*
X160437197Y-63467341D01*
X160484266Y-63443758D01*
X160588762Y-63394213D01*
X160703060Y-63346094D01*
X160818695Y-63302368D01*
X160927203Y-63266005D01*
X161020117Y-63239974D01*
X161088973Y-63227244D01*
X161103867Y-63226462D01*
X161163779Y-63241571D01*
X161217708Y-63279682D01*
X161253278Y-63329971D01*
X161260692Y-63363627D01*
X161249238Y-63420108D01*
X161221492Y-63475461D01*
X161194267Y-63504742D01*
X161166636Y-63516853D01*
X161111714Y-63536500D01*
X161039673Y-63560111D01*
X161012444Y-63568605D01*
X160864233Y-63622559D01*
X160700802Y-63695989D01*
X160535699Y-63781926D01*
X160382471Y-63873400D01*
X160274000Y-63948547D01*
X160181570Y-64013868D01*
X160110151Y-64052318D01*
X160053752Y-64065275D01*
X160006383Y-64054115D01*
X159962061Y-64020223D01*
X159917992Y-63949745D01*
X159897754Y-63854386D01*
X159901030Y-63739987D01*
X159927500Y-63612390D01*
X159976847Y-63477433D01*
X159993616Y-63441385D01*
X160065249Y-63324954D01*
X160168682Y-63200539D01*
X160298677Y-63072616D01*
X160449996Y-62945664D01*
X160617404Y-62824159D01*
X160795662Y-62712580D01*
X160932941Y-62638297D01*
X161083881Y-62562203D01*
X161015295Y-62411700D01*
X160983214Y-62342301D01*
X160957195Y-62287868D01*
X160941463Y-62257171D01*
X160939139Y-62253627D01*
X160917554Y-62252675D01*
X160867831Y-62257269D01*
X160800361Y-62266425D01*
X160794427Y-62267337D01*
X160688824Y-62282021D01*
X160613329Y-62287342D01*
X160559946Y-62282602D01*
X160520680Y-62267106D01*
X160488035Y-62240658D01*
X160447306Y-62176523D01*
X160442601Y-62107583D01*
X160473826Y-62042721D01*
X160490251Y-62025326D01*
X160537097Y-61994147D01*
X160602904Y-61974435D01*
X160666097Y-61965368D01*
X160739910Y-61953906D01*
X160782763Y-61939252D01*
X160791769Y-61928045D01*
X160784532Y-61903267D01*
X160765350Y-61853758D01*
X160738020Y-61788129D01*
X160706338Y-61714991D01*
X160674099Y-61642955D01*
X160645099Y-61580633D01*
X160623134Y-61536635D01*
X160611999Y-61519573D01*
X160611730Y-61519606D01*
X160581507Y-61525893D01*
X160524458Y-61531746D01*
X160452831Y-61536543D01*
X160378876Y-61539667D01*
X160314844Y-61540498D01*
X160272983Y-61538415D01*
X160266397Y-61537073D01*
X160221696Y-61505098D01*
X160188607Y-61450202D01*
X160175121Y-61388373D01*
X160178088Y-61360398D01*
X160213490Y-61297047D01*
X160282558Y-61251818D01*
X160383884Y-61225601D01*
X160392811Y-61224417D01*
X160455673Y-61214475D01*
X160486981Y-61202608D01*
X160494229Y-61185348D01*
X160492705Y-61178171D01*
X160484753Y-61149415D01*
X160468634Y-61089598D01*
X160446144Y-61005444D01*
X160419081Y-60903677D01*
X160392594Y-60803693D01*
X160293366Y-60485226D01*
X160171613Y-60196929D01*
X160127756Y-60118425D01*
X160025874Y-59936057D01*
X159854686Y-59699866D01*
X159729678Y-59558908D01*
X159577592Y-59418483D01*
X159427278Y-59316745D01*
X159278917Y-59253775D01*
X159132693Y-59229654D01*
X159011325Y-59239538D01*
X158940354Y-59250966D01*
X158891994Y-59250520D01*
X158851436Y-59237583D01*
X158840965Y-59232420D01*
X158797449Y-59202562D01*
X158772043Y-59171705D01*
X158771906Y-59171356D01*
X158760201Y-59097899D01*
X158769849Y-59004405D01*
X158799471Y-58902622D01*
X158801033Y-58898693D01*
X159150259Y-58898693D01*
X159272351Y-58923484D01*
X159459048Y-58980319D01*
X159640904Y-59074304D01*
X159818906Y-59206062D01*
X159994039Y-59376214D01*
X159998793Y-59381407D01*
X160127756Y-59522708D01*
X160112955Y-59396316D01*
X160108998Y-59342820D01*
X160105441Y-59256900D01*
X160102430Y-59145210D01*
X160100114Y-59014402D01*
X160098639Y-58871129D01*
X160098154Y-58729959D01*
X160098154Y-58189995D01*
X159946079Y-58266466D01*
X159708102Y-58399195D01*
X159501562Y-58541789D01*
X159329228Y-58692189D01*
X159234017Y-58796618D01*
X159150259Y-58898693D01*
X158801033Y-58898693D01*
X158805104Y-58888451D01*
X158896230Y-58716102D01*
X159025697Y-58548289D01*
X159192980Y-58385466D01*
X159397557Y-58228088D01*
X159638906Y-58076609D01*
X159896404Y-57941180D01*
X160163577Y-57811503D01*
X160176270Y-57729867D01*
X160192545Y-57643037D01*
X160217920Y-57528928D01*
X160249805Y-57397547D01*
X160285607Y-57258904D01*
X160291559Y-57237119D01*
X160616568Y-57237119D01*
X160717139Y-57300530D01*
X160930381Y-57412550D01*
X161155367Y-57488052D01*
X161389713Y-57526956D01*
X161631033Y-57529178D01*
X161876945Y-57494635D01*
X162125063Y-57423245D01*
X162290530Y-57355137D01*
X162378088Y-57311502D01*
X162467214Y-57261660D01*
X162551142Y-57210060D01*
X162623107Y-57161149D01*
X162676344Y-57119373D01*
X162704087Y-57089181D01*
X162706538Y-57081672D01*
X162700355Y-57052559D01*
X162683784Y-56996452D01*
X162659792Y-56923080D01*
X162645920Y-56882903D01*
X162584863Y-56728272D01*
X162507193Y-56560440D01*
X162419868Y-56392924D01*
X162329844Y-56239240D01*
X162262415Y-56137922D01*
X162208413Y-56065475D01*
X162146095Y-55986644D01*
X162080618Y-55907383D01*
X162017138Y-55833648D01*
X161960810Y-55771395D01*
X161916793Y-55726580D01*
X161890240Y-55705157D01*
X161886864Y-55704154D01*
X161875047Y-55721734D01*
X161860988Y-55767165D01*
X161846985Y-55829489D01*
X161835337Y-55897746D01*
X161828342Y-55960975D01*
X161827307Y-55988086D01*
X161811059Y-56065702D01*
X161766450Y-56122250D01*
X161699684Y-56151161D01*
X161671055Y-56153539D01*
X161636575Y-56151407D01*
X161606181Y-56141684D01*
X161573089Y-56119382D01*
X161530515Y-56079509D01*
X161471677Y-56017076D01*
X161443237Y-55985953D01*
X161290682Y-55818367D01*
X161247699Y-55872272D01*
X161211918Y-55923935D01*
X161163565Y-56003292D01*
X161106758Y-56102704D01*
X161045615Y-56214532D01*
X160984255Y-56331136D01*
X160926794Y-56444877D01*
X160877350Y-56548115D01*
X160848586Y-56612693D01*
X160804893Y-56719398D01*
X160756587Y-56843622D01*
X160711209Y-56965743D01*
X160691031Y-57022598D01*
X160616568Y-57237119D01*
X160291559Y-57237119D01*
X160322737Y-57123005D01*
X160358603Y-56999859D01*
X160390614Y-56899474D01*
X160393171Y-56892033D01*
X160556761Y-56474105D01*
X160749542Y-56080689D01*
X160970829Y-55713127D01*
X161060070Y-55583563D01*
X161135578Y-55487002D01*
X161201387Y-55426206D01*
X161261994Y-55400534D01*
X161321896Y-55409343D01*
X161385592Y-55451992D01*
X161456823Y-55526945D01*
X161501209Y-55577293D01*
X161536336Y-55612955D01*
X161554173Y-55626000D01*
X161568601Y-55609440D01*
X161589646Y-55567362D01*
X161601102Y-55539319D01*
X161645153Y-55457547D01*
X161706426Y-55387306D01*
X161775793Y-55336721D01*
X161844126Y-55313915D01*
X161854963Y-55313385D01*
X161916773Y-55329834D01*
G37*
D13*
%TO.C,D7*%
X132397500Y-79794100D02*
X131955540Y-79794100D01*
X129664460Y-79794100D02*
X129222500Y-79794100D01*
X129222500Y-79794100D02*
X129222500Y-84797900D01*
X132397500Y-84797900D02*
X132397500Y-79794100D01*
X131955540Y-84797900D02*
X132397500Y-84797900D01*
X129222500Y-84797900D02*
X129664460Y-84797900D01*
X130886200Y-78460600D02*
G75*
G02*
X130733800Y-78460600I-76200J0D01*
G01*
X130733800Y-78460600D02*
G75*
G02*
X130886200Y-78460600I76200J0D01*
G01*
%TO.C,D2*%
X151422100Y-57848500D02*
X151422100Y-58290460D01*
X151422100Y-60581540D02*
X151422100Y-61023500D01*
X151422100Y-61023500D02*
X156425900Y-61023500D01*
X156425900Y-57848500D02*
X151422100Y-57848500D01*
X156425900Y-58290460D02*
X156425900Y-57848500D01*
X156425900Y-61023500D02*
X156425900Y-60581540D01*
X150164800Y-59436000D02*
G75*
G02*
X150012400Y-59436000I-76200J0D01*
G01*
X150012400Y-59436000D02*
G75*
G02*
X150164800Y-59436000I76200J0D01*
G01*
%TO.C,D5*%
X168833800Y-75438000D02*
G75*
G02*
X168681400Y-75438000I-76200J0D01*
G01*
X168681400Y-75438000D02*
G75*
G02*
X168833800Y-75438000I76200J0D01*
G01*
X162420300Y-73850500D02*
X162420300Y-74292460D01*
X162420300Y-76583540D02*
X162420300Y-77025500D01*
X162420300Y-77025500D02*
X167424100Y-77025500D01*
X167424100Y-73850500D02*
X162420300Y-73850500D01*
X167424100Y-74292460D02*
X167424100Y-73850500D01*
X167424100Y-77025500D02*
X167424100Y-76583540D01*
D14*
%TO.C,TP1*%
X145476000Y-68834000D02*
G75*
G02*
X143576000Y-68834000I-950000J0D01*
G01*
X143576000Y-68834000D02*
G75*
G02*
X145476000Y-68834000I950000J0D01*
G01*
%TO.C,TP2*%
X161478000Y-72390000D02*
G75*
G02*
X159578000Y-72390000I-950000J0D01*
G01*
X159578000Y-72390000D02*
G75*
G02*
X161478000Y-72390000I950000J0D01*
G01*
%TO.C,C2*%
X169645000Y-68896598D02*
X169645000Y-69419102D01*
X168175000Y-68896598D02*
X168175000Y-69419102D01*
D13*
%TO.C,U2*%
X161963100Y-67221100D02*
X161963100Y-71462900D01*
X167220900Y-71462900D02*
X167220900Y-67221100D01*
D14*
%TO.C,C1*%
X143283000Y-65793252D02*
X143283000Y-65270748D01*
X144753000Y-65793252D02*
X144753000Y-65270748D01*
D15*
%TO.C,R1*%
X129843000Y-58927000D02*
X129843000Y-59222000D01*
X129843000Y-58927000D02*
X137083000Y-58927000D01*
X129843000Y-67057000D02*
X129843000Y-66762000D01*
X137083000Y-58927000D02*
X137083000Y-67057000D01*
X137083000Y-67057000D02*
X129843000Y-67057000D01*
D16*
X142458000Y-65532000D02*
G75*
G02*
X142258000Y-65532000I-100000J0D01*
G01*
X142258000Y-65532000D02*
G75*
G02*
X142458000Y-65532000I100000J0D01*
G01*
D15*
%TO.C,L1*%
X152448000Y-62786000D02*
X152648000Y-62786000D01*
X152448000Y-68786000D02*
X152448000Y-62786000D01*
X152648000Y-68786000D02*
X152448000Y-68786000D01*
X158248000Y-68786000D02*
X158448000Y-68786000D01*
X158448000Y-62786000D02*
X158248000Y-62786000D01*
X158448000Y-68786000D02*
X158448000Y-62786000D01*
D13*
%TO.C,U3*%
X134531100Y-83146900D02*
X138772900Y-83146900D01*
X138772900Y-77889100D02*
X134531100Y-77889100D01*
D15*
%TO.C,L2*%
X154892000Y-78280000D02*
X154892000Y-84280000D01*
X154692000Y-78280000D02*
X154892000Y-78280000D01*
X149092000Y-78280000D02*
X148892000Y-78280000D01*
X148892000Y-78280000D02*
X148892000Y-84280000D01*
X154892000Y-84280000D02*
X154692000Y-84280000D01*
X148892000Y-84280000D02*
X149092000Y-84280000D01*
D14*
%TO.C,C3*%
X131071252Y-77951000D02*
X130548748Y-77951000D01*
X131071252Y-76481000D02*
X130548748Y-76481000D01*
D15*
%TO.C,R6*%
X129843000Y-67817000D02*
X129843000Y-68112000D01*
X129843000Y-67817000D02*
X137083000Y-67817000D01*
X129843000Y-75947000D02*
X129843000Y-75652000D01*
X137083000Y-67817000D02*
X137083000Y-75947000D01*
X137083000Y-75947000D02*
X129843000Y-75947000D01*
D16*
X142458000Y-74422000D02*
G75*
G02*
X142258000Y-74422000I-100000J0D01*
G01*
X142258000Y-74422000D02*
G75*
G02*
X142458000Y-74422000I100000J0D01*
G01*
D14*
%TO.C,R2*%
X166130500Y-60197276D02*
X166130500Y-60706724D01*
X165085500Y-60197276D02*
X165085500Y-60706724D01*
%TO.C,D4*%
X154051000Y-71247000D02*
X158623000Y-71247000D01*
X154051000Y-74803000D02*
X154051000Y-71247000D01*
X154051000Y-74803000D02*
X158623000Y-74803000D01*
X158623000Y-71247000D02*
X158623000Y-74803000D01*
%TO.C,D6*%
X148666000Y-71247000D02*
X153238000Y-71247000D01*
X148666000Y-74803000D02*
X148666000Y-71247000D01*
X148666000Y-74803000D02*
X153238000Y-74803000D01*
X153238000Y-71247000D02*
X153238000Y-74803000D01*
%TO.C,D1*%
X143383000Y-71247000D02*
X147955000Y-71247000D01*
X143383000Y-74803000D02*
X143383000Y-71247000D01*
X143383000Y-74803000D02*
X147955000Y-74803000D01*
X147955000Y-71247000D02*
X147955000Y-74803000D01*
D15*
%TO.C,L3*%
X141272000Y-78280000D02*
X141272000Y-84280000D01*
X141272000Y-84280000D02*
X141472000Y-84280000D01*
X141472000Y-78280000D02*
X141272000Y-78280000D01*
X147072000Y-78280000D02*
X147272000Y-78280000D01*
X147272000Y-78280000D02*
X147272000Y-84280000D01*
X147272000Y-84280000D02*
X147072000Y-84280000D01*
%TO.C,R5*%
X168861000Y-86615000D02*
X168861000Y-86320000D01*
X168861000Y-86615000D02*
X161621000Y-86615000D01*
X168861000Y-78485000D02*
X168861000Y-78780000D01*
X161621000Y-86615000D02*
X161621000Y-78485000D01*
X161621000Y-78485000D02*
X168861000Y-78485000D01*
D16*
X156446000Y-80010000D02*
G75*
G02*
X156246000Y-80010000I-100000J0D01*
G01*
X156246000Y-80010000D02*
G75*
G02*
X156446000Y-80010000I100000J0D01*
G01*
D13*
%TO.C,U1*%
X146342100Y-63595250D02*
X146342100Y-67837050D01*
X151599900Y-67837050D02*
X151599900Y-63595250D01*
D14*
%TO.C,D3*%
X166651000Y-58792000D02*
X166651000Y-61252000D01*
X168121000Y-58792000D02*
X166651000Y-58792000D01*
X168121000Y-61252000D02*
X168121000Y-58792000D01*
%TD*%
M02*
