%TF.GenerationSoftware,KiCad,Pcbnew,8.0.8*%
%TF.CreationDate,2025-02-09T18:41:23-06:00*%
%TF.ProjectId,Autofluorescence_Hardware,4175746f-666c-4756-9f72-657363656e63,rev?*%
%TF.SameCoordinates,Original*%
%TF.FileFunction,Copper,L1,Top*%
%TF.FilePolarity,Positive*%
%FSLAX46Y46*%
G04 Gerber Fmt 4.6, Leading zero omitted, Abs format (unit mm)*
G04 Created by KiCad (PCBNEW 8.0.8) date 2025-02-09 18:41:23*
%MOMM*%
%LPD*%
G01*
G04 APERTURE LIST*
G04 Aperture macros list*
%AMRoundRect*
0 Rectangle with rounded corners*
0 $1 Rounding radius*
0 $2 $3 $4 $5 $6 $7 $8 $9 X,Y pos of 4 corners*
0 Add a 4 corners polygon primitive as box body*
4,1,4,$2,$3,$4,$5,$6,$7,$8,$9,$2,$3,0*
0 Add four circle primitives for the rounded corners*
1,1,$1+$1,$2,$3*
1,1,$1+$1,$4,$5*
1,1,$1+$1,$6,$7*
1,1,$1+$1,$8,$9*
0 Add four rect primitives between the rounded corners*
20,1,$1+$1,$2,$3,$4,$5,0*
20,1,$1+$1,$4,$5,$6,$7,0*
20,1,$1+$1,$6,$7,$8,$9,0*
20,1,$1+$1,$8,$9,$2,$3,0*%
G04 Aperture macros list end*
%TA.AperFunction,SMDPad,CuDef*%
%ADD10RoundRect,0.416667X-0.853333X2.123333X-0.853333X-2.123333X0.853333X-2.123333X0.853333X2.123333X0*%
%TD*%
%TA.AperFunction,SMDPad,CuDef*%
%ADD11RoundRect,0.416667X0.853333X-2.123333X0.853333X2.123333X-0.853333X2.123333X-0.853333X-2.123333X0*%
%TD*%
%TA.AperFunction,SMDPad,CuDef*%
%ADD12RoundRect,0.254000X2.286000X-2.286000X2.286000X2.286000X-2.286000X2.286000X-2.286000X-2.286000X0*%
%TD*%
%TA.AperFunction,SMDPad,CuDef*%
%ADD13R,1.625600X1.574800*%
%TD*%
%TA.AperFunction,SMDPad,CuDef*%
%ADD14R,1.574800X1.625600*%
%TD*%
%TA.AperFunction,SMDPad,CuDef*%
%ADD15C,1.500000*%
%TD*%
%TA.AperFunction,SMDPad,CuDef*%
%ADD16RoundRect,0.250000X-0.475000X0.337500X-0.475000X-0.337500X0.475000X-0.337500X0.475000X0.337500X0*%
%TD*%
%TA.AperFunction,SMDPad,CuDef*%
%ADD17R,0.533400X1.460500*%
%TD*%
%TA.AperFunction,SMDPad,CuDef*%
%ADD18R,2.286000X2.286000*%
%TD*%
%TA.AperFunction,SMDPad,CuDef*%
%ADD19RoundRect,0.250000X0.475000X-0.337500X0.475000X0.337500X-0.475000X0.337500X-0.475000X-0.337500X0*%
%TD*%
%TA.AperFunction,SMDPad,CuDef*%
%ADD20R,2.990000X1.340000*%
%TD*%
%TA.AperFunction,SMDPad,CuDef*%
%ADD21R,8.260000X6.900000*%
%TD*%
%TA.AperFunction,SMDPad,CuDef*%
%ADD22R,5.100000X2.350000*%
%TD*%
%TA.AperFunction,SMDPad,CuDef*%
%ADD23R,1.460500X0.533400*%
%TD*%
%TA.AperFunction,SMDPad,CuDef*%
%ADD24RoundRect,0.250000X0.337500X0.475000X-0.337500X0.475000X-0.337500X-0.475000X0.337500X-0.475000X0*%
%TD*%
%TA.AperFunction,SMDPad,CuDef*%
%ADD25RoundRect,0.237500X-0.237500X0.250000X-0.237500X-0.250000X0.237500X-0.250000X0.237500X0.250000X0*%
%TD*%
%TA.AperFunction,SMDPad,CuDef*%
%ADD26RoundRect,0.187500X0.187500X1.292500X-0.187500X1.292500X-0.187500X-1.292500X0.187500X-1.292500X0*%
%TD*%
%TA.AperFunction,SMDPad,CuDef*%
%ADD27RoundRect,0.250000X0.250000X1.230000X-0.250000X1.230000X-0.250000X-1.230000X0.250000X-1.230000X0*%
%TD*%
%TA.AperFunction,SMDPad,CuDef*%
%ADD28RoundRect,0.237500X-0.237500X0.287500X-0.237500X-0.287500X0.237500X-0.287500X0.237500X0.287500X0*%
%TD*%
%TA.AperFunction,Conductor*%
%ADD29C,0.381000*%
%TD*%
%TA.AperFunction,Conductor*%
%ADD30C,0.508000*%
%TD*%
%TA.AperFunction,Conductor*%
%ADD31C,0.254000*%
%TD*%
%TA.AperFunction,Conductor*%
%ADD32C,0.635000*%
%TD*%
%TA.AperFunction,Conductor*%
%ADD33C,0.152400*%
%TD*%
G04 APERTURE END LIST*
D10*
%TO.P,Conn3,1*%
%TO.N,+12V*%
X159893000Y-92329000D03*
%TO.P,Conn3,2*%
%TO.N,GND*%
X156337000Y-92329000D03*
%TD*%
D11*
%TO.P,Conn2,1*%
%TO.N,VSET*%
X155321000Y-53594000D03*
%TO.P,Conn2,2*%
%TO.N,GND*%
X158877000Y-53594000D03*
%TD*%
D12*
%TO.P,Conn1,2,V+Log*%
%TO.N,+12V*%
X139742000Y-54095600D03*
%TO.P,Conn1,1,GND*%
%TO.N,GND*%
X147616000Y-54095600D03*
%TD*%
D13*
%TO.P,D7,1,K*%
%TO.N,+12V*%
X130810000Y-80137000D03*
%TO.P,D7,2,A*%
%TO.N,Net-(D7-A)*%
X130810000Y-84455000D03*
%TD*%
D14*
%TO.P,D2,1,K*%
%TO.N,+12V*%
X151765000Y-59436000D03*
%TO.P,D2,2,A*%
%TO.N,Net-(D2-A)*%
X156083000Y-59436000D03*
%TD*%
%TO.P,D5,2,A*%
%TO.N,Net-(D5-A)*%
X162763200Y-75438000D03*
%TO.P,D5,1,K*%
%TO.N,+12V*%
X167081200Y-75438000D03*
%TD*%
D15*
%TO.P,TP1,1,1*%
%TO.N,Net-(D1-A)*%
X144526000Y-68834000D03*
%TD*%
%TO.P,TP2,1,1*%
%TO.N,Net-(D4-A)*%
X160528000Y-72390000D03*
%TD*%
D16*
%TO.P,C2,1*%
%TO.N,+12V*%
X168910000Y-68120350D03*
%TO.P,C2,2*%
%TO.N,GND*%
X168910000Y-70195350D03*
%TD*%
D17*
%TO.P,U2,1,VIN*%
%TO.N,+12V*%
X166497000Y-66617850D03*
%TO.P,U2,2,ISENSE*%
%TO.N,Net-(D4-A)*%
X165227000Y-66617850D03*
%TO.P,U2,3,AGND*%
%TO.N,GND*%
X163957000Y-66617850D03*
%TO.P,U2,4,VSET*%
%TO.N,VSET*%
X162687000Y-66617850D03*
%TO.P,U2,5,LX*%
%TO.N,Net-(D5-A)*%
X162687000Y-72066150D03*
%TO.P,U2,6,LX*%
X163957000Y-72066150D03*
%TO.P,U2,7,PGND*%
%TO.N,GND*%
X165227000Y-72066150D03*
%TO.P,U2,8,PGND*%
X166497000Y-72066150D03*
D18*
%TO.P,U2,EPAD,EPAD*%
X164592000Y-69342000D03*
%TD*%
D19*
%TO.P,C1,1*%
%TO.N,+12V*%
X144018000Y-66569500D03*
%TO.P,C1,2*%
%TO.N,GND*%
X144018000Y-64494500D03*
%TD*%
D20*
%TO.P,R1,1*%
%TO.N,+12V*%
X140208000Y-65532000D03*
%TO.P,R1,2*%
%TO.N,Net-(D1-A)*%
X140208000Y-60452000D03*
D21*
%TO.P,R1,3*%
%TO.N,GND*%
X132448000Y-62992000D03*
%TD*%
D22*
%TO.P,L1,1,1*%
%TO.N,Net-(D1-K)*%
X155448000Y-67861000D03*
%TO.P,L1,2,2*%
%TO.N,Net-(D2-A)*%
X155448000Y-63711000D03*
%TD*%
D23*
%TO.P,U3,1,VIN*%
%TO.N,+12V*%
X133927850Y-78613000D03*
%TO.P,U3,2,ISENSE*%
%TO.N,Net-(D6-A)*%
X133927850Y-79883000D03*
%TO.P,U3,3,AGND*%
%TO.N,GND*%
X133927850Y-81153000D03*
%TO.P,U3,4,VSET*%
%TO.N,VSET*%
X133927850Y-82423000D03*
%TO.P,U3,5,LX*%
%TO.N,Net-(D7-A)*%
X139376150Y-82423000D03*
%TO.P,U3,6,LX*%
X139376150Y-81153000D03*
%TO.P,U3,7,PGND*%
%TO.N,GND*%
X139376150Y-79883000D03*
%TO.P,U3,8,PGND*%
X139376150Y-78613000D03*
D18*
%TO.P,U3,EPAD,EPAD*%
X136652000Y-80518000D03*
%TD*%
D22*
%TO.P,L2,1,1*%
%TO.N,Net-(D4-K)*%
X151892000Y-79205000D03*
%TO.P,L2,2,2*%
%TO.N,Net-(D5-A)*%
X151892000Y-83355000D03*
%TD*%
D24*
%TO.P,C3,1*%
%TO.N,+12V*%
X131847500Y-77216000D03*
%TO.P,C3,2*%
%TO.N,GND*%
X129772500Y-77216000D03*
%TD*%
D20*
%TO.P,R6,1*%
%TO.N,+12V*%
X140208000Y-74422000D03*
%TO.P,R6,2*%
%TO.N,Net-(D6-A)*%
X140208000Y-69342000D03*
D21*
%TO.P,R6,3*%
%TO.N,GND*%
X132448000Y-71882000D03*
%TD*%
D25*
%TO.P,R2,1*%
%TO.N,+12V*%
X165608000Y-59539500D03*
%TO.P,R2,2*%
%TO.N,Net-(D3-A)*%
X165608000Y-61364500D03*
%TD*%
D26*
%TO.P,D4,1,K*%
%TO.N,Net-(D4-K)*%
X157937000Y-73025000D03*
%TO.P,D4,2,A*%
%TO.N,Net-(D4-A)*%
X154737000Y-73025000D03*
D27*
%TO.P,D4,3*%
%TO.N,GND*%
X156337000Y-73025000D03*
%TD*%
D26*
%TO.P,D6,1,K*%
%TO.N,Net-(D6-K)*%
X152552000Y-73025000D03*
%TO.P,D6,2,A*%
%TO.N,Net-(D6-A)*%
X149352000Y-73025000D03*
D27*
%TO.P,D6,3*%
%TO.N,GND*%
X150952000Y-73025000D03*
%TD*%
D26*
%TO.P,D1,1,K*%
%TO.N,Net-(D1-K)*%
X147269000Y-73025000D03*
%TO.P,D1,2,A*%
%TO.N,Net-(D1-A)*%
X144069000Y-73025000D03*
D27*
%TO.P,D1,3*%
%TO.N,GND*%
X145669000Y-73025000D03*
%TD*%
D22*
%TO.P,L3,1,1*%
%TO.N,Net-(D6-K)*%
X144272000Y-79205000D03*
%TO.P,L3,2,2*%
%TO.N,Net-(D7-A)*%
X144272000Y-83355000D03*
%TD*%
D20*
%TO.P,R5,1*%
%TO.N,+12V*%
X158496000Y-80010000D03*
%TO.P,R5,2*%
%TO.N,Net-(D4-A)*%
X158496000Y-85090000D03*
D21*
%TO.P,R5,3*%
%TO.N,GND*%
X166256000Y-82550000D03*
%TD*%
D17*
%TO.P,U1,1,VIN*%
%TO.N,+12V*%
X147066000Y-68440300D03*
%TO.P,U1,2,ISENSE*%
%TO.N,Net-(D1-A)*%
X148336000Y-68440300D03*
%TO.P,U1,3,AGND*%
%TO.N,GND*%
X149606000Y-68440300D03*
%TO.P,U1,4,VSET*%
%TO.N,VSET*%
X150876000Y-68440300D03*
%TO.P,U1,5,LX*%
%TO.N,Net-(D2-A)*%
X150876000Y-62992000D03*
%TO.P,U1,6,LX*%
X149606000Y-62992000D03*
%TO.P,U1,7,PGND*%
%TO.N,GND*%
X148336000Y-62992000D03*
%TO.P,U1,8,PGND*%
X147066000Y-62992000D03*
D18*
%TO.P,U1,EPAD,EPAD*%
X148971000Y-65716150D03*
%TD*%
D28*
%TO.P,D3,1,K*%
%TO.N,GND*%
X167386000Y-59577000D03*
%TO.P,D3,2,A*%
%TO.N,Net-(D3-A)*%
X167386000Y-61327000D03*
%TD*%
D29*
%TO.N,+12V*%
X159893000Y-88182500D02*
X159893000Y-92329000D01*
X157861000Y-86150500D02*
X159893000Y-88182500D01*
X157861000Y-86150500D02*
X160381500Y-86150500D01*
X129686486Y-86150500D02*
X157861000Y-86150500D01*
D30*
X139742000Y-55897800D02*
X139742000Y-54095600D01*
X151511000Y-58166000D02*
X142010200Y-58166000D01*
X151765000Y-58420000D02*
X151511000Y-58166000D01*
X151765000Y-59436000D02*
X151765000Y-58420000D01*
X142010200Y-58166000D02*
X139742000Y-55897800D01*
X137922000Y-63246000D02*
X137922000Y-55915600D01*
X137922000Y-55915600D02*
X139742000Y-54095600D01*
X130810000Y-78994000D02*
X130810000Y-80137000D01*
X131191000Y-78613000D02*
X130810000Y-78994000D01*
X132588000Y-78613000D02*
X131191000Y-78613000D01*
X132588000Y-78613000D02*
X131847500Y-77872500D01*
X131847500Y-77872500D02*
X131847500Y-77216000D01*
X133927850Y-78613000D02*
X132588000Y-78613000D01*
X134391400Y-78613000D02*
X133927850Y-78613000D01*
X137922000Y-75082400D02*
X134391400Y-78613000D01*
X137922000Y-72136000D02*
X137922000Y-75082400D01*
D31*
%TO.N,VSET*%
X154940000Y-53975000D02*
X155321000Y-53594000D01*
X154940000Y-60960000D02*
X154940000Y-53975000D01*
D30*
%TO.N,+12V*%
X165123500Y-59539500D02*
X165608000Y-59539500D01*
X164465000Y-60198000D02*
X165123500Y-59539500D01*
X166497000Y-65532000D02*
X164465000Y-63500000D01*
X164465000Y-63500000D02*
X164465000Y-60198000D01*
X166497000Y-66617850D02*
X166497000Y-65532000D01*
D29*
X160909000Y-79121000D02*
X162052000Y-77978000D01*
X128819300Y-82127700D02*
X128819300Y-85283314D01*
X160381500Y-86150500D02*
X160909000Y-85623000D01*
X130810000Y-80137000D02*
X128819300Y-82127700D01*
X128819300Y-85283314D02*
X129686486Y-86150500D01*
X160909000Y-85623000D02*
X160909000Y-79121000D01*
D30*
X162052000Y-77978000D02*
X160528000Y-77978000D01*
X164592000Y-77978000D02*
X162052000Y-77978000D01*
D29*
%TO.N,Net-(D6-K)*%
X152552000Y-74397000D02*
X152552000Y-73025000D01*
X152019000Y-74930000D02*
X152552000Y-74397000D01*
X148903658Y-74930000D02*
X152019000Y-74930000D01*
X144272000Y-79205000D02*
X144628658Y-79205000D01*
X144628658Y-79205000D02*
X148903658Y-74930000D01*
%TO.N,Net-(D6-A)*%
X145542000Y-77470000D02*
X149352000Y-73660000D01*
X149352000Y-73660000D02*
X149352000Y-73025000D01*
X141732000Y-77470000D02*
X145542000Y-77470000D01*
%TO.N,Net-(D4-A)*%
X149121000Y-77470000D02*
X148951500Y-77639500D01*
X154060540Y-77470000D02*
X149121000Y-77470000D01*
X148951500Y-77639500D02*
X148951500Y-84920500D01*
X149121000Y-85090000D02*
X158496000Y-85090000D01*
X154737000Y-76793540D02*
X154060540Y-77470000D01*
X154737000Y-73025000D02*
X154737000Y-76793540D01*
X148951500Y-84920500D02*
X149121000Y-85090000D01*
X162560000Y-68307000D02*
X162560000Y-69342000D01*
X163128400Y-67738600D02*
X162560000Y-68307000D01*
X164614200Y-67738600D02*
X163128400Y-67738600D01*
X162560000Y-69342000D02*
X161544000Y-70358000D01*
X165227000Y-66617850D02*
X165227000Y-67125800D01*
X165227000Y-67125800D02*
X164614200Y-67738600D01*
%TO.N,Net-(D1-A)*%
X147227925Y-69850000D02*
X148336000Y-68741925D01*
X145288000Y-69850000D02*
X147227925Y-69850000D01*
X144069000Y-71069000D02*
X145288000Y-69850000D01*
X148336000Y-68741925D02*
X148336000Y-68440300D01*
X144069000Y-73025000D02*
X144069000Y-71069000D01*
D31*
%TO.N,VSET*%
X162316192Y-66617850D02*
X162687000Y-66617850D01*
X151407850Y-65213000D02*
X160911342Y-65213000D01*
X150793425Y-64598575D02*
X151407850Y-65213000D01*
X160911342Y-65213000D02*
X162316192Y-66617850D01*
D29*
%TO.N,Net-(D4-A)*%
X154737000Y-71545000D02*
X154737000Y-73025000D01*
X155670000Y-70612000D02*
X154737000Y-71545000D01*
X161290000Y-70612000D02*
X155670000Y-70612000D01*
X161544000Y-70358000D02*
X160528000Y-71374000D01*
X161544000Y-70358000D02*
X161290000Y-70612000D01*
X160528000Y-71374000D02*
X160528000Y-72390000D01*
%TO.N,Net-(D6-A)*%
X142240000Y-76962000D02*
X141732000Y-77470000D01*
X142240000Y-71374000D02*
X142240000Y-76962000D01*
X140208000Y-69342000D02*
X142240000Y-71374000D01*
%TO.N,Net-(D1-A)*%
X144069000Y-71120000D02*
X144069000Y-73025000D01*
X144069000Y-70612000D02*
X144069000Y-71120000D01*
D30*
%TO.N,+12V*%
X140208000Y-65532000D02*
X137922000Y-63246000D01*
%TO.N,Net-(D3-A)*%
X167348500Y-61364500D02*
X167386000Y-61327000D01*
X165608000Y-61364500D02*
X167348500Y-61364500D01*
D29*
%TO.N,Net-(D5-A)*%
X157825658Y-75438000D02*
X162763200Y-75438000D01*
X154940000Y-78323658D02*
X157825658Y-75438000D01*
X154940000Y-81682000D02*
X154940000Y-78323658D01*
X151892000Y-83355000D02*
X153267000Y-83355000D01*
X153267000Y-83355000D02*
X154940000Y-81682000D01*
%TO.N,Net-(D4-K)*%
X153237000Y-79205000D02*
X151892000Y-79205000D01*
X157937000Y-74505000D02*
X153237000Y-79205000D01*
X157937000Y-73025000D02*
X157937000Y-74505000D01*
D30*
%TO.N,Net-(D5-A)*%
X162687000Y-72066150D02*
X162687000Y-75361800D01*
X162687000Y-75361800D02*
X162763200Y-75438000D01*
X162687000Y-72066150D02*
X163957000Y-72066150D01*
%TO.N,+12V*%
X167081200Y-75438000D02*
X167081200Y-75488800D01*
X167081200Y-75488800D02*
X164592000Y-77978000D01*
X160528000Y-77978000D02*
X158496000Y-80010000D01*
D32*
%TO.N,Net-(D5-A)*%
X152400000Y-82847000D02*
X153775000Y-82847000D01*
D30*
%TO.N,+12V*%
X167640000Y-74879200D02*
X167081200Y-75438000D01*
X167640000Y-70866000D02*
X167640000Y-74879200D01*
X166497000Y-66617850D02*
X166497000Y-69723000D01*
X167180350Y-68120350D02*
X168910000Y-68120350D01*
X166497000Y-67437000D02*
X167180350Y-68120350D01*
X166497000Y-66617850D02*
X166497000Y-67437000D01*
D31*
%TO.N,VSET*%
X150441000Y-64246150D02*
X150793425Y-64598575D01*
X150793425Y-64598575D02*
X150876000Y-64681150D01*
D32*
%TO.N,Net-(D2-A)*%
X156083000Y-63076000D02*
X156083000Y-59436000D01*
X155448000Y-63711000D02*
X156083000Y-63076000D01*
D29*
%TO.N,Net-(D1-A)*%
X145876150Y-65472500D02*
X148336000Y-67932350D01*
X148336000Y-67932350D02*
X148336000Y-68440300D01*
X142494000Y-64770000D02*
X143196500Y-65472500D01*
X143196500Y-65472500D02*
X145876150Y-65472500D01*
X141986000Y-60452000D02*
X142494000Y-60960000D01*
X140208000Y-60452000D02*
X141986000Y-60452000D01*
X142494000Y-60960000D02*
X142494000Y-64770000D01*
%TO.N,+12V*%
X141224000Y-66548000D02*
X143996500Y-66548000D01*
X140208000Y-65532000D02*
X141224000Y-66548000D01*
X143996500Y-66548000D02*
X144018000Y-66569500D01*
D31*
%TO.N,VSET*%
X150876000Y-64681150D02*
X150876000Y-68440300D01*
X149336150Y-64246150D02*
X150441000Y-64246150D01*
X148929700Y-63839700D02*
X149336150Y-64246150D01*
X148929700Y-62017350D02*
X148929700Y-63839700D01*
X154940000Y-60960000D02*
X154178000Y-61722000D01*
X154178000Y-61722000D02*
X149225050Y-61722000D01*
X149225050Y-61722000D02*
X148929700Y-62017350D01*
D29*
%TO.N,+12V*%
X145195200Y-66569500D02*
X147066000Y-68440300D01*
X144018000Y-66569500D02*
X145195200Y-66569500D01*
%TO.N,Net-(D1-A)*%
X144069000Y-69291000D02*
X144069000Y-70612000D01*
X144526000Y-68834000D02*
X144069000Y-69291000D01*
%TO.N,Net-(D6-A)*%
X136848800Y-77470000D02*
X141732000Y-77470000D01*
X134435800Y-79883000D02*
X136848800Y-77470000D01*
X133927850Y-79883000D02*
X134435800Y-79883000D01*
%TO.N,Net-(D7-A)*%
X143340000Y-82423000D02*
X144272000Y-83355000D01*
X139376150Y-82423000D02*
X143340000Y-82423000D01*
X139376150Y-83889850D02*
X139376150Y-82423000D01*
X138811000Y-84455000D02*
X139376150Y-83889850D01*
X130810000Y-84455000D02*
X138811000Y-84455000D01*
X139376150Y-81153000D02*
X139376150Y-82423000D01*
%TO.N,Net-(D1-A)*%
X148336000Y-68440300D02*
X148336000Y-68948250D01*
D32*
%TO.N,Net-(D2-A)*%
X149606000Y-62992000D02*
X150876000Y-62992000D01*
X150876000Y-62992000D02*
X154729000Y-62992000D01*
X154729000Y-62992000D02*
X155448000Y-63711000D01*
D30*
%TO.N,+12V*%
X166497000Y-69723000D02*
X167640000Y-70866000D01*
D29*
%TO.N,Net-(D1-K)*%
X152951000Y-70358000D02*
X155448000Y-67861000D01*
X149606000Y-70358000D02*
X152951000Y-70358000D01*
X148336000Y-71958000D02*
X148336000Y-71628000D01*
X147269000Y-73025000D02*
X148336000Y-71958000D01*
X148336000Y-71628000D02*
X149606000Y-70358000D01*
D30*
%TO.N,+12V*%
X137922000Y-72136000D02*
X140208000Y-74422000D01*
X137922000Y-63246000D02*
X137922000Y-72136000D01*
D33*
%TO.N,VSET*%
X129667000Y-82423000D02*
X133927850Y-82423000D01*
X129286000Y-82804000D02*
X129667000Y-82423000D01*
X129286000Y-85090000D02*
X129286000Y-82804000D01*
X129714600Y-85518600D02*
X129286000Y-85090000D01*
X147780400Y-85518600D02*
X129714600Y-85518600D01*
X148484800Y-84814200D02*
X147780400Y-85518600D01*
X148927686Y-77003300D02*
X148484800Y-77446186D01*
X153628700Y-77003300D02*
X148927686Y-77003300D01*
X154051000Y-76581000D02*
X153628700Y-77003300D01*
X148484800Y-77446186D02*
X148484800Y-84814200D01*
X154051000Y-71570034D02*
X154051000Y-76581000D01*
X154656541Y-70964493D02*
X154051000Y-71570034D01*
X160994700Y-70145300D02*
X155476686Y-70145300D01*
X155476686Y-70145300D02*
X154657493Y-70964493D01*
X162052000Y-69088000D02*
X160994700Y-70145300D01*
X154657493Y-70964493D02*
X154656541Y-70964493D01*
X162052000Y-68154986D02*
X162052000Y-69088000D01*
X162687000Y-67519986D02*
X162052000Y-68154986D01*
X162687000Y-66617850D02*
X162687000Y-67519986D01*
%TD*%
%TA.AperFunction,Conductor*%
%TO.N,GND*%
G36*
X137169799Y-51321065D02*
G01*
X137199863Y-51373136D01*
X137189422Y-51432350D01*
X137165495Y-51459124D01*
X137130992Y-51484588D01*
X137130988Y-51484592D01*
X137049630Y-51594827D01*
X137004378Y-51724148D01*
X137004378Y-51724150D01*
X137001500Y-51754847D01*
X137001500Y-56436345D01*
X137001501Y-56436356D01*
X137004378Y-56467050D01*
X137004378Y-56467051D01*
X137049629Y-56596371D01*
X137049630Y-56596372D01*
X137049631Y-56596373D01*
X137130990Y-56706610D01*
X137241227Y-56787969D01*
X137241226Y-56787969D01*
X137370549Y-56833221D01*
X137387804Y-56834839D01*
X137442139Y-56860587D01*
X137467211Y-56915237D01*
X137467500Y-56922355D01*
X137467500Y-63180765D01*
X137467499Y-63180783D01*
X137467499Y-63312915D01*
X137467500Y-63312928D01*
X137467500Y-72070765D01*
X137467499Y-72070783D01*
X137467499Y-72202915D01*
X137467500Y-72202928D01*
X137467500Y-74857730D01*
X137446935Y-74914231D01*
X137441755Y-74919885D01*
X134241585Y-78120055D01*
X134187091Y-78145466D01*
X134179430Y-78145800D01*
X133177852Y-78145800D01*
X133126483Y-78156018D01*
X133122496Y-78156811D01*
X133105348Y-78158500D01*
X132812670Y-78158500D01*
X132756169Y-78137935D01*
X132750515Y-78132755D01*
X132609700Y-77991940D01*
X132584289Y-77937446D01*
X132588888Y-77900753D01*
X132602798Y-77861000D01*
X132632646Y-77775699D01*
X132635500Y-77745266D01*
X132635500Y-76686734D01*
X132632646Y-76656301D01*
X132632645Y-76656297D01*
X132587794Y-76528119D01*
X132587793Y-76528118D01*
X132507152Y-76418852D01*
X132507147Y-76418847D01*
X132397881Y-76338206D01*
X132397880Y-76338205D01*
X132269702Y-76293354D01*
X132269697Y-76293353D01*
X132239267Y-76290500D01*
X132239266Y-76290500D01*
X131455734Y-76290500D01*
X131455733Y-76290500D01*
X131425302Y-76293353D01*
X131425297Y-76293354D01*
X131297119Y-76338205D01*
X131297118Y-76338206D01*
X131187852Y-76418847D01*
X131187847Y-76418852D01*
X131107206Y-76528118D01*
X131107205Y-76528119D01*
X131062354Y-76656297D01*
X131062353Y-76656302D01*
X131059500Y-76686732D01*
X131059500Y-77745267D01*
X131062353Y-77775697D01*
X131062354Y-77775702D01*
X131107205Y-77903880D01*
X131107206Y-77903881D01*
X131191761Y-78018450D01*
X131189025Y-78020468D01*
X131209069Y-78063452D01*
X131193506Y-78121530D01*
X131144253Y-78156018D01*
X131132981Y-78158260D01*
X131131169Y-78158498D01*
X131015570Y-78189472D01*
X130911928Y-78249310D01*
X130446310Y-78714928D01*
X130386473Y-78818569D01*
X130386473Y-78818570D01*
X130355499Y-78934164D01*
X130355499Y-79060915D01*
X130355500Y-79060928D01*
X130355500Y-79061200D01*
X130334935Y-79117701D01*
X130282864Y-79147765D01*
X130267600Y-79149100D01*
X129977452Y-79149100D01*
X129948210Y-79154916D01*
X129918967Y-79160733D01*
X129852651Y-79205045D01*
X129852645Y-79205051D01*
X129808333Y-79271367D01*
X129796700Y-79329853D01*
X129796700Y-80560932D01*
X129776135Y-80617433D01*
X129770955Y-80623087D01*
X128506423Y-81887618D01*
X128454945Y-81976780D01*
X128445577Y-82011745D01*
X128445576Y-82011748D01*
X128428300Y-82076224D01*
X128428300Y-85231838D01*
X128428300Y-85334790D01*
X128454946Y-85434235D01*
X128506422Y-85523394D01*
X129446406Y-86463378D01*
X129535565Y-86514854D01*
X129635010Y-86541500D01*
X129737962Y-86541500D01*
X157662632Y-86541500D01*
X157719133Y-86562065D01*
X157724787Y-86567245D01*
X159476255Y-88318713D01*
X159501666Y-88373207D01*
X159502000Y-88380868D01*
X159502000Y-89500600D01*
X159481435Y-89557101D01*
X159429364Y-89587165D01*
X159414100Y-89588500D01*
X158977347Y-89588500D01*
X158977329Y-89588501D01*
X158942355Y-89591253D01*
X158942353Y-89591253D01*
X158792613Y-89634757D01*
X158792611Y-89634758D01*
X158658397Y-89714132D01*
X158548132Y-89824397D01*
X158468758Y-89958611D01*
X158425254Y-90108352D01*
X158425253Y-90108357D01*
X158422500Y-90143340D01*
X158422500Y-94514652D01*
X158422501Y-94514670D01*
X158425253Y-94549644D01*
X158425253Y-94549646D01*
X158450655Y-94637077D01*
X158446670Y-94697071D01*
X158405054Y-94740469D01*
X158366245Y-94749500D01*
X130812310Y-94749500D01*
X130807710Y-94749380D01*
X130637680Y-94740469D01*
X130468660Y-94731610D01*
X130459512Y-94730649D01*
X130320137Y-94708574D01*
X130126463Y-94677899D01*
X130117464Y-94675986D01*
X129791761Y-94588715D01*
X129783010Y-94585872D01*
X129468198Y-94465027D01*
X129459793Y-94461284D01*
X129159356Y-94308203D01*
X129151388Y-94303603D01*
X128868586Y-94119949D01*
X128861143Y-94114541D01*
X128599097Y-93902341D01*
X128592259Y-93896185D01*
X128353814Y-93657740D01*
X128347658Y-93650902D01*
X128135458Y-93388856D01*
X128130050Y-93381413D01*
X127946396Y-93098611D01*
X127941796Y-93090643D01*
X127799465Y-92811303D01*
X127788710Y-92790195D01*
X127784976Y-92781812D01*
X127664124Y-92466981D01*
X127661287Y-92458247D01*
X127574010Y-92132523D01*
X127572102Y-92123548D01*
X127519348Y-91790470D01*
X127518389Y-91781356D01*
X127500620Y-91442289D01*
X127500500Y-91437689D01*
X127500500Y-91308877D01*
X128809500Y-91308877D01*
X128809500Y-91571122D01*
X128843730Y-91831115D01*
X128843733Y-91831128D01*
X128898670Y-92036159D01*
X128911602Y-92084419D01*
X128965018Y-92213378D01*
X129011954Y-92326691D01*
X129011955Y-92326693D01*
X129011957Y-92326697D01*
X129143076Y-92553803D01*
X129302718Y-92761851D01*
X129488149Y-92947282D01*
X129696197Y-93106924D01*
X129923303Y-93238043D01*
X130165581Y-93338398D01*
X130418884Y-93406270D01*
X130605263Y-93430807D01*
X130678877Y-93440500D01*
X130678880Y-93440500D01*
X130941123Y-93440500D01*
X131008388Y-93431643D01*
X131201116Y-93406270D01*
X131454419Y-93338398D01*
X131696697Y-93238043D01*
X131923803Y-93106924D01*
X132131851Y-92947282D01*
X132317282Y-92761851D01*
X132476924Y-92553803D01*
X132608043Y-92326697D01*
X132708398Y-92084419D01*
X132776270Y-91831116D01*
X132810500Y-91571120D01*
X132810500Y-91308880D01*
X132776270Y-91048884D01*
X132708398Y-90795581D01*
X132608043Y-90553303D01*
X132476924Y-90326197D01*
X132317282Y-90118149D01*
X132131851Y-89932718D01*
X131923803Y-89773076D01*
X131696697Y-89641957D01*
X131696695Y-89641956D01*
X131696693Y-89641955D01*
X131696691Y-89641954D01*
X131567643Y-89588501D01*
X131454419Y-89541602D01*
X131454415Y-89541601D01*
X131454413Y-89541600D01*
X131201128Y-89473733D01*
X131201122Y-89473731D01*
X131201116Y-89473730D01*
X131136117Y-89465172D01*
X130941123Y-89439500D01*
X130941120Y-89439500D01*
X130678880Y-89439500D01*
X130678877Y-89439500D01*
X130418884Y-89473730D01*
X130418871Y-89473733D01*
X130165586Y-89541600D01*
X130165579Y-89541603D01*
X129923308Y-89641954D01*
X129923306Y-89641955D01*
X129696201Y-89773073D01*
X129696198Y-89773075D01*
X129488152Y-89932715D01*
X129302715Y-90118152D01*
X129143075Y-90326198D01*
X129143073Y-90326201D01*
X129011955Y-90553306D01*
X129011954Y-90553308D01*
X128911603Y-90795579D01*
X128911600Y-90795586D01*
X128843733Y-91048871D01*
X128843730Y-91048884D01*
X128809500Y-91308877D01*
X127500500Y-91308877D01*
X127500500Y-54612310D01*
X127500620Y-54607710D01*
X127503953Y-54544108D01*
X127507372Y-54478880D01*
X128809500Y-54478880D01*
X128809500Y-54741120D01*
X128843730Y-55001116D01*
X128911602Y-55254419D01*
X128965018Y-55383378D01*
X129011954Y-55496691D01*
X129011955Y-55496693D01*
X129011957Y-55496697D01*
X129143076Y-55723803D01*
X129302718Y-55931851D01*
X129488149Y-56117282D01*
X129696197Y-56276924D01*
X129923303Y-56408043D01*
X130165581Y-56508398D01*
X130418884Y-56576270D01*
X130605263Y-56600807D01*
X130678877Y-56610500D01*
X130678880Y-56610500D01*
X130941123Y-56610500D01*
X131008388Y-56601643D01*
X131201116Y-56576270D01*
X131454419Y-56508398D01*
X131696697Y-56408043D01*
X131923803Y-56276924D01*
X132131851Y-56117282D01*
X132317282Y-55931851D01*
X132476924Y-55723803D01*
X132608043Y-55496697D01*
X132708398Y-55254419D01*
X132776270Y-55001116D01*
X132810500Y-54741120D01*
X132810500Y-54478880D01*
X132776270Y-54218884D01*
X132708398Y-53965581D01*
X132608043Y-53723303D01*
X132476924Y-53496197D01*
X132317282Y-53288149D01*
X132131851Y-53102718D01*
X131923803Y-52943076D01*
X131696697Y-52811957D01*
X131696695Y-52811956D01*
X131696693Y-52811955D01*
X131696691Y-52811954D01*
X131583378Y-52765018D01*
X131454419Y-52711602D01*
X131454415Y-52711601D01*
X131454413Y-52711600D01*
X131201128Y-52643733D01*
X131201122Y-52643731D01*
X131201116Y-52643730D01*
X131136117Y-52635172D01*
X130941123Y-52609500D01*
X130941120Y-52609500D01*
X130678880Y-52609500D01*
X130678877Y-52609500D01*
X130418884Y-52643730D01*
X130418871Y-52643733D01*
X130165586Y-52711600D01*
X130165579Y-52711603D01*
X129923308Y-52811954D01*
X129923306Y-52811955D01*
X129696201Y-52943073D01*
X129696198Y-52943075D01*
X129488152Y-53102715D01*
X129302715Y-53288152D01*
X129143075Y-53496198D01*
X129143073Y-53496201D01*
X129011955Y-53723306D01*
X129011954Y-53723308D01*
X128911603Y-53965579D01*
X128911600Y-53965586D01*
X128843733Y-54218871D01*
X128843730Y-54218884D01*
X128837177Y-54268661D01*
X128809500Y-54478880D01*
X127507372Y-54478880D01*
X127518390Y-54268641D01*
X127519347Y-54259531D01*
X127572103Y-53926447D01*
X127574009Y-53917480D01*
X127661288Y-53591746D01*
X127664122Y-53583024D01*
X127784979Y-53268180D01*
X127788706Y-53259811D01*
X127941803Y-52959342D01*
X127946387Y-52951402D01*
X128130056Y-52668577D01*
X128135452Y-52661150D01*
X128347667Y-52399086D01*
X128353804Y-52392269D01*
X128592269Y-52153804D01*
X128599086Y-52147667D01*
X128861150Y-51935452D01*
X128868577Y-51930056D01*
X129151402Y-51746387D01*
X129159342Y-51741803D01*
X129459811Y-51588706D01*
X129468180Y-51584979D01*
X129783024Y-51464122D01*
X129791746Y-51461288D01*
X130117480Y-51374009D01*
X130126447Y-51372103D01*
X130459531Y-51319347D01*
X130468641Y-51318390D01*
X130807710Y-51300619D01*
X130812310Y-51300500D01*
X130875892Y-51300500D01*
X137113298Y-51300500D01*
X137169799Y-51321065D01*
G37*
%TD.AperFunction*%
%TA.AperFunction,Conductor*%
G36*
X167642289Y-51300619D02*
G01*
X167981356Y-51318389D01*
X167990470Y-51319348D01*
X168323548Y-51372102D01*
X168332523Y-51374010D01*
X168658247Y-51461287D01*
X168666981Y-51464124D01*
X168981812Y-51584976D01*
X168990195Y-51588710D01*
X169290648Y-51741799D01*
X169298605Y-51746393D01*
X169311632Y-51754852D01*
X169581413Y-51930050D01*
X169588856Y-51935458D01*
X169850902Y-52147658D01*
X169857740Y-52153814D01*
X170096185Y-52392259D01*
X170102341Y-52399097D01*
X170314541Y-52661143D01*
X170319949Y-52668586D01*
X170503603Y-52951388D01*
X170508203Y-52959356D01*
X170661284Y-53259793D01*
X170665027Y-53268198D01*
X170785872Y-53583010D01*
X170788715Y-53591761D01*
X170875986Y-53917464D01*
X170877899Y-53926463D01*
X170930649Y-54259510D01*
X170931611Y-54268661D01*
X170949380Y-54607710D01*
X170949500Y-54612310D01*
X170949500Y-91437689D01*
X170949380Y-91442289D01*
X170931611Y-91781338D01*
X170930649Y-91790489D01*
X170877899Y-92123536D01*
X170875986Y-92132535D01*
X170788715Y-92458238D01*
X170785872Y-92466989D01*
X170665027Y-92781801D01*
X170661284Y-92790206D01*
X170508203Y-93090643D01*
X170503603Y-93098611D01*
X170319949Y-93381413D01*
X170314541Y-93388856D01*
X170102341Y-93650902D01*
X170096185Y-93657740D01*
X169857740Y-93896185D01*
X169850902Y-93902341D01*
X169588856Y-94114541D01*
X169581413Y-94119949D01*
X169298611Y-94303603D01*
X169290643Y-94308203D01*
X168990206Y-94461284D01*
X168981801Y-94465027D01*
X168666989Y-94585872D01*
X168658238Y-94588715D01*
X168332535Y-94675986D01*
X168323536Y-94677899D01*
X167990489Y-94730649D01*
X167981338Y-94731611D01*
X167642290Y-94749380D01*
X167637690Y-94749500D01*
X161419755Y-94749500D01*
X161363254Y-94728935D01*
X161333190Y-94676864D01*
X161335345Y-94637076D01*
X161360746Y-94549647D01*
X161363500Y-94514655D01*
X161363499Y-91308877D01*
X165639500Y-91308877D01*
X165639500Y-91571122D01*
X165673730Y-91831115D01*
X165673733Y-91831128D01*
X165728670Y-92036159D01*
X165741602Y-92084419D01*
X165795018Y-92213378D01*
X165841954Y-92326691D01*
X165841955Y-92326693D01*
X165841957Y-92326697D01*
X165973076Y-92553803D01*
X166132718Y-92761851D01*
X166318149Y-92947282D01*
X166526197Y-93106924D01*
X166753303Y-93238043D01*
X166995581Y-93338398D01*
X167248884Y-93406270D01*
X167435263Y-93430807D01*
X167508877Y-93440500D01*
X167508880Y-93440500D01*
X167771123Y-93440500D01*
X167838388Y-93431643D01*
X168031116Y-93406270D01*
X168284419Y-93338398D01*
X168526697Y-93238043D01*
X168753803Y-93106924D01*
X168961851Y-92947282D01*
X169147282Y-92761851D01*
X169306924Y-92553803D01*
X169438043Y-92326697D01*
X169538398Y-92084419D01*
X169606270Y-91831116D01*
X169640500Y-91571120D01*
X169640500Y-91308880D01*
X169606270Y-91048884D01*
X169538398Y-90795581D01*
X169438043Y-90553303D01*
X169306924Y-90326197D01*
X169147282Y-90118149D01*
X168961851Y-89932718D01*
X168753803Y-89773076D01*
X168526697Y-89641957D01*
X168526695Y-89641956D01*
X168526693Y-89641955D01*
X168526691Y-89641954D01*
X168397643Y-89588501D01*
X168284419Y-89541602D01*
X168284415Y-89541601D01*
X168284413Y-89541600D01*
X168031128Y-89473733D01*
X168031122Y-89473731D01*
X168031116Y-89473730D01*
X167966117Y-89465172D01*
X167771123Y-89439500D01*
X167771120Y-89439500D01*
X167508880Y-89439500D01*
X167508877Y-89439500D01*
X167248884Y-89473730D01*
X167248871Y-89473733D01*
X166995586Y-89541600D01*
X166995579Y-89541603D01*
X166753308Y-89641954D01*
X166753306Y-89641955D01*
X166526201Y-89773073D01*
X166526198Y-89773075D01*
X166318152Y-89932715D01*
X166132715Y-90118152D01*
X165973075Y-90326198D01*
X165973073Y-90326201D01*
X165841955Y-90553306D01*
X165841954Y-90553308D01*
X165741603Y-90795579D01*
X165741600Y-90795586D01*
X165673733Y-91048871D01*
X165673730Y-91048884D01*
X165639500Y-91308877D01*
X161363499Y-91308877D01*
X161363499Y-90143346D01*
X161360746Y-90108353D01*
X161317242Y-89958612D01*
X161237866Y-89824395D01*
X161127605Y-89714134D01*
X160993388Y-89634758D01*
X160843647Y-89591254D01*
X160843642Y-89591253D01*
X160808659Y-89588500D01*
X160808655Y-89588500D01*
X160371900Y-89588500D01*
X160315399Y-89567935D01*
X160285335Y-89515864D01*
X160284000Y-89500600D01*
X160284000Y-88131024D01*
X160257354Y-88031580D01*
X160257353Y-88031577D01*
X160257352Y-88031575D01*
X160205879Y-87942421D01*
X158955013Y-86691555D01*
X158929602Y-86637061D01*
X158945165Y-86578983D01*
X158994418Y-86544495D01*
X159017168Y-86541500D01*
X160432975Y-86541500D01*
X160432976Y-86541500D01*
X160532421Y-86514854D01*
X160621580Y-86463378D01*
X161141842Y-85943113D01*
X161141847Y-85943110D01*
X161149078Y-85935878D01*
X161149080Y-85935878D01*
X161221878Y-85863080D01*
X161273354Y-85773920D01*
X161282439Y-85740015D01*
X161300001Y-85674476D01*
X161300001Y-85571524D01*
X161300001Y-85566143D01*
X161300000Y-85566125D01*
X161300000Y-79319368D01*
X161320565Y-79262867D01*
X161325745Y-79257213D01*
X162124713Y-78458245D01*
X162179207Y-78432834D01*
X162186868Y-78432500D01*
X164526766Y-78432500D01*
X164526782Y-78432501D01*
X164532164Y-78432501D01*
X164651837Y-78432501D01*
X164651837Y-78432500D01*
X164742998Y-78408073D01*
X164742999Y-78408073D01*
X164745886Y-78407299D01*
X164767431Y-78401527D01*
X164871070Y-78341691D01*
X164955691Y-78257070D01*
X164955691Y-78257068D01*
X164962923Y-78249837D01*
X164962926Y-78249832D01*
X166735715Y-76477045D01*
X166790209Y-76451634D01*
X166797870Y-76451300D01*
X167888346Y-76451300D01*
X167888348Y-76451300D01*
X167946831Y-76439667D01*
X168013152Y-76395352D01*
X168057467Y-76329031D01*
X168069100Y-76270548D01*
X168069100Y-75045406D01*
X168072095Y-75022656D01*
X168094501Y-74939036D01*
X168094501Y-74819364D01*
X168094501Y-74813983D01*
X168094500Y-74813965D01*
X168094500Y-70932928D01*
X168094501Y-70932915D01*
X168094501Y-70806164D01*
X168067836Y-70706649D01*
X168063528Y-70690571D01*
X168010128Y-70598080D01*
X168003691Y-70586930D01*
X168003689Y-70586928D01*
X168003688Y-70586926D01*
X167916001Y-70499240D01*
X167916000Y-70499240D01*
X166977245Y-69560485D01*
X166951834Y-69505991D01*
X166951500Y-69498330D01*
X166951500Y-68644117D01*
X166972065Y-68587616D01*
X167024136Y-68557552D01*
X167062149Y-68559211D01*
X167120514Y-68574851D01*
X167120515Y-68574851D01*
X167245568Y-68574851D01*
X167245584Y-68574850D01*
X167936288Y-68574850D01*
X167992789Y-68595415D01*
X168019255Y-68633719D01*
X168032205Y-68670730D01*
X168032206Y-68670731D01*
X168112847Y-68779997D01*
X168112852Y-68780002D01*
X168222118Y-68860643D01*
X168222119Y-68860644D01*
X168350297Y-68905495D01*
X168350299Y-68905495D01*
X168350301Y-68905496D01*
X168365517Y-68906923D01*
X168380733Y-68908350D01*
X168380734Y-68908350D01*
X169439267Y-68908350D01*
X169449410Y-68907398D01*
X169469699Y-68905496D01*
X169469702Y-68905495D01*
X169597880Y-68860644D01*
X169597880Y-68860643D01*
X169597882Y-68860643D01*
X169707150Y-68780000D01*
X169787793Y-68670732D01*
X169792890Y-68656167D01*
X169832645Y-68542552D01*
X169832646Y-68542547D01*
X169834193Y-68526058D01*
X169835500Y-68512116D01*
X169835500Y-67728584D01*
X169832646Y-67698151D01*
X169826495Y-67680572D01*
X169787794Y-67569969D01*
X169787793Y-67569968D01*
X169707152Y-67460702D01*
X169707147Y-67460697D01*
X169597881Y-67380056D01*
X169597880Y-67380055D01*
X169469702Y-67335204D01*
X169469697Y-67335203D01*
X169439267Y-67332350D01*
X169439266Y-67332350D01*
X168380734Y-67332350D01*
X168380733Y-67332350D01*
X168350302Y-67335203D01*
X168350297Y-67335204D01*
X168222119Y-67380055D01*
X168222118Y-67380056D01*
X168112852Y-67460697D01*
X168112847Y-67460702D01*
X168032206Y-67569968D01*
X168032205Y-67569969D01*
X168019255Y-67606981D01*
X167981184Y-67653520D01*
X167936288Y-67665850D01*
X167405020Y-67665850D01*
X167348519Y-67645285D01*
X167342865Y-67640105D01*
X166989945Y-67287185D01*
X166964534Y-67232691D01*
X166964200Y-67225030D01*
X166964200Y-65867853D01*
X166953189Y-65812496D01*
X166951500Y-65795348D01*
X166951500Y-65598928D01*
X166951501Y-65598915D01*
X166951501Y-65472164D01*
X166920527Y-65356570D01*
X166920527Y-65356569D01*
X166860691Y-65252930D01*
X166776070Y-65168309D01*
X166776069Y-65168308D01*
X164945245Y-63337484D01*
X164919834Y-63282990D01*
X164919500Y-63275329D01*
X164919500Y-62000138D01*
X164940065Y-61943637D01*
X164992136Y-61913573D01*
X165051350Y-61924014D01*
X165059592Y-61929411D01*
X165120326Y-61974234D01*
X165163525Y-62006116D01*
X165163524Y-62006116D01*
X165287508Y-62049500D01*
X165288151Y-62049725D01*
X165317741Y-62052499D01*
X165317742Y-62052500D01*
X165317744Y-62052500D01*
X165898258Y-62052500D01*
X165898258Y-62052499D01*
X165927849Y-62049725D01*
X166052475Y-62006116D01*
X166060575Y-62000138D01*
X166158706Y-61927715D01*
X166158707Y-61927713D01*
X166158711Y-61927711D01*
X166212592Y-61854703D01*
X166262690Y-61821454D01*
X166283317Y-61819000D01*
X166710683Y-61819000D01*
X166767184Y-61839565D01*
X166781408Y-61854704D01*
X166835288Y-61927710D01*
X166835293Y-61927715D01*
X166941521Y-62006114D01*
X166941524Y-62006116D01*
X167065508Y-62049500D01*
X167066151Y-62049725D01*
X167095741Y-62052499D01*
X167095742Y-62052500D01*
X167095744Y-62052500D01*
X167676258Y-62052500D01*
X167676258Y-62052499D01*
X167705849Y-62049725D01*
X167830475Y-62006116D01*
X167838575Y-62000138D01*
X167936706Y-61927715D01*
X167936707Y-61927713D01*
X167936711Y-61927711D01*
X167939440Y-61924014D01*
X168015114Y-61821478D01*
X168015116Y-61821475D01*
X168058725Y-61696849D01*
X168058725Y-61696847D01*
X168061500Y-61667256D01*
X168061500Y-60986744D01*
X168058725Y-60957151D01*
X168041710Y-60908524D01*
X168015116Y-60832524D01*
X168015114Y-60832521D01*
X167936715Y-60726293D01*
X167936706Y-60726284D01*
X167830478Y-60647885D01*
X167830475Y-60647883D01*
X167705848Y-60604274D01*
X167676259Y-60601500D01*
X167676256Y-60601500D01*
X167095744Y-60601500D01*
X167095740Y-60601500D01*
X167066152Y-60604274D01*
X167066150Y-60604274D01*
X166941524Y-60647883D01*
X166941521Y-60647885D01*
X166835293Y-60726284D01*
X166835284Y-60726293D01*
X166756885Y-60832521D01*
X166756884Y-60832525D01*
X166750372Y-60851132D01*
X166712302Y-60897669D01*
X166667406Y-60910000D01*
X166283317Y-60910000D01*
X166226816Y-60889435D01*
X166212592Y-60874296D01*
X166158711Y-60801289D01*
X166158706Y-60801284D01*
X166052478Y-60722885D01*
X166052475Y-60722883D01*
X165927848Y-60679274D01*
X165898259Y-60676500D01*
X165898256Y-60676500D01*
X165317744Y-60676500D01*
X165317740Y-60676500D01*
X165288152Y-60679274D01*
X165288150Y-60679274D01*
X165163524Y-60722883D01*
X165163521Y-60722885D01*
X165059596Y-60799585D01*
X165001924Y-60816590D01*
X164946814Y-60792546D01*
X164920053Y-60738702D01*
X164919500Y-60728861D01*
X164919500Y-60422669D01*
X164940065Y-60366168D01*
X164945235Y-60360524D01*
X165095667Y-60210091D01*
X165150161Y-60184681D01*
X165186853Y-60189280D01*
X165288147Y-60224724D01*
X165288149Y-60224724D01*
X165288151Y-60224725D01*
X165317741Y-60227499D01*
X165317742Y-60227500D01*
X165317744Y-60227500D01*
X165898258Y-60227500D01*
X165898258Y-60227499D01*
X165927849Y-60224725D01*
X166052475Y-60181116D01*
X166074847Y-60164605D01*
X166158706Y-60102715D01*
X166158707Y-60102713D01*
X166158711Y-60102711D01*
X166169830Y-60087646D01*
X166237114Y-59996478D01*
X166237116Y-59996475D01*
X166280725Y-59871849D01*
X166280725Y-59871847D01*
X166283500Y-59842256D01*
X166283500Y-59236744D01*
X166280725Y-59207151D01*
X166257670Y-59141262D01*
X166237116Y-59082524D01*
X166237114Y-59082521D01*
X166158715Y-58976293D01*
X166158706Y-58976284D01*
X166052478Y-58897885D01*
X166052475Y-58897883D01*
X165927848Y-58854274D01*
X165898259Y-58851500D01*
X165898256Y-58851500D01*
X165317744Y-58851500D01*
X165317740Y-58851500D01*
X165288152Y-58854274D01*
X165288150Y-58854274D01*
X165163524Y-58897883D01*
X165163521Y-58897885D01*
X165057293Y-58976284D01*
X165057284Y-58976293D01*
X164978882Y-59082524D01*
X164978803Y-59082676D01*
X164978667Y-59082816D01*
X164974972Y-59087824D01*
X164974312Y-59087337D01*
X164945046Y-59117717D01*
X164904269Y-59141261D01*
X164904268Y-59141261D01*
X164844429Y-59175809D01*
X164101310Y-59918928D01*
X164041473Y-60022569D01*
X164041473Y-60022570D01*
X164010499Y-60138164D01*
X164010499Y-60264915D01*
X164010500Y-60264928D01*
X164010500Y-63434765D01*
X164010499Y-63434783D01*
X164010499Y-63440164D01*
X164010499Y-63559836D01*
X164023858Y-63609691D01*
X164041473Y-63675431D01*
X164079905Y-63741998D01*
X164101311Y-63779073D01*
X164185931Y-63863692D01*
X164185932Y-63863692D01*
X166016755Y-65694515D01*
X166042166Y-65749009D01*
X166042500Y-65756670D01*
X166042500Y-65795348D01*
X166040811Y-65812496D01*
X166029800Y-65867853D01*
X166029800Y-67367847D01*
X166040810Y-67423202D01*
X166042499Y-67440349D01*
X166042499Y-67503915D01*
X166042500Y-67503928D01*
X166042500Y-69657765D01*
X166042499Y-69657783D01*
X166042499Y-69663164D01*
X166042499Y-69782836D01*
X166065391Y-69868266D01*
X166065480Y-69868600D01*
X166065480Y-69868601D01*
X166073471Y-69898427D01*
X166073472Y-69898430D01*
X166073473Y-69898431D01*
X166133309Y-70002070D01*
X166133311Y-70002073D01*
X166217931Y-70086692D01*
X166217932Y-70086692D01*
X167159755Y-71028515D01*
X167185166Y-71083009D01*
X167185500Y-71090670D01*
X167185500Y-74336800D01*
X167164935Y-74393301D01*
X167112864Y-74423365D01*
X167097600Y-74424700D01*
X166274052Y-74424700D01*
X166244810Y-74430516D01*
X166215567Y-74436333D01*
X166149251Y-74480645D01*
X166149245Y-74480651D01*
X166104933Y-74546967D01*
X166093300Y-74605453D01*
X166093300Y-75797530D01*
X166072735Y-75854031D01*
X166067555Y-75859685D01*
X164429485Y-77497755D01*
X164374991Y-77523166D01*
X164367330Y-77523500D01*
X160593234Y-77523500D01*
X160593218Y-77523499D01*
X160587836Y-77523499D01*
X160468164Y-77523499D01*
X160376999Y-77547925D01*
X160377000Y-77547926D01*
X160352569Y-77554473D01*
X160352568Y-77554473D01*
X160250073Y-77613649D01*
X160248932Y-77614307D01*
X158749485Y-79113755D01*
X158694991Y-79139166D01*
X158687330Y-79139500D01*
X156981252Y-79139500D01*
X156952010Y-79145316D01*
X156922767Y-79151133D01*
X156856451Y-79195445D01*
X156856445Y-79195451D01*
X156812133Y-79261767D01*
X156800500Y-79320253D01*
X156800500Y-80699746D01*
X156812133Y-80758232D01*
X156845434Y-80808069D01*
X156856448Y-80824552D01*
X156856451Y-80824554D01*
X156922767Y-80868866D01*
X156922769Y-80868867D01*
X156981252Y-80880500D01*
X156981254Y-80880500D01*
X160010746Y-80880500D01*
X160010748Y-80880500D01*
X160069231Y-80868867D01*
X160135552Y-80824552D01*
X160179867Y-80758231D01*
X160191500Y-80699748D01*
X160191500Y-79320252D01*
X160179867Y-79261769D01*
X160135552Y-79195448D01*
X160115362Y-79181957D01*
X160079809Y-79133468D01*
X160083743Y-79073469D01*
X160102040Y-79046720D01*
X160690516Y-78458245D01*
X160745010Y-78432834D01*
X160752671Y-78432500D01*
X160832332Y-78432500D01*
X160888833Y-78453065D01*
X160918897Y-78505136D01*
X160908456Y-78564350D01*
X160894487Y-78582555D01*
X160596123Y-78880918D01*
X160544644Y-78970083D01*
X160526119Y-79039221D01*
X160522204Y-79053836D01*
X160518090Y-79069189D01*
X160518000Y-79069525D01*
X160518000Y-85424632D01*
X160497435Y-85481133D01*
X160492255Y-85486787D01*
X160341555Y-85637487D01*
X160287061Y-85662898D01*
X160228983Y-85647335D01*
X160194495Y-85598082D01*
X160191500Y-85575332D01*
X160191500Y-84400253D01*
X160191500Y-84400252D01*
X160179867Y-84341769D01*
X160135552Y-84275448D01*
X160135548Y-84275445D01*
X160069232Y-84231133D01*
X160049736Y-84227255D01*
X160010748Y-84219500D01*
X156981252Y-84219500D01*
X156952010Y-84225316D01*
X156922767Y-84231133D01*
X156856451Y-84275445D01*
X156856445Y-84275451D01*
X156812133Y-84341767D01*
X156800500Y-84400253D01*
X156800500Y-84611100D01*
X156779935Y-84667601D01*
X156727864Y-84697665D01*
X156712600Y-84699000D01*
X154719918Y-84699000D01*
X154663417Y-84678435D01*
X154633353Y-84626364D01*
X154633707Y-84593952D01*
X154642500Y-84549746D01*
X154642500Y-82568868D01*
X154663065Y-82512367D01*
X154668245Y-82506713D01*
X154885300Y-82289658D01*
X155252878Y-81922080D01*
X155304354Y-81832921D01*
X155331000Y-81733476D01*
X155331000Y-81630524D01*
X155331000Y-78522025D01*
X155351565Y-78465524D01*
X155356745Y-78459870D01*
X157961870Y-75854745D01*
X158016364Y-75829334D01*
X158024025Y-75829000D01*
X161687400Y-75829000D01*
X161743901Y-75849565D01*
X161773965Y-75901636D01*
X161775300Y-75916900D01*
X161775300Y-76270548D01*
X161783055Y-76309536D01*
X161786933Y-76329032D01*
X161793064Y-76338207D01*
X161831248Y-76395352D01*
X161831251Y-76395354D01*
X161897567Y-76439666D01*
X161897569Y-76439667D01*
X161956052Y-76451300D01*
X161956054Y-76451300D01*
X163570346Y-76451300D01*
X163570348Y-76451300D01*
X163628831Y-76439667D01*
X163695152Y-76395352D01*
X163739467Y-76329031D01*
X163751100Y-76270548D01*
X163751100Y-74605452D01*
X163739467Y-74546969D01*
X163733918Y-74538665D01*
X163695154Y-74480651D01*
X163695152Y-74480648D01*
X163695148Y-74480645D01*
X163628832Y-74436333D01*
X163609336Y-74432455D01*
X163570348Y-74424700D01*
X163570346Y-74424700D01*
X163229400Y-74424700D01*
X163172899Y-74404135D01*
X163142835Y-74352064D01*
X163141500Y-74336800D01*
X163141500Y-72888652D01*
X163143189Y-72871504D01*
X163154200Y-72816146D01*
X163154200Y-72608550D01*
X163174765Y-72552049D01*
X163226836Y-72521985D01*
X163242100Y-72520650D01*
X163401900Y-72520650D01*
X163458401Y-72541215D01*
X163488465Y-72593286D01*
X163489800Y-72608550D01*
X163489800Y-72816146D01*
X163501433Y-72874632D01*
X163545745Y-72940948D01*
X163545748Y-72940952D01*
X163545751Y-72940954D01*
X163612067Y-72985266D01*
X163612069Y-72985267D01*
X163670552Y-72996900D01*
X163670554Y-72996900D01*
X164243446Y-72996900D01*
X164243448Y-72996900D01*
X164301931Y-72985267D01*
X164368252Y-72940952D01*
X164412567Y-72874631D01*
X164424200Y-72816148D01*
X164424200Y-71316152D01*
X164412567Y-71257669D01*
X164377516Y-71205213D01*
X164368254Y-71191351D01*
X164368252Y-71191348D01*
X164368248Y-71191345D01*
X164301932Y-71147033D01*
X164282436Y-71143155D01*
X164243448Y-71135400D01*
X163670552Y-71135400D01*
X163641310Y-71141216D01*
X163612067Y-71147033D01*
X163545751Y-71191345D01*
X163545745Y-71191351D01*
X163501433Y-71257667D01*
X163489800Y-71316153D01*
X163489800Y-71523750D01*
X163469235Y-71580251D01*
X163417164Y-71610315D01*
X163401900Y-71611650D01*
X163242100Y-71611650D01*
X163185599Y-71591085D01*
X163155535Y-71539014D01*
X163154200Y-71523750D01*
X163154200Y-71316153D01*
X163149661Y-71293333D01*
X163142567Y-71257669D01*
X163107516Y-71205213D01*
X163098254Y-71191351D01*
X163098252Y-71191348D01*
X163098248Y-71191345D01*
X163031932Y-71147033D01*
X163012436Y-71143155D01*
X162973448Y-71135400D01*
X162400552Y-71135400D01*
X162371310Y-71141216D01*
X162342067Y-71147033D01*
X162275751Y-71191345D01*
X162275745Y-71191351D01*
X162231433Y-71257667D01*
X162219800Y-71316153D01*
X162219800Y-72816146D01*
X162230811Y-72871504D01*
X162232500Y-72888652D01*
X162232500Y-74336800D01*
X162211935Y-74393301D01*
X162159864Y-74423365D01*
X162144600Y-74424700D01*
X161956052Y-74424700D01*
X161926810Y-74430516D01*
X161897567Y-74436333D01*
X161831251Y-74480645D01*
X161831245Y-74480651D01*
X161786933Y-74546967D01*
X161775300Y-74605453D01*
X161775300Y-74959100D01*
X161754735Y-75015601D01*
X161702664Y-75045665D01*
X161687400Y-75047000D01*
X158160168Y-75047000D01*
X158103667Y-75026435D01*
X158073603Y-74974364D01*
X158084044Y-74915150D01*
X158098013Y-74896945D01*
X158148321Y-74846637D01*
X158249878Y-74745080D01*
X158282667Y-74688285D01*
X158318884Y-74653917D01*
X158355403Y-74635311D01*
X158442311Y-74548403D01*
X158498109Y-74438893D01*
X158512500Y-74348033D01*
X158512499Y-71701968D01*
X158498109Y-71611107D01*
X158442311Y-71501597D01*
X158355403Y-71414689D01*
X158355400Y-71414687D01*
X158245891Y-71358890D01*
X158245892Y-71358890D01*
X158169423Y-71346779D01*
X158155033Y-71344500D01*
X158155032Y-71344500D01*
X157718969Y-71344500D01*
X157718967Y-71344501D01*
X157628108Y-71358890D01*
X157518599Y-71414687D01*
X157431687Y-71501599D01*
X157375890Y-71611108D01*
X157361500Y-71701967D01*
X157361500Y-74348030D01*
X157361501Y-74348032D01*
X157375890Y-74438894D01*
X157377455Y-74443708D01*
X157375358Y-74503799D01*
X157356013Y-74533027D01*
X155278055Y-76610986D01*
X155223561Y-76636397D01*
X155165483Y-76620834D01*
X155130995Y-76571581D01*
X155128000Y-76548831D01*
X155128000Y-74699123D01*
X155148565Y-74642622D01*
X155153745Y-74636968D01*
X155155400Y-74635312D01*
X155155403Y-74635311D01*
X155242311Y-74548403D01*
X155298109Y-74438893D01*
X155312500Y-74348033D01*
X155312499Y-71701968D01*
X155298109Y-71611107D01*
X155298109Y-71611105D01*
X155296544Y-71606289D01*
X155298641Y-71546199D01*
X155317983Y-71516973D01*
X155806213Y-71028745D01*
X155860707Y-71003334D01*
X155868368Y-71003000D01*
X160138462Y-71003000D01*
X160194963Y-71023565D01*
X160225027Y-71075636D01*
X160214586Y-71134847D01*
X160214585Y-71134850D01*
X160163646Y-71223076D01*
X160163645Y-71223078D01*
X160144821Y-71293334D01*
X160144820Y-71293333D01*
X160137000Y-71322520D01*
X160137000Y-71468547D01*
X160116435Y-71525048D01*
X160090536Y-71546068D01*
X159997371Y-71595866D01*
X159852651Y-71714635D01*
X159852635Y-71714651D01*
X159733866Y-71859371D01*
X159645603Y-72024500D01*
X159591254Y-72203662D01*
X159591253Y-72203667D01*
X159591253Y-72203669D01*
X159572901Y-72390000D01*
X159588861Y-72552049D01*
X159591254Y-72576337D01*
X159645603Y-72755499D01*
X159645604Y-72755501D01*
X159716774Y-72888652D01*
X159733866Y-72920628D01*
X159852635Y-73065348D01*
X159852638Y-73065351D01*
X159852643Y-73065357D01*
X159852648Y-73065361D01*
X159852651Y-73065364D01*
X159997371Y-73184133D01*
X159997370Y-73184133D01*
X159997373Y-73184135D01*
X159997375Y-73184136D01*
X160162499Y-73272396D01*
X160341669Y-73326747D01*
X160528000Y-73345099D01*
X160714331Y-73326747D01*
X160893501Y-73272396D01*
X161058625Y-73184136D01*
X161203357Y-73065357D01*
X161322136Y-72920625D01*
X161410396Y-72755501D01*
X161464747Y-72576331D01*
X161483099Y-72390000D01*
X161464747Y-72203669D01*
X161410396Y-72024499D01*
X161322136Y-71859375D01*
X161265167Y-71789958D01*
X161203364Y-71714651D01*
X161203361Y-71714648D01*
X161203357Y-71714643D01*
X161203351Y-71714638D01*
X161203348Y-71714635D01*
X161058628Y-71595866D01*
X161058629Y-71595866D01*
X161033118Y-71582230D01*
X160992984Y-71537458D01*
X160991018Y-71477363D01*
X161012399Y-71442557D01*
X161856878Y-70598080D01*
X162872878Y-69582080D01*
X162924354Y-69492921D01*
X162951000Y-69393476D01*
X162951000Y-69290524D01*
X162951000Y-68505368D01*
X162971565Y-68448867D01*
X162976745Y-68443213D01*
X163264613Y-68155345D01*
X163319107Y-68129934D01*
X163326768Y-68129600D01*
X164665675Y-68129600D01*
X164665676Y-68129600D01*
X164765121Y-68102954D01*
X164854280Y-68051478D01*
X165331413Y-67574345D01*
X165385907Y-67548934D01*
X165393568Y-67548600D01*
X165513446Y-67548600D01*
X165513448Y-67548600D01*
X165571931Y-67536967D01*
X165638252Y-67492652D01*
X165682567Y-67426331D01*
X165694200Y-67367848D01*
X165694200Y-65867852D01*
X165682567Y-65809369D01*
X165673198Y-65795348D01*
X165638254Y-65743051D01*
X165638252Y-65743048D01*
X165638248Y-65743045D01*
X165571932Y-65698733D01*
X165550726Y-65694515D01*
X165513448Y-65687100D01*
X164940552Y-65687100D01*
X164911310Y-65692916D01*
X164882067Y-65698733D01*
X164815751Y-65743045D01*
X164815745Y-65743051D01*
X164771433Y-65809367D01*
X164759800Y-65867853D01*
X164759800Y-67003632D01*
X164739235Y-67060133D01*
X164734055Y-67065787D01*
X164477987Y-67321855D01*
X164423493Y-67347266D01*
X164415832Y-67347600D01*
X163242100Y-67347600D01*
X163185599Y-67327035D01*
X163155535Y-67274964D01*
X163154200Y-67259700D01*
X163154200Y-65867853D01*
X163148034Y-65836854D01*
X163142567Y-65809369D01*
X163133198Y-65795348D01*
X163098254Y-65743051D01*
X163098252Y-65743048D01*
X163098248Y-65743045D01*
X163031932Y-65698733D01*
X163010726Y-65694515D01*
X162973448Y-65687100D01*
X162400552Y-65687100D01*
X162371310Y-65692916D01*
X162342067Y-65698733D01*
X162275751Y-65743045D01*
X162275745Y-65743051D01*
X162231433Y-65809367D01*
X162220285Y-65865415D01*
X162189093Y-65916819D01*
X162132157Y-65936146D01*
X162076118Y-65914354D01*
X162071919Y-65910422D01*
X161112432Y-64950935D01*
X161037751Y-64907818D01*
X160976776Y-64891480D01*
X160954458Y-64885500D01*
X160954457Y-64885500D01*
X158286400Y-64885500D01*
X158229899Y-64864935D01*
X158199835Y-64812864D01*
X158198500Y-64797600D01*
X158198500Y-62516253D01*
X158198500Y-62516252D01*
X158186867Y-62457769D01*
X158142552Y-62391448D01*
X158142548Y-62391445D01*
X158076232Y-62347133D01*
X158056736Y-62343255D01*
X158017748Y-62335500D01*
X158017746Y-62335500D01*
X156688900Y-62335500D01*
X156632399Y-62314935D01*
X156602335Y-62262864D01*
X156601000Y-62247600D01*
X156601000Y-60537200D01*
X156621565Y-60480699D01*
X156673636Y-60450635D01*
X156688900Y-60449300D01*
X156890146Y-60449300D01*
X156890148Y-60449300D01*
X156948631Y-60437667D01*
X157014952Y-60393352D01*
X157059267Y-60327031D01*
X157070900Y-60268548D01*
X157070900Y-58603452D01*
X157059267Y-58544969D01*
X157049058Y-58529691D01*
X157014954Y-58478651D01*
X157014952Y-58478648D01*
X157014948Y-58478645D01*
X156948632Y-58434333D01*
X156929136Y-58430455D01*
X156890148Y-58422700D01*
X155355400Y-58422700D01*
X155298899Y-58402135D01*
X155268835Y-58350064D01*
X155267500Y-58334800D01*
X155267500Y-56422399D01*
X155288065Y-56365898D01*
X155340136Y-56335834D01*
X155355400Y-56334499D01*
X156236652Y-56334499D01*
X156236654Y-56334499D01*
X156236658Y-56334498D01*
X156236670Y-56334498D01*
X156254960Y-56333058D01*
X156271647Y-56331746D01*
X156421388Y-56288242D01*
X156555605Y-56208866D01*
X156665866Y-56098605D01*
X156745242Y-55964388D01*
X156788746Y-55814647D01*
X156791500Y-55779655D01*
X156791500Y-54478880D01*
X165639500Y-54478880D01*
X165639500Y-54741120D01*
X165673730Y-55001116D01*
X165741602Y-55254419D01*
X165795018Y-55383378D01*
X165841954Y-55496691D01*
X165841955Y-55496693D01*
X165841957Y-55496697D01*
X165973076Y-55723803D01*
X166132718Y-55931851D01*
X166318149Y-56117282D01*
X166526197Y-56276924D01*
X166753303Y-56408043D01*
X166995581Y-56508398D01*
X167248884Y-56576270D01*
X167435263Y-56600807D01*
X167508877Y-56610500D01*
X167508880Y-56610500D01*
X167771123Y-56610500D01*
X167838388Y-56601643D01*
X168031116Y-56576270D01*
X168284419Y-56508398D01*
X168526697Y-56408043D01*
X168753803Y-56276924D01*
X168961851Y-56117282D01*
X169147282Y-55931851D01*
X169306924Y-55723803D01*
X169438043Y-55496697D01*
X169538398Y-55254419D01*
X169606270Y-55001116D01*
X169640500Y-54741120D01*
X169640500Y-54478880D01*
X169606270Y-54218884D01*
X169538398Y-53965581D01*
X169438043Y-53723303D01*
X169306924Y-53496197D01*
X169147282Y-53288149D01*
X168961851Y-53102718D01*
X168753803Y-52943076D01*
X168526697Y-52811957D01*
X168526695Y-52811956D01*
X168526693Y-52811955D01*
X168526691Y-52811954D01*
X168413378Y-52765018D01*
X168284419Y-52711602D01*
X168284415Y-52711601D01*
X168284413Y-52711600D01*
X168031128Y-52643733D01*
X168031122Y-52643731D01*
X168031116Y-52643730D01*
X167966117Y-52635172D01*
X167771123Y-52609500D01*
X167771120Y-52609500D01*
X167508880Y-52609500D01*
X167508877Y-52609500D01*
X167248884Y-52643730D01*
X167248871Y-52643733D01*
X166995586Y-52711600D01*
X166995579Y-52711603D01*
X166753308Y-52811954D01*
X166753306Y-52811955D01*
X166526201Y-52943073D01*
X166526198Y-52943075D01*
X166318152Y-53102715D01*
X166132715Y-53288152D01*
X165973075Y-53496198D01*
X165973073Y-53496201D01*
X165841955Y-53723306D01*
X165841954Y-53723308D01*
X165741603Y-53965579D01*
X165741600Y-53965586D01*
X165673733Y-54218871D01*
X165673730Y-54218884D01*
X165667177Y-54268661D01*
X165639500Y-54478880D01*
X156791500Y-54478880D01*
X156791499Y-51408346D01*
X156791499Y-51408340D01*
X156791498Y-51408324D01*
X156790473Y-51395293D01*
X156806543Y-51337353D01*
X156856097Y-51303299D01*
X156878102Y-51300500D01*
X167574108Y-51300500D01*
X167637690Y-51300500D01*
X167642289Y-51300619D01*
G37*
%TD.AperFunction*%
%TA.AperFunction,Conductor*%
G36*
X153820399Y-51321065D02*
G01*
X153850463Y-51373136D01*
X153851527Y-51395295D01*
X153850500Y-51408340D01*
X153850500Y-55779652D01*
X153850501Y-55779670D01*
X153853253Y-55814644D01*
X153853253Y-55814646D01*
X153887305Y-55931851D01*
X153896758Y-55964388D01*
X153976134Y-56098605D01*
X154086395Y-56208866D01*
X154220612Y-56288242D01*
X154370353Y-56331746D01*
X154405345Y-56334500D01*
X154524600Y-56334499D01*
X154581100Y-56355063D01*
X154611164Y-56407135D01*
X154612500Y-56422399D01*
X154612500Y-60787935D01*
X154591935Y-60844436D01*
X154586755Y-60850090D01*
X154068090Y-61368755D01*
X154013596Y-61394166D01*
X154005935Y-61394500D01*
X149268166Y-61394500D01*
X149181934Y-61394500D01*
X149164332Y-61399216D01*
X149098640Y-61416818D01*
X149023959Y-61459935D01*
X148667635Y-61816259D01*
X148624518Y-61890940D01*
X148602200Y-61974234D01*
X148602200Y-63882815D01*
X148624518Y-63966109D01*
X148654657Y-64018311D01*
X148667635Y-64040790D01*
X149135060Y-64508215D01*
X149209740Y-64551331D01*
X149293034Y-64573650D01*
X149379266Y-64573650D01*
X150268935Y-64573650D01*
X150325436Y-64594215D01*
X150331090Y-64599395D01*
X150522755Y-64791060D01*
X150548166Y-64845554D01*
X150548500Y-64853215D01*
X150548500Y-67462553D01*
X150527935Y-67519054D01*
X150509436Y-67535637D01*
X150507447Y-67536967D01*
X150464749Y-67565497D01*
X150464745Y-67565501D01*
X150420433Y-67631817D01*
X150417754Y-67645285D01*
X150410736Y-67680572D01*
X150408800Y-67690303D01*
X150408800Y-69190296D01*
X150420433Y-69248782D01*
X150464745Y-69315098D01*
X150464748Y-69315102D01*
X150464751Y-69315104D01*
X150531067Y-69359416D01*
X150531069Y-69359417D01*
X150589552Y-69371050D01*
X150589554Y-69371050D01*
X151162446Y-69371050D01*
X151162448Y-69371050D01*
X151220931Y-69359417D01*
X151287252Y-69315102D01*
X151331567Y-69248781D01*
X151343200Y-69190298D01*
X151343200Y-67690302D01*
X151331567Y-67631819D01*
X151293163Y-67574345D01*
X151287254Y-67565501D01*
X151287252Y-67565498D01*
X151242564Y-67535638D01*
X151207011Y-67487149D01*
X151203500Y-67462553D01*
X151203500Y-65611850D01*
X151224065Y-65555349D01*
X151276136Y-65525285D01*
X151314150Y-65526945D01*
X151364731Y-65540499D01*
X151364733Y-65540500D01*
X151364734Y-65540500D01*
X151450966Y-65540500D01*
X160739277Y-65540500D01*
X160795778Y-65561065D01*
X160801432Y-65566245D01*
X162115102Y-66879915D01*
X162175850Y-66914987D01*
X162214499Y-66961047D01*
X162219800Y-66991111D01*
X162219800Y-67367848D01*
X162222229Y-67380057D01*
X162231433Y-67426332D01*
X162254603Y-67461007D01*
X162268896Y-67519411D01*
X162243673Y-67571997D01*
X161830585Y-67985087D01*
X161830580Y-67985094D01*
X161794156Y-68048181D01*
X161791161Y-68059357D01*
X161791161Y-68059361D01*
X161775300Y-68118556D01*
X161775300Y-68936977D01*
X161754735Y-68993478D01*
X161749555Y-68999132D01*
X160905832Y-69842855D01*
X160851338Y-69868266D01*
X160843677Y-69868600D01*
X155440256Y-69868600D01*
X155369884Y-69887455D01*
X155306791Y-69923882D01*
X154494800Y-70735871D01*
X154487071Y-70742650D01*
X153829582Y-71400139D01*
X153793155Y-71463232D01*
X153782876Y-71501597D01*
X153774300Y-71533602D01*
X153774300Y-76429977D01*
X153753735Y-76486478D01*
X153748555Y-76492132D01*
X153539832Y-76700855D01*
X153485338Y-76726266D01*
X153477677Y-76726600D01*
X148891256Y-76726600D01*
X148820886Y-76745455D01*
X148757790Y-76781883D01*
X148263382Y-77276291D01*
X148263380Y-77276294D01*
X148226956Y-77339381D01*
X148223961Y-77350557D01*
X148223961Y-77350561D01*
X148208100Y-77409756D01*
X148208100Y-84663177D01*
X148187535Y-84719678D01*
X148182355Y-84725332D01*
X147691532Y-85216155D01*
X147637038Y-85241566D01*
X147629377Y-85241900D01*
X131911200Y-85241900D01*
X131854699Y-85221335D01*
X131824635Y-85169264D01*
X131823300Y-85154000D01*
X131823300Y-84933900D01*
X131843865Y-84877399D01*
X131895936Y-84847335D01*
X131911200Y-84846000D01*
X138862475Y-84846000D01*
X138862476Y-84846000D01*
X138961921Y-84819354D01*
X139051080Y-84767878D01*
X139689028Y-84129930D01*
X139740504Y-84040770D01*
X139767150Y-83941326D01*
X139767150Y-83838374D01*
X139767150Y-82978100D01*
X139787715Y-82921599D01*
X139839786Y-82891535D01*
X139855050Y-82890200D01*
X140126146Y-82890200D01*
X140126148Y-82890200D01*
X140184631Y-82878567D01*
X140250952Y-82834252D01*
X140250952Y-82834251D01*
X140258149Y-82829443D01*
X140260382Y-82832785D01*
X140299952Y-82814334D01*
X140307613Y-82814000D01*
X141433600Y-82814000D01*
X141490101Y-82834565D01*
X141520165Y-82886636D01*
X141521500Y-82901900D01*
X141521500Y-84549746D01*
X141533133Y-84608232D01*
X141545249Y-84626364D01*
X141577448Y-84674552D01*
X141577451Y-84674554D01*
X141643767Y-84718866D01*
X141643769Y-84718867D01*
X141702252Y-84730500D01*
X141702254Y-84730500D01*
X146841746Y-84730500D01*
X146841748Y-84730500D01*
X146900231Y-84718867D01*
X146966552Y-84674552D01*
X147010867Y-84608231D01*
X147022500Y-84549748D01*
X147022500Y-82160252D01*
X147010867Y-82101769D01*
X147000374Y-82086066D01*
X146966554Y-82035451D01*
X146966552Y-82035448D01*
X146961392Y-82032000D01*
X146900232Y-81991133D01*
X146880736Y-81987255D01*
X146841748Y-81979500D01*
X141702252Y-81979500D01*
X141663263Y-81987255D01*
X141643768Y-81991133D01*
X141604778Y-82017186D01*
X141555943Y-82032000D01*
X140307613Y-82032000D01*
X140259525Y-82014497D01*
X140258149Y-82016557D01*
X140184632Y-81967433D01*
X140165136Y-81963555D01*
X140126148Y-81955800D01*
X140126146Y-81955800D01*
X139855050Y-81955800D01*
X139798549Y-81935235D01*
X139768485Y-81883164D01*
X139767150Y-81867900D01*
X139767150Y-81708100D01*
X139787715Y-81651599D01*
X139839786Y-81621535D01*
X139855050Y-81620200D01*
X140126146Y-81620200D01*
X140126148Y-81620200D01*
X140184631Y-81608567D01*
X140250952Y-81564252D01*
X140295267Y-81497931D01*
X140306900Y-81439448D01*
X140306900Y-80866552D01*
X140295267Y-80808069D01*
X140261966Y-80758232D01*
X140250954Y-80741751D01*
X140250952Y-80741748D01*
X140250948Y-80741745D01*
X140184632Y-80697433D01*
X140165136Y-80693555D01*
X140126148Y-80685800D01*
X138626152Y-80685800D01*
X138596910Y-80691616D01*
X138567667Y-80697433D01*
X138501351Y-80741745D01*
X138501345Y-80741751D01*
X138457033Y-80808067D01*
X138445400Y-80866553D01*
X138445400Y-81439446D01*
X138457033Y-81497932D01*
X138501345Y-81564248D01*
X138501348Y-81564252D01*
X138501351Y-81564254D01*
X138567667Y-81608566D01*
X138567669Y-81608567D01*
X138626152Y-81620200D01*
X138897250Y-81620200D01*
X138953751Y-81640765D01*
X138983815Y-81692836D01*
X138985150Y-81708100D01*
X138985150Y-81867900D01*
X138964585Y-81924401D01*
X138912514Y-81954465D01*
X138897250Y-81955800D01*
X138626152Y-81955800D01*
X138596910Y-81961616D01*
X138567667Y-81967433D01*
X138501351Y-82011745D01*
X138501345Y-82011751D01*
X138457033Y-82078067D01*
X138445400Y-82136553D01*
X138445400Y-82709446D01*
X138457033Y-82767932D01*
X138501345Y-82834248D01*
X138501348Y-82834252D01*
X138501351Y-82834254D01*
X138567667Y-82878566D01*
X138567669Y-82878567D01*
X138626152Y-82890200D01*
X138897250Y-82890200D01*
X138953751Y-82910765D01*
X138983815Y-82962836D01*
X138985150Y-82978100D01*
X138985150Y-83691482D01*
X138964585Y-83747983D01*
X138959405Y-83753637D01*
X138674787Y-84038255D01*
X138620293Y-84063666D01*
X138612632Y-84064000D01*
X131911200Y-84064000D01*
X131854699Y-84043435D01*
X131824635Y-83991364D01*
X131823300Y-83976100D01*
X131823300Y-83647853D01*
X131823300Y-83647852D01*
X131811667Y-83589369D01*
X131767352Y-83523048D01*
X131767348Y-83523045D01*
X131701032Y-83478733D01*
X131681536Y-83474855D01*
X131642548Y-83467100D01*
X129977452Y-83467100D01*
X129948210Y-83472916D01*
X129918967Y-83478733D01*
X129852651Y-83523045D01*
X129852645Y-83523051D01*
X129808333Y-83589367D01*
X129796700Y-83647853D01*
X129796700Y-84997177D01*
X129776135Y-85053678D01*
X129724064Y-85083742D01*
X129664850Y-85073301D01*
X129646645Y-85059332D01*
X129588445Y-85001132D01*
X129563034Y-84946638D01*
X129562700Y-84938977D01*
X129562700Y-82955023D01*
X129583265Y-82898522D01*
X129588445Y-82892868D01*
X129755868Y-82725445D01*
X129810362Y-82700034D01*
X129818023Y-82699700D01*
X132923023Y-82699700D01*
X132979524Y-82720265D01*
X133003483Y-82760735D01*
X133005420Y-82759934D01*
X133008732Y-82767931D01*
X133053045Y-82834248D01*
X133053048Y-82834252D01*
X133053051Y-82834254D01*
X133119367Y-82878566D01*
X133119369Y-82878567D01*
X133177852Y-82890200D01*
X133177854Y-82890200D01*
X134677846Y-82890200D01*
X134677848Y-82890200D01*
X134736331Y-82878567D01*
X134802652Y-82834252D01*
X134846967Y-82767931D01*
X134858600Y-82709448D01*
X134858600Y-82136552D01*
X134846967Y-82078069D01*
X134845734Y-82076224D01*
X134802654Y-82011751D01*
X134802652Y-82011748D01*
X134802648Y-82011745D01*
X134736332Y-81967433D01*
X134716836Y-81963555D01*
X134677848Y-81955800D01*
X133177852Y-81955800D01*
X133148610Y-81961616D01*
X133119367Y-81967433D01*
X133053051Y-82011745D01*
X133053045Y-82011751D01*
X133008732Y-82078068D01*
X133005420Y-82086066D01*
X133003368Y-82085216D01*
X132978038Y-82126954D01*
X132923023Y-82146300D01*
X129630568Y-82146300D01*
X129569169Y-82162751D01*
X129509271Y-82157510D01*
X129466756Y-82114992D01*
X129461517Y-82055094D01*
X129484264Y-82015693D01*
X130349313Y-81150645D01*
X130403807Y-81125234D01*
X130411468Y-81124900D01*
X131642546Y-81124900D01*
X131642548Y-81124900D01*
X131701031Y-81113267D01*
X131767352Y-81068952D01*
X131811667Y-81002631D01*
X131823300Y-80944148D01*
X131823300Y-79329852D01*
X131811667Y-79271369D01*
X131805252Y-79261769D01*
X131784194Y-79230254D01*
X131767352Y-79205048D01*
X131767351Y-79205047D01*
X131766809Y-79204236D01*
X131752516Y-79145832D01*
X131779109Y-79091905D01*
X131834143Y-79067688D01*
X131839894Y-79067500D01*
X132522766Y-79067500D01*
X132522782Y-79067501D01*
X132528164Y-79067501D01*
X132653218Y-79067501D01*
X132653234Y-79067500D01*
X133105348Y-79067500D01*
X133122496Y-79069189D01*
X133177852Y-79080200D01*
X133177854Y-79080200D01*
X134473431Y-79080200D01*
X134529932Y-79100765D01*
X134559996Y-79152836D01*
X134549555Y-79212050D01*
X134535586Y-79230254D01*
X134375787Y-79390054D01*
X134321293Y-79415465D01*
X134313632Y-79415800D01*
X133177852Y-79415800D01*
X133148610Y-79421616D01*
X133119367Y-79427433D01*
X133053051Y-79471745D01*
X133053045Y-79471751D01*
X133008733Y-79538067D01*
X132997100Y-79596553D01*
X132997100Y-80169446D01*
X133008733Y-80227932D01*
X133053045Y-80294248D01*
X133053048Y-80294252D01*
X133053051Y-80294254D01*
X133119367Y-80338566D01*
X133119369Y-80338567D01*
X133177852Y-80350200D01*
X133177854Y-80350200D01*
X134677846Y-80350200D01*
X134677848Y-80350200D01*
X134736331Y-80338567D01*
X134802652Y-80294252D01*
X134846967Y-80227931D01*
X134858600Y-80169448D01*
X134858600Y-80049568D01*
X134879165Y-79993067D01*
X134884345Y-79987413D01*
X136985013Y-77886745D01*
X137039507Y-77861334D01*
X137047168Y-77861000D01*
X141444082Y-77861000D01*
X141500583Y-77881565D01*
X141530647Y-77933636D01*
X141530293Y-77966046D01*
X141521500Y-78010252D01*
X141521500Y-78010253D01*
X141521500Y-80399746D01*
X141533133Y-80458232D01*
X141577445Y-80524548D01*
X141577448Y-80524552D01*
X141577451Y-80524554D01*
X141643767Y-80568866D01*
X141643769Y-80568867D01*
X141702252Y-80580500D01*
X141702254Y-80580500D01*
X146841746Y-80580500D01*
X146841748Y-80580500D01*
X146900231Y-80568867D01*
X146966552Y-80524552D01*
X147010867Y-80458231D01*
X147022500Y-80399748D01*
X147022500Y-78010252D01*
X147010867Y-77951769D01*
X146966552Y-77885448D01*
X146960741Y-77881565D01*
X146900232Y-77841133D01*
X146880736Y-77837255D01*
X146841748Y-77829500D01*
X146841746Y-77829500D01*
X146769326Y-77829500D01*
X146712825Y-77808935D01*
X146682761Y-77756864D01*
X146693202Y-77697650D01*
X146707171Y-77679445D01*
X149039871Y-75346745D01*
X149094365Y-75321334D01*
X149102026Y-75321000D01*
X152070475Y-75321000D01*
X152070476Y-75321000D01*
X152169921Y-75294354D01*
X152259080Y-75242878D01*
X152781237Y-74720719D01*
X152829641Y-74696058D01*
X152860893Y-74691109D01*
X152970403Y-74635311D01*
X153057311Y-74548403D01*
X153113109Y-74438893D01*
X153127500Y-74348033D01*
X153127499Y-71701968D01*
X153113109Y-71611107D01*
X153057311Y-71501597D01*
X152970403Y-71414689D01*
X152970400Y-71414687D01*
X152860891Y-71358890D01*
X152860892Y-71358890D01*
X152784423Y-71346779D01*
X152770033Y-71344500D01*
X152770032Y-71344500D01*
X152333969Y-71344500D01*
X152333967Y-71344501D01*
X152243108Y-71358890D01*
X152133599Y-71414687D01*
X152046687Y-71501599D01*
X151990890Y-71611108D01*
X151976500Y-71701967D01*
X151976500Y-74348029D01*
X151976501Y-74348032D01*
X151979272Y-74365529D01*
X151967798Y-74424552D01*
X151954609Y-74441432D01*
X151882788Y-74513254D01*
X151828295Y-74538665D01*
X151820633Y-74539000D01*
X150000172Y-74539000D01*
X149943671Y-74518435D01*
X149913607Y-74466364D01*
X149913354Y-74437350D01*
X149918614Y-74404135D01*
X149927500Y-74348033D01*
X149927499Y-71701968D01*
X149913109Y-71611107D01*
X149857311Y-71501597D01*
X149770403Y-71414689D01*
X149770400Y-71414687D01*
X149660891Y-71358890D01*
X149660892Y-71358890D01*
X149584423Y-71346779D01*
X149570033Y-71344500D01*
X149570032Y-71344500D01*
X149384667Y-71344500D01*
X149328166Y-71323935D01*
X149298102Y-71271864D01*
X149308543Y-71212650D01*
X149322512Y-71194445D01*
X149488213Y-71028745D01*
X149742213Y-70774745D01*
X149796707Y-70749334D01*
X149804368Y-70749000D01*
X153002475Y-70749000D01*
X153002476Y-70749000D01*
X153101921Y-70722354D01*
X153191080Y-70670878D01*
X154599713Y-69262245D01*
X154654207Y-69236834D01*
X154661868Y-69236500D01*
X158017746Y-69236500D01*
X158017748Y-69236500D01*
X158076231Y-69224867D01*
X158142552Y-69180552D01*
X158186867Y-69114231D01*
X158198500Y-69055748D01*
X158198500Y-66666252D01*
X158186867Y-66607769D01*
X158142552Y-66541448D01*
X158142548Y-66541445D01*
X158076232Y-66497133D01*
X158056736Y-66493255D01*
X158017748Y-66485500D01*
X152878252Y-66485500D01*
X152849010Y-66491316D01*
X152819767Y-66497133D01*
X152753451Y-66541445D01*
X152753445Y-66541451D01*
X152709133Y-66607767D01*
X152697500Y-66666253D01*
X152697500Y-69055746D01*
X152709133Y-69114232D01*
X152753445Y-69180548D01*
X152753448Y-69180552D01*
X152753451Y-69180554D01*
X152819767Y-69224866D01*
X152819769Y-69224867D01*
X152878252Y-69236500D01*
X153307332Y-69236500D01*
X153363833Y-69257065D01*
X153393897Y-69309136D01*
X153383456Y-69368350D01*
X153369487Y-69386555D01*
X152814787Y-69941255D01*
X152760293Y-69966666D01*
X152752632Y-69967000D01*
X149554524Y-69967000D01*
X149455080Y-69993645D01*
X149365918Y-70045123D01*
X148023123Y-71387918D01*
X147971645Y-71477080D01*
X147963467Y-71507604D01*
X147963466Y-71507607D01*
X147958596Y-71525780D01*
X147924107Y-71575032D01*
X147866028Y-71590592D01*
X147811536Y-71565180D01*
X147795372Y-71542932D01*
X147774312Y-71501599D01*
X147774311Y-71501597D01*
X147687403Y-71414689D01*
X147687400Y-71414687D01*
X147577891Y-71358890D01*
X147577892Y-71358890D01*
X147501423Y-71346779D01*
X147487033Y-71344500D01*
X147487032Y-71344500D01*
X147050969Y-71344500D01*
X147050967Y-71344501D01*
X146960108Y-71358890D01*
X146850599Y-71414687D01*
X146763687Y-71501599D01*
X146707890Y-71611108D01*
X146693500Y-71701967D01*
X146693500Y-74348030D01*
X146693501Y-74348032D01*
X146707890Y-74438891D01*
X146755854Y-74533027D01*
X146763689Y-74548403D01*
X146850597Y-74635311D01*
X146960107Y-74691109D01*
X147050967Y-74705500D01*
X147487032Y-74705499D01*
X147536500Y-74697664D01*
X147595521Y-74709137D01*
X147633360Y-74755865D01*
X147632311Y-74815983D01*
X147612404Y-74846637D01*
X145405787Y-77053255D01*
X145351293Y-77078666D01*
X145343632Y-77079000D01*
X142718900Y-77079000D01*
X142662399Y-77058435D01*
X142632335Y-77006364D01*
X142631000Y-76991100D01*
X142631000Y-71322525D01*
X142630999Y-71322520D01*
X142623179Y-71293333D01*
X142623179Y-71293334D01*
X142604354Y-71223079D01*
X142552878Y-71133920D01*
X141760121Y-70341163D01*
X141734710Y-70286669D01*
X141750273Y-70228591D01*
X141775706Y-70208184D01*
X141774032Y-70205678D01*
X141811606Y-70180570D01*
X141847552Y-70156552D01*
X141891867Y-70090231D01*
X141903500Y-70031748D01*
X141903500Y-68652252D01*
X141891867Y-68593769D01*
X141868776Y-68559212D01*
X141847554Y-68527451D01*
X141847552Y-68527448D01*
X141845472Y-68526058D01*
X141781232Y-68483133D01*
X141761736Y-68479255D01*
X141722748Y-68471500D01*
X138693252Y-68471500D01*
X138664010Y-68477316D01*
X138634767Y-68483133D01*
X138568451Y-68527445D01*
X138568445Y-68527451D01*
X138537485Y-68573785D01*
X138488995Y-68609338D01*
X138428997Y-68605404D01*
X138385564Y-68563824D01*
X138376500Y-68524949D01*
X138376500Y-66349050D01*
X138397065Y-66292549D01*
X138449136Y-66262485D01*
X138508350Y-66272926D01*
X138537484Y-66300212D01*
X138568448Y-66346552D01*
X138568451Y-66346554D01*
X138634767Y-66390866D01*
X138634769Y-66390867D01*
X138693252Y-66402500D01*
X140489132Y-66402500D01*
X140545633Y-66423065D01*
X140551287Y-66428245D01*
X140983920Y-66860878D01*
X141073079Y-66912354D01*
X141172524Y-66939000D01*
X141275476Y-66939000D01*
X143014545Y-66939000D01*
X143071046Y-66959565D01*
X143097512Y-66997868D01*
X143140206Y-67119882D01*
X143220847Y-67229147D01*
X143220852Y-67229152D01*
X143330118Y-67309793D01*
X143330119Y-67309794D01*
X143458297Y-67354645D01*
X143458299Y-67354645D01*
X143458301Y-67354646D01*
X143473517Y-67356073D01*
X143488733Y-67357500D01*
X143488734Y-67357500D01*
X144547267Y-67357500D01*
X144557410Y-67356548D01*
X144577699Y-67354646D01*
X144577702Y-67354645D01*
X144705880Y-67309794D01*
X144705880Y-67309793D01*
X144705882Y-67309793D01*
X144815150Y-67229150D01*
X144895793Y-67119882D01*
X144916700Y-67060133D01*
X144926532Y-67032036D01*
X144964603Y-66985497D01*
X145023682Y-66974319D01*
X145071654Y-66998912D01*
X146573055Y-68500313D01*
X146598466Y-68554807D01*
X146598800Y-68562468D01*
X146598800Y-69190296D01*
X146610433Y-69248782D01*
X146635215Y-69285869D01*
X146654745Y-69315098D01*
X146659534Y-69322264D01*
X146673827Y-69380668D01*
X146647234Y-69434595D01*
X146592199Y-69458812D01*
X146586449Y-69459000D01*
X145416343Y-69459000D01*
X145359842Y-69438435D01*
X145329778Y-69386364D01*
X145338821Y-69329666D01*
X145408396Y-69199501D01*
X145462747Y-69020331D01*
X145481099Y-68834000D01*
X145462747Y-68647669D01*
X145408396Y-68468499D01*
X145320136Y-68303375D01*
X145201357Y-68158643D01*
X145201351Y-68158638D01*
X145201348Y-68158635D01*
X145056628Y-68039866D01*
X145056629Y-68039866D01*
X144891499Y-67951603D01*
X144712337Y-67897254D01*
X144712332Y-67897253D01*
X144712331Y-67897253D01*
X144526000Y-67878901D01*
X144339669Y-67897253D01*
X144339667Y-67897253D01*
X144339662Y-67897254D01*
X144160500Y-67951603D01*
X143995371Y-68039866D01*
X143850651Y-68158635D01*
X143850635Y-68158651D01*
X143731866Y-68303371D01*
X143643603Y-68468500D01*
X143589254Y-68647662D01*
X143589253Y-68647667D01*
X143589253Y-68647669D01*
X143570901Y-68834000D01*
X143589253Y-69020331D01*
X143643604Y-69199501D01*
X143663380Y-69236500D01*
X143667621Y-69244433D01*
X143678000Y-69285869D01*
X143678000Y-71350877D01*
X143657435Y-71407378D01*
X143652255Y-71413032D01*
X143650599Y-71414687D01*
X143650597Y-71414689D01*
X143602055Y-71463231D01*
X143563687Y-71501599D01*
X143507890Y-71611108D01*
X143493500Y-71701967D01*
X143493500Y-74348030D01*
X143493501Y-74348032D01*
X143507890Y-74438891D01*
X143555854Y-74533027D01*
X143563689Y-74548403D01*
X143650597Y-74635311D01*
X143760107Y-74691109D01*
X143850967Y-74705500D01*
X144287032Y-74705499D01*
X144377893Y-74691109D01*
X144487403Y-74635311D01*
X144574311Y-74548403D01*
X144630109Y-74438893D01*
X144644500Y-74348033D01*
X144644499Y-71701968D01*
X144630109Y-71611107D01*
X144574311Y-71501597D01*
X144487403Y-71414689D01*
X144487400Y-71414687D01*
X144485745Y-71413032D01*
X144460334Y-71358538D01*
X144460000Y-71350877D01*
X144460000Y-71267368D01*
X144480565Y-71210867D01*
X144485745Y-71205213D01*
X145424213Y-70266745D01*
X145478707Y-70241334D01*
X145486368Y-70241000D01*
X147279400Y-70241000D01*
X147279401Y-70241000D01*
X147378846Y-70214354D01*
X147468005Y-70162878D01*
X148234088Y-69396795D01*
X148288582Y-69371384D01*
X148296243Y-69371050D01*
X148622446Y-69371050D01*
X148622448Y-69371050D01*
X148680931Y-69359417D01*
X148747252Y-69315102D01*
X148791567Y-69248781D01*
X148803200Y-69190298D01*
X148803200Y-67690302D01*
X148791567Y-67631819D01*
X148753163Y-67574345D01*
X148747254Y-67565501D01*
X148747252Y-67565498D01*
X148721963Y-67548600D01*
X148680932Y-67521183D01*
X148661436Y-67517305D01*
X148622448Y-67509550D01*
X148622446Y-67509550D01*
X148502568Y-67509550D01*
X148446067Y-67488985D01*
X148440413Y-67483805D01*
X146116231Y-65159623D01*
X146116230Y-65159622D01*
X146027071Y-65108146D01*
X146027070Y-65108145D01*
X146027069Y-65108145D01*
X145927626Y-65081500D01*
X143394868Y-65081500D01*
X143338367Y-65060935D01*
X143332713Y-65055755D01*
X142910745Y-64633787D01*
X142885334Y-64579293D01*
X142885000Y-64571632D01*
X142885000Y-60908524D01*
X142875829Y-60874296D01*
X142858354Y-60809080D01*
X142806878Y-60719920D01*
X142806877Y-60719919D01*
X142806875Y-60719916D01*
X142731011Y-60644053D01*
X142731010Y-60644053D01*
X142226080Y-60139122D01*
X142136921Y-60087646D01*
X142136920Y-60087645D01*
X142136919Y-60087645D01*
X142037476Y-60061000D01*
X141991400Y-60061000D01*
X141934899Y-60040435D01*
X141904835Y-59988364D01*
X141903500Y-59973100D01*
X141903500Y-59762253D01*
X141903500Y-59762252D01*
X141891867Y-59703769D01*
X141847552Y-59637448D01*
X141847548Y-59637445D01*
X141781232Y-59593133D01*
X141761736Y-59589255D01*
X141722748Y-59581500D01*
X138693252Y-59581500D01*
X138664010Y-59587316D01*
X138634767Y-59593133D01*
X138568451Y-59637445D01*
X138568445Y-59637451D01*
X138537485Y-59683785D01*
X138488995Y-59719338D01*
X138428997Y-59715404D01*
X138385564Y-59673824D01*
X138376500Y-59634949D01*
X138376500Y-56923999D01*
X138397065Y-56867498D01*
X138449136Y-56837434D01*
X138464400Y-56836099D01*
X140001129Y-56836099D01*
X140057630Y-56856664D01*
X140063284Y-56861844D01*
X141646507Y-58445067D01*
X141646507Y-58445068D01*
X141731126Y-58529688D01*
X141731128Y-58529689D01*
X141731130Y-58529691D01*
X141834769Y-58589527D01*
X141950364Y-58620501D01*
X141950365Y-58620501D01*
X142075418Y-58620501D01*
X142075434Y-58620500D01*
X150689200Y-58620500D01*
X150745701Y-58641065D01*
X150775765Y-58693136D01*
X150777100Y-58708400D01*
X150777100Y-60268546D01*
X150788733Y-60327032D01*
X150828309Y-60386260D01*
X150833048Y-60393352D01*
X150833051Y-60393354D01*
X150899367Y-60437666D01*
X150899369Y-60437667D01*
X150957852Y-60449300D01*
X150957854Y-60449300D01*
X152572146Y-60449300D01*
X152572148Y-60449300D01*
X152630631Y-60437667D01*
X152696952Y-60393352D01*
X152741267Y-60327031D01*
X152752900Y-60268548D01*
X152752900Y-58603452D01*
X152741267Y-58544969D01*
X152731058Y-58529691D01*
X152696954Y-58478651D01*
X152696952Y-58478648D01*
X152696948Y-58478645D01*
X152630632Y-58434333D01*
X152611136Y-58430455D01*
X152572148Y-58422700D01*
X152572146Y-58422700D01*
X152303704Y-58422700D01*
X152247203Y-58402135D01*
X152218799Y-58357549D01*
X152188527Y-58244569D01*
X152128691Y-58140930D01*
X152128689Y-58140928D01*
X152128688Y-58140926D01*
X152041001Y-58053240D01*
X152041000Y-58053240D01*
X151874692Y-57886932D01*
X151874692Y-57886931D01*
X151790073Y-57802311D01*
X151686429Y-57742472D01*
X151662002Y-57735927D01*
X151662002Y-57735926D01*
X151570836Y-57711499D01*
X151451164Y-57711499D01*
X151445782Y-57711499D01*
X151445766Y-57711500D01*
X142234870Y-57711500D01*
X142178369Y-57690935D01*
X142172715Y-57685755D01*
X141473114Y-56986154D01*
X141447703Y-56931660D01*
X141463266Y-56873582D01*
X141512519Y-56839094D01*
X141535269Y-56836099D01*
X142082746Y-56836099D01*
X142082748Y-56836099D01*
X142113451Y-56833221D01*
X142242771Y-56787970D01*
X142242771Y-56787969D01*
X142242773Y-56787969D01*
X142353010Y-56706610D01*
X142434369Y-56596373D01*
X142479621Y-56467051D01*
X142482500Y-56436349D01*
X142482499Y-51754852D01*
X142479621Y-51724149D01*
X142479621Y-51724148D01*
X142434370Y-51594828D01*
X142434369Y-51594827D01*
X142353011Y-51484592D01*
X142353010Y-51484590D01*
X142318505Y-51459124D01*
X142285256Y-51409026D01*
X142291989Y-51349277D01*
X142335552Y-51307834D01*
X142370702Y-51300500D01*
X153763898Y-51300500D01*
X153820399Y-51321065D01*
G37*
%TD.AperFunction*%
%TD*%
M02*
