%TF.GenerationSoftware,KiCad,Pcbnew,9.0.8-9.0.8~ubuntu22.04.1*%
%TF.CreationDate,2026-03-23T14:29:18-05:00*%
%TF.ProjectId,AutofluorescenceBoard,4175746f-666c-4756-9f72-657363656e63,rev?*%
%TF.SameCoordinates,Original*%
%TF.FileFunction,Copper,L4,Bot*%
%TF.FilePolarity,Positive*%
%FSLAX46Y46*%
G04 Gerber Fmt 4.6, Leading zero omitted, Abs format (unit mm)*
G04 Created by KiCad (PCBNEW 9.0.8-9.0.8~ubuntu22.04.1) date 2026-03-23 14:29:18*
%MOMM*%
%LPD*%
G01*
G04 APERTURE LIST*
%TA.AperFunction,ComponentPad*%
%ADD10C,4.826000*%
%TD*%
%TA.AperFunction,ComponentPad*%
%ADD11C,1.524000*%
%TD*%
%TA.AperFunction,SMDPad,CuDef*%
%ADD12R,0.500000X3.300000*%
%TD*%
%TA.AperFunction,SMDPad,CuDef*%
%ADD13R,1.300000X3.300000*%
%TD*%
%TA.AperFunction,SMDPad,CuDef*%
%ADD14R,0.300000X1.340000*%
%TD*%
%TA.AperFunction,SMDPad,CuDef*%
%ADD15R,0.750000X1.460000*%
%TD*%
%TA.AperFunction,SMDPad,CuDef*%
%ADD16R,0.680000X3.100000*%
%TD*%
%TA.AperFunction,SMDPad,CuDef*%
%ADD17R,1.300000X3.100000*%
%TD*%
%TA.AperFunction,SMDPad,CuDef*%
%ADD18R,0.800000X0.800000*%
%TD*%
%TA.AperFunction,ViaPad*%
%ADD19C,0.600000*%
%TD*%
%TA.AperFunction,ViaPad*%
%ADD20C,0.635000*%
%TD*%
%TA.AperFunction,Conductor*%
%ADD21C,0.254000*%
%TD*%
G04 APERTURE END LIST*
D10*
%TO.P,H4,1,1*%
%TO.N,GND*%
X167640000Y-104140000D03*
%TD*%
%TO.P,H3,1,1*%
%TO.N,GND*%
X128524000Y-104140000D03*
%TD*%
%TO.P,H2,1,1*%
%TO.N,GND*%
X167640000Y-65024000D03*
%TD*%
%TO.P,H1,1,1*%
%TO.N,GND*%
X128524000Y-65024000D03*
%TD*%
D11*
%TO.P,Conn1,1*%
%TO.N,White LED*%
X134620000Y-64008000D03*
%TO.P,Conn1,2*%
%TO.N,ISET 365nm*%
X137160000Y-64008000D03*
%TO.P,Conn1,3*%
%TO.N,ISET 405nm*%
X139700000Y-64008000D03*
%TO.P,Conn1,4*%
%TO.N,ISET 490nm*%
X142240000Y-64008000D03*
%TO.P,Conn1,5*%
%TO.N,GND*%
X144780000Y-64008000D03*
%TD*%
%TO.P,J1,1,1*%
%TO.N,GND*%
X151440000Y-64008000D03*
%TO.P,J1,2,2*%
%TO.N,Net-(MOSFET1-D)*%
X153980000Y-64008000D03*
%TD*%
%TO.P,FanConn1,1*%
%TO.N,GND*%
X160020000Y-64008000D03*
%TO.P,FanConn1,2*%
%TO.N,Net-(MOSFET1-D)*%
X162560000Y-64008000D03*
%TD*%
D12*
%TO.P,D2,1*%
%TO.N,Net-(D2-Pad1)*%
X146564000Y-84836000D03*
%TO.P,D2,2*%
%TO.N,Net-(D2-Pad2)*%
X143764000Y-84836000D03*
D13*
%TO.P,D2,3*%
%TO.N,GND*%
X145164000Y-84836000D03*
%TD*%
D14*
%TO.P,D3,1*%
%TO.N,Net-(D3-Pad1)*%
X148779500Y-88900000D03*
%TO.P,D3,2*%
%TO.N,Net-(D3-Pad2)*%
X147229500Y-88900000D03*
D15*
%TO.P,D3,3*%
%TO.N,GND*%
X148004500Y-88900000D03*
%TD*%
D16*
%TO.P,D1,1*%
%TO.N,Net-(D1-Pad1)*%
X152480000Y-84836000D03*
%TO.P,D1,2*%
%TO.N,Net-(D1-Pad2)*%
X149860000Y-84836000D03*
D17*
%TO.P,D1,3*%
%TO.N,GND*%
X151170000Y-84836000D03*
%TD*%
D18*
%TO.P,D6,1,K*%
%TO.N,Net-(D6-K)*%
X148844000Y-80264000D03*
%TO.P,D6,2,A*%
%TO.N,+12V*%
X147344000Y-80264000D03*
%TD*%
D19*
%TO.N,GND*%
X148082000Y-67310000D03*
X148082000Y-64262000D03*
X155702000Y-70053200D03*
X155702000Y-72440800D03*
X164515800Y-68249800D03*
X160604200Y-68275200D03*
D20*
X132080000Y-65532000D03*
X134296150Y-80391000D03*
D19*
X150368000Y-79248000D03*
D20*
X160909000Y-98806000D03*
X167640000Y-80645000D03*
X161036000Y-72032500D03*
X131064000Y-85725000D03*
X139493000Y-70104000D03*
X131572000Y-81026000D03*
X150368000Y-99187000D03*
X146304000Y-104544500D03*
X152908000Y-99187000D03*
X155448000Y-104267000D03*
X130937000Y-100838000D03*
X141732000Y-70104000D03*
X131064000Y-88265000D03*
X160909000Y-105410000D03*
D19*
X145288000Y-81788000D03*
D20*
X164211000Y-102108000D03*
D19*
X152908000Y-79248000D03*
D20*
X155448000Y-101727000D03*
D19*
X147828000Y-86868000D03*
D20*
X146304000Y-97049500D03*
D19*
X142748000Y-81788000D03*
D20*
X128524000Y-90805000D03*
X155448000Y-99187000D03*
D19*
X150368000Y-89408000D03*
D20*
X158517500Y-88900000D03*
X130937000Y-97536000D03*
X162560000Y-80645000D03*
X157607000Y-98806000D03*
D19*
X152908000Y-81788000D03*
D20*
X162560000Y-78105000D03*
D19*
X150368000Y-81788000D03*
D20*
X165100000Y-75565000D03*
D19*
X145288000Y-84328000D03*
D20*
X165100000Y-80645000D03*
D19*
X147828000Y-81788000D03*
X145288000Y-79248000D03*
D20*
X127635000Y-100838000D03*
X128524000Y-85725000D03*
X159258000Y-103759000D03*
X157607000Y-105410000D03*
X131064000Y-90805000D03*
D19*
X147828000Y-84328000D03*
D20*
X128524000Y-88265000D03*
X162560000Y-103759000D03*
X142240000Y-101600000D03*
X139700000Y-78189000D03*
X167640000Y-75565000D03*
X128778000Y-68834000D03*
X133604000Y-85725000D03*
X162560000Y-100330000D03*
D19*
X142748000Y-86868000D03*
D20*
X165100000Y-78105000D03*
X152908000Y-101727000D03*
X150368000Y-104267000D03*
X164211000Y-105410000D03*
X137020300Y-79756000D03*
X157607000Y-102108000D03*
X162052000Y-86360000D03*
X156567500Y-86868000D03*
X160909000Y-102108000D03*
X132080000Y-68834000D03*
X129286000Y-99187000D03*
X159258000Y-100330000D03*
X162560000Y-75565000D03*
X128016000Y-80772000D03*
X167500300Y-85090000D03*
X144145000Y-104324150D03*
X167640000Y-78105000D03*
X150368000Y-101727000D03*
D19*
X152908000Y-89408000D03*
D20*
X133604000Y-88265000D03*
X164776150Y-85725000D03*
X137317000Y-75118000D03*
D19*
X142748000Y-79248000D03*
D20*
X157607000Y-95504000D03*
X127635000Y-97536000D03*
X167500300Y-83820000D03*
X159258000Y-97155000D03*
X160909000Y-95504000D03*
D19*
X145288000Y-86868000D03*
X142748000Y-89408000D03*
X145288000Y-89408000D03*
D20*
X133604000Y-90805000D03*
D19*
X142748000Y-84328000D03*
D20*
X159258000Y-93853000D03*
X142875000Y-104324150D03*
X152908000Y-104267000D03*
X137020300Y-78486000D03*
%TO.N,+12V*%
X133604000Y-94996000D03*
X156464000Y-88900000D03*
X163068000Y-98044000D03*
X147320000Y-71628000D03*
X139700000Y-80264000D03*
X162052000Y-83820000D03*
X131572000Y-78486000D03*
X145288000Y-76581000D03*
X147294600Y-70358000D03*
X157988000Y-72009000D03*
X147320000Y-72898000D03*
X155448000Y-93980000D03*
X138811000Y-90932000D03*
X157480000Y-75692000D03*
X164338000Y-71120000D03*
X141859000Y-94996000D03*
X146304000Y-94996000D03*
X144145000Y-98933000D03*
%TO.N,Net-(D3-Pad2)*%
X145745000Y-92964000D03*
X143002000Y-91948000D03*
%TO.N,Net-(D4-A)*%
X143482000Y-70104000D03*
X157988000Y-70207500D03*
%TO.N,Net-(U2-ISENSE)*%
X138804000Y-85852000D03*
X131572000Y-79756000D03*
%TO.N,Net-(D1-Pad2)*%
X156972000Y-83820000D03*
%TO.N,ISET 405nm*%
X128016000Y-82597000D03*
%TO.N,ISET 490nm*%
X146304000Y-102719500D03*
X140335000Y-98875850D03*
%TO.N,ISET 365nm*%
X158392500Y-86868000D03*
%TO.N,Net-(D2-Pad2)*%
X136322000Y-76581000D03*
X143383000Y-77470000D03*
%TO.N,Net-(CR2-Pad2)*%
X132123000Y-73660000D03*
X129184400Y-94996000D03*
X137020300Y-82296000D03*
%TO.N,Net-(D1-Pad1)*%
X162982000Y-92456000D03*
X155321000Y-87122000D03*
%TO.N,Net-(D2-Pad1)*%
X143764000Y-75946000D03*
X127973000Y-73660000D03*
%TO.N,Net-(D3-Pad1)*%
X135636000Y-104691000D03*
X150368000Y-91567000D03*
%TO.N,Net-(D6-K)*%
X143497300Y-73660000D03*
X145218150Y-75380850D03*
%TO.N,Net-(MOSFET1-G)*%
X167640000Y-71120000D03*
X161036000Y-70207500D03*
X147294600Y-74168000D03*
%TD*%
D21*
%TO.N,+12V*%
X146304000Y-77978000D02*
X146304000Y-78613000D01*
X145288000Y-76962000D02*
X146304000Y-77978000D01*
X145288000Y-76581000D02*
X145288000Y-76962000D01*
X147344000Y-79653000D02*
X147344000Y-80264000D01*
X146304000Y-78613000D02*
X147344000Y-79653000D01*
%TO.N,Net-(D3-Pad2)*%
X146304000Y-90932000D02*
X147229500Y-90006500D01*
X143002000Y-91948000D02*
X144018000Y-90932000D01*
X147229500Y-90006500D02*
X147229500Y-88900000D01*
X144018000Y-90932000D02*
X146304000Y-90932000D01*
%TO.N,Net-(D1-Pad2)*%
X150215000Y-82677000D02*
X156591000Y-82677000D01*
X156591000Y-82677000D02*
X156972000Y-83058000D01*
X149860000Y-84836000D02*
X149860000Y-83032000D01*
X156972000Y-83058000D02*
X156972000Y-83820000D01*
X149860000Y-83032000D02*
X150215000Y-82677000D01*
%TO.N,Net-(D2-Pad2)*%
X143764000Y-77851000D02*
X143383000Y-77470000D01*
X143764000Y-84836000D02*
X143764000Y-77851000D01*
%TO.N,Net-(D1-Pad1)*%
X155321000Y-87122000D02*
X154432000Y-87122000D01*
X152480000Y-85170000D02*
X152480000Y-84836000D01*
X154432000Y-87122000D02*
X152480000Y-85170000D01*
%TO.N,Net-(D2-Pad1)*%
X144272000Y-75946000D02*
X144526000Y-76200000D01*
X143764000Y-75946000D02*
X144272000Y-75946000D01*
X144526000Y-77597000D02*
X146564000Y-79635000D01*
X144526000Y-76200000D02*
X144526000Y-77597000D01*
X146564000Y-79635000D02*
X146564000Y-84836000D01*
%TO.N,Net-(D3-Pad1)*%
X148779500Y-89978500D02*
X148779500Y-88900000D01*
X150368000Y-91567000D02*
X148779500Y-89978500D01*
%TO.N,Net-(D6-K)*%
X148844000Y-79006700D02*
X148844000Y-80264000D01*
X145218150Y-75380850D02*
X148844000Y-79006700D01*
%TD*%
%TA.AperFunction,Conductor*%
%TO.N,GND*%
G36*
X167770736Y-62557726D02*
G01*
X168041509Y-62574105D01*
X168056373Y-62575910D01*
X168319507Y-62624131D01*
X168334044Y-62627714D01*
X168589435Y-62707298D01*
X168603427Y-62712603D01*
X168847381Y-62822398D01*
X168860639Y-62829356D01*
X169089574Y-62967752D01*
X169101885Y-62976250D01*
X169269018Y-63107190D01*
X169312473Y-63141235D01*
X169323681Y-63151165D01*
X169512834Y-63340318D01*
X169522764Y-63351526D01*
X169687745Y-63562108D01*
X169696251Y-63574431D01*
X169834642Y-63803359D01*
X169841601Y-63816618D01*
X169951394Y-64060568D01*
X169956703Y-64074569D01*
X170036284Y-64329954D01*
X170039868Y-64344492D01*
X170088089Y-64607626D01*
X170089894Y-64622490D01*
X170106274Y-64893262D01*
X170106500Y-64900750D01*
X170106500Y-104263249D01*
X170106274Y-104270737D01*
X170089894Y-104541509D01*
X170088089Y-104556373D01*
X170039868Y-104819507D01*
X170036284Y-104834045D01*
X169956703Y-105089430D01*
X169951394Y-105103431D01*
X169841601Y-105347381D01*
X169834642Y-105360640D01*
X169696251Y-105589568D01*
X169687745Y-105601891D01*
X169522764Y-105812473D01*
X169512834Y-105823681D01*
X169323681Y-106012834D01*
X169312473Y-106022764D01*
X169101891Y-106187745D01*
X169089568Y-106196251D01*
X168860640Y-106334642D01*
X168847381Y-106341601D01*
X168603431Y-106451394D01*
X168589430Y-106456703D01*
X168334045Y-106536284D01*
X168319507Y-106539868D01*
X168056373Y-106588089D01*
X168041509Y-106589894D01*
X167786892Y-106605296D01*
X167770735Y-106606274D01*
X167763249Y-106606500D01*
X128400751Y-106606500D01*
X128393264Y-106606274D01*
X128375920Y-106605224D01*
X128122490Y-106589894D01*
X128107626Y-106588089D01*
X127844492Y-106539868D01*
X127829954Y-106536284D01*
X127574569Y-106456703D01*
X127560568Y-106451394D01*
X127316618Y-106341601D01*
X127303359Y-106334642D01*
X127074431Y-106196251D01*
X127062108Y-106187745D01*
X126851526Y-106022764D01*
X126840318Y-106012834D01*
X126651165Y-105823681D01*
X126641235Y-105812473D01*
X126476254Y-105601891D01*
X126467752Y-105589574D01*
X126329356Y-105360639D01*
X126322398Y-105347381D01*
X126266877Y-105224019D01*
X126212603Y-105103427D01*
X126207296Y-105089430D01*
X126192582Y-105042212D01*
X126127714Y-104834044D01*
X126124131Y-104819507D01*
X126089388Y-104629920D01*
X126086781Y-104615695D01*
X135064000Y-104615695D01*
X135064000Y-104766305D01*
X135080231Y-104826879D01*
X135102982Y-104911787D01*
X135155912Y-105003464D01*
X135178286Y-105042216D01*
X135284784Y-105148714D01*
X135376464Y-105201645D01*
X135415212Y-105224017D01*
X135415213Y-105224017D01*
X135415216Y-105224019D01*
X135560695Y-105263000D01*
X135560697Y-105263000D01*
X135711302Y-105263000D01*
X135711305Y-105263000D01*
X135856784Y-105224019D01*
X135987216Y-105148714D01*
X136093714Y-105042216D01*
X136169019Y-104911784D01*
X136208000Y-104766305D01*
X136208000Y-104615695D01*
X136169019Y-104470216D01*
X136093714Y-104339784D01*
X135987216Y-104233286D01*
X135948464Y-104210912D01*
X135856787Y-104157982D01*
X135856788Y-104157982D01*
X135839599Y-104153376D01*
X135711305Y-104119000D01*
X135560695Y-104119000D01*
X135432400Y-104153376D01*
X135415212Y-104157982D01*
X135284787Y-104233284D01*
X135284781Y-104233288D01*
X135178288Y-104339781D01*
X135178284Y-104339787D01*
X135102982Y-104470212D01*
X135102981Y-104470216D01*
X135064000Y-104615695D01*
X126086781Y-104615695D01*
X126075910Y-104556373D01*
X126074105Y-104541508D01*
X126057726Y-104270736D01*
X126057500Y-104263249D01*
X126057500Y-102644195D01*
X145732000Y-102644195D01*
X145732000Y-102794805D01*
X145770981Y-102940284D01*
X145770982Y-102940287D01*
X145823912Y-103031964D01*
X145846286Y-103070716D01*
X145952784Y-103177214D01*
X146044464Y-103230145D01*
X146083212Y-103252517D01*
X146083213Y-103252517D01*
X146083216Y-103252519D01*
X146228695Y-103291500D01*
X146228697Y-103291500D01*
X146379302Y-103291500D01*
X146379305Y-103291500D01*
X146524784Y-103252519D01*
X146655216Y-103177214D01*
X146761714Y-103070716D01*
X146837019Y-102940284D01*
X146876000Y-102794805D01*
X146876000Y-102644195D01*
X146837019Y-102498716D01*
X146761714Y-102368284D01*
X146655216Y-102261786D01*
X146616464Y-102239412D01*
X146524787Y-102186482D01*
X146524788Y-102186482D01*
X146507599Y-102181876D01*
X146379305Y-102147500D01*
X146228695Y-102147500D01*
X146100400Y-102181876D01*
X146083212Y-102186482D01*
X145952787Y-102261784D01*
X145952781Y-102261788D01*
X145846288Y-102368281D01*
X145846284Y-102368287D01*
X145770982Y-102498712D01*
X145770981Y-102498716D01*
X145732000Y-102644195D01*
X126057500Y-102644195D01*
X126057500Y-98800545D01*
X139763000Y-98800545D01*
X139763000Y-98951155D01*
X139801981Y-99096634D01*
X139801982Y-99096637D01*
X139834978Y-99153787D01*
X139877286Y-99227066D01*
X139983784Y-99333564D01*
X140075464Y-99386495D01*
X140114212Y-99408867D01*
X140114213Y-99408867D01*
X140114216Y-99408869D01*
X140259695Y-99447850D01*
X140259697Y-99447850D01*
X140410302Y-99447850D01*
X140410305Y-99447850D01*
X140555784Y-99408869D01*
X140686216Y-99333564D01*
X140792714Y-99227066D01*
X140868019Y-99096634D01*
X140907000Y-98951155D01*
X140907000Y-98857695D01*
X143573000Y-98857695D01*
X143573000Y-99008305D01*
X143611981Y-99153784D01*
X143611982Y-99153787D01*
X143664912Y-99245464D01*
X143687286Y-99284216D01*
X143793784Y-99390714D01*
X143885464Y-99443645D01*
X143924212Y-99466017D01*
X143924213Y-99466017D01*
X143924216Y-99466019D01*
X144069695Y-99505000D01*
X144069697Y-99505000D01*
X144220302Y-99505000D01*
X144220305Y-99505000D01*
X144365784Y-99466019D01*
X144496216Y-99390714D01*
X144602714Y-99284216D01*
X144678019Y-99153784D01*
X144717000Y-99008305D01*
X144717000Y-98857695D01*
X144678019Y-98712216D01*
X144602714Y-98581784D01*
X144496216Y-98475286D01*
X144457464Y-98452912D01*
X144365787Y-98399982D01*
X144365788Y-98399982D01*
X144347986Y-98395212D01*
X144220305Y-98361000D01*
X144069695Y-98361000D01*
X143942014Y-98395212D01*
X143924212Y-98399982D01*
X143793787Y-98475284D01*
X143793781Y-98475288D01*
X143687288Y-98581781D01*
X143687284Y-98581787D01*
X143611982Y-98712212D01*
X143611981Y-98712216D01*
X143573000Y-98857695D01*
X140907000Y-98857695D01*
X140907000Y-98800545D01*
X140868019Y-98655066D01*
X140792714Y-98524634D01*
X140686216Y-98418136D01*
X140646517Y-98395216D01*
X140555787Y-98342832D01*
X140555788Y-98342832D01*
X140538599Y-98338226D01*
X140410305Y-98303850D01*
X140259695Y-98303850D01*
X140131400Y-98338226D01*
X140114212Y-98342832D01*
X139983787Y-98418134D01*
X139983781Y-98418138D01*
X139877288Y-98524631D01*
X139877284Y-98524637D01*
X139801982Y-98655062D01*
X139801981Y-98655066D01*
X139763000Y-98800545D01*
X126057500Y-98800545D01*
X126057500Y-97968695D01*
X162496000Y-97968695D01*
X162496000Y-98119305D01*
X162534981Y-98264784D01*
X162534982Y-98264787D01*
X162580041Y-98342831D01*
X162610286Y-98395216D01*
X162716784Y-98501714D01*
X162756483Y-98524634D01*
X162847212Y-98577017D01*
X162847213Y-98577017D01*
X162847216Y-98577019D01*
X162992695Y-98616000D01*
X162992697Y-98616000D01*
X163143302Y-98616000D01*
X163143305Y-98616000D01*
X163288784Y-98577019D01*
X163419216Y-98501714D01*
X163525714Y-98395216D01*
X163601019Y-98264784D01*
X163640000Y-98119305D01*
X163640000Y-97968695D01*
X163601019Y-97823216D01*
X163525714Y-97692784D01*
X163419216Y-97586286D01*
X163380464Y-97563912D01*
X163288787Y-97510982D01*
X163288788Y-97510982D01*
X163271599Y-97506376D01*
X163143305Y-97472000D01*
X162992695Y-97472000D01*
X162864400Y-97506376D01*
X162847212Y-97510982D01*
X162716787Y-97586284D01*
X162716781Y-97586288D01*
X162610288Y-97692781D01*
X162610284Y-97692787D01*
X162534982Y-97823212D01*
X162534981Y-97823216D01*
X162496000Y-97968695D01*
X126057500Y-97968695D01*
X126057500Y-94920695D01*
X128612400Y-94920695D01*
X128612400Y-95071305D01*
X128651381Y-95216784D01*
X128651382Y-95216787D01*
X128704312Y-95308464D01*
X128726686Y-95347216D01*
X128833184Y-95453714D01*
X128924864Y-95506645D01*
X128963612Y-95529017D01*
X128963613Y-95529017D01*
X128963616Y-95529019D01*
X129109095Y-95568000D01*
X129109097Y-95568000D01*
X129259702Y-95568000D01*
X129259705Y-95568000D01*
X129405184Y-95529019D01*
X129535616Y-95453714D01*
X129642114Y-95347216D01*
X129717419Y-95216784D01*
X129756400Y-95071305D01*
X129756400Y-94920695D01*
X133032000Y-94920695D01*
X133032000Y-95071305D01*
X133070981Y-95216784D01*
X133070982Y-95216787D01*
X133123912Y-95308464D01*
X133146286Y-95347216D01*
X133252784Y-95453714D01*
X133344464Y-95506645D01*
X133383212Y-95529017D01*
X133383213Y-95529017D01*
X133383216Y-95529019D01*
X133528695Y-95568000D01*
X133528697Y-95568000D01*
X133679302Y-95568000D01*
X133679305Y-95568000D01*
X133824784Y-95529019D01*
X133955216Y-95453714D01*
X134061714Y-95347216D01*
X134137019Y-95216784D01*
X134176000Y-95071305D01*
X134176000Y-94920695D01*
X141287000Y-94920695D01*
X141287000Y-95071305D01*
X141325981Y-95216784D01*
X141325982Y-95216787D01*
X141378912Y-95308464D01*
X141401286Y-95347216D01*
X141507784Y-95453714D01*
X141599464Y-95506645D01*
X141638212Y-95529017D01*
X141638213Y-95529017D01*
X141638216Y-95529019D01*
X141783695Y-95568000D01*
X141783697Y-95568000D01*
X141934302Y-95568000D01*
X141934305Y-95568000D01*
X142079784Y-95529019D01*
X142210216Y-95453714D01*
X142316714Y-95347216D01*
X142392019Y-95216784D01*
X142431000Y-95071305D01*
X142431000Y-94920695D01*
X145732000Y-94920695D01*
X145732000Y-95071305D01*
X145770981Y-95216784D01*
X145770982Y-95216787D01*
X145823912Y-95308464D01*
X145846286Y-95347216D01*
X145952784Y-95453714D01*
X146044464Y-95506645D01*
X146083212Y-95529017D01*
X146083213Y-95529017D01*
X146083216Y-95529019D01*
X146228695Y-95568000D01*
X146228697Y-95568000D01*
X146379302Y-95568000D01*
X146379305Y-95568000D01*
X146524784Y-95529019D01*
X146655216Y-95453714D01*
X146761714Y-95347216D01*
X146837019Y-95216784D01*
X146876000Y-95071305D01*
X146876000Y-94920695D01*
X146837019Y-94775216D01*
X146761714Y-94644784D01*
X146655216Y-94538286D01*
X146611449Y-94513017D01*
X146524787Y-94462982D01*
X146524788Y-94462982D01*
X146507599Y-94458376D01*
X146379305Y-94424000D01*
X146228695Y-94424000D01*
X146100400Y-94458376D01*
X146083212Y-94462982D01*
X145952787Y-94538284D01*
X145952781Y-94538288D01*
X145846288Y-94644781D01*
X145846284Y-94644787D01*
X145770982Y-94775212D01*
X145770981Y-94775216D01*
X145732000Y-94920695D01*
X142431000Y-94920695D01*
X142392019Y-94775216D01*
X142316714Y-94644784D01*
X142210216Y-94538286D01*
X142166449Y-94513017D01*
X142079787Y-94462982D01*
X142079788Y-94462982D01*
X142062599Y-94458376D01*
X141934305Y-94424000D01*
X141783695Y-94424000D01*
X141655400Y-94458376D01*
X141638212Y-94462982D01*
X141507787Y-94538284D01*
X141507781Y-94538288D01*
X141401288Y-94644781D01*
X141401284Y-94644787D01*
X141325982Y-94775212D01*
X141325981Y-94775216D01*
X141287000Y-94920695D01*
X134176000Y-94920695D01*
X134137019Y-94775216D01*
X134061714Y-94644784D01*
X133955216Y-94538286D01*
X133911449Y-94513017D01*
X133824787Y-94462982D01*
X133824788Y-94462982D01*
X133807599Y-94458376D01*
X133679305Y-94424000D01*
X133528695Y-94424000D01*
X133400400Y-94458376D01*
X133383212Y-94462982D01*
X133252787Y-94538284D01*
X133252781Y-94538288D01*
X133146288Y-94644781D01*
X133146284Y-94644787D01*
X133070982Y-94775212D01*
X133070981Y-94775216D01*
X133032000Y-94920695D01*
X129756400Y-94920695D01*
X129717419Y-94775216D01*
X129642114Y-94644784D01*
X129535616Y-94538286D01*
X129491849Y-94513017D01*
X129405187Y-94462982D01*
X129405188Y-94462982D01*
X129387999Y-94458376D01*
X129259705Y-94424000D01*
X129109095Y-94424000D01*
X128980800Y-94458376D01*
X128963612Y-94462982D01*
X128833187Y-94538284D01*
X128833181Y-94538288D01*
X128726688Y-94644781D01*
X128726684Y-94644787D01*
X128651382Y-94775212D01*
X128651381Y-94775216D01*
X128612400Y-94920695D01*
X126057500Y-94920695D01*
X126057500Y-93904695D01*
X154876000Y-93904695D01*
X154876000Y-94055305D01*
X154914981Y-94200784D01*
X154914982Y-94200787D01*
X154967912Y-94292464D01*
X154990286Y-94331216D01*
X155096784Y-94437714D01*
X155188464Y-94490645D01*
X155227212Y-94513017D01*
X155227213Y-94513017D01*
X155227216Y-94513019D01*
X155372695Y-94552000D01*
X155372697Y-94552000D01*
X155523302Y-94552000D01*
X155523305Y-94552000D01*
X155668784Y-94513019D01*
X155799216Y-94437714D01*
X155905714Y-94331216D01*
X155981019Y-94200784D01*
X156020000Y-94055305D01*
X156020000Y-93904695D01*
X155981019Y-93759216D01*
X155905714Y-93628784D01*
X155799216Y-93522286D01*
X155755449Y-93497017D01*
X155668787Y-93446982D01*
X155668788Y-93446982D01*
X155651599Y-93442376D01*
X155523305Y-93408000D01*
X155372695Y-93408000D01*
X155244400Y-93442376D01*
X155227212Y-93446982D01*
X155096787Y-93522284D01*
X155096781Y-93522288D01*
X154990288Y-93628781D01*
X154990284Y-93628787D01*
X154914982Y-93759212D01*
X154914981Y-93759216D01*
X154876000Y-93904695D01*
X126057500Y-93904695D01*
X126057500Y-92888695D01*
X145173000Y-92888695D01*
X145173000Y-93039305D01*
X145211981Y-93184784D01*
X145211982Y-93184787D01*
X145264912Y-93276464D01*
X145287286Y-93315216D01*
X145393784Y-93421714D01*
X145485464Y-93474645D01*
X145524212Y-93497017D01*
X145524213Y-93497017D01*
X145524216Y-93497019D01*
X145669695Y-93536000D01*
X145669697Y-93536000D01*
X145820302Y-93536000D01*
X145820305Y-93536000D01*
X145965784Y-93497019D01*
X146096216Y-93421714D01*
X146202714Y-93315216D01*
X146278019Y-93184784D01*
X146317000Y-93039305D01*
X146317000Y-92888695D01*
X146278019Y-92743216D01*
X146202714Y-92612784D01*
X146096216Y-92506286D01*
X146050608Y-92479954D01*
X146050607Y-92479953D01*
X145965787Y-92430982D01*
X145965788Y-92430982D01*
X145948599Y-92426376D01*
X145820305Y-92392000D01*
X145669695Y-92392000D01*
X145541400Y-92426376D01*
X145524212Y-92430982D01*
X145393787Y-92506284D01*
X145393781Y-92506288D01*
X145287288Y-92612781D01*
X145287284Y-92612787D01*
X145211982Y-92743212D01*
X145211981Y-92743216D01*
X145173000Y-92888695D01*
X126057500Y-92888695D01*
X126057500Y-91872695D01*
X142430000Y-91872695D01*
X142430000Y-92023305D01*
X142468981Y-92168784D01*
X142468982Y-92168787D01*
X142521912Y-92260464D01*
X142544286Y-92299216D01*
X142650784Y-92405714D01*
X142742464Y-92458645D01*
X142781212Y-92481017D01*
X142781213Y-92481017D01*
X142781216Y-92481019D01*
X142926695Y-92520000D01*
X142926697Y-92520000D01*
X143077302Y-92520000D01*
X143077305Y-92520000D01*
X143222784Y-92481019D01*
X143353216Y-92405714D01*
X143378235Y-92380695D01*
X162410000Y-92380695D01*
X162410000Y-92531305D01*
X162448981Y-92676784D01*
X162448982Y-92676787D01*
X162501912Y-92768464D01*
X162524286Y-92807216D01*
X162630784Y-92913714D01*
X162722464Y-92966645D01*
X162761212Y-92989017D01*
X162761213Y-92989017D01*
X162761216Y-92989019D01*
X162906695Y-93028000D01*
X162906697Y-93028000D01*
X163057302Y-93028000D01*
X163057305Y-93028000D01*
X163202784Y-92989019D01*
X163333216Y-92913714D01*
X163439714Y-92807216D01*
X163515019Y-92676784D01*
X163554000Y-92531305D01*
X163554000Y-92380695D01*
X163515019Y-92235216D01*
X163439714Y-92104784D01*
X163333216Y-91998286D01*
X163278828Y-91966885D01*
X163202787Y-91922982D01*
X163202788Y-91922982D01*
X163174950Y-91915523D01*
X163057305Y-91884000D01*
X162906695Y-91884000D01*
X162789050Y-91915523D01*
X162761212Y-91922982D01*
X162630787Y-91998284D01*
X162630781Y-91998288D01*
X162524288Y-92104781D01*
X162524284Y-92104787D01*
X162448982Y-92235212D01*
X162448981Y-92235216D01*
X162410000Y-92380695D01*
X143378235Y-92380695D01*
X143459714Y-92299216D01*
X143535019Y-92168784D01*
X143574000Y-92023305D01*
X143574000Y-91966885D01*
X143593685Y-91899846D01*
X143610319Y-91879204D01*
X144139704Y-91349819D01*
X144201027Y-91316334D01*
X144227385Y-91313500D01*
X146354222Y-91313500D01*
X146354225Y-91313500D01*
X146451254Y-91287501D01*
X146538247Y-91237276D01*
X146609276Y-91166247D01*
X147534776Y-90240747D01*
X147585002Y-90153753D01*
X147611001Y-90056725D01*
X147611001Y-89956275D01*
X147611001Y-89948680D01*
X147611000Y-89948662D01*
X147611000Y-89713844D01*
X147617455Y-89681401D01*
X147616851Y-89681281D01*
X147619234Y-89669301D01*
X147634000Y-89595067D01*
X147633999Y-88204934D01*
X147633998Y-88204928D01*
X148375000Y-88204928D01*
X148375000Y-89595064D01*
X148392149Y-89681281D01*
X148391545Y-89681400D01*
X148398000Y-89713844D01*
X148398000Y-90028725D01*
X148405502Y-90056722D01*
X148423999Y-90125755D01*
X148424000Y-90125756D01*
X148440164Y-90153753D01*
X148440165Y-90153754D01*
X148474223Y-90212745D01*
X148474225Y-90212748D01*
X149759681Y-91498204D01*
X149793166Y-91559527D01*
X149796000Y-91585885D01*
X149796000Y-91642305D01*
X149818751Y-91727212D01*
X149834982Y-91787787D01*
X149884004Y-91872695D01*
X149910286Y-91918216D01*
X150016784Y-92024714D01*
X150108464Y-92077645D01*
X150147212Y-92100017D01*
X150147213Y-92100017D01*
X150147216Y-92100019D01*
X150292695Y-92139000D01*
X150292697Y-92139000D01*
X150443302Y-92139000D01*
X150443305Y-92139000D01*
X150588784Y-92100019D01*
X150719216Y-92024714D01*
X150825714Y-91918216D01*
X150901019Y-91787784D01*
X150940000Y-91642305D01*
X150940000Y-91491695D01*
X150901019Y-91346216D01*
X150825714Y-91215784D01*
X150719216Y-91109286D01*
X150680464Y-91086912D01*
X150588787Y-91033982D01*
X150588788Y-91033982D01*
X150571599Y-91029376D01*
X150443305Y-90995000D01*
X150443303Y-90995000D01*
X150386885Y-90995000D01*
X150319846Y-90975315D01*
X150299204Y-90958681D01*
X149197319Y-89856796D01*
X149182615Y-89829868D01*
X149166023Y-89804050D01*
X149165131Y-89797849D01*
X149163834Y-89795473D01*
X149161000Y-89769115D01*
X149161000Y-89713844D01*
X149167455Y-89681401D01*
X149166851Y-89681281D01*
X149169234Y-89669301D01*
X149184000Y-89595067D01*
X149183999Y-88824695D01*
X155892000Y-88824695D01*
X155892000Y-88975305D01*
X155930981Y-89120784D01*
X155930982Y-89120787D01*
X155983912Y-89212464D01*
X156006286Y-89251216D01*
X156112784Y-89357714D01*
X156204464Y-89410645D01*
X156243212Y-89433017D01*
X156243213Y-89433017D01*
X156243216Y-89433019D01*
X156388695Y-89472000D01*
X156388697Y-89472000D01*
X156539302Y-89472000D01*
X156539305Y-89472000D01*
X156684784Y-89433019D01*
X156815216Y-89357714D01*
X156921714Y-89251216D01*
X156997019Y-89120784D01*
X157036000Y-88975305D01*
X157036000Y-88824695D01*
X156997019Y-88679216D01*
X156921714Y-88548784D01*
X156815216Y-88442286D01*
X156776464Y-88419912D01*
X156684787Y-88366982D01*
X156684788Y-88366982D01*
X156667599Y-88362376D01*
X156539305Y-88328000D01*
X156388695Y-88328000D01*
X156260400Y-88362376D01*
X156243212Y-88366982D01*
X156112787Y-88442284D01*
X156112781Y-88442288D01*
X156006288Y-88548781D01*
X156006284Y-88548787D01*
X155930982Y-88679212D01*
X155930981Y-88679216D01*
X155892000Y-88824695D01*
X149183999Y-88824695D01*
X149183999Y-88204934D01*
X149169234Y-88130699D01*
X149150568Y-88102765D01*
X149112984Y-88046515D01*
X149062519Y-88012796D01*
X149028801Y-87990266D01*
X149028799Y-87990265D01*
X149028796Y-87990264D01*
X148954569Y-87975500D01*
X148604436Y-87975500D01*
X148530198Y-87990266D01*
X148446015Y-88046515D01*
X148389766Y-88130699D01*
X148389764Y-88130703D01*
X148375000Y-88204928D01*
X147633998Y-88204928D01*
X147619234Y-88130699D01*
X147600568Y-88102765D01*
X147562984Y-88046515D01*
X147512519Y-88012796D01*
X147478801Y-87990266D01*
X147478799Y-87990265D01*
X147478796Y-87990264D01*
X147404569Y-87975500D01*
X147054436Y-87975500D01*
X146980198Y-87990266D01*
X146896015Y-88046515D01*
X146839766Y-88130699D01*
X146839764Y-88130703D01*
X146825000Y-88204928D01*
X146825000Y-89595064D01*
X146841094Y-89675979D01*
X146842977Y-89678909D01*
X146848000Y-89713844D01*
X146848000Y-89797115D01*
X146828315Y-89864154D01*
X146811681Y-89884796D01*
X146182296Y-90514181D01*
X146120973Y-90547666D01*
X146094615Y-90550500D01*
X143967775Y-90550500D01*
X143895003Y-90569999D01*
X143870745Y-90576499D01*
X143783754Y-90626723D01*
X143783751Y-90626725D01*
X143070796Y-91339681D01*
X143009473Y-91373166D01*
X142983115Y-91376000D01*
X142926695Y-91376000D01*
X142798400Y-91410376D01*
X142781212Y-91414982D01*
X142650787Y-91490284D01*
X142650781Y-91490288D01*
X142544288Y-91596781D01*
X142544284Y-91596787D01*
X142468982Y-91727212D01*
X142468981Y-91727216D01*
X142430000Y-91872695D01*
X126057500Y-91872695D01*
X126057500Y-90856695D01*
X138239000Y-90856695D01*
X138239000Y-91007305D01*
X138277981Y-91152784D01*
X138277982Y-91152787D01*
X138330912Y-91244464D01*
X138353286Y-91283216D01*
X138459784Y-91389714D01*
X138551464Y-91442645D01*
X138590212Y-91465017D01*
X138590213Y-91465017D01*
X138590216Y-91465019D01*
X138735695Y-91504000D01*
X138735697Y-91504000D01*
X138886302Y-91504000D01*
X138886305Y-91504000D01*
X139031784Y-91465019D01*
X139162216Y-91389714D01*
X139268714Y-91283216D01*
X139344019Y-91152784D01*
X139383000Y-91007305D01*
X139383000Y-90856695D01*
X139344019Y-90711216D01*
X139268714Y-90580784D01*
X139162216Y-90474286D01*
X139123464Y-90451912D01*
X139031787Y-90398982D01*
X139031788Y-90398982D01*
X139014599Y-90394376D01*
X138886305Y-90360000D01*
X138735695Y-90360000D01*
X138607400Y-90394376D01*
X138590212Y-90398982D01*
X138459787Y-90474284D01*
X138459781Y-90474288D01*
X138353288Y-90580781D01*
X138353284Y-90580787D01*
X138277982Y-90711212D01*
X138277981Y-90711216D01*
X138239000Y-90856695D01*
X126057500Y-90856695D01*
X126057500Y-85776695D01*
X138232000Y-85776695D01*
X138232000Y-85927305D01*
X138270981Y-86072784D01*
X138270982Y-86072787D01*
X138323912Y-86164464D01*
X138346286Y-86203216D01*
X138452784Y-86309714D01*
X138544464Y-86362645D01*
X138583212Y-86385017D01*
X138583213Y-86385017D01*
X138583216Y-86385019D01*
X138728695Y-86424000D01*
X138728697Y-86424000D01*
X138879302Y-86424000D01*
X138879305Y-86424000D01*
X139024784Y-86385019D01*
X139155216Y-86309714D01*
X139261714Y-86203216D01*
X139337019Y-86072784D01*
X139376000Y-85927305D01*
X139376000Y-85776695D01*
X139337019Y-85631216D01*
X139261714Y-85500784D01*
X139155216Y-85394286D01*
X139116464Y-85371912D01*
X139024787Y-85318982D01*
X139024788Y-85318982D01*
X139007599Y-85314376D01*
X138879305Y-85280000D01*
X138728695Y-85280000D01*
X138600400Y-85314376D01*
X138583212Y-85318982D01*
X138452787Y-85394284D01*
X138452781Y-85394288D01*
X138346288Y-85500781D01*
X138346284Y-85500787D01*
X138270982Y-85631212D01*
X138270981Y-85631216D01*
X138232000Y-85776695D01*
X126057500Y-85776695D01*
X126057500Y-82521695D01*
X127444000Y-82521695D01*
X127444000Y-82672305D01*
X127465814Y-82753715D01*
X127482982Y-82817787D01*
X127521644Y-82884750D01*
X127558286Y-82948216D01*
X127664784Y-83054714D01*
X127756464Y-83107645D01*
X127795212Y-83130017D01*
X127795213Y-83130017D01*
X127795216Y-83130019D01*
X127940695Y-83169000D01*
X127940697Y-83169000D01*
X128091302Y-83169000D01*
X128091305Y-83169000D01*
X128236784Y-83130019D01*
X128367216Y-83054714D01*
X128473714Y-82948216D01*
X128549019Y-82817784D01*
X128588000Y-82672305D01*
X128588000Y-82521695D01*
X128549019Y-82376216D01*
X128532243Y-82347159D01*
X128490333Y-82274568D01*
X128490332Y-82274566D01*
X128473718Y-82245790D01*
X128473715Y-82245787D01*
X128473714Y-82245784D01*
X128448625Y-82220695D01*
X136448300Y-82220695D01*
X136448300Y-82371305D01*
X136487281Y-82516784D01*
X136487282Y-82516787D01*
X136540212Y-82608464D01*
X136562586Y-82647216D01*
X136669084Y-82753714D01*
X136760764Y-82806645D01*
X136799512Y-82829017D01*
X136799513Y-82829017D01*
X136799516Y-82829019D01*
X136944995Y-82868000D01*
X136944997Y-82868000D01*
X137095602Y-82868000D01*
X137095605Y-82868000D01*
X137241084Y-82829019D01*
X137371516Y-82753714D01*
X137478014Y-82647216D01*
X137553319Y-82516784D01*
X137592300Y-82371305D01*
X137592300Y-82220695D01*
X137553319Y-82075216D01*
X137546832Y-82063981D01*
X137524327Y-82025000D01*
X137478014Y-81944784D01*
X137371516Y-81838286D01*
X137332764Y-81815912D01*
X137241087Y-81762982D01*
X137241088Y-81762982D01*
X137223899Y-81758376D01*
X137095605Y-81724000D01*
X136944995Y-81724000D01*
X136816700Y-81758376D01*
X136799512Y-81762982D01*
X136669087Y-81838284D01*
X136669081Y-81838288D01*
X136562588Y-81944781D01*
X136562584Y-81944787D01*
X136487282Y-82075212D01*
X136487281Y-82075216D01*
X136448300Y-82220695D01*
X128448625Y-82220695D01*
X128367216Y-82139286D01*
X128328464Y-82116912D01*
X128236787Y-82063982D01*
X128236788Y-82063982D01*
X128219599Y-82059376D01*
X128091305Y-82025000D01*
X127940695Y-82025000D01*
X127812400Y-82059376D01*
X127795212Y-82063982D01*
X127664787Y-82139284D01*
X127664781Y-82139288D01*
X127558288Y-82245781D01*
X127558284Y-82245787D01*
X127482982Y-82376212D01*
X127482981Y-82376216D01*
X127444000Y-82521695D01*
X126057500Y-82521695D01*
X126057500Y-78410695D01*
X131000000Y-78410695D01*
X131000000Y-78561305D01*
X131037545Y-78701424D01*
X131038982Y-78706787D01*
X131091912Y-78798464D01*
X131114286Y-78837216D01*
X131220784Y-78943714D01*
X131313097Y-78997011D01*
X131341852Y-79013613D01*
X131390067Y-79064181D01*
X131403289Y-79132788D01*
X131377321Y-79197652D01*
X131341852Y-79228387D01*
X131220784Y-79298286D01*
X131220781Y-79298288D01*
X131114288Y-79404781D01*
X131114284Y-79404787D01*
X131038982Y-79535212D01*
X131038981Y-79535216D01*
X131000000Y-79680695D01*
X131000000Y-79831305D01*
X131038981Y-79976784D01*
X131038982Y-79976787D01*
X131091912Y-80068464D01*
X131114286Y-80107216D01*
X131220784Y-80213714D01*
X131312464Y-80266645D01*
X131351212Y-80289017D01*
X131351213Y-80289017D01*
X131351216Y-80289019D01*
X131496695Y-80328000D01*
X131496697Y-80328000D01*
X131647302Y-80328000D01*
X131647305Y-80328000D01*
X131792784Y-80289019D01*
X131923216Y-80213714D01*
X131948235Y-80188695D01*
X139128000Y-80188695D01*
X139128000Y-80339305D01*
X139166981Y-80484784D01*
X139166982Y-80484787D01*
X139219912Y-80576464D01*
X139242286Y-80615216D01*
X139348784Y-80721714D01*
X139407331Y-80755516D01*
X139479212Y-80797017D01*
X139479213Y-80797017D01*
X139479216Y-80797019D01*
X139624695Y-80836000D01*
X139624697Y-80836000D01*
X139775302Y-80836000D01*
X139775305Y-80836000D01*
X139920784Y-80797019D01*
X140051216Y-80721714D01*
X140157714Y-80615216D01*
X140233019Y-80484784D01*
X140272000Y-80339305D01*
X140272000Y-80188695D01*
X140233019Y-80043216D01*
X140157714Y-79912784D01*
X140051216Y-79806286D01*
X139993745Y-79773105D01*
X139920787Y-79730982D01*
X139920788Y-79730982D01*
X139903599Y-79726376D01*
X139775305Y-79692000D01*
X139624695Y-79692000D01*
X139496400Y-79726376D01*
X139479212Y-79730982D01*
X139348787Y-79806284D01*
X139348781Y-79806288D01*
X139242288Y-79912781D01*
X139242284Y-79912787D01*
X139166982Y-80043212D01*
X139166981Y-80043216D01*
X139128000Y-80188695D01*
X131948235Y-80188695D01*
X132029714Y-80107216D01*
X132105019Y-79976784D01*
X132144000Y-79831305D01*
X132144000Y-79680695D01*
X132105019Y-79535216D01*
X132088004Y-79505746D01*
X132082645Y-79496464D01*
X132029714Y-79404784D01*
X131923216Y-79298286D01*
X131862883Y-79263452D01*
X131802148Y-79228387D01*
X131753932Y-79177820D01*
X131740710Y-79109213D01*
X131766678Y-79044348D01*
X131802148Y-79013613D01*
X131825412Y-79000180D01*
X131923216Y-78943714D01*
X132029714Y-78837216D01*
X132105019Y-78706784D01*
X132144000Y-78561305D01*
X132144000Y-78410695D01*
X132105019Y-78265216D01*
X132029714Y-78134784D01*
X131923216Y-78028286D01*
X131854038Y-77988346D01*
X131792787Y-77952982D01*
X131792788Y-77952982D01*
X131754008Y-77942591D01*
X131647305Y-77914000D01*
X131496695Y-77914000D01*
X131389992Y-77942591D01*
X131351212Y-77952982D01*
X131220787Y-78028284D01*
X131220781Y-78028288D01*
X131114288Y-78134781D01*
X131114284Y-78134787D01*
X131038982Y-78265212D01*
X131038981Y-78265216D01*
X131000000Y-78410695D01*
X126057500Y-78410695D01*
X126057500Y-77394695D01*
X142811000Y-77394695D01*
X142811000Y-77545305D01*
X142845142Y-77672724D01*
X142849982Y-77690787D01*
X142880563Y-77743754D01*
X142925286Y-77821216D01*
X143031784Y-77927714D01*
X143162216Y-78003019D01*
X143290594Y-78037417D01*
X143350254Y-78073782D01*
X143380783Y-78136629D01*
X143382500Y-78157192D01*
X143382500Y-82901501D01*
X143362815Y-82968540D01*
X143338534Y-82993260D01*
X143339153Y-82993879D01*
X143330515Y-83002516D01*
X143274265Y-83086699D01*
X143274264Y-83086703D01*
X143259500Y-83160928D01*
X143259500Y-86511063D01*
X143274266Y-86585301D01*
X143330515Y-86669484D01*
X143364234Y-86692014D01*
X143414699Y-86725734D01*
X143414702Y-86725734D01*
X143414703Y-86725735D01*
X143439666Y-86730700D01*
X143488933Y-86740500D01*
X144039066Y-86740499D01*
X144113301Y-86725734D01*
X144197484Y-86669484D01*
X144253734Y-86585301D01*
X144268500Y-86511067D01*
X144268499Y-83160934D01*
X144253734Y-83086699D01*
X144197484Y-83002516D01*
X144188847Y-82993879D01*
X144190371Y-82992355D01*
X144155799Y-82950979D01*
X144145500Y-82901501D01*
X144145500Y-78055385D01*
X144165185Y-77988346D01*
X144217989Y-77942591D01*
X144287147Y-77932647D01*
X144350703Y-77961672D01*
X144357181Y-77967704D01*
X146146181Y-79756704D01*
X146179666Y-79818027D01*
X146182500Y-79844385D01*
X146182500Y-82901501D01*
X146162815Y-82968540D01*
X146138534Y-82993260D01*
X146139153Y-82993879D01*
X146130515Y-83002516D01*
X146074265Y-83086699D01*
X146074264Y-83086703D01*
X146059500Y-83160928D01*
X146059500Y-86511063D01*
X146074266Y-86585301D01*
X146130515Y-86669484D01*
X146164234Y-86692014D01*
X146214699Y-86725734D01*
X146214702Y-86725734D01*
X146214703Y-86725735D01*
X146239666Y-86730700D01*
X146288933Y-86740500D01*
X146839066Y-86740499D01*
X146913301Y-86725734D01*
X146997484Y-86669484D01*
X147053734Y-86585301D01*
X147068500Y-86511067D01*
X147068499Y-83260928D01*
X149265500Y-83260928D01*
X149265500Y-86411063D01*
X149280266Y-86485301D01*
X149336515Y-86569484D01*
X149365695Y-86588981D01*
X149420699Y-86625734D01*
X149420702Y-86625734D01*
X149420703Y-86625735D01*
X149445666Y-86630700D01*
X149494933Y-86640500D01*
X150225066Y-86640499D01*
X150299301Y-86625734D01*
X150383484Y-86569484D01*
X150439734Y-86485301D01*
X150454500Y-86411067D01*
X150454499Y-83260934D01*
X150454498Y-83260928D01*
X150443710Y-83206689D01*
X150449939Y-83137097D01*
X150492803Y-83081921D01*
X150558694Y-83058678D01*
X150565328Y-83058500D01*
X151774672Y-83058500D01*
X151841711Y-83078185D01*
X151887466Y-83130989D01*
X151897410Y-83200147D01*
X151896289Y-83206691D01*
X151885500Y-83260929D01*
X151885500Y-86411063D01*
X151900266Y-86485301D01*
X151956515Y-86569484D01*
X151985695Y-86588981D01*
X152040699Y-86625734D01*
X152040702Y-86625734D01*
X152040703Y-86625735D01*
X152065666Y-86630700D01*
X152114933Y-86640500D01*
X152845066Y-86640499D01*
X152919301Y-86625734D01*
X153003484Y-86569484D01*
X153054317Y-86493407D01*
X153107925Y-86448606D01*
X153177250Y-86439897D01*
X153240277Y-86470051D01*
X153245097Y-86474620D01*
X154197753Y-87427276D01*
X154284747Y-87477502D01*
X154381775Y-87503500D01*
X154482225Y-87503500D01*
X154842208Y-87503500D01*
X154909247Y-87523185D01*
X154929889Y-87539819D01*
X154969784Y-87579714D01*
X155061464Y-87632645D01*
X155100212Y-87655017D01*
X155100213Y-87655017D01*
X155100216Y-87655019D01*
X155245695Y-87694000D01*
X155245697Y-87694000D01*
X155396302Y-87694000D01*
X155396305Y-87694000D01*
X155541784Y-87655019D01*
X155672216Y-87579714D01*
X155778714Y-87473216D01*
X155854019Y-87342784D01*
X155893000Y-87197305D01*
X155893000Y-87046695D01*
X155854019Y-86901216D01*
X155791364Y-86792695D01*
X157820500Y-86792695D01*
X157820500Y-86943305D01*
X157848204Y-87046697D01*
X157859482Y-87088787D01*
X157912412Y-87180464D01*
X157934786Y-87219216D01*
X158041284Y-87325714D01*
X158132964Y-87378645D01*
X158171712Y-87401017D01*
X158171713Y-87401017D01*
X158171716Y-87401019D01*
X158317195Y-87440000D01*
X158317197Y-87440000D01*
X158467802Y-87440000D01*
X158467805Y-87440000D01*
X158613284Y-87401019D01*
X158743716Y-87325714D01*
X158850214Y-87219216D01*
X158925519Y-87088784D01*
X158964500Y-86943305D01*
X158964500Y-86792695D01*
X158925519Y-86647216D01*
X158850214Y-86516784D01*
X158743716Y-86410286D01*
X158699949Y-86385017D01*
X158613287Y-86334982D01*
X158613288Y-86334982D01*
X158596099Y-86330376D01*
X158467805Y-86296000D01*
X158317195Y-86296000D01*
X158188900Y-86330376D01*
X158171712Y-86334982D01*
X158041287Y-86410284D01*
X158041281Y-86410288D01*
X157934788Y-86516781D01*
X157934784Y-86516787D01*
X157859482Y-86647212D01*
X157859481Y-86647216D01*
X157820500Y-86792695D01*
X155791364Y-86792695D01*
X155778714Y-86770784D01*
X155672216Y-86664286D01*
X155633464Y-86641912D01*
X155541787Y-86588982D01*
X155541788Y-86588982D01*
X155524599Y-86584376D01*
X155396305Y-86550000D01*
X155245695Y-86550000D01*
X155117400Y-86584376D01*
X155100212Y-86588982D01*
X154969787Y-86664284D01*
X154969781Y-86664288D01*
X154929889Y-86704181D01*
X154902961Y-86718884D01*
X154877143Y-86735477D01*
X154870942Y-86736368D01*
X154868566Y-86737666D01*
X154842208Y-86740500D01*
X154641385Y-86740500D01*
X154574346Y-86720815D01*
X154553704Y-86704181D01*
X153110818Y-85261295D01*
X153077333Y-85199972D01*
X153074499Y-85173614D01*
X153074499Y-83260934D01*
X153063710Y-83206689D01*
X153069939Y-83137097D01*
X153112803Y-83081921D01*
X153178694Y-83058678D01*
X153185328Y-83058500D01*
X156381614Y-83058500D01*
X156411050Y-83067143D01*
X156441040Y-83073667D01*
X156446057Y-83077422D01*
X156448653Y-83078185D01*
X156469295Y-83094818D01*
X156554181Y-83179703D01*
X156587666Y-83241026D01*
X156590500Y-83267385D01*
X156590500Y-83341208D01*
X156570815Y-83408247D01*
X156554181Y-83428889D01*
X156514288Y-83468781D01*
X156514284Y-83468787D01*
X156438982Y-83599212D01*
X156438981Y-83599216D01*
X156400000Y-83744695D01*
X156400000Y-83895305D01*
X156438981Y-84040784D01*
X156438982Y-84040787D01*
X156491912Y-84132464D01*
X156514286Y-84171216D01*
X156620784Y-84277714D01*
X156712464Y-84330645D01*
X156751212Y-84353017D01*
X156751213Y-84353017D01*
X156751216Y-84353019D01*
X156896695Y-84392000D01*
X156896697Y-84392000D01*
X157047302Y-84392000D01*
X157047305Y-84392000D01*
X157192784Y-84353019D01*
X157323216Y-84277714D01*
X157429714Y-84171216D01*
X157505019Y-84040784D01*
X157544000Y-83895305D01*
X157544000Y-83744695D01*
X161480000Y-83744695D01*
X161480000Y-83895305D01*
X161518981Y-84040784D01*
X161518982Y-84040787D01*
X161571912Y-84132464D01*
X161594286Y-84171216D01*
X161700784Y-84277714D01*
X161792464Y-84330645D01*
X161831212Y-84353017D01*
X161831213Y-84353017D01*
X161831216Y-84353019D01*
X161976695Y-84392000D01*
X161976697Y-84392000D01*
X162127302Y-84392000D01*
X162127305Y-84392000D01*
X162272784Y-84353019D01*
X162403216Y-84277714D01*
X162509714Y-84171216D01*
X162585019Y-84040784D01*
X162624000Y-83895305D01*
X162624000Y-83744695D01*
X162585019Y-83599216D01*
X162509714Y-83468784D01*
X162403216Y-83362286D01*
X162364464Y-83339912D01*
X162272787Y-83286982D01*
X162272788Y-83286982D01*
X162255599Y-83282376D01*
X162127305Y-83248000D01*
X161976695Y-83248000D01*
X161848400Y-83282376D01*
X161831212Y-83286982D01*
X161700787Y-83362284D01*
X161700781Y-83362288D01*
X161594288Y-83468781D01*
X161594284Y-83468787D01*
X161518982Y-83599212D01*
X161518981Y-83599216D01*
X161480000Y-83744695D01*
X157544000Y-83744695D01*
X157505019Y-83599216D01*
X157429714Y-83468784D01*
X157389819Y-83428889D01*
X157356334Y-83367566D01*
X157353500Y-83341208D01*
X157353500Y-83007777D01*
X157353500Y-83007775D01*
X157327501Y-82910746D01*
X157277276Y-82823753D01*
X157206247Y-82752724D01*
X157206245Y-82752722D01*
X156825247Y-82371724D01*
X156825246Y-82371723D01*
X156803972Y-82359441D01*
X156782697Y-82347158D01*
X156738256Y-82321500D01*
X156738255Y-82321499D01*
X156713996Y-82314999D01*
X156641225Y-82295500D01*
X156641222Y-82295500D01*
X150272837Y-82295500D01*
X150272821Y-82295499D01*
X150265225Y-82295499D01*
X150164775Y-82295499D01*
X150067747Y-82321498D01*
X150067745Y-82321498D01*
X150067745Y-82321499D01*
X149980753Y-82371724D01*
X149980750Y-82371726D01*
X149554725Y-82797751D01*
X149554723Y-82797754D01*
X149504499Y-82884745D01*
X149504497Y-82884750D01*
X149482104Y-82968321D01*
X149445739Y-83027981D01*
X149429899Y-83038052D01*
X149430854Y-83039481D01*
X149336515Y-83102515D01*
X149280266Y-83186699D01*
X149280264Y-83186703D01*
X149265500Y-83260928D01*
X147068499Y-83260928D01*
X147068499Y-83160934D01*
X147053734Y-83086699D01*
X146997484Y-83002516D01*
X146988847Y-82993879D01*
X146990371Y-82992355D01*
X146955799Y-82950979D01*
X146945500Y-82901501D01*
X146945500Y-81042499D01*
X146965185Y-80975460D01*
X147017989Y-80929705D01*
X147069500Y-80918499D01*
X147769064Y-80918499D01*
X147769066Y-80918499D01*
X147843301Y-80903734D01*
X147927484Y-80847484D01*
X147983734Y-80763301D01*
X147983734Y-80763300D01*
X147990519Y-80753146D01*
X147994067Y-80755516D01*
X148023279Y-80719266D01*
X148089574Y-80697201D01*
X148157273Y-80714480D01*
X148194886Y-80754879D01*
X148197481Y-80753146D01*
X148260515Y-80847484D01*
X148294234Y-80870014D01*
X148344699Y-80903734D01*
X148344702Y-80903734D01*
X148344703Y-80903735D01*
X148369666Y-80908700D01*
X148418933Y-80918500D01*
X149269066Y-80918499D01*
X149343301Y-80903734D01*
X149427484Y-80847484D01*
X149483734Y-80763301D01*
X149498500Y-80689067D01*
X149498499Y-79838934D01*
X149483734Y-79764699D01*
X149461204Y-79730981D01*
X149427484Y-79680515D01*
X149377019Y-79646796D01*
X149343301Y-79624266D01*
X149343299Y-79624265D01*
X149343297Y-79624264D01*
X149325307Y-79620686D01*
X149263397Y-79588300D01*
X149228823Y-79527584D01*
X149225500Y-79499069D01*
X149225500Y-78956477D01*
X149225500Y-78956475D01*
X149199501Y-78859446D01*
X149149276Y-78772453D01*
X149078247Y-78701424D01*
X145993518Y-75616695D01*
X156908000Y-75616695D01*
X156908000Y-75767305D01*
X156935704Y-75870697D01*
X156946982Y-75912787D01*
X156999912Y-76004464D01*
X157022286Y-76043216D01*
X157128784Y-76149714D01*
X157220464Y-76202645D01*
X157259212Y-76225017D01*
X157259213Y-76225017D01*
X157259216Y-76225019D01*
X157404695Y-76264000D01*
X157404697Y-76264000D01*
X157555302Y-76264000D01*
X157555305Y-76264000D01*
X157700784Y-76225019D01*
X157831216Y-76149714D01*
X157937714Y-76043216D01*
X158013019Y-75912784D01*
X158052000Y-75767305D01*
X158052000Y-75616695D01*
X158013019Y-75471216D01*
X157937714Y-75340784D01*
X157831216Y-75234286D01*
X157792464Y-75211912D01*
X157700787Y-75158982D01*
X157700788Y-75158982D01*
X157683599Y-75154376D01*
X157555305Y-75120000D01*
X157404695Y-75120000D01*
X157276400Y-75154376D01*
X157259212Y-75158982D01*
X157128787Y-75234284D01*
X157128781Y-75234288D01*
X157022288Y-75340781D01*
X157022284Y-75340787D01*
X156946982Y-75471212D01*
X156946981Y-75471216D01*
X156908000Y-75616695D01*
X145993518Y-75616695D01*
X145826469Y-75449646D01*
X145792984Y-75388323D01*
X145790150Y-75361965D01*
X145790150Y-75305547D01*
X145790150Y-75305545D01*
X145751169Y-75160066D01*
X145675864Y-75029634D01*
X145569366Y-74923136D01*
X145530614Y-74900762D01*
X145438937Y-74847832D01*
X145438938Y-74847832D01*
X145421749Y-74843226D01*
X145293455Y-74808850D01*
X145142845Y-74808850D01*
X145014550Y-74843226D01*
X144997362Y-74847832D01*
X144866937Y-74923134D01*
X144866931Y-74923138D01*
X144760438Y-75029631D01*
X144760434Y-75029637D01*
X144685132Y-75160062D01*
X144685131Y-75160066D01*
X144646150Y-75305545D01*
X144646150Y-75456155D01*
X144652779Y-75480898D01*
X144651117Y-75550746D01*
X144611955Y-75608609D01*
X144547726Y-75636113D01*
X144478824Y-75624527D01*
X144471006Y-75620377D01*
X144419260Y-75590502D01*
X144419255Y-75590499D01*
X144394996Y-75583999D01*
X144322225Y-75564500D01*
X144322222Y-75564500D01*
X144242792Y-75564500D01*
X144175753Y-75544815D01*
X144155111Y-75528181D01*
X144115218Y-75488288D01*
X144115216Y-75488286D01*
X144059564Y-75456155D01*
X143984787Y-75412982D01*
X143984788Y-75412982D01*
X143967599Y-75408376D01*
X143839305Y-75374000D01*
X143688695Y-75374000D01*
X143560400Y-75408376D01*
X143543212Y-75412982D01*
X143412787Y-75488284D01*
X143412781Y-75488288D01*
X143306288Y-75594781D01*
X143306284Y-75594787D01*
X143230982Y-75725212D01*
X143230981Y-75725216D01*
X143192000Y-75870695D01*
X143192000Y-76021305D01*
X143230981Y-76166784D01*
X143230982Y-76166787D01*
X143264602Y-76225017D01*
X143306286Y-76297216D01*
X143412784Y-76403714D01*
X143504464Y-76456645D01*
X143543212Y-76479017D01*
X143543213Y-76479017D01*
X143543216Y-76479019D01*
X143688695Y-76518000D01*
X143688697Y-76518000D01*
X143839302Y-76518000D01*
X143839305Y-76518000D01*
X143984784Y-76479019D01*
X143984788Y-76479016D01*
X143988406Y-76478047D01*
X144058256Y-76479710D01*
X144116118Y-76518872D01*
X144143623Y-76583100D01*
X144144500Y-76597822D01*
X144144500Y-77182181D01*
X144124815Y-77249220D01*
X144072011Y-77294975D01*
X144002853Y-77304919D01*
X143939297Y-77275894D01*
X143913113Y-77244182D01*
X143877316Y-77182181D01*
X143840714Y-77118784D01*
X143734216Y-77012286D01*
X143654935Y-76966513D01*
X143603787Y-76936982D01*
X143603788Y-76936982D01*
X143585986Y-76932212D01*
X143458305Y-76898000D01*
X143307695Y-76898000D01*
X143180014Y-76932212D01*
X143162212Y-76936982D01*
X143031787Y-77012284D01*
X143031781Y-77012288D01*
X142925288Y-77118781D01*
X142925284Y-77118787D01*
X142849982Y-77249212D01*
X142849981Y-77249216D01*
X142811000Y-77394695D01*
X126057500Y-77394695D01*
X126057500Y-76505695D01*
X135750000Y-76505695D01*
X135750000Y-76656305D01*
X135788981Y-76801784D01*
X135788982Y-76801787D01*
X135825107Y-76864356D01*
X135864286Y-76932216D01*
X135970784Y-77038714D01*
X136062464Y-77091645D01*
X136101212Y-77114017D01*
X136101213Y-77114017D01*
X136101216Y-77114019D01*
X136246695Y-77153000D01*
X136246697Y-77153000D01*
X136397302Y-77153000D01*
X136397305Y-77153000D01*
X136542784Y-77114019D01*
X136673216Y-77038714D01*
X136779714Y-76932216D01*
X136855019Y-76801784D01*
X136894000Y-76656305D01*
X136894000Y-76505695D01*
X136855019Y-76360216D01*
X136779714Y-76229784D01*
X136673216Y-76123286D01*
X136634464Y-76100912D01*
X136542787Y-76047982D01*
X136542788Y-76047982D01*
X136524986Y-76043212D01*
X136397305Y-76009000D01*
X136246695Y-76009000D01*
X136119014Y-76043212D01*
X136101212Y-76047982D01*
X135970787Y-76123284D01*
X135970781Y-76123288D01*
X135864288Y-76229781D01*
X135864284Y-76229787D01*
X135788982Y-76360212D01*
X135788981Y-76360216D01*
X135750000Y-76505695D01*
X126057500Y-76505695D01*
X126057500Y-73584695D01*
X127401000Y-73584695D01*
X127401000Y-73735305D01*
X127439981Y-73880784D01*
X127439982Y-73880787D01*
X127492912Y-73972464D01*
X127515286Y-74011216D01*
X127621784Y-74117714D01*
X127713464Y-74170645D01*
X127752212Y-74193017D01*
X127752213Y-74193017D01*
X127752216Y-74193019D01*
X127897695Y-74232000D01*
X127897697Y-74232000D01*
X128048302Y-74232000D01*
X128048305Y-74232000D01*
X128193784Y-74193019D01*
X128324216Y-74117714D01*
X128430714Y-74011216D01*
X128506019Y-73880784D01*
X128545000Y-73735305D01*
X128545000Y-73584695D01*
X131551000Y-73584695D01*
X131551000Y-73735305D01*
X131589981Y-73880784D01*
X131589982Y-73880787D01*
X131642912Y-73972464D01*
X131665286Y-74011216D01*
X131771784Y-74117714D01*
X131863464Y-74170645D01*
X131902212Y-74193017D01*
X131902213Y-74193017D01*
X131902216Y-74193019D01*
X132047695Y-74232000D01*
X132047697Y-74232000D01*
X132198302Y-74232000D01*
X132198305Y-74232000D01*
X132343784Y-74193019D01*
X132474216Y-74117714D01*
X132580714Y-74011216D01*
X132656019Y-73880784D01*
X132695000Y-73735305D01*
X132695000Y-73584695D01*
X142925300Y-73584695D01*
X142925300Y-73735305D01*
X142964281Y-73880784D01*
X142964282Y-73880787D01*
X143017212Y-73972464D01*
X143039586Y-74011216D01*
X143146084Y-74117714D01*
X143237764Y-74170645D01*
X143276512Y-74193017D01*
X143276513Y-74193017D01*
X143276516Y-74193019D01*
X143421995Y-74232000D01*
X143421997Y-74232000D01*
X143572602Y-74232000D01*
X143572605Y-74232000D01*
X143718084Y-74193019D01*
X143848516Y-74117714D01*
X143955014Y-74011216D01*
X144030319Y-73880784D01*
X144069300Y-73735305D01*
X144069300Y-73584695D01*
X144030319Y-73439216D01*
X144026698Y-73432945D01*
X144007945Y-73400464D01*
X143955014Y-73308784D01*
X143848516Y-73202286D01*
X143809764Y-73179912D01*
X143718087Y-73126982D01*
X143718088Y-73126982D01*
X143700899Y-73122376D01*
X143572605Y-73088000D01*
X143421995Y-73088000D01*
X143293700Y-73122376D01*
X143276512Y-73126982D01*
X143146087Y-73202284D01*
X143146081Y-73202288D01*
X143039588Y-73308781D01*
X143039584Y-73308787D01*
X142964282Y-73439212D01*
X142964281Y-73439216D01*
X142925300Y-73584695D01*
X132695000Y-73584695D01*
X132656019Y-73439216D01*
X132652398Y-73432945D01*
X132633645Y-73400464D01*
X132580714Y-73308784D01*
X132474216Y-73202286D01*
X132435464Y-73179912D01*
X132343787Y-73126982D01*
X132343788Y-73126982D01*
X132326599Y-73122376D01*
X132198305Y-73088000D01*
X132047695Y-73088000D01*
X131919400Y-73122376D01*
X131902212Y-73126982D01*
X131771787Y-73202284D01*
X131771781Y-73202288D01*
X131665288Y-73308781D01*
X131665284Y-73308787D01*
X131589982Y-73439212D01*
X131589981Y-73439216D01*
X131551000Y-73584695D01*
X128545000Y-73584695D01*
X128506019Y-73439216D01*
X128502398Y-73432945D01*
X128483645Y-73400464D01*
X128430714Y-73308784D01*
X128324216Y-73202286D01*
X128285464Y-73179912D01*
X128193787Y-73126982D01*
X128193788Y-73126982D01*
X128176599Y-73122376D01*
X128048305Y-73088000D01*
X127897695Y-73088000D01*
X127769400Y-73122376D01*
X127752212Y-73126982D01*
X127621787Y-73202284D01*
X127621781Y-73202288D01*
X127515288Y-73308781D01*
X127515284Y-73308787D01*
X127439982Y-73439212D01*
X127439981Y-73439216D01*
X127401000Y-73584695D01*
X126057500Y-73584695D01*
X126057500Y-70028695D01*
X142910000Y-70028695D01*
X142910000Y-70179305D01*
X142937704Y-70282697D01*
X142948982Y-70324787D01*
X143001912Y-70416464D01*
X143024286Y-70455216D01*
X143130784Y-70561714D01*
X143222464Y-70614645D01*
X143261212Y-70637017D01*
X143261213Y-70637017D01*
X143261216Y-70637019D01*
X143406695Y-70676000D01*
X143406697Y-70676000D01*
X143557302Y-70676000D01*
X143557305Y-70676000D01*
X143702784Y-70637019D01*
X143833216Y-70561714D01*
X143939714Y-70455216D01*
X144015019Y-70324784D01*
X144026297Y-70282695D01*
X146722600Y-70282695D01*
X146722600Y-70433305D01*
X146761581Y-70578784D01*
X146761582Y-70578787D01*
X146795202Y-70637017D01*
X146836886Y-70709216D01*
X146943384Y-70815714D01*
X147020635Y-70860314D01*
X147077151Y-70892945D01*
X147125367Y-70943512D01*
X147138589Y-71012119D01*
X147112621Y-71076984D01*
X147077152Y-71107719D01*
X146968784Y-71170286D01*
X146968781Y-71170288D01*
X146862288Y-71276781D01*
X146862284Y-71276787D01*
X146786982Y-71407212D01*
X146786981Y-71407216D01*
X146748000Y-71552695D01*
X146748000Y-71703305D01*
X146770751Y-71788212D01*
X146786982Y-71848787D01*
X146836004Y-71933695D01*
X146862286Y-71979216D01*
X146968784Y-72085714D01*
X147061097Y-72139011D01*
X147089852Y-72155613D01*
X147138067Y-72206181D01*
X147151289Y-72274788D01*
X147125321Y-72339652D01*
X147089852Y-72370387D01*
X146968784Y-72440286D01*
X146968781Y-72440288D01*
X146862288Y-72546781D01*
X146862284Y-72546787D01*
X146786982Y-72677212D01*
X146786981Y-72677216D01*
X146748000Y-72822695D01*
X146748000Y-72973305D01*
X146786981Y-73118784D01*
X146786982Y-73118787D01*
X146835190Y-73202284D01*
X146862286Y-73249216D01*
X146968784Y-73355714D01*
X147050220Y-73402731D01*
X147077151Y-73418280D01*
X147125367Y-73468847D01*
X147138589Y-73537454D01*
X147112621Y-73602319D01*
X147077152Y-73633054D01*
X146943384Y-73710286D01*
X146943381Y-73710288D01*
X146836888Y-73816781D01*
X146836884Y-73816787D01*
X146761582Y-73947212D01*
X146761581Y-73947216D01*
X146722600Y-74092695D01*
X146722600Y-74243305D01*
X146761581Y-74388784D01*
X146761582Y-74388787D01*
X146814512Y-74480464D01*
X146836886Y-74519216D01*
X146943384Y-74625714D01*
X147035064Y-74678645D01*
X147073812Y-74701017D01*
X147073813Y-74701017D01*
X147073816Y-74701019D01*
X147219295Y-74740000D01*
X147219297Y-74740000D01*
X147369902Y-74740000D01*
X147369905Y-74740000D01*
X147515384Y-74701019D01*
X147645816Y-74625714D01*
X147752314Y-74519216D01*
X147827619Y-74388784D01*
X147866600Y-74243305D01*
X147866600Y-74092695D01*
X147827619Y-73947216D01*
X147752314Y-73816784D01*
X147645816Y-73710286D01*
X147537447Y-73647719D01*
X147489232Y-73597152D01*
X147476010Y-73528544D01*
X147501978Y-73463680D01*
X147537448Y-73432945D01*
X147540784Y-73431019D01*
X147671216Y-73355714D01*
X147777714Y-73249216D01*
X147853019Y-73118784D01*
X147892000Y-72973305D01*
X147892000Y-72822695D01*
X147853019Y-72677216D01*
X147777714Y-72546784D01*
X147671216Y-72440286D01*
X147610883Y-72405452D01*
X147550148Y-72370387D01*
X147501932Y-72319820D01*
X147488710Y-72251213D01*
X147514678Y-72186348D01*
X147550148Y-72155613D01*
X147573412Y-72142180D01*
X147671216Y-72085714D01*
X147777714Y-71979216D01*
X147803995Y-71933695D01*
X157416000Y-71933695D01*
X157416000Y-72084305D01*
X157448657Y-72206181D01*
X157454982Y-72229787D01*
X157480964Y-72274788D01*
X157530286Y-72360216D01*
X157636784Y-72466714D01*
X157728464Y-72519645D01*
X157767212Y-72542017D01*
X157767213Y-72542017D01*
X157767216Y-72542019D01*
X157912695Y-72581000D01*
X157912697Y-72581000D01*
X158063302Y-72581000D01*
X158063305Y-72581000D01*
X158208784Y-72542019D01*
X158339216Y-72466714D01*
X158445714Y-72360216D01*
X158521019Y-72229784D01*
X158560000Y-72084305D01*
X158560000Y-71933695D01*
X158521019Y-71788216D01*
X158445714Y-71657784D01*
X158339216Y-71551286D01*
X158300464Y-71528912D01*
X158208787Y-71475982D01*
X158208788Y-71475982D01*
X158190986Y-71471212D01*
X158063305Y-71437000D01*
X157912695Y-71437000D01*
X157785014Y-71471212D01*
X157767212Y-71475982D01*
X157636787Y-71551284D01*
X157636781Y-71551288D01*
X157530288Y-71657781D01*
X157530284Y-71657787D01*
X157454982Y-71788212D01*
X157454981Y-71788216D01*
X157416000Y-71933695D01*
X147803995Y-71933695D01*
X147824683Y-71897862D01*
X147844484Y-71863568D01*
X147853017Y-71848787D01*
X147853016Y-71848787D01*
X147853019Y-71848784D01*
X147892000Y-71703305D01*
X147892000Y-71552695D01*
X147853019Y-71407216D01*
X147777714Y-71276784D01*
X147671216Y-71170286D01*
X147562847Y-71107719D01*
X147537447Y-71093054D01*
X147491338Y-71044695D01*
X163766000Y-71044695D01*
X163766000Y-71195305D01*
X163804981Y-71340784D01*
X163804982Y-71340787D01*
X163857912Y-71432464D01*
X163880286Y-71471216D01*
X163986784Y-71577714D01*
X164078464Y-71630645D01*
X164117212Y-71653017D01*
X164117213Y-71653017D01*
X164117216Y-71653019D01*
X164262695Y-71692000D01*
X164262697Y-71692000D01*
X164413302Y-71692000D01*
X164413305Y-71692000D01*
X164558784Y-71653019D01*
X164689216Y-71577714D01*
X164795714Y-71471216D01*
X164871019Y-71340784D01*
X164910000Y-71195305D01*
X164910000Y-71044695D01*
X167068000Y-71044695D01*
X167068000Y-71195305D01*
X167106981Y-71340784D01*
X167106982Y-71340787D01*
X167159912Y-71432464D01*
X167182286Y-71471216D01*
X167288784Y-71577714D01*
X167380464Y-71630645D01*
X167419212Y-71653017D01*
X167419213Y-71653017D01*
X167419216Y-71653019D01*
X167564695Y-71692000D01*
X167564697Y-71692000D01*
X167715302Y-71692000D01*
X167715305Y-71692000D01*
X167860784Y-71653019D01*
X167991216Y-71577714D01*
X168097714Y-71471216D01*
X168173019Y-71340784D01*
X168212000Y-71195305D01*
X168212000Y-71044695D01*
X168173019Y-70899216D01*
X168169398Y-70892945D01*
X168150645Y-70860464D01*
X168097714Y-70768784D01*
X167991216Y-70662286D01*
X167947449Y-70637017D01*
X167860787Y-70586982D01*
X167860788Y-70586982D01*
X167843599Y-70582376D01*
X167715305Y-70548000D01*
X167564695Y-70548000D01*
X167436400Y-70582376D01*
X167419212Y-70586982D01*
X167288787Y-70662284D01*
X167288781Y-70662288D01*
X167182288Y-70768781D01*
X167182284Y-70768787D01*
X167106982Y-70899212D01*
X167106981Y-70899216D01*
X167068000Y-71044695D01*
X164910000Y-71044695D01*
X164871019Y-70899216D01*
X164867398Y-70892945D01*
X164848645Y-70860464D01*
X164795714Y-70768784D01*
X164689216Y-70662286D01*
X164645449Y-70637017D01*
X164558787Y-70586982D01*
X164558788Y-70586982D01*
X164541599Y-70582376D01*
X164413305Y-70548000D01*
X164262695Y-70548000D01*
X164134400Y-70582376D01*
X164117212Y-70586982D01*
X163986787Y-70662284D01*
X163986781Y-70662288D01*
X163880288Y-70768781D01*
X163880284Y-70768787D01*
X163804982Y-70899212D01*
X163804981Y-70899216D01*
X163766000Y-71044695D01*
X147491338Y-71044695D01*
X147489232Y-71042486D01*
X147476010Y-70973879D01*
X147501978Y-70909015D01*
X147537446Y-70878281D01*
X147645816Y-70815714D01*
X147752314Y-70709216D01*
X147827619Y-70578784D01*
X147866600Y-70433305D01*
X147866600Y-70282695D01*
X147827619Y-70137216D01*
X147824721Y-70132197D01*
X147824720Y-70132195D01*
X157416000Y-70132195D01*
X157416000Y-70282805D01*
X157454981Y-70428284D01*
X157454982Y-70428287D01*
X157470530Y-70455216D01*
X157530286Y-70558716D01*
X157636784Y-70665214D01*
X157712991Y-70709212D01*
X157767212Y-70740517D01*
X157767213Y-70740517D01*
X157767216Y-70740519D01*
X157912695Y-70779500D01*
X157912697Y-70779500D01*
X158063302Y-70779500D01*
X158063305Y-70779500D01*
X158208784Y-70740519D01*
X158339216Y-70665214D01*
X158445714Y-70558716D01*
X158521019Y-70428284D01*
X158560000Y-70282805D01*
X158560000Y-70132195D01*
X160464000Y-70132195D01*
X160464000Y-70282805D01*
X160502981Y-70428284D01*
X160502982Y-70428287D01*
X160518530Y-70455216D01*
X160578286Y-70558716D01*
X160684784Y-70665214D01*
X160760991Y-70709212D01*
X160815212Y-70740517D01*
X160815213Y-70740517D01*
X160815216Y-70740519D01*
X160960695Y-70779500D01*
X160960697Y-70779500D01*
X161111302Y-70779500D01*
X161111305Y-70779500D01*
X161256784Y-70740519D01*
X161387216Y-70665214D01*
X161493714Y-70558716D01*
X161569019Y-70428284D01*
X161608000Y-70282805D01*
X161608000Y-70132195D01*
X161569019Y-69986716D01*
X161493714Y-69856284D01*
X161387216Y-69749786D01*
X161348464Y-69727412D01*
X161256787Y-69674482D01*
X161256788Y-69674482D01*
X161239599Y-69669876D01*
X161111305Y-69635500D01*
X160960695Y-69635500D01*
X160832400Y-69669876D01*
X160815212Y-69674482D01*
X160684787Y-69749784D01*
X160684781Y-69749788D01*
X160578288Y-69856281D01*
X160578284Y-69856287D01*
X160502982Y-69986712D01*
X160502981Y-69986716D01*
X160464000Y-70132195D01*
X158560000Y-70132195D01*
X158521019Y-69986716D01*
X158445714Y-69856284D01*
X158339216Y-69749786D01*
X158300464Y-69727412D01*
X158208787Y-69674482D01*
X158208788Y-69674482D01*
X158191599Y-69669876D01*
X158063305Y-69635500D01*
X157912695Y-69635500D01*
X157784400Y-69669876D01*
X157767212Y-69674482D01*
X157636787Y-69749784D01*
X157636781Y-69749788D01*
X157530288Y-69856281D01*
X157530284Y-69856287D01*
X157454982Y-69986712D01*
X157454981Y-69986716D01*
X157416000Y-70132195D01*
X147824720Y-70132195D01*
X147764964Y-70028695D01*
X147752314Y-70006784D01*
X147645816Y-69900286D01*
X147569608Y-69856287D01*
X147515387Y-69824982D01*
X147515388Y-69824982D01*
X147498199Y-69820376D01*
X147369905Y-69786000D01*
X147219295Y-69786000D01*
X147091000Y-69820376D01*
X147073812Y-69824982D01*
X146943387Y-69900284D01*
X146943381Y-69900288D01*
X146836888Y-70006781D01*
X146836884Y-70006787D01*
X146761582Y-70137212D01*
X146761581Y-70137216D01*
X146722600Y-70282695D01*
X144026297Y-70282695D01*
X144054000Y-70179305D01*
X144054000Y-70028695D01*
X144015019Y-69883216D01*
X143939714Y-69752784D01*
X143833216Y-69646286D01*
X143794464Y-69623912D01*
X143702787Y-69570982D01*
X143702788Y-69570982D01*
X143685599Y-69566376D01*
X143557305Y-69532000D01*
X143406695Y-69532000D01*
X143278400Y-69566376D01*
X143261212Y-69570982D01*
X143130787Y-69646284D01*
X143130781Y-69646288D01*
X143024288Y-69752781D01*
X143024284Y-69752787D01*
X142948982Y-69883212D01*
X142948981Y-69883216D01*
X142910000Y-70028695D01*
X126057500Y-70028695D01*
X126057500Y-64900750D01*
X126057726Y-64893263D01*
X126074105Y-64622491D01*
X126075910Y-64607626D01*
X126124131Y-64344492D01*
X126127715Y-64329954D01*
X126196842Y-64108118D01*
X133603499Y-64108118D01*
X133642562Y-64304496D01*
X133642564Y-64304502D01*
X133719189Y-64489491D01*
X133830434Y-64655983D01*
X133972016Y-64797565D01*
X133972019Y-64797567D01*
X134138507Y-64908810D01*
X134323498Y-64985436D01*
X134323502Y-64985436D01*
X134323503Y-64985437D01*
X134519881Y-65024500D01*
X134519884Y-65024500D01*
X134720118Y-65024500D01*
X134852238Y-64998218D01*
X134916502Y-64985436D01*
X135101493Y-64908810D01*
X135267981Y-64797567D01*
X135409567Y-64655981D01*
X135520810Y-64489493D01*
X135597436Y-64304502D01*
X135610218Y-64240238D01*
X135636500Y-64108118D01*
X136143499Y-64108118D01*
X136182562Y-64304496D01*
X136182564Y-64304502D01*
X136259189Y-64489491D01*
X136370434Y-64655983D01*
X136512016Y-64797565D01*
X136512019Y-64797567D01*
X136678507Y-64908810D01*
X136863498Y-64985436D01*
X136863502Y-64985436D01*
X136863503Y-64985437D01*
X137059881Y-65024500D01*
X137059884Y-65024500D01*
X137260118Y-65024500D01*
X137392238Y-64998218D01*
X137456502Y-64985436D01*
X137641493Y-64908810D01*
X137807981Y-64797567D01*
X137949567Y-64655981D01*
X138060810Y-64489493D01*
X138137436Y-64304502D01*
X138150218Y-64240238D01*
X138176500Y-64108118D01*
X138683499Y-64108118D01*
X138722562Y-64304496D01*
X138722564Y-64304502D01*
X138799189Y-64489491D01*
X138910434Y-64655983D01*
X139052016Y-64797565D01*
X139052019Y-64797567D01*
X139218507Y-64908810D01*
X139403498Y-64985436D01*
X139403502Y-64985436D01*
X139403503Y-64985437D01*
X139599881Y-65024500D01*
X139599884Y-65024500D01*
X139800118Y-65024500D01*
X139932238Y-64998218D01*
X139996502Y-64985436D01*
X140181493Y-64908810D01*
X140347981Y-64797567D01*
X140489567Y-64655981D01*
X140600810Y-64489493D01*
X140677436Y-64304502D01*
X140690218Y-64240238D01*
X140716500Y-64108118D01*
X141223499Y-64108118D01*
X141262562Y-64304496D01*
X141262564Y-64304502D01*
X141339189Y-64489491D01*
X141450434Y-64655983D01*
X141592016Y-64797565D01*
X141592019Y-64797567D01*
X141758507Y-64908810D01*
X141943498Y-64985436D01*
X141943502Y-64985436D01*
X141943503Y-64985437D01*
X142139881Y-65024500D01*
X142139884Y-65024500D01*
X142340118Y-65024500D01*
X142472238Y-64998218D01*
X142536502Y-64985436D01*
X142721493Y-64908810D01*
X142887981Y-64797567D01*
X143029567Y-64655981D01*
X143140810Y-64489493D01*
X143217436Y-64304502D01*
X143230218Y-64240238D01*
X143256500Y-64108118D01*
X152963499Y-64108118D01*
X153002562Y-64304496D01*
X153002564Y-64304502D01*
X153079189Y-64489491D01*
X153190434Y-64655983D01*
X153332016Y-64797565D01*
X153332019Y-64797567D01*
X153498507Y-64908810D01*
X153683498Y-64985436D01*
X153683502Y-64985436D01*
X153683503Y-64985437D01*
X153879881Y-65024500D01*
X153879884Y-65024500D01*
X154080118Y-65024500D01*
X154212238Y-64998218D01*
X154276502Y-64985436D01*
X154461493Y-64908810D01*
X154627981Y-64797567D01*
X154769567Y-64655981D01*
X154880810Y-64489493D01*
X154957436Y-64304502D01*
X154970218Y-64240238D01*
X154996500Y-64108118D01*
X161543499Y-64108118D01*
X161582562Y-64304496D01*
X161582564Y-64304502D01*
X161659189Y-64489491D01*
X161770434Y-64655983D01*
X161912016Y-64797565D01*
X161912019Y-64797567D01*
X162078507Y-64908810D01*
X162263498Y-64985436D01*
X162263502Y-64985436D01*
X162263503Y-64985437D01*
X162459881Y-65024500D01*
X162459884Y-65024500D01*
X162660118Y-65024500D01*
X162792238Y-64998218D01*
X162856502Y-64985436D01*
X163041493Y-64908810D01*
X163207981Y-64797567D01*
X163349567Y-64655981D01*
X163460810Y-64489493D01*
X163537436Y-64304502D01*
X163550218Y-64240238D01*
X163576500Y-64108118D01*
X163576500Y-63907881D01*
X163537437Y-63711503D01*
X163537436Y-63711502D01*
X163537436Y-63711498D01*
X163460810Y-63526507D01*
X163349567Y-63360019D01*
X163349565Y-63360016D01*
X163207983Y-63218434D01*
X163107307Y-63151165D01*
X163041493Y-63107190D01*
X162856502Y-63030564D01*
X162856496Y-63030562D01*
X162660118Y-62991500D01*
X162660116Y-62991500D01*
X162459884Y-62991500D01*
X162459882Y-62991500D01*
X162263503Y-63030562D01*
X162263497Y-63030564D01*
X162078508Y-63107189D01*
X161912016Y-63218434D01*
X161770434Y-63360016D01*
X161659189Y-63526508D01*
X161582564Y-63711497D01*
X161582562Y-63711503D01*
X161543500Y-63907881D01*
X161543500Y-63907884D01*
X161543500Y-64108116D01*
X161543500Y-64108118D01*
X161543499Y-64108118D01*
X154996500Y-64108118D01*
X154996500Y-63907881D01*
X154957437Y-63711503D01*
X154957436Y-63711502D01*
X154957436Y-63711498D01*
X154880810Y-63526507D01*
X154769567Y-63360019D01*
X154769565Y-63360016D01*
X154627983Y-63218434D01*
X154527307Y-63151165D01*
X154461493Y-63107190D01*
X154276502Y-63030564D01*
X154276496Y-63030562D01*
X154080118Y-62991500D01*
X154080116Y-62991500D01*
X153879884Y-62991500D01*
X153879882Y-62991500D01*
X153683503Y-63030562D01*
X153683497Y-63030564D01*
X153498508Y-63107189D01*
X153332016Y-63218434D01*
X153190434Y-63360016D01*
X153079189Y-63526508D01*
X153002564Y-63711497D01*
X153002562Y-63711503D01*
X152963500Y-63907881D01*
X152963500Y-63907884D01*
X152963500Y-64108116D01*
X152963500Y-64108118D01*
X152963499Y-64108118D01*
X143256500Y-64108118D01*
X143256500Y-63907881D01*
X143217437Y-63711503D01*
X143217436Y-63711502D01*
X143217436Y-63711498D01*
X143140810Y-63526507D01*
X143029567Y-63360019D01*
X143029565Y-63360016D01*
X142887983Y-63218434D01*
X142787307Y-63151165D01*
X142721493Y-63107190D01*
X142536502Y-63030564D01*
X142536496Y-63030562D01*
X142340118Y-62991500D01*
X142340116Y-62991500D01*
X142139884Y-62991500D01*
X142139882Y-62991500D01*
X141943503Y-63030562D01*
X141943497Y-63030564D01*
X141758508Y-63107189D01*
X141592016Y-63218434D01*
X141450434Y-63360016D01*
X141339189Y-63526508D01*
X141262564Y-63711497D01*
X141262562Y-63711503D01*
X141223500Y-63907881D01*
X141223500Y-63907884D01*
X141223500Y-64108116D01*
X141223500Y-64108118D01*
X141223499Y-64108118D01*
X140716500Y-64108118D01*
X140716500Y-63907881D01*
X140677437Y-63711503D01*
X140677436Y-63711502D01*
X140677436Y-63711498D01*
X140600810Y-63526507D01*
X140489567Y-63360019D01*
X140489565Y-63360016D01*
X140347983Y-63218434D01*
X140247307Y-63151165D01*
X140181493Y-63107190D01*
X139996502Y-63030564D01*
X139996496Y-63030562D01*
X139800118Y-62991500D01*
X139800116Y-62991500D01*
X139599884Y-62991500D01*
X139599882Y-62991500D01*
X139403503Y-63030562D01*
X139403497Y-63030564D01*
X139218508Y-63107189D01*
X139052016Y-63218434D01*
X138910434Y-63360016D01*
X138799189Y-63526508D01*
X138722564Y-63711497D01*
X138722562Y-63711503D01*
X138683500Y-63907881D01*
X138683500Y-63907884D01*
X138683500Y-64108116D01*
X138683500Y-64108118D01*
X138683499Y-64108118D01*
X138176500Y-64108118D01*
X138176500Y-63907881D01*
X138137437Y-63711503D01*
X138137436Y-63711502D01*
X138137436Y-63711498D01*
X138060810Y-63526507D01*
X137949567Y-63360019D01*
X137949565Y-63360016D01*
X137807983Y-63218434D01*
X137707307Y-63151165D01*
X137641493Y-63107190D01*
X137456502Y-63030564D01*
X137456496Y-63030562D01*
X137260118Y-62991500D01*
X137260116Y-62991500D01*
X137059884Y-62991500D01*
X137059882Y-62991500D01*
X136863503Y-63030562D01*
X136863497Y-63030564D01*
X136678508Y-63107189D01*
X136512016Y-63218434D01*
X136370434Y-63360016D01*
X136259189Y-63526508D01*
X136182564Y-63711497D01*
X136182562Y-63711503D01*
X136143500Y-63907881D01*
X136143500Y-63907884D01*
X136143500Y-64108116D01*
X136143500Y-64108118D01*
X136143499Y-64108118D01*
X135636500Y-64108118D01*
X135636500Y-63907881D01*
X135597437Y-63711503D01*
X135597436Y-63711502D01*
X135597436Y-63711498D01*
X135520810Y-63526507D01*
X135409567Y-63360019D01*
X135409565Y-63360016D01*
X135267983Y-63218434D01*
X135167307Y-63151165D01*
X135101493Y-63107190D01*
X134916502Y-63030564D01*
X134916496Y-63030562D01*
X134720118Y-62991500D01*
X134720116Y-62991500D01*
X134519884Y-62991500D01*
X134519882Y-62991500D01*
X134323503Y-63030562D01*
X134323497Y-63030564D01*
X134138508Y-63107189D01*
X133972016Y-63218434D01*
X133830434Y-63360016D01*
X133719189Y-63526508D01*
X133642564Y-63711497D01*
X133642562Y-63711503D01*
X133603500Y-63907881D01*
X133603500Y-63907884D01*
X133603500Y-64108116D01*
X133603500Y-64108118D01*
X133603499Y-64108118D01*
X126196842Y-64108118D01*
X126207299Y-64074559D01*
X126212601Y-64060578D01*
X126321153Y-63819383D01*
X126322399Y-63816617D01*
X126329352Y-63803366D01*
X126467757Y-63574417D01*
X126476244Y-63562121D01*
X126641242Y-63351517D01*
X126651157Y-63340326D01*
X126840326Y-63151157D01*
X126851517Y-63141242D01*
X127062121Y-62976244D01*
X127074417Y-62967757D01*
X127303366Y-62829352D01*
X127316611Y-62822401D01*
X127560578Y-62712601D01*
X127574559Y-62707299D01*
X127829959Y-62627713D01*
X127844488Y-62624131D01*
X128107630Y-62575909D01*
X128122488Y-62574105D01*
X128393264Y-62557726D01*
X128400751Y-62557500D01*
X128436882Y-62557500D01*
X167727118Y-62557500D01*
X167763249Y-62557500D01*
X167770736Y-62557726D01*
G37*
%TD.AperFunction*%
%TD*%
M02*
