%TF.GenerationSoftware,KiCad,Pcbnew,9.0.8-9.0.8~ubuntu22.04.1*%
%TF.CreationDate,2026-03-23T14:29:19-05:00*%
%TF.ProjectId,AutofluorescenceBoard,4175746f-666c-4756-9f72-657363656e63,rev?*%
%TF.SameCoordinates,Original*%
%TF.FileFunction,Soldermask,Top*%
%TF.FilePolarity,Negative*%
%FSLAX46Y46*%
G04 Gerber Fmt 4.6, Leading zero omitted, Abs format (unit mm)*
G04 Created by KiCad (PCBNEW 9.0.8-9.0.8~ubuntu22.04.1) date 2026-03-23 14:29:19*
%MOMM*%
%LPD*%
G01*
G04 APERTURE LIST*
G04 Aperture macros list*
%AMRoundRect*
0 Rectangle with rounded corners*
0 $1 Rounding radius*
0 $2 $3 $4 $5 $6 $7 $8 $9 X,Y pos of 4 corners*
0 Add a 4 corners polygon primitive as box body*
4,1,4,$2,$3,$4,$5,$6,$7,$8,$9,$2,$3,0*
0 Add four circle primitives for the rounded corners*
1,1,$1+$1,$2,$3*
1,1,$1+$1,$4,$5*
1,1,$1+$1,$6,$7*
1,1,$1+$1,$8,$9*
0 Add four rect primitives between the rounded corners*
20,1,$1+$1,$2,$3,$4,$5,0*
20,1,$1+$1,$4,$5,$6,$7,0*
20,1,$1+$1,$6,$7,$8,$9,0*
20,1,$1+$1,$8,$9,$2,$3,0*%
G04 Aperture macros list end*
%ADD10C,0.100000*%
%ADD11C,4.826000*%
%ADD12RoundRect,0.237500X0.250000X0.237500X-0.250000X0.237500X-0.250000X-0.237500X0.250000X-0.237500X0*%
%ADD13RoundRect,0.102000X-0.670000X1.495000X-0.670000X-1.495000X0.670000X-1.495000X0.670000X1.495000X0*%
%ADD14RoundRect,0.102000X-3.450000X4.130000X-3.450000X-4.130000X3.450000X-4.130000X3.450000X4.130000X0*%
%ADD15R,1.879600X1.676400*%
%ADD16C,3.450000*%
%ADD17C,1.524000*%
%ADD18RoundRect,0.250000X-0.475000X0.337500X-0.475000X-0.337500X0.475000X-0.337500X0.475000X0.337500X0*%
%ADD19RoundRect,0.218750X-0.218750X-0.256250X0.218750X-0.256250X0.218750X0.256250X-0.218750X0.256250X0*%
%ADD20RoundRect,0.237500X-0.237500X0.250000X-0.237500X-0.250000X0.237500X-0.250000X0.237500X0.250000X0*%
%ADD21RoundRect,0.102000X-1.175000X-2.550000X1.175000X-2.550000X1.175000X2.550000X-1.175000X2.550000X0*%
%ADD22RoundRect,0.250000X-0.337500X-0.475000X0.337500X-0.475000X0.337500X0.475000X-0.337500X0.475000X0*%
%ADD23R,0.914400X0.711200*%
%ADD24RoundRect,0.218750X0.218750X0.256250X-0.218750X0.256250X-0.218750X-0.256250X0.218750X-0.256250X0*%
%ADD25RoundRect,0.237500X0.237500X-0.250000X0.237500X0.250000X-0.237500X0.250000X-0.237500X-0.250000X0*%
%ADD26RoundRect,0.150000X-0.825000X-0.150000X0.825000X-0.150000X0.825000X0.150000X-0.825000X0.150000X0*%
%ADD27RoundRect,0.102000X1.495000X0.670000X-1.495000X0.670000X-1.495000X-0.670000X1.495000X-0.670000X0*%
%ADD28RoundRect,0.102000X4.130000X3.450000X-4.130000X3.450000X-4.130000X-3.450000X4.130000X-3.450000X0*%
%ADD29RoundRect,0.102000X2.550000X-1.175000X2.550000X1.175000X-2.550000X1.175000X-2.550000X-1.175000X0*%
%ADD30RoundRect,0.102000X-1.495000X-0.670000X1.495000X-0.670000X1.495000X0.670000X-1.495000X0.670000X0*%
%ADD31RoundRect,0.102000X-4.130000X-3.450000X4.130000X-3.450000X4.130000X3.450000X-4.130000X3.450000X0*%
%ADD32RoundRect,0.237500X-0.250000X-0.237500X0.250000X-0.237500X0.250000X0.237500X-0.250000X0.237500X0*%
%ADD33R,1.460500X0.533400*%
%ADD34R,2.286000X2.286000*%
%ADD35RoundRect,0.237500X-0.287500X-0.237500X0.287500X-0.237500X0.287500X0.237500X-0.287500X0.237500X0*%
%ADD36R,0.812800X0.939800*%
%ADD37RoundRect,0.150000X-0.587500X-0.150000X0.587500X-0.150000X0.587500X0.150000X-0.587500X0.150000X0*%
%ADD38R,0.533400X1.460500*%
%ADD39RoundRect,0.250000X0.475000X-0.337500X0.475000X0.337500X-0.475000X0.337500X-0.475000X-0.337500X0*%
G04 APERTURE END LIST*
D10*
X141732000Y-78232000D02*
X154432000Y-78232000D01*
X154432000Y-90932000D01*
X141732000Y-90932000D01*
X141732000Y-78232000D01*
G36*
X141732000Y-78232000D02*
G01*
X154432000Y-78232000D01*
X154432000Y-90932000D01*
X141732000Y-90932000D01*
X141732000Y-78232000D01*
G37*
D11*
%TO.C,H4*%
X167640000Y-104140000D03*
%TD*%
%TO.C,H3*%
X128524000Y-104140000D03*
%TD*%
%TO.C,H2*%
X167640000Y-65024000D03*
%TD*%
%TO.C,H1*%
X128524000Y-65024000D03*
%TD*%
D12*
%TO.C,R4*%
X158392500Y-86868000D03*
X156567500Y-86868000D03*
%TD*%
D13*
%TO.C,R3*%
X155448000Y-93980000D03*
X150368000Y-93980000D03*
D14*
X152908000Y-101740000D03*
%TD*%
D15*
%TO.C,CR1*%
X163068000Y-98044000D03*
X167487600Y-98044000D03*
%TD*%
D16*
%TO.C,Conn1*%
X133350000Y-55372000D03*
X146050000Y-55372000D03*
D17*
X134620000Y-64008000D03*
X137160000Y-64008000D03*
X139700000Y-64008000D03*
X142240000Y-64008000D03*
X144780000Y-64008000D03*
%TD*%
D18*
%TO.C,C3*%
X146304000Y-94974500D03*
X146304000Y-97049500D03*
%TD*%
D16*
%TO.C,J1*%
X150295000Y-55368000D03*
X155123000Y-55372000D03*
D17*
X151440000Y-64008000D03*
X153980000Y-64008000D03*
%TD*%
D19*
%TO.C,F2*%
X134747000Y-76581000D03*
X136322000Y-76581000D03*
%TD*%
D20*
%TO.C,R6*%
X146304000Y-102719500D03*
X146304000Y-104544500D03*
%TD*%
D21*
%TO.C,L2*%
X127973000Y-73660000D03*
X132123000Y-73660000D03*
%TD*%
D22*
%TO.C,C1*%
X156442500Y-88900000D03*
X158517500Y-88900000D03*
%TD*%
D23*
%TO.C,D5*%
X164379400Y-71120000D03*
X167630600Y-71120000D03*
%TD*%
D24*
%TO.C,F1*%
X158547000Y-83820000D03*
X156972000Y-83820000D03*
%TD*%
D15*
%TO.C,CR2*%
X133604000Y-94996000D03*
X129184400Y-94996000D03*
%TD*%
D25*
%TO.C,R8*%
X161036000Y-72032500D03*
X161036000Y-70207500D03*
%TD*%
D26*
%TO.C,MOSFET1*%
X147626300Y-70358000D03*
X147626300Y-71628000D03*
X147626300Y-72898000D03*
X147626300Y-74168000D03*
X152576300Y-74168000D03*
X152576300Y-72898000D03*
X152576300Y-71628000D03*
X152576300Y-70358000D03*
%TD*%
D27*
%TO.C,R2*%
X138804000Y-90932000D03*
X138804000Y-85852000D03*
D28*
X131044000Y-88392000D03*
%TD*%
D15*
%TO.C,CR3*%
X141909800Y-94996000D03*
X137490200Y-94996000D03*
%TD*%
D29*
%TO.C,L3*%
X135636000Y-104691000D03*
X135636000Y-100541000D03*
%TD*%
D21*
%TO.C,L1*%
X162982000Y-92456000D03*
X167132000Y-92456000D03*
%TD*%
D30*
%TO.C,R1*%
X157480000Y-75692000D03*
X157480000Y-80772000D03*
D31*
X165240000Y-78232000D03*
%TD*%
D32*
%TO.C,R10*%
X137668000Y-70104000D03*
X139493000Y-70104000D03*
%TD*%
D33*
%TO.C,U2*%
X131572000Y-78486000D03*
X131572000Y-79756000D03*
X131572000Y-81026000D03*
X131572000Y-82296000D03*
X137020300Y-82296000D03*
X137020300Y-81026000D03*
X137020300Y-79756000D03*
X137020300Y-78486000D03*
D34*
X134296150Y-80391000D03*
%TD*%
D16*
%TO.C,FanConn1*%
X158875000Y-55368000D03*
X163703000Y-55372000D03*
D17*
X160020000Y-64008000D03*
X162560000Y-64008000D03*
%TD*%
D35*
%TO.C,D4*%
X141732000Y-70104000D03*
X143482000Y-70104000D03*
%TD*%
D36*
%TO.C,R9*%
X143497300Y-73660000D03*
X141998700Y-73660000D03*
%TD*%
D25*
%TO.C,R5*%
X128016000Y-82597000D03*
X128016000Y-80772000D03*
%TD*%
D37*
%TO.C,Q1*%
X137317000Y-73218000D03*
X137317000Y-75118000D03*
X139192000Y-74168000D03*
%TD*%
D24*
%TO.C,F3*%
X147320000Y-92964000D03*
X145745000Y-92964000D03*
%TD*%
D33*
%TO.C,U1*%
X162052000Y-83820000D03*
X162052000Y-85090000D03*
X162052000Y-86360000D03*
X162052000Y-87630000D03*
X167500300Y-87630000D03*
X167500300Y-86360000D03*
X167500300Y-85090000D03*
X167500300Y-83820000D03*
D34*
X164776150Y-85725000D03*
%TD*%
D38*
%TO.C,U3*%
X144145000Y-98875850D03*
X142875000Y-98875850D03*
X141605000Y-98875850D03*
X140335000Y-98875850D03*
X140335000Y-104324150D03*
X141605000Y-104324150D03*
X142875000Y-104324150D03*
X144145000Y-104324150D03*
D34*
X142240000Y-101600000D03*
%TD*%
D39*
%TO.C,C2*%
X139700000Y-80264000D03*
X139700000Y-78189000D03*
%TD*%
D25*
%TO.C,R7*%
X157988000Y-72032500D03*
X157988000Y-70207500D03*
%TD*%
G36*
X133177275Y-62376685D02*
G01*
X133223030Y-62429489D01*
X133232974Y-62498647D01*
X133222485Y-62533688D01*
X132850076Y-63327081D01*
X132803772Y-63379404D01*
X132737816Y-63398393D01*
X128306327Y-63398000D01*
X128306314Y-63398001D01*
X128126309Y-63419856D01*
X127950218Y-63463259D01*
X127780663Y-63527564D01*
X127780662Y-63527564D01*
X127620094Y-63611837D01*
X127470849Y-63714854D01*
X127335108Y-63835108D01*
X127214854Y-63970849D01*
X127111837Y-64120094D01*
X127027564Y-64280662D01*
X127027564Y-64280663D01*
X126963259Y-64450218D01*
X126919856Y-64626309D01*
X126898000Y-64806319D01*
X126898000Y-69804654D01*
X126878315Y-69871693D01*
X126837099Y-69911399D01*
X126044099Y-70380158D01*
X125976372Y-70397327D01*
X125910114Y-70375154D01*
X125866362Y-70320679D01*
X125857000Y-70273413D01*
X125857000Y-64897943D01*
X125857014Y-64896072D01*
X125859217Y-64750059D01*
X125860107Y-64736983D01*
X125895417Y-64446179D01*
X125898116Y-64431450D01*
X125967998Y-64147932D01*
X125972453Y-64133637D01*
X126075998Y-63860609D01*
X126082144Y-63846954D01*
X126217842Y-63588404D01*
X126225588Y-63575590D01*
X126391467Y-63335272D01*
X126400702Y-63323485D01*
X126594333Y-63104921D01*
X126604921Y-63094333D01*
X126823485Y-62900702D01*
X126835272Y-62891467D01*
X127075590Y-62725588D01*
X127088404Y-62717842D01*
X127346954Y-62582144D01*
X127360609Y-62575998D01*
X127633637Y-62472453D01*
X127647932Y-62467998D01*
X127931450Y-62398116D01*
X127946179Y-62395417D01*
X128236983Y-62360107D01*
X128250059Y-62359217D01*
X128396072Y-62357014D01*
X128397943Y-62357000D01*
X133110236Y-62357000D01*
X133177275Y-62376685D01*
G37*
G36*
X167767928Y-62357014D02*
G01*
X167913940Y-62359217D01*
X167927016Y-62360107D01*
X168217820Y-62395417D01*
X168232549Y-62398116D01*
X168516067Y-62467998D01*
X168530362Y-62472453D01*
X168803390Y-62575998D01*
X168817045Y-62582144D01*
X169075595Y-62717842D01*
X169088409Y-62725588D01*
X169328727Y-62891467D01*
X169340514Y-62900702D01*
X169559078Y-63094333D01*
X169569666Y-63104921D01*
X169763297Y-63323485D01*
X169772532Y-63335272D01*
X169938411Y-63575590D01*
X169946157Y-63588404D01*
X170081855Y-63846954D01*
X170088001Y-63860609D01*
X170191546Y-64133637D01*
X170196001Y-64147932D01*
X170265883Y-64431450D01*
X170268582Y-64446179D01*
X170303892Y-64736983D01*
X170304782Y-64750058D01*
X170306986Y-64896071D01*
X170307000Y-64897943D01*
X170307000Y-74031624D01*
X170287315Y-74098663D01*
X170234511Y-74144418D01*
X170165353Y-74154362D01*
X170122413Y-74139815D01*
X169329016Y-73695513D01*
X169280142Y-73645582D01*
X169265603Y-73587316D01*
X169265999Y-64806320D01*
X169244141Y-64626309D01*
X169200739Y-64450218D01*
X169136434Y-64280663D01*
X169136434Y-64280662D01*
X169052161Y-64120094D01*
X168949144Y-63970849D01*
X168828890Y-63835108D01*
X168693149Y-63714854D01*
X168543904Y-63611837D01*
X168383336Y-63527564D01*
X168213780Y-63463259D01*
X168037689Y-63419856D01*
X167857680Y-63398000D01*
X164983695Y-63398000D01*
X164916656Y-63378315D01*
X164884982Y-63349045D01*
X164282113Y-62556045D01*
X164257211Y-62490764D01*
X164271556Y-62422383D01*
X164320593Y-62372612D01*
X164380826Y-62357000D01*
X167766057Y-62357000D01*
X167767928Y-62357014D01*
G37*
G36*
X126019389Y-77293679D02*
G01*
X126787472Y-77543753D01*
X126845124Y-77583225D01*
X126872283Y-77647600D01*
X126873083Y-77661545D01*
X126879134Y-84142887D01*
X126859512Y-84209945D01*
X126831325Y-84240834D01*
X126057191Y-84843727D01*
X125992204Y-84869389D01*
X125923660Y-84855842D01*
X125873321Y-84807388D01*
X125857000Y-84745896D01*
X125857000Y-77411587D01*
X125876685Y-77344548D01*
X125929489Y-77298793D01*
X125998647Y-77288849D01*
X126019389Y-77293679D01*
G37*
G36*
X170238617Y-81826171D02*
G01*
X170289706Y-81873833D01*
X170307000Y-81936998D01*
X170307000Y-104266056D01*
X170306986Y-104267928D01*
X170304782Y-104413941D01*
X170303892Y-104427016D01*
X170268582Y-104717820D01*
X170265883Y-104732549D01*
X170196001Y-105016067D01*
X170191546Y-105030362D01*
X170088001Y-105303390D01*
X170081855Y-105317045D01*
X169946157Y-105575595D01*
X169938411Y-105588409D01*
X169772532Y-105828727D01*
X169763297Y-105840514D01*
X169569666Y-106059078D01*
X169559078Y-106069666D01*
X169340514Y-106263297D01*
X169328727Y-106272532D01*
X169088409Y-106438411D01*
X169075595Y-106446157D01*
X168817045Y-106581855D01*
X168803390Y-106588001D01*
X168530362Y-106691546D01*
X168516067Y-106696001D01*
X168232549Y-106765883D01*
X168217820Y-106768582D01*
X167927016Y-106803892D01*
X167913941Y-106804782D01*
X167767929Y-106806986D01*
X167766057Y-106807000D01*
X157675490Y-106807000D01*
X157608451Y-106787315D01*
X157562696Y-106734511D01*
X157552752Y-106665353D01*
X157579605Y-106604374D01*
X158230191Y-105810976D01*
X158287921Y-105771618D01*
X158326081Y-105765602D01*
X167857678Y-105765999D01*
X168037689Y-105744141D01*
X168213780Y-105700739D01*
X168383335Y-105636434D01*
X168383336Y-105636434D01*
X168543904Y-105552161D01*
X168693149Y-105449144D01*
X168828890Y-105328890D01*
X168949144Y-105193149D01*
X169052161Y-105043904D01*
X169136434Y-104883336D01*
X169136434Y-104883335D01*
X169200739Y-104713780D01*
X169244141Y-104537689D01*
X169266000Y-104357678D01*
X169266000Y-82574708D01*
X169285685Y-82507669D01*
X169312292Y-82478077D01*
X170105292Y-81840367D01*
X170169870Y-81813695D01*
X170238617Y-81826171D01*
G37*
G36*
X148396271Y-105765720D02*
G01*
X148463310Y-105785406D01*
X148499757Y-105821411D01*
X149023373Y-106614691D01*
X149043876Y-106681485D01*
X149025012Y-106748760D01*
X148972771Y-106795157D01*
X148919885Y-106807000D01*
X138560974Y-106807000D01*
X138493935Y-106787315D01*
X138448180Y-106734511D01*
X138438236Y-106665353D01*
X138466027Y-106603244D01*
X139132493Y-105809831D01*
X139190684Y-105771160D01*
X139227442Y-105765587D01*
X148396271Y-105765720D01*
G37*
G36*
X126034501Y-93033430D02*
G01*
X126827898Y-93412881D01*
X126879883Y-93459564D01*
X126898397Y-93524751D01*
X126898000Y-104357678D01*
X126919856Y-104537689D01*
X126963259Y-104713780D01*
X127027564Y-104883335D01*
X127027564Y-104883336D01*
X127111837Y-105043904D01*
X127214854Y-105193149D01*
X127335108Y-105328890D01*
X127470849Y-105449144D01*
X127620094Y-105552161D01*
X127780662Y-105636434D01*
X127950218Y-105700739D01*
X128126309Y-105744141D01*
X128306322Y-105766000D01*
X131436548Y-105766000D01*
X131503587Y-105785685D01*
X131532421Y-105811359D01*
X132182886Y-106604359D01*
X132210183Y-106668676D01*
X132198374Y-106737541D01*
X132151209Y-106789089D01*
X132087013Y-106807000D01*
X128397943Y-106807000D01*
X128396071Y-106806986D01*
X128250058Y-106804782D01*
X128236983Y-106803892D01*
X127946179Y-106768582D01*
X127931450Y-106765883D01*
X127647932Y-106696001D01*
X127633637Y-106691546D01*
X127360609Y-106588001D01*
X127346954Y-106581855D01*
X127088404Y-106446157D01*
X127075590Y-106438411D01*
X126835272Y-106272532D01*
X126823485Y-106263297D01*
X126604921Y-106069666D01*
X126594333Y-106059078D01*
X126400702Y-105840514D01*
X126391467Y-105828727D01*
X126225588Y-105588409D01*
X126217842Y-105575595D01*
X126082144Y-105317045D01*
X126075998Y-105303390D01*
X125972453Y-105030362D01*
X125967998Y-105016067D01*
X125898116Y-104732549D01*
X125895417Y-104717820D01*
X125860107Y-104427016D01*
X125859217Y-104413940D01*
X125857014Y-104267927D01*
X125857000Y-104266056D01*
X125857000Y-93145295D01*
X125876685Y-93078256D01*
X125929489Y-93032501D01*
X125998647Y-93022557D01*
X126034501Y-93033430D01*
G37*
M02*
