%TF.GenerationSoftware,KiCad,Pcbnew,9.0.8-9.0.8~ubuntu22.04.1*%
%TF.CreationDate,2026-03-23T14:29:18-05:00*%
%TF.ProjectId,AutofluorescenceBoard,4175746f-666c-4756-9f72-657363656e63,rev?*%
%TF.SameCoordinates,Original*%
%TF.FileFunction,Copper,L3,Inr*%
%TF.FilePolarity,Positive*%
%FSLAX46Y46*%
G04 Gerber Fmt 4.6, Leading zero omitted, Abs format (unit mm)*
G04 Created by KiCad (PCBNEW 9.0.8-9.0.8~ubuntu22.04.1) date 2026-03-23 14:29:18*
%MOMM*%
%LPD*%
G01*
G04 APERTURE LIST*
%TA.AperFunction,ComponentPad*%
%ADD10C,4.826000*%
%TD*%
%TA.AperFunction,ComponentPad*%
%ADD11C,1.524000*%
%TD*%
%TA.AperFunction,ViaPad*%
%ADD12C,0.600000*%
%TD*%
%TA.AperFunction,ViaPad*%
%ADD13C,0.635000*%
%TD*%
%TA.AperFunction,Conductor*%
%ADD14C,0.254000*%
%TD*%
%TA.AperFunction,Conductor*%
%ADD15C,0.762000*%
%TD*%
G04 APERTURE END LIST*
D10*
%TO.N,GND*%
%TO.C,H4*%
X167640000Y-104140000D03*
%TD*%
%TO.N,GND*%
%TO.C,H3*%
X128524000Y-104140000D03*
%TD*%
%TO.N,GND*%
%TO.C,H2*%
X167640000Y-65024000D03*
%TD*%
%TO.N,GND*%
%TO.C,H1*%
X128524000Y-65024000D03*
%TD*%
D11*
%TO.N,White LED*%
%TO.C,Conn1*%
X134620000Y-64008000D03*
%TO.N,ISET 365nm*%
X137160000Y-64008000D03*
%TO.N,ISET 405nm*%
X139700000Y-64008000D03*
%TO.N,ISET 490nm*%
X142240000Y-64008000D03*
%TO.N,GND*%
X144780000Y-64008000D03*
%TD*%
%TO.N,GND*%
%TO.C,J1*%
X151440000Y-64008000D03*
%TO.N,Net-(MOSFET1-D)*%
X153980000Y-64008000D03*
%TD*%
%TO.N,GND*%
%TO.C,FanConn1*%
X160020000Y-64008000D03*
%TO.N,Net-(MOSFET1-D)*%
X162560000Y-64008000D03*
%TD*%
D12*
%TO.N,GND*%
X148082000Y-67310000D03*
X148082000Y-64262000D03*
X155702000Y-70053200D03*
X155702000Y-72440800D03*
X164515800Y-68249800D03*
X160604200Y-68275200D03*
D13*
X132080000Y-65532000D03*
X134296150Y-80391000D03*
D12*
X150368000Y-79248000D03*
D13*
X160909000Y-98806000D03*
X167640000Y-80645000D03*
X161036000Y-72032500D03*
X131064000Y-85725000D03*
X139493000Y-70104000D03*
X131572000Y-81026000D03*
X150368000Y-99187000D03*
X146304000Y-104544500D03*
X152908000Y-99187000D03*
X155448000Y-104267000D03*
X130937000Y-100838000D03*
X141732000Y-70104000D03*
X131064000Y-88265000D03*
X160909000Y-105410000D03*
D12*
X145288000Y-81788000D03*
D13*
X164211000Y-102108000D03*
D12*
X152908000Y-79248000D03*
D13*
X155448000Y-101727000D03*
D12*
X147828000Y-86868000D03*
D13*
X146304000Y-97049500D03*
D12*
X142748000Y-81788000D03*
D13*
X128524000Y-90805000D03*
X155448000Y-99187000D03*
D12*
X150368000Y-89408000D03*
D13*
X158517500Y-88900000D03*
X130937000Y-97536000D03*
X162560000Y-80645000D03*
X157607000Y-98806000D03*
D12*
X152908000Y-81788000D03*
D13*
X162560000Y-78105000D03*
D12*
X150368000Y-81788000D03*
D13*
X165100000Y-75565000D03*
D12*
X145288000Y-84328000D03*
D13*
X165100000Y-80645000D03*
D12*
X147828000Y-81788000D03*
X145288000Y-79248000D03*
D13*
X127635000Y-100838000D03*
X128524000Y-85725000D03*
X159258000Y-103759000D03*
X157607000Y-105410000D03*
X131064000Y-90805000D03*
D12*
X147828000Y-84328000D03*
D13*
X128524000Y-88265000D03*
X162560000Y-103759000D03*
X142240000Y-101600000D03*
X139700000Y-78189000D03*
X167640000Y-75565000D03*
X128778000Y-68834000D03*
X133604000Y-85725000D03*
X162560000Y-100330000D03*
D12*
X142748000Y-86868000D03*
D13*
X165100000Y-78105000D03*
X152908000Y-101727000D03*
X150368000Y-104267000D03*
X164211000Y-105410000D03*
X137020300Y-79756000D03*
X157607000Y-102108000D03*
X162052000Y-86360000D03*
X156567500Y-86868000D03*
X160909000Y-102108000D03*
X132080000Y-68834000D03*
X129286000Y-99187000D03*
X159258000Y-100330000D03*
X162560000Y-75565000D03*
X128016000Y-80772000D03*
X167500300Y-85090000D03*
X144145000Y-104324150D03*
X167640000Y-78105000D03*
X150368000Y-101727000D03*
D12*
X152908000Y-89408000D03*
D13*
X133604000Y-88265000D03*
X164776150Y-85725000D03*
X137317000Y-75118000D03*
D12*
X142748000Y-79248000D03*
D13*
X157607000Y-95504000D03*
X127635000Y-97536000D03*
X167500300Y-83820000D03*
X159258000Y-97155000D03*
X160909000Y-95504000D03*
D12*
X145288000Y-86868000D03*
X142748000Y-89408000D03*
X145288000Y-89408000D03*
D13*
X133604000Y-90805000D03*
D12*
X142748000Y-84328000D03*
D13*
X159258000Y-93853000D03*
X142875000Y-104324150D03*
X152908000Y-104267000D03*
X137020300Y-78486000D03*
%TO.N,+12V*%
X133604000Y-94996000D03*
X156464000Y-88900000D03*
X163068000Y-98044000D03*
X147320000Y-71628000D03*
X139700000Y-80264000D03*
X162052000Y-83820000D03*
X131572000Y-78486000D03*
X145288000Y-76581000D03*
X147294600Y-70358000D03*
X157988000Y-72009000D03*
X147320000Y-72898000D03*
X155448000Y-93980000D03*
X138811000Y-90932000D03*
X157480000Y-75692000D03*
X164338000Y-71120000D03*
X141859000Y-94996000D03*
X146304000Y-94996000D03*
X144145000Y-98933000D03*
%TO.N,Net-(D3-Pad2)*%
X145745000Y-92964000D03*
X143002000Y-91948000D03*
%TO.N,Net-(D4-A)*%
X143482000Y-70104000D03*
X157988000Y-70207500D03*
%TO.N,Net-(U2-ISENSE)*%
X138804000Y-85852000D03*
X131572000Y-79756000D03*
%TO.N,Net-(D1-Pad2)*%
X156972000Y-83820000D03*
%TO.N,ISET 405nm*%
X128016000Y-82597000D03*
%TO.N,ISET 490nm*%
X146304000Y-102719500D03*
X140335000Y-98875850D03*
%TO.N,ISET 365nm*%
X158392500Y-86868000D03*
%TO.N,Net-(D2-Pad2)*%
X136322000Y-76581000D03*
X143383000Y-77470000D03*
%TO.N,Net-(CR2-Pad2)*%
X132123000Y-73660000D03*
X129184400Y-94996000D03*
X137020300Y-82296000D03*
%TO.N,Net-(D1-Pad1)*%
X162982000Y-92456000D03*
X155321000Y-87122000D03*
%TO.N,Net-(D2-Pad1)*%
X143764000Y-75946000D03*
X127973000Y-73660000D03*
%TO.N,Net-(D3-Pad1)*%
X135636000Y-104691000D03*
X150368000Y-91567000D03*
%TO.N,Net-(D6-K)*%
X143497300Y-73660000D03*
X145218150Y-75380850D03*
%TO.N,Net-(MOSFET1-G)*%
X167640000Y-71120000D03*
X161036000Y-70207500D03*
X147294600Y-74168000D03*
%TD*%
D14*
%TO.N,Net-(D3-Pad2)*%
X144018000Y-91948000D02*
X145034000Y-92964000D01*
X145034000Y-92964000D02*
X145745000Y-92964000D01*
X143002000Y-91948000D02*
X144018000Y-91948000D01*
D15*
%TO.N,Net-(D4-A)*%
X144752000Y-68834000D02*
X143482000Y-70104000D01*
X156614500Y-68834000D02*
X144752000Y-68834000D01*
X157988000Y-70207500D02*
X156614500Y-68834000D01*
D14*
%TO.N,ISET 490nm*%
X146304000Y-102719500D02*
X143660500Y-100076000D01*
X143660500Y-100076000D02*
X141535150Y-100076000D01*
X141535150Y-100076000D02*
X140335000Y-98875850D01*
%TO.N,ISET 365nm*%
X158392500Y-86868000D02*
X157734000Y-86209500D01*
X142621000Y-69469000D02*
X137160000Y-64008000D01*
X155575000Y-81026000D02*
X152146000Y-77597000D01*
X142621000Y-70866000D02*
X142621000Y-69469000D01*
X149352000Y-77597000D02*
X142621000Y-70866000D01*
X157734000Y-82804000D02*
X155956000Y-81026000D01*
X155956000Y-81026000D02*
X155575000Y-81026000D01*
X152146000Y-77597000D02*
X149352000Y-77597000D01*
X157734000Y-86209500D02*
X157734000Y-82804000D01*
%TO.N,Net-(D2-Pad2)*%
X141732000Y-77470000D02*
X140843000Y-76581000D01*
X140843000Y-76581000D02*
X136322000Y-76581000D01*
X143383000Y-77470000D02*
X141732000Y-77470000D01*
%TO.N,Net-(CR2-Pad2)*%
X132123000Y-76116000D02*
X137020300Y-81013300D01*
X137020300Y-81013300D02*
X137020300Y-82296000D01*
X132123000Y-73660000D02*
X132123000Y-76116000D01*
%TO.N,Net-(D1-Pad1)*%
X157861000Y-92456000D02*
X162982000Y-92456000D01*
X154940000Y-89535000D02*
X157861000Y-92456000D01*
X154940000Y-87503000D02*
X154940000Y-89535000D01*
X155321000Y-87122000D02*
X154940000Y-87503000D01*
%TO.N,Net-(D2-Pad1)*%
X134112000Y-73014500D02*
X128618500Y-73014500D01*
X128618500Y-73014500D02*
X127973000Y-73660000D01*
X134112000Y-73025000D02*
X134112000Y-73014500D01*
X143764000Y-75946000D02*
X137033000Y-75946000D01*
X137033000Y-75946000D02*
X134112000Y-73025000D01*
%TO.N,Net-(D6-K)*%
X145218150Y-75380850D02*
X143497300Y-73660000D01*
D15*
%TO.N,Net-(MOSFET1-G)*%
X166243000Y-73279000D02*
X166740500Y-72781500D01*
X148257600Y-75131000D02*
X156768914Y-75131000D01*
X166243000Y-73279000D02*
X158750000Y-73279000D01*
X159880414Y-72019500D02*
X158685457Y-73214457D01*
X161036000Y-70207500D02*
X160805500Y-70207500D01*
X158750000Y-73279000D02*
X158685457Y-73214457D01*
X166740500Y-72019500D02*
X167640000Y-71120000D01*
X156768914Y-75131000D02*
X158685457Y-73214457D01*
X159880414Y-71132586D02*
X159880414Y-72019500D01*
X166740500Y-72781500D02*
X166740500Y-72019500D01*
X147294600Y-74168000D02*
X148257600Y-75131000D01*
X160805500Y-70207500D02*
X159880414Y-71132586D01*
%TD*%
%TA.AperFunction,Conductor*%
%TO.N,GND*%
G36*
X167770736Y-62557726D02*
G01*
X168041509Y-62574105D01*
X168056373Y-62575910D01*
X168319507Y-62624131D01*
X168334044Y-62627714D01*
X168589435Y-62707298D01*
X168603427Y-62712603D01*
X168847381Y-62822398D01*
X168860639Y-62829356D01*
X169089574Y-62967752D01*
X169101885Y-62976250D01*
X169269018Y-63107190D01*
X169312473Y-63141235D01*
X169323681Y-63151165D01*
X169512834Y-63340318D01*
X169522764Y-63351526D01*
X169687745Y-63562108D01*
X169696251Y-63574431D01*
X169834642Y-63803359D01*
X169841601Y-63816618D01*
X169951394Y-64060568D01*
X169956703Y-64074569D01*
X170036284Y-64329954D01*
X170039868Y-64344492D01*
X170088089Y-64607626D01*
X170089894Y-64622490D01*
X170106274Y-64893262D01*
X170106500Y-64900750D01*
X170106500Y-104263249D01*
X170106274Y-104270737D01*
X170089894Y-104541509D01*
X170088089Y-104556373D01*
X170039868Y-104819507D01*
X170036284Y-104834045D01*
X169956703Y-105089430D01*
X169951394Y-105103431D01*
X169841601Y-105347381D01*
X169834642Y-105360640D01*
X169696251Y-105589568D01*
X169687745Y-105601891D01*
X169522764Y-105812473D01*
X169512834Y-105823681D01*
X169323681Y-106012834D01*
X169312473Y-106022764D01*
X169101891Y-106187745D01*
X169089568Y-106196251D01*
X168860640Y-106334642D01*
X168847381Y-106341601D01*
X168603431Y-106451394D01*
X168589430Y-106456703D01*
X168334045Y-106536284D01*
X168319507Y-106539868D01*
X168056373Y-106588089D01*
X168041509Y-106589894D01*
X167786892Y-106605296D01*
X167770735Y-106606274D01*
X167763249Y-106606500D01*
X128400751Y-106606500D01*
X128393264Y-106606274D01*
X128375920Y-106605224D01*
X128122490Y-106589894D01*
X128107626Y-106588089D01*
X127844492Y-106539868D01*
X127829954Y-106536284D01*
X127574569Y-106456703D01*
X127560568Y-106451394D01*
X127316618Y-106341601D01*
X127303359Y-106334642D01*
X127074431Y-106196251D01*
X127062108Y-106187745D01*
X126851526Y-106022764D01*
X126840318Y-106012834D01*
X126651165Y-105823681D01*
X126641235Y-105812473D01*
X126476254Y-105601891D01*
X126467752Y-105589574D01*
X126329356Y-105360639D01*
X126322398Y-105347381D01*
X126266877Y-105224019D01*
X126212603Y-105103427D01*
X126207296Y-105089430D01*
X126192582Y-105042212D01*
X126127714Y-104834044D01*
X126124131Y-104819507D01*
X126089388Y-104629920D01*
X126086781Y-104615695D01*
X135064000Y-104615695D01*
X135064000Y-104766305D01*
X135080231Y-104826879D01*
X135102982Y-104911787D01*
X135155912Y-105003464D01*
X135178286Y-105042216D01*
X135284784Y-105148714D01*
X135376464Y-105201645D01*
X135415212Y-105224017D01*
X135415213Y-105224017D01*
X135415216Y-105224019D01*
X135560695Y-105263000D01*
X135560697Y-105263000D01*
X135711302Y-105263000D01*
X135711305Y-105263000D01*
X135856784Y-105224019D01*
X135987216Y-105148714D01*
X136093714Y-105042216D01*
X136169019Y-104911784D01*
X136208000Y-104766305D01*
X136208000Y-104615695D01*
X136169019Y-104470216D01*
X136093714Y-104339784D01*
X135987216Y-104233286D01*
X135948464Y-104210912D01*
X135856787Y-104157982D01*
X135856788Y-104157982D01*
X135839599Y-104153376D01*
X135711305Y-104119000D01*
X135560695Y-104119000D01*
X135432400Y-104153376D01*
X135415212Y-104157982D01*
X135284787Y-104233284D01*
X135284781Y-104233288D01*
X135178288Y-104339781D01*
X135178284Y-104339787D01*
X135102982Y-104470212D01*
X135102981Y-104470216D01*
X135064000Y-104615695D01*
X126086781Y-104615695D01*
X126075910Y-104556373D01*
X126074105Y-104541508D01*
X126057726Y-104270736D01*
X126057500Y-104263249D01*
X126057500Y-98800545D01*
X139763000Y-98800545D01*
X139763000Y-98951155D01*
X139801981Y-99096634D01*
X139801982Y-99096637D01*
X139834978Y-99153787D01*
X139877286Y-99227066D01*
X139983784Y-99333564D01*
X140075464Y-99386495D01*
X140114212Y-99408867D01*
X140114213Y-99408867D01*
X140114216Y-99408869D01*
X140259695Y-99447850D01*
X140316115Y-99447850D01*
X140383154Y-99467535D01*
X140403796Y-99484169D01*
X141225533Y-100305905D01*
X141225543Y-100305916D01*
X141300904Y-100381277D01*
X141344399Y-100406388D01*
X141387896Y-100431501D01*
X141484925Y-100457500D01*
X141585375Y-100457500D01*
X143451115Y-100457500D01*
X143518154Y-100477185D01*
X143538796Y-100493819D01*
X145695681Y-102650703D01*
X145729166Y-102712026D01*
X145732000Y-102738384D01*
X145732000Y-102794805D01*
X145770981Y-102940284D01*
X145770982Y-102940287D01*
X145823912Y-103031964D01*
X145846286Y-103070716D01*
X145952784Y-103177214D01*
X146044464Y-103230145D01*
X146083212Y-103252517D01*
X146083213Y-103252517D01*
X146083216Y-103252519D01*
X146228695Y-103291500D01*
X146228697Y-103291500D01*
X146379302Y-103291500D01*
X146379305Y-103291500D01*
X146524784Y-103252519D01*
X146655216Y-103177214D01*
X146761714Y-103070716D01*
X146837019Y-102940284D01*
X146876000Y-102794805D01*
X146876000Y-102644195D01*
X146837019Y-102498716D01*
X146761714Y-102368284D01*
X146655216Y-102261786D01*
X146616464Y-102239412D01*
X146524787Y-102186482D01*
X146524788Y-102186482D01*
X146507599Y-102181876D01*
X146379305Y-102147500D01*
X146379303Y-102147500D01*
X146322884Y-102147500D01*
X146255845Y-102127815D01*
X146235203Y-102111181D01*
X143894748Y-99770725D01*
X143894747Y-99770724D01*
X143807754Y-99720499D01*
X143807755Y-99720499D01*
X143783496Y-99713999D01*
X143710725Y-99694500D01*
X143710722Y-99694500D01*
X141744534Y-99694500D01*
X141677495Y-99674815D01*
X141656853Y-99658181D01*
X140943319Y-98944646D01*
X140928615Y-98917718D01*
X140912023Y-98891900D01*
X140911131Y-98885699D01*
X140909834Y-98883323D01*
X140907078Y-98857695D01*
X143573000Y-98857695D01*
X143573000Y-99008305D01*
X143611981Y-99153784D01*
X143611982Y-99153787D01*
X143664912Y-99245464D01*
X143687286Y-99284216D01*
X143793784Y-99390714D01*
X143885464Y-99443645D01*
X143924212Y-99466017D01*
X143924213Y-99466017D01*
X143924216Y-99466019D01*
X144069695Y-99505000D01*
X144069697Y-99505000D01*
X144220302Y-99505000D01*
X144220305Y-99505000D01*
X144365784Y-99466019D01*
X144496216Y-99390714D01*
X144602714Y-99284216D01*
X144678019Y-99153784D01*
X144717000Y-99008305D01*
X144717000Y-98857695D01*
X144678019Y-98712216D01*
X144602714Y-98581784D01*
X144496216Y-98475286D01*
X144457464Y-98452912D01*
X144365787Y-98399982D01*
X144365788Y-98399982D01*
X144347986Y-98395212D01*
X144220305Y-98361000D01*
X144069695Y-98361000D01*
X143942014Y-98395212D01*
X143924212Y-98399982D01*
X143793787Y-98475284D01*
X143793781Y-98475288D01*
X143687288Y-98581781D01*
X143687284Y-98581787D01*
X143611982Y-98712212D01*
X143611981Y-98712216D01*
X143573000Y-98857695D01*
X140907078Y-98857695D01*
X140907000Y-98856965D01*
X140907000Y-98800547D01*
X140907000Y-98800545D01*
X140868019Y-98655066D01*
X140792714Y-98524634D01*
X140686216Y-98418136D01*
X140646517Y-98395216D01*
X140555787Y-98342832D01*
X140555788Y-98342832D01*
X140538599Y-98338226D01*
X140410305Y-98303850D01*
X140259695Y-98303850D01*
X140131400Y-98338226D01*
X140114212Y-98342832D01*
X139983787Y-98418134D01*
X139983781Y-98418138D01*
X139877288Y-98524631D01*
X139877284Y-98524637D01*
X139801982Y-98655062D01*
X139801981Y-98655066D01*
X139763000Y-98800545D01*
X126057500Y-98800545D01*
X126057500Y-97968695D01*
X162496000Y-97968695D01*
X162496000Y-98119305D01*
X162534981Y-98264784D01*
X162534982Y-98264787D01*
X162580041Y-98342831D01*
X162610286Y-98395216D01*
X162716784Y-98501714D01*
X162756483Y-98524634D01*
X162847212Y-98577017D01*
X162847213Y-98577017D01*
X162847216Y-98577019D01*
X162992695Y-98616000D01*
X162992697Y-98616000D01*
X163143302Y-98616000D01*
X163143305Y-98616000D01*
X163288784Y-98577019D01*
X163419216Y-98501714D01*
X163525714Y-98395216D01*
X163601019Y-98264784D01*
X163640000Y-98119305D01*
X163640000Y-97968695D01*
X163601019Y-97823216D01*
X163525714Y-97692784D01*
X163419216Y-97586286D01*
X163380464Y-97563912D01*
X163288787Y-97510982D01*
X163288788Y-97510982D01*
X163271599Y-97506376D01*
X163143305Y-97472000D01*
X162992695Y-97472000D01*
X162864400Y-97506376D01*
X162847212Y-97510982D01*
X162716787Y-97586284D01*
X162716781Y-97586288D01*
X162610288Y-97692781D01*
X162610284Y-97692787D01*
X162534982Y-97823212D01*
X162534981Y-97823216D01*
X162496000Y-97968695D01*
X126057500Y-97968695D01*
X126057500Y-94920695D01*
X128612400Y-94920695D01*
X128612400Y-95071305D01*
X128651381Y-95216784D01*
X128651382Y-95216787D01*
X128704312Y-95308464D01*
X128726686Y-95347216D01*
X128833184Y-95453714D01*
X128924864Y-95506645D01*
X128963612Y-95529017D01*
X128963613Y-95529017D01*
X128963616Y-95529019D01*
X129109095Y-95568000D01*
X129109097Y-95568000D01*
X129259702Y-95568000D01*
X129259705Y-95568000D01*
X129405184Y-95529019D01*
X129535616Y-95453714D01*
X129642114Y-95347216D01*
X129717419Y-95216784D01*
X129756400Y-95071305D01*
X129756400Y-94920695D01*
X133032000Y-94920695D01*
X133032000Y-95071305D01*
X133070981Y-95216784D01*
X133070982Y-95216787D01*
X133123912Y-95308464D01*
X133146286Y-95347216D01*
X133252784Y-95453714D01*
X133344464Y-95506645D01*
X133383212Y-95529017D01*
X133383213Y-95529017D01*
X133383216Y-95529019D01*
X133528695Y-95568000D01*
X133528697Y-95568000D01*
X133679302Y-95568000D01*
X133679305Y-95568000D01*
X133824784Y-95529019D01*
X133955216Y-95453714D01*
X134061714Y-95347216D01*
X134137019Y-95216784D01*
X134176000Y-95071305D01*
X134176000Y-94920695D01*
X141287000Y-94920695D01*
X141287000Y-95071305D01*
X141325981Y-95216784D01*
X141325982Y-95216787D01*
X141378912Y-95308464D01*
X141401286Y-95347216D01*
X141507784Y-95453714D01*
X141599464Y-95506645D01*
X141638212Y-95529017D01*
X141638213Y-95529017D01*
X141638216Y-95529019D01*
X141783695Y-95568000D01*
X141783697Y-95568000D01*
X141934302Y-95568000D01*
X141934305Y-95568000D01*
X142079784Y-95529019D01*
X142210216Y-95453714D01*
X142316714Y-95347216D01*
X142392019Y-95216784D01*
X142431000Y-95071305D01*
X142431000Y-94920695D01*
X145732000Y-94920695D01*
X145732000Y-95071305D01*
X145770981Y-95216784D01*
X145770982Y-95216787D01*
X145823912Y-95308464D01*
X145846286Y-95347216D01*
X145952784Y-95453714D01*
X146044464Y-95506645D01*
X146083212Y-95529017D01*
X146083213Y-95529017D01*
X146083216Y-95529019D01*
X146228695Y-95568000D01*
X146228697Y-95568000D01*
X146379302Y-95568000D01*
X146379305Y-95568000D01*
X146524784Y-95529019D01*
X146655216Y-95453714D01*
X146761714Y-95347216D01*
X146837019Y-95216784D01*
X146876000Y-95071305D01*
X146876000Y-94920695D01*
X146837019Y-94775216D01*
X146761714Y-94644784D01*
X146655216Y-94538286D01*
X146611449Y-94513017D01*
X146524787Y-94462982D01*
X146524788Y-94462982D01*
X146507599Y-94458376D01*
X146379305Y-94424000D01*
X146228695Y-94424000D01*
X146100400Y-94458376D01*
X146083212Y-94462982D01*
X145952787Y-94538284D01*
X145952781Y-94538288D01*
X145846288Y-94644781D01*
X145846284Y-94644787D01*
X145770982Y-94775212D01*
X145770981Y-94775216D01*
X145732000Y-94920695D01*
X142431000Y-94920695D01*
X142392019Y-94775216D01*
X142316714Y-94644784D01*
X142210216Y-94538286D01*
X142166449Y-94513017D01*
X142079787Y-94462982D01*
X142079788Y-94462982D01*
X142062599Y-94458376D01*
X141934305Y-94424000D01*
X141783695Y-94424000D01*
X141655400Y-94458376D01*
X141638212Y-94462982D01*
X141507787Y-94538284D01*
X141507781Y-94538288D01*
X141401288Y-94644781D01*
X141401284Y-94644787D01*
X141325982Y-94775212D01*
X141325981Y-94775216D01*
X141287000Y-94920695D01*
X134176000Y-94920695D01*
X134137019Y-94775216D01*
X134061714Y-94644784D01*
X133955216Y-94538286D01*
X133911449Y-94513017D01*
X133824787Y-94462982D01*
X133824788Y-94462982D01*
X133807599Y-94458376D01*
X133679305Y-94424000D01*
X133528695Y-94424000D01*
X133400400Y-94458376D01*
X133383212Y-94462982D01*
X133252787Y-94538284D01*
X133252781Y-94538288D01*
X133146288Y-94644781D01*
X133146284Y-94644787D01*
X133070982Y-94775212D01*
X133070981Y-94775216D01*
X133032000Y-94920695D01*
X129756400Y-94920695D01*
X129717419Y-94775216D01*
X129642114Y-94644784D01*
X129535616Y-94538286D01*
X129491849Y-94513017D01*
X129405187Y-94462982D01*
X129405188Y-94462982D01*
X129387999Y-94458376D01*
X129259705Y-94424000D01*
X129109095Y-94424000D01*
X128980800Y-94458376D01*
X128963612Y-94462982D01*
X128833187Y-94538284D01*
X128833181Y-94538288D01*
X128726688Y-94644781D01*
X128726684Y-94644787D01*
X128651382Y-94775212D01*
X128651381Y-94775216D01*
X128612400Y-94920695D01*
X126057500Y-94920695D01*
X126057500Y-93904695D01*
X154876000Y-93904695D01*
X154876000Y-94055305D01*
X154914981Y-94200784D01*
X154914982Y-94200787D01*
X154967912Y-94292464D01*
X154990286Y-94331216D01*
X155096784Y-94437714D01*
X155188464Y-94490645D01*
X155227212Y-94513017D01*
X155227213Y-94513017D01*
X155227216Y-94513019D01*
X155372695Y-94552000D01*
X155372697Y-94552000D01*
X155523302Y-94552000D01*
X155523305Y-94552000D01*
X155668784Y-94513019D01*
X155799216Y-94437714D01*
X155905714Y-94331216D01*
X155981019Y-94200784D01*
X156020000Y-94055305D01*
X156020000Y-93904695D01*
X155981019Y-93759216D01*
X155905714Y-93628784D01*
X155799216Y-93522286D01*
X155755449Y-93497017D01*
X155668787Y-93446982D01*
X155668788Y-93446982D01*
X155651599Y-93442376D01*
X155523305Y-93408000D01*
X155372695Y-93408000D01*
X155244400Y-93442376D01*
X155227212Y-93446982D01*
X155096787Y-93522284D01*
X155096781Y-93522288D01*
X154990288Y-93628781D01*
X154990284Y-93628787D01*
X154914982Y-93759212D01*
X154914981Y-93759216D01*
X154876000Y-93904695D01*
X126057500Y-93904695D01*
X126057500Y-91872695D01*
X142430000Y-91872695D01*
X142430000Y-92023305D01*
X142468981Y-92168784D01*
X142468982Y-92168787D01*
X142521912Y-92260464D01*
X142544286Y-92299216D01*
X142650784Y-92405714D01*
X142742464Y-92458645D01*
X142781212Y-92481017D01*
X142781213Y-92481017D01*
X142781216Y-92481019D01*
X142926695Y-92520000D01*
X142926697Y-92520000D01*
X143077302Y-92520000D01*
X143077305Y-92520000D01*
X143222784Y-92481019D01*
X143353216Y-92405714D01*
X143393111Y-92365819D01*
X143454434Y-92332334D01*
X143480792Y-92329500D01*
X143808615Y-92329500D01*
X143875654Y-92349185D01*
X143896296Y-92365819D01*
X144728724Y-93198247D01*
X144799753Y-93269276D01*
X144886746Y-93319501D01*
X144983775Y-93345500D01*
X145266208Y-93345500D01*
X145333247Y-93365185D01*
X145353889Y-93381819D01*
X145393784Y-93421714D01*
X145485464Y-93474645D01*
X145524212Y-93497017D01*
X145524213Y-93497017D01*
X145524216Y-93497019D01*
X145669695Y-93536000D01*
X145669697Y-93536000D01*
X145820302Y-93536000D01*
X145820305Y-93536000D01*
X145965784Y-93497019D01*
X146096216Y-93421714D01*
X146202714Y-93315216D01*
X146278019Y-93184784D01*
X146317000Y-93039305D01*
X146317000Y-92888695D01*
X146278019Y-92743216D01*
X146202714Y-92612784D01*
X146096216Y-92506286D01*
X146052449Y-92481017D01*
X145965787Y-92430982D01*
X145965788Y-92430982D01*
X145948599Y-92426376D01*
X145820305Y-92392000D01*
X145669695Y-92392000D01*
X145541400Y-92426376D01*
X145524212Y-92430982D01*
X145393787Y-92506284D01*
X145393781Y-92506288D01*
X145353889Y-92546181D01*
X145326961Y-92560884D01*
X145301143Y-92577477D01*
X145294942Y-92578368D01*
X145292566Y-92579666D01*
X145266208Y-92582500D01*
X145243385Y-92582500D01*
X145176346Y-92562815D01*
X145155704Y-92546181D01*
X144252249Y-91642725D01*
X144251519Y-91642304D01*
X144251504Y-91642295D01*
X144165257Y-91592500D01*
X144165255Y-91592499D01*
X144140996Y-91585999D01*
X144068225Y-91566500D01*
X144068222Y-91566500D01*
X143480792Y-91566500D01*
X143413753Y-91546815D01*
X143393111Y-91530181D01*
X143354625Y-91491695D01*
X149796000Y-91491695D01*
X149796000Y-91642305D01*
X149796113Y-91642725D01*
X149834982Y-91787787D01*
X149884004Y-91872695D01*
X149910286Y-91918216D01*
X150016784Y-92024714D01*
X150098107Y-92071666D01*
X150147212Y-92100017D01*
X150147213Y-92100017D01*
X150147216Y-92100019D01*
X150292695Y-92139000D01*
X150292697Y-92139000D01*
X150443302Y-92139000D01*
X150443305Y-92139000D01*
X150588784Y-92100019D01*
X150719216Y-92024714D01*
X150825714Y-91918216D01*
X150901019Y-91787784D01*
X150940000Y-91642305D01*
X150940000Y-91491695D01*
X150901019Y-91346216D01*
X150825714Y-91215784D01*
X150719216Y-91109286D01*
X150680464Y-91086912D01*
X150588787Y-91033982D01*
X150588788Y-91033982D01*
X150571599Y-91029376D01*
X150443305Y-90995000D01*
X150292695Y-90995000D01*
X150164400Y-91029376D01*
X150147212Y-91033982D01*
X150016787Y-91109284D01*
X150016781Y-91109288D01*
X149910288Y-91215781D01*
X149910284Y-91215787D01*
X149834982Y-91346212D01*
X149834981Y-91346216D01*
X149796000Y-91491695D01*
X143354625Y-91491695D01*
X143353218Y-91490288D01*
X143353216Y-91490286D01*
X143309449Y-91465017D01*
X143222787Y-91414982D01*
X143222788Y-91414982D01*
X143205599Y-91410376D01*
X143077305Y-91376000D01*
X142926695Y-91376000D01*
X142798400Y-91410376D01*
X142781212Y-91414982D01*
X142650787Y-91490284D01*
X142650781Y-91490288D01*
X142544288Y-91596781D01*
X142544284Y-91596787D01*
X142468982Y-91727212D01*
X142468981Y-91727216D01*
X142430000Y-91872695D01*
X126057500Y-91872695D01*
X126057500Y-90856695D01*
X138239000Y-90856695D01*
X138239000Y-91007305D01*
X138277981Y-91152784D01*
X138277982Y-91152787D01*
X138314352Y-91215781D01*
X138353286Y-91283216D01*
X138459784Y-91389714D01*
X138551464Y-91442645D01*
X138590212Y-91465017D01*
X138590213Y-91465017D01*
X138590216Y-91465019D01*
X138735695Y-91504000D01*
X138735697Y-91504000D01*
X138886302Y-91504000D01*
X138886305Y-91504000D01*
X139031784Y-91465019D01*
X139162216Y-91389714D01*
X139268714Y-91283216D01*
X139344019Y-91152784D01*
X139383000Y-91007305D01*
X139383000Y-90856695D01*
X139344019Y-90711216D01*
X139268714Y-90580784D01*
X139162216Y-90474286D01*
X139123464Y-90451912D01*
X139031787Y-90398982D01*
X139031788Y-90398982D01*
X139014599Y-90394376D01*
X138886305Y-90360000D01*
X138735695Y-90360000D01*
X138607400Y-90394376D01*
X138590212Y-90398982D01*
X138459787Y-90474284D01*
X138459781Y-90474288D01*
X138353288Y-90580781D01*
X138353284Y-90580787D01*
X138277982Y-90711212D01*
X138277981Y-90711216D01*
X138239000Y-90856695D01*
X126057500Y-90856695D01*
X126057500Y-87452775D01*
X154558500Y-87452775D01*
X154558500Y-89585225D01*
X154584499Y-89682254D01*
X154634724Y-89769247D01*
X157626753Y-92761276D01*
X157713747Y-92811502D01*
X157810775Y-92837501D01*
X157810778Y-92837501D01*
X157918821Y-92837501D01*
X157918837Y-92837500D01*
X162503208Y-92837500D01*
X162570247Y-92857185D01*
X162590889Y-92873819D01*
X162630784Y-92913714D01*
X162722464Y-92966645D01*
X162761212Y-92989017D01*
X162761213Y-92989017D01*
X162761216Y-92989019D01*
X162906695Y-93028000D01*
X162906697Y-93028000D01*
X163057302Y-93028000D01*
X163057305Y-93028000D01*
X163202784Y-92989019D01*
X163333216Y-92913714D01*
X163439714Y-92807216D01*
X163515019Y-92676784D01*
X163554000Y-92531305D01*
X163554000Y-92380695D01*
X163515019Y-92235216D01*
X163439714Y-92104784D01*
X163333216Y-91998286D01*
X163294464Y-91975912D01*
X163202787Y-91922982D01*
X163202788Y-91922982D01*
X163184986Y-91918212D01*
X163057305Y-91884000D01*
X162906695Y-91884000D01*
X162779014Y-91918212D01*
X162761212Y-91922982D01*
X162630787Y-91998284D01*
X162630781Y-91998288D01*
X162590889Y-92038181D01*
X162529566Y-92071666D01*
X162503208Y-92074500D01*
X158070385Y-92074500D01*
X158003346Y-92054815D01*
X157982704Y-92038181D01*
X155357819Y-89413296D01*
X155324334Y-89351973D01*
X155321500Y-89325615D01*
X155321500Y-88824695D01*
X155892000Y-88824695D01*
X155892000Y-88975305D01*
X155930981Y-89120784D01*
X155930982Y-89120787D01*
X155983912Y-89212464D01*
X156006286Y-89251216D01*
X156112784Y-89357714D01*
X156204464Y-89410645D01*
X156243212Y-89433017D01*
X156243213Y-89433017D01*
X156243216Y-89433019D01*
X156388695Y-89472000D01*
X156388697Y-89472000D01*
X156539302Y-89472000D01*
X156539305Y-89472000D01*
X156684784Y-89433019D01*
X156815216Y-89357714D01*
X156921714Y-89251216D01*
X156997019Y-89120784D01*
X157036000Y-88975305D01*
X157036000Y-88824695D01*
X156997019Y-88679216D01*
X156921714Y-88548784D01*
X156815216Y-88442286D01*
X156776464Y-88419912D01*
X156684787Y-88366982D01*
X156684788Y-88366982D01*
X156667599Y-88362376D01*
X156539305Y-88328000D01*
X156388695Y-88328000D01*
X156260400Y-88362376D01*
X156243212Y-88366982D01*
X156112787Y-88442284D01*
X156112781Y-88442288D01*
X156006288Y-88548781D01*
X156006284Y-88548787D01*
X155930982Y-88679212D01*
X155930981Y-88679216D01*
X155892000Y-88824695D01*
X155321500Y-88824695D01*
X155321500Y-87809192D01*
X155341185Y-87742153D01*
X155393989Y-87696398D01*
X155413401Y-87689419D01*
X155541784Y-87655019D01*
X155672216Y-87579714D01*
X155778714Y-87473216D01*
X155854019Y-87342784D01*
X155893000Y-87197305D01*
X155893000Y-87046695D01*
X155854019Y-86901216D01*
X155778714Y-86770784D01*
X155672216Y-86664286D01*
X155633464Y-86641912D01*
X155541787Y-86588982D01*
X155541788Y-86588982D01*
X155524599Y-86584376D01*
X155396305Y-86550000D01*
X155245695Y-86550000D01*
X155117400Y-86584376D01*
X155100212Y-86588982D01*
X154969787Y-86664284D01*
X154969781Y-86664288D01*
X154863288Y-86770781D01*
X154863284Y-86770787D01*
X154787982Y-86901212D01*
X154787981Y-86901216D01*
X154749000Y-87046695D01*
X154749000Y-87046697D01*
X154749000Y-87103113D01*
X154740355Y-87132553D01*
X154733833Y-87162538D01*
X154730077Y-87167554D01*
X154729315Y-87170152D01*
X154712683Y-87190792D01*
X154688315Y-87215160D01*
X154688311Y-87215166D01*
X154634722Y-87268754D01*
X154584499Y-87355745D01*
X154584499Y-87355746D01*
X154558500Y-87452775D01*
X126057500Y-87452775D01*
X126057500Y-85776695D01*
X138232000Y-85776695D01*
X138232000Y-85927305D01*
X138258572Y-86026473D01*
X138270982Y-86072787D01*
X138279648Y-86087796D01*
X138346286Y-86203216D01*
X138452784Y-86309714D01*
X138534260Y-86356754D01*
X138583212Y-86385017D01*
X138583213Y-86385017D01*
X138583216Y-86385019D01*
X138728695Y-86424000D01*
X138728697Y-86424000D01*
X138879302Y-86424000D01*
X138879305Y-86424000D01*
X139024784Y-86385019D01*
X139155216Y-86309714D01*
X139261714Y-86203216D01*
X139337019Y-86072784D01*
X139376000Y-85927305D01*
X139376000Y-85776695D01*
X139337019Y-85631216D01*
X139261714Y-85500784D01*
X139155216Y-85394286D01*
X139116464Y-85371912D01*
X139024787Y-85318982D01*
X139024788Y-85318982D01*
X139007599Y-85314376D01*
X138879305Y-85280000D01*
X138728695Y-85280000D01*
X138600400Y-85314376D01*
X138583212Y-85318982D01*
X138452787Y-85394284D01*
X138452781Y-85394288D01*
X138346288Y-85500781D01*
X138346284Y-85500787D01*
X138270982Y-85631212D01*
X138270981Y-85631216D01*
X138232000Y-85776695D01*
X126057500Y-85776695D01*
X126057500Y-82521695D01*
X127444000Y-82521695D01*
X127444000Y-82672305D01*
X127482981Y-82817784D01*
X127482982Y-82817787D01*
X127504020Y-82854225D01*
X127558286Y-82948216D01*
X127664784Y-83054714D01*
X127756464Y-83107645D01*
X127795212Y-83130017D01*
X127795213Y-83130017D01*
X127795216Y-83130019D01*
X127940695Y-83169000D01*
X127940697Y-83169000D01*
X128091302Y-83169000D01*
X128091305Y-83169000D01*
X128236784Y-83130019D01*
X128367216Y-83054714D01*
X128473714Y-82948216D01*
X128549019Y-82817784D01*
X128588000Y-82672305D01*
X128588000Y-82521695D01*
X128549019Y-82376216D01*
X128473714Y-82245784D01*
X128367216Y-82139286D01*
X128328464Y-82116912D01*
X128236787Y-82063982D01*
X128236788Y-82063982D01*
X128219599Y-82059376D01*
X128091305Y-82025000D01*
X127940695Y-82025000D01*
X127812400Y-82059376D01*
X127795212Y-82063982D01*
X127664787Y-82139284D01*
X127664781Y-82139288D01*
X127558288Y-82245781D01*
X127558284Y-82245787D01*
X127482982Y-82376212D01*
X127482981Y-82376216D01*
X127444000Y-82521695D01*
X126057500Y-82521695D01*
X126057500Y-78410695D01*
X131000000Y-78410695D01*
X131000000Y-78561305D01*
X131038981Y-78706784D01*
X131038982Y-78706787D01*
X131091912Y-78798464D01*
X131114286Y-78837216D01*
X131220784Y-78943714D01*
X131313097Y-78997011D01*
X131341852Y-79013613D01*
X131390067Y-79064181D01*
X131403289Y-79132788D01*
X131377321Y-79197652D01*
X131341852Y-79228387D01*
X131220784Y-79298286D01*
X131220781Y-79298288D01*
X131114288Y-79404781D01*
X131114284Y-79404787D01*
X131038982Y-79535212D01*
X131038981Y-79535216D01*
X131000000Y-79680695D01*
X131000000Y-79831305D01*
X131038981Y-79976784D01*
X131038982Y-79976787D01*
X131091912Y-80068464D01*
X131114286Y-80107216D01*
X131220784Y-80213714D01*
X131312464Y-80266645D01*
X131351212Y-80289017D01*
X131351213Y-80289017D01*
X131351216Y-80289019D01*
X131496695Y-80328000D01*
X131496697Y-80328000D01*
X131647302Y-80328000D01*
X131647305Y-80328000D01*
X131792784Y-80289019D01*
X131923216Y-80213714D01*
X132029714Y-80107216D01*
X132105019Y-79976784D01*
X132144000Y-79831305D01*
X132144000Y-79680695D01*
X132105019Y-79535216D01*
X132029714Y-79404784D01*
X131923216Y-79298286D01*
X131862883Y-79263452D01*
X131802148Y-79228387D01*
X131753932Y-79177820D01*
X131740710Y-79109213D01*
X131766678Y-79044348D01*
X131802148Y-79013613D01*
X131825412Y-79000180D01*
X131923216Y-78943714D01*
X132029714Y-78837216D01*
X132105019Y-78706784D01*
X132144000Y-78561305D01*
X132144000Y-78410695D01*
X132105019Y-78265216D01*
X132029714Y-78134784D01*
X131923216Y-78028286D01*
X131871080Y-77998185D01*
X131792787Y-77952982D01*
X131792788Y-77952982D01*
X131775599Y-77948376D01*
X131647305Y-77914000D01*
X131496695Y-77914000D01*
X131368400Y-77948376D01*
X131351212Y-77952982D01*
X131220787Y-78028284D01*
X131220781Y-78028288D01*
X131114288Y-78134781D01*
X131114284Y-78134787D01*
X131038982Y-78265212D01*
X131038981Y-78265216D01*
X131000000Y-78410695D01*
X126057500Y-78410695D01*
X126057500Y-73584695D01*
X127401000Y-73584695D01*
X127401000Y-73735305D01*
X127439981Y-73880784D01*
X127439982Y-73880787D01*
X127461083Y-73917334D01*
X127515286Y-74011216D01*
X127621784Y-74117714D01*
X127688028Y-74155960D01*
X127752212Y-74193017D01*
X127752213Y-74193017D01*
X127752216Y-74193019D01*
X127897695Y-74232000D01*
X127897697Y-74232000D01*
X128048302Y-74232000D01*
X128048305Y-74232000D01*
X128193784Y-74193019D01*
X128324216Y-74117714D01*
X128430714Y-74011216D01*
X128506019Y-73880784D01*
X128545000Y-73735305D01*
X128545000Y-73678885D01*
X128553644Y-73649444D01*
X128560168Y-73619458D01*
X128563922Y-73614442D01*
X128564685Y-73611846D01*
X128581319Y-73591204D01*
X128740204Y-73432319D01*
X128801527Y-73398834D01*
X128827885Y-73396000D01*
X131439961Y-73396000D01*
X131507000Y-73415685D01*
X131552755Y-73468489D01*
X131562699Y-73537647D01*
X131559737Y-73552087D01*
X131551000Y-73584695D01*
X131551000Y-73735305D01*
X131589981Y-73880784D01*
X131589982Y-73880787D01*
X131611083Y-73917334D01*
X131665286Y-74011216D01*
X131665288Y-74011218D01*
X131705181Y-74051111D01*
X131738666Y-74112434D01*
X131741500Y-74138792D01*
X131741500Y-76166225D01*
X131760999Y-76238996D01*
X131767499Y-76263255D01*
X131767500Y-76263256D01*
X131803245Y-76325168D01*
X131803245Y-76325169D01*
X131817721Y-76350243D01*
X131817725Y-76350248D01*
X136602481Y-81135004D01*
X136635966Y-81196327D01*
X136638800Y-81222685D01*
X136638800Y-81817208D01*
X136619115Y-81884247D01*
X136602481Y-81904889D01*
X136562588Y-81944781D01*
X136562584Y-81944787D01*
X136487282Y-82075212D01*
X136487281Y-82075216D01*
X136448300Y-82220695D01*
X136448300Y-82371305D01*
X136487281Y-82516784D01*
X136487282Y-82516787D01*
X136540212Y-82608464D01*
X136562586Y-82647216D01*
X136669084Y-82753714D01*
X136760764Y-82806645D01*
X136799512Y-82829017D01*
X136799513Y-82829017D01*
X136799516Y-82829019D01*
X136944995Y-82868000D01*
X136944997Y-82868000D01*
X137095602Y-82868000D01*
X137095605Y-82868000D01*
X137241084Y-82829019D01*
X137371516Y-82753714D01*
X137478014Y-82647216D01*
X137553319Y-82516784D01*
X137592300Y-82371305D01*
X137592300Y-82220695D01*
X137553319Y-82075216D01*
X137546832Y-82063981D01*
X137524327Y-82025000D01*
X137478014Y-81944784D01*
X137438119Y-81904889D01*
X137404634Y-81843566D01*
X137401800Y-81817208D01*
X137401800Y-80963077D01*
X137401800Y-80963075D01*
X137375801Y-80866046D01*
X137325576Y-80779053D01*
X137254547Y-80708024D01*
X136735218Y-80188695D01*
X139128000Y-80188695D01*
X139128000Y-80339305D01*
X139166981Y-80484784D01*
X139166982Y-80484787D01*
X139219912Y-80576464D01*
X139242286Y-80615216D01*
X139348784Y-80721714D01*
X139440464Y-80774645D01*
X139479212Y-80797017D01*
X139479213Y-80797017D01*
X139479216Y-80797019D01*
X139624695Y-80836000D01*
X139624697Y-80836000D01*
X139775302Y-80836000D01*
X139775305Y-80836000D01*
X139920784Y-80797019D01*
X140051216Y-80721714D01*
X140157714Y-80615216D01*
X140233019Y-80484784D01*
X140272000Y-80339305D01*
X140272000Y-80188695D01*
X140233019Y-80043216D01*
X140157714Y-79912784D01*
X140051216Y-79806286D01*
X140012464Y-79783912D01*
X139920787Y-79730982D01*
X139920788Y-79730982D01*
X139903599Y-79726376D01*
X139775305Y-79692000D01*
X139624695Y-79692000D01*
X139496400Y-79726376D01*
X139479212Y-79730982D01*
X139348787Y-79806284D01*
X139348781Y-79806288D01*
X139242288Y-79912781D01*
X139242284Y-79912787D01*
X139166982Y-80043212D01*
X139166981Y-80043216D01*
X139128000Y-80188695D01*
X136735218Y-80188695D01*
X132540819Y-75994296D01*
X132507334Y-75932973D01*
X132504500Y-75906615D01*
X132504500Y-74138792D01*
X132524185Y-74071753D01*
X132540819Y-74051111D01*
X132580714Y-74011216D01*
X132656019Y-73880784D01*
X132695000Y-73735305D01*
X132695000Y-73584695D01*
X132686264Y-73552091D01*
X132687927Y-73482243D01*
X132727090Y-73424381D01*
X132791318Y-73396877D01*
X132806039Y-73396000D01*
X133892115Y-73396000D01*
X133959154Y-73415685D01*
X133979796Y-73432319D01*
X136344796Y-75797319D01*
X136378281Y-75858642D01*
X136373297Y-75928334D01*
X136331425Y-75984267D01*
X136265961Y-76008684D01*
X136257115Y-76009000D01*
X136246695Y-76009000D01*
X136119014Y-76043212D01*
X136101212Y-76047982D01*
X135970787Y-76123284D01*
X135970781Y-76123288D01*
X135864288Y-76229781D01*
X135864284Y-76229787D01*
X135788982Y-76360212D01*
X135788981Y-76360216D01*
X135750000Y-76505695D01*
X135750000Y-76656305D01*
X135788981Y-76801784D01*
X135788982Y-76801787D01*
X135841912Y-76893464D01*
X135864286Y-76932216D01*
X135970784Y-77038714D01*
X136052107Y-77085666D01*
X136101212Y-77114017D01*
X136101213Y-77114017D01*
X136101216Y-77114019D01*
X136246695Y-77153000D01*
X136246697Y-77153000D01*
X136397302Y-77153000D01*
X136397305Y-77153000D01*
X136542784Y-77114019D01*
X136673216Y-77038714D01*
X136713111Y-76998819D01*
X136774434Y-76965334D01*
X136800792Y-76962500D01*
X140633615Y-76962500D01*
X140700654Y-76982185D01*
X140721296Y-76998819D01*
X141497753Y-77775276D01*
X141584747Y-77825502D01*
X141681775Y-77851500D01*
X142904208Y-77851500D01*
X142971247Y-77871185D01*
X142991889Y-77887819D01*
X143031784Y-77927714D01*
X143119748Y-77978500D01*
X143162212Y-78003017D01*
X143162213Y-78003017D01*
X143162216Y-78003019D01*
X143307695Y-78042000D01*
X143307697Y-78042000D01*
X143458302Y-78042000D01*
X143458305Y-78042000D01*
X143603784Y-78003019D01*
X143734216Y-77927714D01*
X143840714Y-77821216D01*
X143916019Y-77690784D01*
X143955000Y-77545305D01*
X143955000Y-77394695D01*
X143916019Y-77249216D01*
X143840714Y-77118784D01*
X143734216Y-77012286D01*
X143652893Y-76965334D01*
X143603787Y-76936982D01*
X143603788Y-76936982D01*
X143585986Y-76932212D01*
X143458305Y-76898000D01*
X143307695Y-76898000D01*
X143180014Y-76932212D01*
X143162212Y-76936982D01*
X143031787Y-77012284D01*
X143031781Y-77012288D01*
X142991889Y-77052181D01*
X142930566Y-77085666D01*
X142904208Y-77088500D01*
X141941385Y-77088500D01*
X141874346Y-77068815D01*
X141853704Y-77052181D01*
X141340704Y-76539181D01*
X141307219Y-76477858D01*
X141312203Y-76408166D01*
X141354075Y-76352233D01*
X141419539Y-76327816D01*
X141428385Y-76327500D01*
X143285208Y-76327500D01*
X143352247Y-76347185D01*
X143372889Y-76363819D01*
X143412784Y-76403714D01*
X143504464Y-76456645D01*
X143543212Y-76479017D01*
X143543213Y-76479017D01*
X143543216Y-76479019D01*
X143688695Y-76518000D01*
X143688697Y-76518000D01*
X143839302Y-76518000D01*
X143839305Y-76518000D01*
X143984784Y-76479019D01*
X144115216Y-76403714D01*
X144221714Y-76297216D01*
X144297019Y-76166784D01*
X144336000Y-76021305D01*
X144336000Y-75870695D01*
X144297019Y-75725216D01*
X144221714Y-75594784D01*
X144115216Y-75488286D01*
X144059564Y-75456155D01*
X143984787Y-75412982D01*
X143984788Y-75412982D01*
X143967599Y-75408376D01*
X143839305Y-75374000D01*
X143688695Y-75374000D01*
X143560400Y-75408376D01*
X143543212Y-75412982D01*
X143412787Y-75488284D01*
X143412781Y-75488288D01*
X143372889Y-75528181D01*
X143311566Y-75561666D01*
X143285208Y-75564500D01*
X137242385Y-75564500D01*
X137175346Y-75544815D01*
X137154704Y-75528181D01*
X135211218Y-73584695D01*
X142925300Y-73584695D01*
X142925300Y-73735305D01*
X142964281Y-73880784D01*
X142964282Y-73880787D01*
X142985383Y-73917334D01*
X143039586Y-74011216D01*
X143146084Y-74117714D01*
X143212328Y-74155960D01*
X143276512Y-74193017D01*
X143276513Y-74193017D01*
X143276516Y-74193019D01*
X143421995Y-74232000D01*
X143478415Y-74232000D01*
X143545454Y-74251685D01*
X143566096Y-74268319D01*
X144609831Y-75312053D01*
X144643316Y-75373376D01*
X144646150Y-75399734D01*
X144646150Y-75456155D01*
X144685131Y-75601634D01*
X144685132Y-75601637D01*
X144738062Y-75693314D01*
X144760436Y-75732066D01*
X144866934Y-75838564D01*
X144922590Y-75870697D01*
X144962435Y-75893702D01*
X145010651Y-75944269D01*
X145023873Y-76012876D01*
X144997905Y-76077741D01*
X144962436Y-76108476D01*
X144936784Y-76123286D01*
X144936781Y-76123288D01*
X144830288Y-76229781D01*
X144830284Y-76229787D01*
X144754982Y-76360212D01*
X144754981Y-76360216D01*
X144716000Y-76505695D01*
X144716000Y-76656305D01*
X144754981Y-76801784D01*
X144754982Y-76801787D01*
X144807912Y-76893464D01*
X144830286Y-76932216D01*
X144936784Y-77038714D01*
X145018107Y-77085666D01*
X145067212Y-77114017D01*
X145067213Y-77114017D01*
X145067216Y-77114019D01*
X145212695Y-77153000D01*
X145212697Y-77153000D01*
X145363302Y-77153000D01*
X145363305Y-77153000D01*
X145508784Y-77114019D01*
X145639216Y-77038714D01*
X145745714Y-76932216D01*
X145821019Y-76801784D01*
X145860000Y-76656305D01*
X145860000Y-76505695D01*
X145821019Y-76360216D01*
X145815263Y-76350247D01*
X145784646Y-76297216D01*
X145745714Y-76229784D01*
X145639216Y-76123286D01*
X145543713Y-76068147D01*
X145495498Y-76017579D01*
X145482276Y-75948972D01*
X145508244Y-75884108D01*
X145543711Y-75853375D01*
X145569366Y-75838564D01*
X145675864Y-75732066D01*
X145751169Y-75601634D01*
X145790150Y-75456155D01*
X145790150Y-75305545D01*
X145751169Y-75160066D01*
X145675864Y-75029634D01*
X145569366Y-74923136D01*
X145530614Y-74900762D01*
X145438937Y-74847832D01*
X145438938Y-74847832D01*
X145421749Y-74843226D01*
X145293455Y-74808850D01*
X145293453Y-74808850D01*
X145237034Y-74808850D01*
X145169995Y-74789165D01*
X145149353Y-74772531D01*
X144105619Y-73728796D01*
X144072134Y-73667473D01*
X144069300Y-73641115D01*
X144069300Y-73584697D01*
X144069300Y-73584695D01*
X144030319Y-73439216D01*
X144025586Y-73431019D01*
X143996719Y-73381019D01*
X143955014Y-73308784D01*
X143848516Y-73202286D01*
X143809764Y-73179912D01*
X143718087Y-73126982D01*
X143718088Y-73126982D01*
X143700899Y-73122376D01*
X143572605Y-73088000D01*
X143421995Y-73088000D01*
X143293700Y-73122376D01*
X143276512Y-73126982D01*
X143146087Y-73202284D01*
X143146081Y-73202288D01*
X143039588Y-73308781D01*
X143039584Y-73308787D01*
X142964282Y-73439212D01*
X142964281Y-73439216D01*
X142925300Y-73584695D01*
X135211218Y-73584695D01*
X134443162Y-72816639D01*
X134423455Y-72790956D01*
X134417275Y-72780252D01*
X134346245Y-72709222D01*
X134259254Y-72658999D01*
X134259255Y-72658999D01*
X134234996Y-72652499D01*
X134162225Y-72633000D01*
X128668725Y-72633000D01*
X128568275Y-72633000D01*
X128471247Y-72658998D01*
X128471244Y-72658999D01*
X128384256Y-72709222D01*
X128384250Y-72709226D01*
X128041796Y-73051681D01*
X127980473Y-73085166D01*
X127954115Y-73088000D01*
X127897695Y-73088000D01*
X127769400Y-73122376D01*
X127752212Y-73126982D01*
X127621787Y-73202284D01*
X127621781Y-73202288D01*
X127515288Y-73308781D01*
X127515284Y-73308787D01*
X127439982Y-73439212D01*
X127439981Y-73439216D01*
X127401000Y-73584695D01*
X126057500Y-73584695D01*
X126057500Y-64900750D01*
X126057726Y-64893263D01*
X126074105Y-64622491D01*
X126075910Y-64607626D01*
X126124131Y-64344492D01*
X126127715Y-64329954D01*
X126135646Y-64304503D01*
X126196842Y-64108118D01*
X133603499Y-64108118D01*
X133642562Y-64304496D01*
X133642564Y-64304502D01*
X133719189Y-64489491D01*
X133830434Y-64655983D01*
X133972016Y-64797565D01*
X133972019Y-64797567D01*
X134138507Y-64908810D01*
X134323498Y-64985436D01*
X134323502Y-64985436D01*
X134323503Y-64985437D01*
X134519881Y-65024500D01*
X134519884Y-65024500D01*
X134720118Y-65024500D01*
X134852238Y-64998218D01*
X134916502Y-64985436D01*
X135101493Y-64908810D01*
X135267981Y-64797567D01*
X135409567Y-64655981D01*
X135520810Y-64489493D01*
X135597436Y-64304502D01*
X135610218Y-64240238D01*
X135636500Y-64108118D01*
X136143499Y-64108118D01*
X136182562Y-64304496D01*
X136182564Y-64304502D01*
X136259189Y-64489491D01*
X136370434Y-64655983D01*
X136512016Y-64797565D01*
X136512019Y-64797567D01*
X136678507Y-64908810D01*
X136863498Y-64985436D01*
X136863502Y-64985436D01*
X136863503Y-64985437D01*
X137059881Y-65024500D01*
X137059884Y-65024500D01*
X137260118Y-65024500D01*
X137392238Y-64998218D01*
X137456502Y-64985436D01*
X137479946Y-64975724D01*
X137549415Y-64968255D01*
X137611894Y-64999529D01*
X137615081Y-65002604D01*
X142203181Y-69590703D01*
X142236666Y-69652026D01*
X142239500Y-69678384D01*
X142239500Y-70916225D01*
X142258999Y-70988996D01*
X142265499Y-71013255D01*
X142265501Y-71013260D01*
X142298257Y-71069995D01*
X142298258Y-71069995D01*
X142315724Y-71100247D01*
X142315725Y-71100248D01*
X142315726Y-71100249D01*
X149042383Y-77826905D01*
X149042393Y-77826916D01*
X149117754Y-77902277D01*
X149161249Y-77927388D01*
X149204746Y-77952501D01*
X149301775Y-77978500D01*
X151936615Y-77978500D01*
X152003654Y-77998185D01*
X152024296Y-78014819D01*
X155265383Y-81255905D01*
X155265393Y-81255916D01*
X155340754Y-81331277D01*
X155384249Y-81356388D01*
X155427746Y-81381501D01*
X155524775Y-81407500D01*
X155746615Y-81407500D01*
X155813654Y-81427185D01*
X155834296Y-81443819D01*
X157316181Y-82925704D01*
X157330884Y-82952631D01*
X157347477Y-82978450D01*
X157348368Y-82984650D01*
X157349666Y-82987027D01*
X157352500Y-83013385D01*
X157352500Y-83168177D01*
X157332815Y-83235216D01*
X157280011Y-83280971D01*
X157210853Y-83290915D01*
X157196407Y-83287952D01*
X157192784Y-83286981D01*
X157047305Y-83248000D01*
X156896695Y-83248000D01*
X156773646Y-83280971D01*
X156751212Y-83286982D01*
X156620787Y-83362284D01*
X156620781Y-83362288D01*
X156514288Y-83468781D01*
X156514284Y-83468787D01*
X156438982Y-83599212D01*
X156438981Y-83599216D01*
X156400000Y-83744695D01*
X156400000Y-83895305D01*
X156438981Y-84040784D01*
X156438982Y-84040787D01*
X156491912Y-84132464D01*
X156514286Y-84171216D01*
X156620784Y-84277714D01*
X156712464Y-84330645D01*
X156751212Y-84353017D01*
X156751213Y-84353017D01*
X156751216Y-84353019D01*
X156896695Y-84392000D01*
X156896697Y-84392000D01*
X157047302Y-84392000D01*
X157047305Y-84392000D01*
X157192784Y-84353019D01*
X157192788Y-84353016D01*
X157196406Y-84352047D01*
X157266256Y-84353710D01*
X157324118Y-84392872D01*
X157351623Y-84457100D01*
X157352500Y-84471822D01*
X157352500Y-86259725D01*
X157362220Y-86296000D01*
X157378499Y-86356755D01*
X157378501Y-86356760D01*
X157417322Y-86424000D01*
X157417323Y-86424000D01*
X157428724Y-86443747D01*
X157428726Y-86443749D01*
X157784181Y-86799204D01*
X157817666Y-86860527D01*
X157820500Y-86886885D01*
X157820500Y-86943305D01*
X157848204Y-87046697D01*
X157859482Y-87088787D01*
X157884751Y-87132553D01*
X157934786Y-87219216D01*
X158041284Y-87325714D01*
X158093301Y-87355746D01*
X158171712Y-87401017D01*
X158171713Y-87401017D01*
X158171716Y-87401019D01*
X158317195Y-87440000D01*
X158317197Y-87440000D01*
X158467802Y-87440000D01*
X158467805Y-87440000D01*
X158613284Y-87401019D01*
X158743716Y-87325714D01*
X158850214Y-87219216D01*
X158925519Y-87088784D01*
X158964500Y-86943305D01*
X158964500Y-86792695D01*
X158925519Y-86647216D01*
X158850214Y-86516784D01*
X158743716Y-86410286D01*
X158699949Y-86385017D01*
X158613287Y-86334982D01*
X158613288Y-86334982D01*
X158596099Y-86330376D01*
X158467805Y-86296000D01*
X158467803Y-86296000D01*
X158411385Y-86296000D01*
X158381944Y-86287355D01*
X158351958Y-86280832D01*
X158346942Y-86277077D01*
X158344346Y-86276315D01*
X158323704Y-86259681D01*
X158151819Y-86087796D01*
X158118334Y-86026473D01*
X158115500Y-86000115D01*
X158115500Y-83744695D01*
X161480000Y-83744695D01*
X161480000Y-83895305D01*
X161518981Y-84040784D01*
X161518982Y-84040787D01*
X161571912Y-84132464D01*
X161594286Y-84171216D01*
X161700784Y-84277714D01*
X161792464Y-84330645D01*
X161831212Y-84353017D01*
X161831213Y-84353017D01*
X161831216Y-84353019D01*
X161976695Y-84392000D01*
X161976697Y-84392000D01*
X162127302Y-84392000D01*
X162127305Y-84392000D01*
X162272784Y-84353019D01*
X162403216Y-84277714D01*
X162509714Y-84171216D01*
X162585019Y-84040784D01*
X162624000Y-83895305D01*
X162624000Y-83744695D01*
X162585019Y-83599216D01*
X162509714Y-83468784D01*
X162403216Y-83362286D01*
X162364464Y-83339912D01*
X162272787Y-83286982D01*
X162272788Y-83286982D01*
X162250354Y-83280971D01*
X162127305Y-83248000D01*
X161976695Y-83248000D01*
X161853646Y-83280971D01*
X161831212Y-83286982D01*
X161700787Y-83362284D01*
X161700781Y-83362288D01*
X161594288Y-83468781D01*
X161594284Y-83468787D01*
X161518982Y-83599212D01*
X161518981Y-83599216D01*
X161480000Y-83744695D01*
X158115500Y-83744695D01*
X158115500Y-82864227D01*
X158115501Y-82864214D01*
X158115501Y-82753777D01*
X158115501Y-82753775D01*
X158089502Y-82656747D01*
X158039276Y-82569753D01*
X156190247Y-80720724D01*
X156168250Y-80708024D01*
X156103256Y-80670500D01*
X156103255Y-80670499D01*
X156078996Y-80663999D01*
X156006225Y-80644500D01*
X156006222Y-80644500D01*
X155784384Y-80644500D01*
X155717345Y-80624815D01*
X155696703Y-80608181D01*
X152380248Y-77291725D01*
X152380240Y-77291719D01*
X152306620Y-77249215D01*
X152306618Y-77249214D01*
X152293259Y-77241501D01*
X152293258Y-77241500D01*
X152285301Y-77239368D01*
X152196225Y-77215500D01*
X152196222Y-77215500D01*
X149561384Y-77215500D01*
X149494345Y-77195815D01*
X149473703Y-77179181D01*
X148272703Y-75978181D01*
X148239218Y-75916858D01*
X148244202Y-75847166D01*
X148286074Y-75791233D01*
X148351538Y-75766816D01*
X148360384Y-75766500D01*
X156812636Y-75766500D01*
X156879675Y-75786185D01*
X156925430Y-75838989D01*
X156932408Y-75858400D01*
X156941868Y-75893702D01*
X156946982Y-75912787D01*
X156967874Y-75948972D01*
X157022286Y-76043216D01*
X157128784Y-76149714D01*
X157220464Y-76202645D01*
X157259212Y-76225017D01*
X157259213Y-76225017D01*
X157259216Y-76225019D01*
X157404695Y-76264000D01*
X157404697Y-76264000D01*
X157555302Y-76264000D01*
X157555305Y-76264000D01*
X157700784Y-76225019D01*
X157831216Y-76149714D01*
X157937714Y-76043216D01*
X158013019Y-75912784D01*
X158052000Y-75767305D01*
X158052000Y-75616695D01*
X158013019Y-75471216D01*
X157937714Y-75340784D01*
X157831216Y-75234286D01*
X157801983Y-75217408D01*
X157753769Y-75166841D01*
X157740547Y-75098234D01*
X157766515Y-75033369D01*
X157776295Y-75022350D01*
X158847828Y-73950819D01*
X158909151Y-73917334D01*
X158935509Y-73914500D01*
X166305592Y-73914500D01*
X166305593Y-73914499D01*
X166428369Y-73890078D01*
X166544022Y-73842173D01*
X166648108Y-73772625D01*
X167234125Y-73186608D01*
X167303673Y-73082522D01*
X167351578Y-72966869D01*
X167376000Y-72844091D01*
X167376000Y-72718909D01*
X167376000Y-72334095D01*
X167395685Y-72267056D01*
X167412319Y-72246414D01*
X168133622Y-71525111D01*
X168133625Y-71525108D01*
X168203173Y-71421022D01*
X168251078Y-71305369D01*
X168275500Y-71182591D01*
X168275500Y-71057409D01*
X168251078Y-70934631D01*
X168233811Y-70892945D01*
X168203176Y-70818984D01*
X168203169Y-70818971D01*
X168133625Y-70714892D01*
X168133622Y-70714888D01*
X168045111Y-70626377D01*
X168045107Y-70626374D01*
X167941028Y-70556830D01*
X167941015Y-70556823D01*
X167825373Y-70508923D01*
X167825361Y-70508920D01*
X167702595Y-70484500D01*
X167702591Y-70484500D01*
X167577409Y-70484500D01*
X167577404Y-70484500D01*
X167454638Y-70508920D01*
X167454626Y-70508923D01*
X167338984Y-70556823D01*
X167338971Y-70556830D01*
X167234892Y-70626374D01*
X167234888Y-70626377D01*
X166555906Y-71305361D01*
X166335392Y-71525875D01*
X166309983Y-71551284D01*
X166246873Y-71614393D01*
X166177330Y-71718471D01*
X166177323Y-71718484D01*
X166129423Y-71834126D01*
X166129420Y-71834138D01*
X166105000Y-71956904D01*
X166105000Y-72466905D01*
X166096355Y-72496345D01*
X166089832Y-72526332D01*
X166086077Y-72531347D01*
X166085315Y-72533944D01*
X166068681Y-72554586D01*
X166016086Y-72607181D01*
X165954763Y-72640666D01*
X165928405Y-72643500D01*
X160454510Y-72643500D01*
X160387471Y-72623815D01*
X160341716Y-72571011D01*
X160331772Y-72501853D01*
X160360797Y-72438297D01*
X160366829Y-72431819D01*
X160374036Y-72424611D01*
X160374039Y-72424608D01*
X160443587Y-72320522D01*
X160491492Y-72204869D01*
X160515914Y-72082091D01*
X160515914Y-71956909D01*
X160515914Y-71447181D01*
X160535599Y-71380142D01*
X160552233Y-71359500D01*
X160741447Y-71170286D01*
X160867038Y-71044695D01*
X163766000Y-71044695D01*
X163766000Y-71195305D01*
X163795492Y-71305369D01*
X163804982Y-71340787D01*
X163851302Y-71421015D01*
X163880286Y-71471216D01*
X163986784Y-71577714D01*
X164050314Y-71614393D01*
X164117212Y-71653017D01*
X164117213Y-71653017D01*
X164117216Y-71653019D01*
X164262695Y-71692000D01*
X164262697Y-71692000D01*
X164413302Y-71692000D01*
X164413305Y-71692000D01*
X164558784Y-71653019D01*
X164689216Y-71577714D01*
X164795714Y-71471216D01*
X164871019Y-71340784D01*
X164910000Y-71195305D01*
X164910000Y-71044695D01*
X164871019Y-70899216D01*
X164867398Y-70892945D01*
X164838867Y-70843527D01*
X164795714Y-70768784D01*
X164689216Y-70662286D01*
X164627020Y-70626377D01*
X164558787Y-70586982D01*
X164558788Y-70586982D01*
X164541599Y-70582376D01*
X164413305Y-70548000D01*
X164262695Y-70548000D01*
X164134400Y-70582376D01*
X164117212Y-70586982D01*
X163986787Y-70662284D01*
X163986781Y-70662288D01*
X163880288Y-70768781D01*
X163880284Y-70768787D01*
X163804982Y-70899212D01*
X163804981Y-70899216D01*
X163766000Y-71044695D01*
X160867038Y-71044695D01*
X161034722Y-70877010D01*
X161096043Y-70843527D01*
X161098210Y-70843076D01*
X161131001Y-70836553D01*
X161221369Y-70818578D01*
X161337022Y-70770673D01*
X161441108Y-70701125D01*
X161529625Y-70612608D01*
X161599173Y-70508522D01*
X161647078Y-70392869D01*
X161671500Y-70270091D01*
X161671500Y-70144909D01*
X161647078Y-70022131D01*
X161640720Y-70006781D01*
X161599176Y-69906484D01*
X161599169Y-69906471D01*
X161529625Y-69802392D01*
X161529622Y-69802388D01*
X161441111Y-69713877D01*
X161441107Y-69713874D01*
X161337028Y-69644330D01*
X161337015Y-69644323D01*
X161221373Y-69596423D01*
X161221361Y-69596420D01*
X161098595Y-69572000D01*
X161098591Y-69572000D01*
X160868091Y-69572000D01*
X160742909Y-69572000D01*
X160742904Y-69572000D01*
X160620138Y-69596420D01*
X160620126Y-69596423D01*
X160504484Y-69644323D01*
X160504471Y-69644330D01*
X160400392Y-69713874D01*
X160400388Y-69713877D01*
X159680965Y-70433302D01*
X159475306Y-70638961D01*
X159451983Y-70662284D01*
X159386787Y-70727479D01*
X159317244Y-70831557D01*
X159317237Y-70831570D01*
X159269337Y-70947212D01*
X159269334Y-70947224D01*
X159244914Y-71069990D01*
X159244914Y-71704905D01*
X159225229Y-71771944D01*
X159208595Y-71792586D01*
X158756604Y-72244576D01*
X158695281Y-72278061D01*
X158625589Y-72273077D01*
X158569656Y-72231205D01*
X158545239Y-72165741D01*
X158549147Y-72124808D01*
X158560000Y-72084305D01*
X158560000Y-71933695D01*
X158521019Y-71788216D01*
X158511624Y-71771944D01*
X158480759Y-71718484D01*
X158445714Y-71657784D01*
X158339216Y-71551286D01*
X158293873Y-71525107D01*
X158208787Y-71475982D01*
X158208788Y-71475982D01*
X158190986Y-71471212D01*
X158063305Y-71437000D01*
X157912695Y-71437000D01*
X157785014Y-71471212D01*
X157767212Y-71475982D01*
X157636787Y-71551284D01*
X157636781Y-71551288D01*
X157530288Y-71657781D01*
X157530284Y-71657787D01*
X157454982Y-71788212D01*
X157454981Y-71788216D01*
X157416000Y-71933695D01*
X157416000Y-72084305D01*
X157448303Y-72204861D01*
X157454982Y-72229787D01*
X157485551Y-72282733D01*
X157530286Y-72360216D01*
X157636784Y-72466714D01*
X157726076Y-72518267D01*
X157767212Y-72542017D01*
X157767213Y-72542017D01*
X157767216Y-72542019D01*
X157912695Y-72581000D01*
X157912697Y-72581000D01*
X158063301Y-72581000D01*
X158063305Y-72581000D01*
X158103804Y-72570148D01*
X158173650Y-72571811D01*
X158231513Y-72610973D01*
X158259018Y-72675201D01*
X158247432Y-72744103D01*
X158223576Y-72777604D01*
X156542000Y-74459181D01*
X156480677Y-74492666D01*
X156454319Y-74495500D01*
X148572195Y-74495500D01*
X148505156Y-74475815D01*
X148484514Y-74459181D01*
X147699711Y-73674377D01*
X147699707Y-73674374D01*
X147596459Y-73605385D01*
X147551654Y-73551772D01*
X147542947Y-73482447D01*
X147573102Y-73419420D01*
X147603347Y-73394897D01*
X147671216Y-73355714D01*
X147777714Y-73249216D01*
X147853019Y-73118784D01*
X147892000Y-72973305D01*
X147892000Y-72822695D01*
X147853019Y-72677216D01*
X147842501Y-72658999D01*
X147822188Y-72623815D01*
X147777714Y-72546784D01*
X147671216Y-72440286D01*
X147610883Y-72405452D01*
X147550148Y-72370387D01*
X147501932Y-72319820D01*
X147488710Y-72251213D01*
X147514678Y-72186348D01*
X147550148Y-72155613D01*
X147573412Y-72142180D01*
X147671216Y-72085714D01*
X147777714Y-71979216D01*
X147853019Y-71848784D01*
X147892000Y-71703305D01*
X147892000Y-71552695D01*
X147853019Y-71407216D01*
X147777714Y-71276784D01*
X147671216Y-71170286D01*
X147562847Y-71107719D01*
X147537447Y-71093054D01*
X147489232Y-71042486D01*
X147476010Y-70973879D01*
X147501978Y-70909015D01*
X147537446Y-70878281D01*
X147645816Y-70815714D01*
X147752314Y-70709216D01*
X147827619Y-70578784D01*
X147866600Y-70433305D01*
X147866600Y-70282695D01*
X147827619Y-70137216D01*
X147752314Y-70006784D01*
X147645816Y-69900286D01*
X147607064Y-69877912D01*
X147515387Y-69824982D01*
X147515388Y-69824982D01*
X147498199Y-69820376D01*
X147369905Y-69786000D01*
X147219295Y-69786000D01*
X147091000Y-69820376D01*
X147073812Y-69824982D01*
X146943387Y-69900284D01*
X146943381Y-69900288D01*
X146836888Y-70006781D01*
X146836884Y-70006787D01*
X146761582Y-70137212D01*
X146761581Y-70137216D01*
X146722600Y-70282695D01*
X146722600Y-70433305D01*
X146761581Y-70578784D01*
X146761582Y-70578787D01*
X146796324Y-70638961D01*
X146836886Y-70709216D01*
X146943384Y-70815714D01*
X147020635Y-70860314D01*
X147077151Y-70892945D01*
X147125367Y-70943512D01*
X147138589Y-71012119D01*
X147112621Y-71076984D01*
X147077152Y-71107719D01*
X146968784Y-71170286D01*
X146968781Y-71170288D01*
X146862288Y-71276781D01*
X146862284Y-71276787D01*
X146786982Y-71407212D01*
X146786981Y-71407216D01*
X146748000Y-71552695D01*
X146748000Y-71703305D01*
X146783055Y-71834131D01*
X146786982Y-71848787D01*
X146836004Y-71933695D01*
X146862286Y-71979216D01*
X146968784Y-72085714D01*
X147036483Y-72124800D01*
X147089852Y-72155613D01*
X147138067Y-72206181D01*
X147151289Y-72274788D01*
X147125321Y-72339652D01*
X147089852Y-72370387D01*
X146968784Y-72440286D01*
X146968781Y-72440288D01*
X146862288Y-72546781D01*
X146862284Y-72546787D01*
X146786982Y-72677212D01*
X146786981Y-72677216D01*
X146748000Y-72822695D01*
X146748000Y-72973305D01*
X146786981Y-73118784D01*
X146786982Y-73118787D01*
X146826139Y-73186608D01*
X146862286Y-73249216D01*
X146968784Y-73355714D01*
X147012614Y-73381019D01*
X147060829Y-73431586D01*
X147074051Y-73500194D01*
X147048083Y-73565058D01*
X146998074Y-73602964D01*
X146993582Y-73604824D01*
X146993571Y-73604830D01*
X146889492Y-73674374D01*
X146889488Y-73674377D01*
X146800977Y-73762888D01*
X146800974Y-73762892D01*
X146731430Y-73866971D01*
X146731423Y-73866984D01*
X146683523Y-73982626D01*
X146683520Y-73982638D01*
X146661359Y-74094049D01*
X146628974Y-74155960D01*
X146568259Y-74190534D01*
X146498489Y-74186795D01*
X146452061Y-74157539D01*
X144849108Y-72554586D01*
X143227376Y-70932853D01*
X143193891Y-70871530D01*
X143198875Y-70801838D01*
X143240747Y-70745905D01*
X143306211Y-70721488D01*
X143339247Y-70723554D01*
X143419407Y-70739499D01*
X143419408Y-70739500D01*
X143419409Y-70739500D01*
X143544592Y-70739500D01*
X143544593Y-70739499D01*
X143667369Y-70715078D01*
X143783022Y-70667173D01*
X143887108Y-70597625D01*
X144978914Y-69505819D01*
X145040237Y-69472334D01*
X145066595Y-69469500D01*
X156299905Y-69469500D01*
X156366944Y-69489185D01*
X156387586Y-69505819D01*
X157582888Y-70701122D01*
X157582892Y-70701125D01*
X157686971Y-70770669D01*
X157686984Y-70770676D01*
X157795719Y-70815715D01*
X157802631Y-70818578D01*
X157925404Y-70842999D01*
X157925408Y-70843000D01*
X157925409Y-70843000D01*
X158050592Y-70843000D01*
X158050593Y-70842999D01*
X158173369Y-70818578D01*
X158289021Y-70770673D01*
X158393108Y-70701125D01*
X158481625Y-70612608D01*
X158551173Y-70508521D01*
X158599078Y-70392869D01*
X158623500Y-70270091D01*
X158623500Y-70144909D01*
X158599078Y-70022131D01*
X158592720Y-70006781D01*
X158551176Y-69906484D01*
X158551169Y-69906471D01*
X158481625Y-69802392D01*
X158481622Y-69802388D01*
X157019611Y-68340377D01*
X157019607Y-68340374D01*
X156915528Y-68270830D01*
X156915515Y-68270823D01*
X156799873Y-68222923D01*
X156799861Y-68222920D01*
X156677095Y-68198500D01*
X156677091Y-68198500D01*
X144814591Y-68198500D01*
X144689409Y-68198500D01*
X144689404Y-68198500D01*
X144566638Y-68222920D01*
X144566626Y-68222923D01*
X144450984Y-68270823D01*
X144450971Y-68270830D01*
X144346892Y-68340374D01*
X144346888Y-68340377D01*
X143210578Y-69476688D01*
X143149255Y-69510173D01*
X143079563Y-69505189D01*
X143023630Y-69463317D01*
X143003122Y-69421100D01*
X143002500Y-69418778D01*
X143002500Y-69418775D01*
X142976501Y-69321746D01*
X142926276Y-69234753D01*
X142855247Y-69163724D01*
X142850916Y-69159393D01*
X142850905Y-69159383D01*
X138154604Y-64463081D01*
X138121119Y-64401758D01*
X138126103Y-64332066D01*
X138127725Y-64327945D01*
X138137436Y-64304502D01*
X138150218Y-64240238D01*
X138176500Y-64108118D01*
X138683499Y-64108118D01*
X138722562Y-64304496D01*
X138722564Y-64304502D01*
X138799189Y-64489491D01*
X138910434Y-64655983D01*
X139052016Y-64797565D01*
X139052019Y-64797567D01*
X139218507Y-64908810D01*
X139403498Y-64985436D01*
X139403502Y-64985436D01*
X139403503Y-64985437D01*
X139599881Y-65024500D01*
X139599884Y-65024500D01*
X139800118Y-65024500D01*
X139932238Y-64998218D01*
X139996502Y-64985436D01*
X140181493Y-64908810D01*
X140347981Y-64797567D01*
X140489567Y-64655981D01*
X140600810Y-64489493D01*
X140677436Y-64304502D01*
X140690218Y-64240238D01*
X140716500Y-64108118D01*
X141223499Y-64108118D01*
X141262562Y-64304496D01*
X141262564Y-64304502D01*
X141339189Y-64489491D01*
X141450434Y-64655983D01*
X141592016Y-64797565D01*
X141592019Y-64797567D01*
X141758507Y-64908810D01*
X141943498Y-64985436D01*
X141943502Y-64985436D01*
X141943503Y-64985437D01*
X142139881Y-65024500D01*
X142139884Y-65024500D01*
X142340118Y-65024500D01*
X142472238Y-64998218D01*
X142536502Y-64985436D01*
X142721493Y-64908810D01*
X142887981Y-64797567D01*
X143029567Y-64655981D01*
X143140810Y-64489493D01*
X143217436Y-64304502D01*
X143230218Y-64240238D01*
X143256500Y-64108118D01*
X152963499Y-64108118D01*
X153002562Y-64304496D01*
X153002564Y-64304502D01*
X153079189Y-64489491D01*
X153190434Y-64655983D01*
X153332016Y-64797565D01*
X153332019Y-64797567D01*
X153498507Y-64908810D01*
X153683498Y-64985436D01*
X153683502Y-64985436D01*
X153683503Y-64985437D01*
X153879881Y-65024500D01*
X153879884Y-65024500D01*
X154080118Y-65024500D01*
X154212238Y-64998218D01*
X154276502Y-64985436D01*
X154461493Y-64908810D01*
X154627981Y-64797567D01*
X154769567Y-64655981D01*
X154880810Y-64489493D01*
X154957436Y-64304502D01*
X154970218Y-64240238D01*
X154996500Y-64108118D01*
X161543499Y-64108118D01*
X161582562Y-64304496D01*
X161582564Y-64304502D01*
X161659189Y-64489491D01*
X161770434Y-64655983D01*
X161912016Y-64797565D01*
X161912019Y-64797567D01*
X162078507Y-64908810D01*
X162263498Y-64985436D01*
X162263502Y-64985436D01*
X162263503Y-64985437D01*
X162459881Y-65024500D01*
X162459884Y-65024500D01*
X162660118Y-65024500D01*
X162792238Y-64998218D01*
X162856502Y-64985436D01*
X163041493Y-64908810D01*
X163207981Y-64797567D01*
X163349567Y-64655981D01*
X163460810Y-64489493D01*
X163537436Y-64304502D01*
X163550218Y-64240238D01*
X163576500Y-64108118D01*
X163576500Y-63907881D01*
X163537437Y-63711503D01*
X163537436Y-63711502D01*
X163537436Y-63711498D01*
X163460810Y-63526507D01*
X163349567Y-63360019D01*
X163349565Y-63360016D01*
X163207983Y-63218434D01*
X163107307Y-63151165D01*
X163041493Y-63107190D01*
X162856502Y-63030564D01*
X162856496Y-63030562D01*
X162660118Y-62991500D01*
X162660116Y-62991500D01*
X162459884Y-62991500D01*
X162459882Y-62991500D01*
X162263503Y-63030562D01*
X162263497Y-63030564D01*
X162078508Y-63107189D01*
X161912016Y-63218434D01*
X161770434Y-63360016D01*
X161659189Y-63526508D01*
X161582564Y-63711497D01*
X161582562Y-63711503D01*
X161543500Y-63907881D01*
X161543500Y-63907884D01*
X161543500Y-64108116D01*
X161543500Y-64108118D01*
X161543499Y-64108118D01*
X154996500Y-64108118D01*
X154996500Y-63907881D01*
X154957437Y-63711503D01*
X154957436Y-63711502D01*
X154957436Y-63711498D01*
X154880810Y-63526507D01*
X154769567Y-63360019D01*
X154769565Y-63360016D01*
X154627983Y-63218434D01*
X154527307Y-63151165D01*
X154461493Y-63107190D01*
X154276502Y-63030564D01*
X154276496Y-63030562D01*
X154080118Y-62991500D01*
X154080116Y-62991500D01*
X153879884Y-62991500D01*
X153879882Y-62991500D01*
X153683503Y-63030562D01*
X153683497Y-63030564D01*
X153498508Y-63107189D01*
X153332016Y-63218434D01*
X153190434Y-63360016D01*
X153079189Y-63526508D01*
X153002564Y-63711497D01*
X153002562Y-63711503D01*
X152963500Y-63907881D01*
X152963500Y-63907884D01*
X152963500Y-64108116D01*
X152963500Y-64108118D01*
X152963499Y-64108118D01*
X143256500Y-64108118D01*
X143256500Y-63907881D01*
X143217437Y-63711503D01*
X143217436Y-63711502D01*
X143217436Y-63711498D01*
X143140810Y-63526507D01*
X143029567Y-63360019D01*
X143029565Y-63360016D01*
X142887983Y-63218434D01*
X142787307Y-63151165D01*
X142721493Y-63107190D01*
X142536502Y-63030564D01*
X142536496Y-63030562D01*
X142340118Y-62991500D01*
X142340116Y-62991500D01*
X142139884Y-62991500D01*
X142139882Y-62991500D01*
X141943503Y-63030562D01*
X141943497Y-63030564D01*
X141758508Y-63107189D01*
X141592016Y-63218434D01*
X141450434Y-63360016D01*
X141339189Y-63526508D01*
X141262564Y-63711497D01*
X141262562Y-63711503D01*
X141223500Y-63907881D01*
X141223500Y-63907884D01*
X141223500Y-64108116D01*
X141223500Y-64108118D01*
X141223499Y-64108118D01*
X140716500Y-64108118D01*
X140716500Y-63907881D01*
X140677437Y-63711503D01*
X140677436Y-63711502D01*
X140677436Y-63711498D01*
X140600810Y-63526507D01*
X140489567Y-63360019D01*
X140489565Y-63360016D01*
X140347983Y-63218434D01*
X140247307Y-63151165D01*
X140181493Y-63107190D01*
X139996502Y-63030564D01*
X139996496Y-63030562D01*
X139800118Y-62991500D01*
X139800116Y-62991500D01*
X139599884Y-62991500D01*
X139599882Y-62991500D01*
X139403503Y-63030562D01*
X139403497Y-63030564D01*
X139218508Y-63107189D01*
X139052016Y-63218434D01*
X138910434Y-63360016D01*
X138799189Y-63526508D01*
X138722564Y-63711497D01*
X138722562Y-63711503D01*
X138683500Y-63907881D01*
X138683500Y-63907884D01*
X138683500Y-64108116D01*
X138683500Y-64108118D01*
X138683499Y-64108118D01*
X138176500Y-64108118D01*
X138176500Y-63907881D01*
X138137437Y-63711503D01*
X138137436Y-63711502D01*
X138137436Y-63711498D01*
X138060810Y-63526507D01*
X137949567Y-63360019D01*
X137949565Y-63360016D01*
X137807983Y-63218434D01*
X137707307Y-63151165D01*
X137641493Y-63107190D01*
X137456502Y-63030564D01*
X137456496Y-63030562D01*
X137260118Y-62991500D01*
X137260116Y-62991500D01*
X137059884Y-62991500D01*
X137059882Y-62991500D01*
X136863503Y-63030562D01*
X136863497Y-63030564D01*
X136678508Y-63107189D01*
X136512016Y-63218434D01*
X136370434Y-63360016D01*
X136259189Y-63526508D01*
X136182564Y-63711497D01*
X136182562Y-63711503D01*
X136143500Y-63907881D01*
X136143500Y-63907884D01*
X136143500Y-64108116D01*
X136143500Y-64108118D01*
X136143499Y-64108118D01*
X135636500Y-64108118D01*
X135636500Y-63907881D01*
X135597437Y-63711503D01*
X135597436Y-63711502D01*
X135597436Y-63711498D01*
X135520810Y-63526507D01*
X135409567Y-63360019D01*
X135409565Y-63360016D01*
X135267983Y-63218434D01*
X135167307Y-63151165D01*
X135101493Y-63107190D01*
X134916502Y-63030564D01*
X134916496Y-63030562D01*
X134720118Y-62991500D01*
X134720116Y-62991500D01*
X134519884Y-62991500D01*
X134519882Y-62991500D01*
X134323503Y-63030562D01*
X134323497Y-63030564D01*
X134138508Y-63107189D01*
X133972016Y-63218434D01*
X133830434Y-63360016D01*
X133719189Y-63526508D01*
X133642564Y-63711497D01*
X133642562Y-63711503D01*
X133603500Y-63907881D01*
X133603500Y-63907884D01*
X133603500Y-64108116D01*
X133603500Y-64108118D01*
X133603499Y-64108118D01*
X126196842Y-64108118D01*
X126207299Y-64074559D01*
X126212601Y-64060578D01*
X126321153Y-63819383D01*
X126322399Y-63816617D01*
X126329352Y-63803366D01*
X126467757Y-63574417D01*
X126476244Y-63562121D01*
X126641242Y-63351517D01*
X126651157Y-63340326D01*
X126840326Y-63151157D01*
X126851517Y-63141242D01*
X127062121Y-62976244D01*
X127074417Y-62967757D01*
X127303366Y-62829352D01*
X127316611Y-62822401D01*
X127560578Y-62712601D01*
X127574559Y-62707299D01*
X127829959Y-62627713D01*
X127844488Y-62624131D01*
X128107630Y-62575909D01*
X128122488Y-62574105D01*
X128393264Y-62557726D01*
X128400751Y-62557500D01*
X128436882Y-62557500D01*
X167727118Y-62557500D01*
X167763249Y-62557500D01*
X167770736Y-62557726D01*
G37*
%TD.AperFunction*%
%TD*%
M02*
