M48
; DRILL file {KiCad 9.0.8-9.0.8~ubuntu22.04.1} date 2026-03-23T14:29:14-0500
; FORMAT={-:-/ absolute / inch / decimal}
; #@! TF.CreationDate,2026-03-23T14:29:14-05:00
; #@! TF.GenerationSoftware,Kicad,Pcbnew,9.0.8-9.0.8~ubuntu22.04.1
; #@! TF.FileFunction,Plated,1,4,PTH
FMAT,2
INCH
; #@! TA.AperFunction,Plated,PTH,ViaDrill
T1C0.0118
; #@! TA.AperFunction,Plated,PTH,ViaDrill
T2C0.0120
; #@! TA.AperFunction,Plated,PTH,ComponentDrill
T3C0.0354
; #@! TA.AperFunction,Plated,PTH,ComponentDrill
T4C0.1160
%
G90
G05
T1
X5.62Y-3.12
X5.62Y-3.22
X5.62Y-3.32
X5.62Y-3.42
X5.62Y-3.52
X5.72Y-3.12
X5.72Y-3.22
X5.72Y-3.32
X5.72Y-3.42
X5.72Y-3.52
X5.82Y-3.22
X5.82Y-3.32
X5.82Y-3.42
X5.83Y-2.53
X5.83Y-2.65
X5.92Y-3.12
X5.92Y-3.22
X5.92Y-3.52
X6.02Y-3.12
X6.02Y-3.22
X6.02Y-3.52
X6.13Y-2.758
X6.13Y-2.852
X6.323Y-2.688
X6.477Y-2.687
T2
X5.025Y-3.84
X5.025Y-3.97
X5.0383Y-2.9
X5.04Y-3.18
X5.04Y-3.2519
X5.06Y-3.375
X5.06Y-3.475
X5.06Y-3.575
X5.07Y-2.71
X5.086Y-3.74
X5.09Y-3.905
X5.155Y-3.84
X5.155Y-3.97
X5.16Y-3.375
X5.16Y-3.475
X5.16Y-3.575
X5.18Y-3.09
X5.18Y-3.14
X5.18Y-3.19
X5.2Y-2.58
X5.2Y-2.71
X5.2017Y-2.9
X5.26Y-3.375
X5.26Y-3.475
X5.26Y-3.575
X5.26Y-3.74
X5.2873Y-3.165
X5.34Y-4.1217
X5.367Y-3.015
X5.3945Y-3.09
X5.3945Y-3.14
X5.3945Y-3.24
X5.4062Y-2.9574
X5.4647Y-3.38
X5.465Y-3.58
X5.4919Y-2.76
X5.5Y-3.0783
X5.5Y-3.16
X5.525Y-3.8927
X5.58Y-2.76
X5.585Y-3.74
X5.6Y-4.0
X5.625Y-4.1072
X5.63Y-3.62
X5.645Y-3.05
X5.6489Y-2.76
X5.6495Y-2.9
X5.66Y-2.99
X5.675Y-3.895
X5.675Y-4.1072
X5.7172Y-2.9678
X5.72Y-3.015
X5.738Y-3.66
X5.76Y-3.74
X5.76Y-3.8208
X5.76Y-4.0441
X5.76Y-4.1159
X5.799Y-2.77
X5.799Y-2.92
X5.8Y-2.82
X5.8Y-2.87
X5.92Y-3.605
X5.92Y-3.905
X5.92Y-4.005
X5.92Y-4.105
X6.02Y-3.905
X6.02Y-4.005
X6.02Y-4.105
X6.115Y-3.43
X6.12Y-3.7
X6.12Y-3.905
X6.12Y-4.005
X6.12Y-4.105
X6.16Y-3.5
X6.1641Y-3.42
X6.18Y-3.3
X6.2Y-2.98
X6.205Y-3.76
X6.205Y-3.89
X6.205Y-4.02
X6.205Y-4.15
X6.22Y-2.7641
X6.22Y-2.835
X6.2359Y-3.42
X6.2408Y-3.5
X6.27Y-3.695
X6.27Y-3.825
X6.27Y-3.95
X6.27Y-4.085
X6.335Y-3.76
X6.335Y-3.89
X6.335Y-4.02
X6.335Y-4.15
X6.34Y-2.7641
X6.34Y-2.8359
X6.38Y-3.3
X6.38Y-3.4
X6.4Y-2.975
X6.4Y-3.075
X6.4Y-3.175
X6.4Y-3.95
X6.4Y-4.085
X6.4166Y-3.64
X6.42Y-3.86
X6.465Y-4.02
X6.465Y-4.15
X6.47Y-2.8
X6.4872Y-3.375
X6.5Y-2.975
X6.5Y-3.075
X6.5Y-3.175
X6.5945Y-3.3
X6.5945Y-3.35
X6.6Y-2.8
X6.6Y-2.975
X6.6Y-3.075
X6.6Y-3.175
T3
X5.3Y-2.52
X5.4Y-2.52
X5.5Y-2.52
X5.6Y-2.52
X5.7Y-2.52
X5.9622Y-2.52
X6.0622Y-2.52
X6.3Y-2.52
X6.4Y-2.52
T4
X5.06Y-2.56
X5.06Y-4.1
X6.6Y-2.56
X6.6Y-4.1
M30
