%TF.GenerationSoftware,KiCad,Pcbnew,9.0.8-9.0.8~ubuntu22.04.1*%
%TF.CreationDate,2026-03-23T14:29:19-05:00*%
%TF.ProjectId,AutofluorescenceBoard,4175746f-666c-4756-9f72-657363656e63,rev?*%
%TF.SameCoordinates,Original*%
%TF.FileFunction,Legend,Top*%
%TF.FilePolarity,Positive*%
%FSLAX46Y46*%
G04 Gerber Fmt 4.6, Leading zero omitted, Abs format (unit mm)*
G04 Created by KiCad (PCBNEW 9.0.8-9.0.8~ubuntu22.04.1) date 2026-03-23 14:29:19*
%MOMM*%
%LPD*%
G01*
G04 APERTURE LIST*
%ADD10C,0.150000*%
%ADD11C,0.120000*%
%ADD12C,0.127000*%
%ADD13C,0.152400*%
%ADD14C,0.198661*%
G04 APERTURE END LIST*
D10*
X150822207Y-65553390D02*
X150746017Y-65515295D01*
X150746017Y-65515295D02*
X150631731Y-65515295D01*
X150631731Y-65515295D02*
X150517445Y-65553390D01*
X150517445Y-65553390D02*
X150441255Y-65629580D01*
X150441255Y-65629580D02*
X150403160Y-65705771D01*
X150403160Y-65705771D02*
X150365064Y-65858152D01*
X150365064Y-65858152D02*
X150365064Y-65972438D01*
X150365064Y-65972438D02*
X150403160Y-66124819D01*
X150403160Y-66124819D02*
X150441255Y-66201009D01*
X150441255Y-66201009D02*
X150517445Y-66277200D01*
X150517445Y-66277200D02*
X150631731Y-66315295D01*
X150631731Y-66315295D02*
X150707922Y-66315295D01*
X150707922Y-66315295D02*
X150822207Y-66277200D01*
X150822207Y-66277200D02*
X150860303Y-66239104D01*
X150860303Y-66239104D02*
X150860303Y-65972438D01*
X150860303Y-65972438D02*
X150707922Y-65972438D01*
X151203160Y-66315295D02*
X151203160Y-65515295D01*
X151203160Y-65515295D02*
X151660303Y-66315295D01*
X151660303Y-66315295D02*
X151660303Y-65515295D01*
X152041255Y-66315295D02*
X152041255Y-65515295D01*
X152041255Y-65515295D02*
X152231731Y-65515295D01*
X152231731Y-65515295D02*
X152346017Y-65553390D01*
X152346017Y-65553390D02*
X152422207Y-65629580D01*
X152422207Y-65629580D02*
X152460302Y-65705771D01*
X152460302Y-65705771D02*
X152498398Y-65858152D01*
X152498398Y-65858152D02*
X152498398Y-65972438D01*
X152498398Y-65972438D02*
X152460302Y-66124819D01*
X152460302Y-66124819D02*
X152422207Y-66201009D01*
X152422207Y-66201009D02*
X152346017Y-66277200D01*
X152346017Y-66277200D02*
X152231731Y-66315295D01*
X152231731Y-66315295D02*
X152041255Y-66315295D01*
X139062017Y-65781961D02*
X139062017Y-66315295D01*
X138871541Y-65477200D02*
X138681064Y-66048628D01*
X138681064Y-66048628D02*
X139176303Y-66048628D01*
X139633446Y-65515295D02*
X139709636Y-65515295D01*
X139709636Y-65515295D02*
X139785827Y-65553390D01*
X139785827Y-65553390D02*
X139823922Y-65591485D01*
X139823922Y-65591485D02*
X139862017Y-65667676D01*
X139862017Y-65667676D02*
X139900112Y-65820057D01*
X139900112Y-65820057D02*
X139900112Y-66010533D01*
X139900112Y-66010533D02*
X139862017Y-66162914D01*
X139862017Y-66162914D02*
X139823922Y-66239104D01*
X139823922Y-66239104D02*
X139785827Y-66277200D01*
X139785827Y-66277200D02*
X139709636Y-66315295D01*
X139709636Y-66315295D02*
X139633446Y-66315295D01*
X139633446Y-66315295D02*
X139557255Y-66277200D01*
X139557255Y-66277200D02*
X139519160Y-66239104D01*
X139519160Y-66239104D02*
X139481065Y-66162914D01*
X139481065Y-66162914D02*
X139442969Y-66010533D01*
X139442969Y-66010533D02*
X139442969Y-65820057D01*
X139442969Y-65820057D02*
X139481065Y-65667676D01*
X139481065Y-65667676D02*
X139519160Y-65591485D01*
X139519160Y-65591485D02*
X139557255Y-65553390D01*
X139557255Y-65553390D02*
X139633446Y-65515295D01*
X140623922Y-65515295D02*
X140242970Y-65515295D01*
X140242970Y-65515295D02*
X140204874Y-65896247D01*
X140204874Y-65896247D02*
X140242970Y-65858152D01*
X140242970Y-65858152D02*
X140319160Y-65820057D01*
X140319160Y-65820057D02*
X140509636Y-65820057D01*
X140509636Y-65820057D02*
X140585827Y-65858152D01*
X140585827Y-65858152D02*
X140623922Y-65896247D01*
X140623922Y-65896247D02*
X140662017Y-65972438D01*
X140662017Y-65972438D02*
X140662017Y-66162914D01*
X140662017Y-66162914D02*
X140623922Y-66239104D01*
X140623922Y-66239104D02*
X140585827Y-66277200D01*
X140585827Y-66277200D02*
X140509636Y-66315295D01*
X140509636Y-66315295D02*
X140319160Y-66315295D01*
X140319160Y-66315295D02*
X140242970Y-66277200D01*
X140242970Y-66277200D02*
X140204874Y-66239104D01*
X153743207Y-66315295D02*
X153286064Y-66315295D01*
X153514636Y-66315295D02*
X153514636Y-65515295D01*
X153514636Y-65515295D02*
X153438445Y-65629580D01*
X153438445Y-65629580D02*
X153362255Y-65705771D01*
X153362255Y-65705771D02*
X153286064Y-65743866D01*
X154047969Y-65591485D02*
X154086065Y-65553390D01*
X154086065Y-65553390D02*
X154162255Y-65515295D01*
X154162255Y-65515295D02*
X154352731Y-65515295D01*
X154352731Y-65515295D02*
X154428922Y-65553390D01*
X154428922Y-65553390D02*
X154467017Y-65591485D01*
X154467017Y-65591485D02*
X154505112Y-65667676D01*
X154505112Y-65667676D02*
X154505112Y-65743866D01*
X154505112Y-65743866D02*
X154467017Y-65858152D01*
X154467017Y-65858152D02*
X154009874Y-66315295D01*
X154009874Y-66315295D02*
X154505112Y-66315295D01*
X154733684Y-65515295D02*
X155000351Y-66315295D01*
X155000351Y-66315295D02*
X155267017Y-65515295D01*
X159458207Y-65553390D02*
X159382017Y-65515295D01*
X159382017Y-65515295D02*
X159267731Y-65515295D01*
X159267731Y-65515295D02*
X159153445Y-65553390D01*
X159153445Y-65553390D02*
X159077255Y-65629580D01*
X159077255Y-65629580D02*
X159039160Y-65705771D01*
X159039160Y-65705771D02*
X159001064Y-65858152D01*
X159001064Y-65858152D02*
X159001064Y-65972438D01*
X159001064Y-65972438D02*
X159039160Y-66124819D01*
X159039160Y-66124819D02*
X159077255Y-66201009D01*
X159077255Y-66201009D02*
X159153445Y-66277200D01*
X159153445Y-66277200D02*
X159267731Y-66315295D01*
X159267731Y-66315295D02*
X159343922Y-66315295D01*
X159343922Y-66315295D02*
X159458207Y-66277200D01*
X159458207Y-66277200D02*
X159496303Y-66239104D01*
X159496303Y-66239104D02*
X159496303Y-65972438D01*
X159496303Y-65972438D02*
X159343922Y-65972438D01*
X159839160Y-66315295D02*
X159839160Y-65515295D01*
X159839160Y-65515295D02*
X160296303Y-66315295D01*
X160296303Y-66315295D02*
X160296303Y-65515295D01*
X160677255Y-66315295D02*
X160677255Y-65515295D01*
X160677255Y-65515295D02*
X160867731Y-65515295D01*
X160867731Y-65515295D02*
X160982017Y-65553390D01*
X160982017Y-65553390D02*
X161058207Y-65629580D01*
X161058207Y-65629580D02*
X161096302Y-65705771D01*
X161096302Y-65705771D02*
X161134398Y-65858152D01*
X161134398Y-65858152D02*
X161134398Y-65972438D01*
X161134398Y-65972438D02*
X161096302Y-66124819D01*
X161096302Y-66124819D02*
X161058207Y-66201009D01*
X161058207Y-66201009D02*
X160982017Y-66277200D01*
X160982017Y-66277200D02*
X160867731Y-66315295D01*
X160867731Y-66315295D02*
X160677255Y-66315295D01*
X133435969Y-65515295D02*
X133626445Y-66315295D01*
X133626445Y-66315295D02*
X133778826Y-65743866D01*
X133778826Y-65743866D02*
X133931207Y-66315295D01*
X133931207Y-66315295D02*
X134121684Y-65515295D01*
X134426446Y-66315295D02*
X134426446Y-65515295D01*
X134426446Y-65896247D02*
X134883589Y-65896247D01*
X134883589Y-66315295D02*
X134883589Y-65515295D01*
X135150255Y-65515295D02*
X135607398Y-65515295D01*
X135378826Y-66315295D02*
X135378826Y-65515295D01*
X162125207Y-66315295D02*
X161668064Y-66315295D01*
X161896636Y-66315295D02*
X161896636Y-65515295D01*
X161896636Y-65515295D02*
X161820445Y-65629580D01*
X161820445Y-65629580D02*
X161744255Y-65705771D01*
X161744255Y-65705771D02*
X161668064Y-65743866D01*
X162429969Y-65591485D02*
X162468065Y-65553390D01*
X162468065Y-65553390D02*
X162544255Y-65515295D01*
X162544255Y-65515295D02*
X162734731Y-65515295D01*
X162734731Y-65515295D02*
X162810922Y-65553390D01*
X162810922Y-65553390D02*
X162849017Y-65591485D01*
X162849017Y-65591485D02*
X162887112Y-65667676D01*
X162887112Y-65667676D02*
X162887112Y-65743866D01*
X162887112Y-65743866D02*
X162849017Y-65858152D01*
X162849017Y-65858152D02*
X162391874Y-66315295D01*
X162391874Y-66315295D02*
X162887112Y-66315295D01*
X163115684Y-65515295D02*
X163382351Y-66315295D01*
X163382351Y-66315295D02*
X163649017Y-65515295D01*
X141767112Y-65515295D02*
X141386160Y-65515295D01*
X141386160Y-65515295D02*
X141348064Y-65896247D01*
X141348064Y-65896247D02*
X141386160Y-65858152D01*
X141386160Y-65858152D02*
X141462350Y-65820057D01*
X141462350Y-65820057D02*
X141652826Y-65820057D01*
X141652826Y-65820057D02*
X141729017Y-65858152D01*
X141729017Y-65858152D02*
X141767112Y-65896247D01*
X141767112Y-65896247D02*
X141805207Y-65972438D01*
X141805207Y-65972438D02*
X141805207Y-66162914D01*
X141805207Y-66162914D02*
X141767112Y-66239104D01*
X141767112Y-66239104D02*
X141729017Y-66277200D01*
X141729017Y-66277200D02*
X141652826Y-66315295D01*
X141652826Y-66315295D02*
X141462350Y-66315295D01*
X141462350Y-66315295D02*
X141386160Y-66277200D01*
X141386160Y-66277200D02*
X141348064Y-66239104D01*
X142300446Y-65515295D02*
X142376636Y-65515295D01*
X142376636Y-65515295D02*
X142452827Y-65553390D01*
X142452827Y-65553390D02*
X142490922Y-65591485D01*
X142490922Y-65591485D02*
X142529017Y-65667676D01*
X142529017Y-65667676D02*
X142567112Y-65820057D01*
X142567112Y-65820057D02*
X142567112Y-66010533D01*
X142567112Y-66010533D02*
X142529017Y-66162914D01*
X142529017Y-66162914D02*
X142490922Y-66239104D01*
X142490922Y-66239104D02*
X142452827Y-66277200D01*
X142452827Y-66277200D02*
X142376636Y-66315295D01*
X142376636Y-66315295D02*
X142300446Y-66315295D01*
X142300446Y-66315295D02*
X142224255Y-66277200D01*
X142224255Y-66277200D02*
X142186160Y-66239104D01*
X142186160Y-66239104D02*
X142148065Y-66162914D01*
X142148065Y-66162914D02*
X142109969Y-66010533D01*
X142109969Y-66010533D02*
X142109969Y-65820057D01*
X142109969Y-65820057D02*
X142148065Y-65667676D01*
X142148065Y-65667676D02*
X142186160Y-65591485D01*
X142186160Y-65591485D02*
X142224255Y-65553390D01*
X142224255Y-65553390D02*
X142300446Y-65515295D01*
X143062351Y-65515295D02*
X143138541Y-65515295D01*
X143138541Y-65515295D02*
X143214732Y-65553390D01*
X143214732Y-65553390D02*
X143252827Y-65591485D01*
X143252827Y-65591485D02*
X143290922Y-65667676D01*
X143290922Y-65667676D02*
X143329017Y-65820057D01*
X143329017Y-65820057D02*
X143329017Y-66010533D01*
X143329017Y-66010533D02*
X143290922Y-66162914D01*
X143290922Y-66162914D02*
X143252827Y-66239104D01*
X143252827Y-66239104D02*
X143214732Y-66277200D01*
X143214732Y-66277200D02*
X143138541Y-66315295D01*
X143138541Y-66315295D02*
X143062351Y-66315295D01*
X143062351Y-66315295D02*
X142986160Y-66277200D01*
X142986160Y-66277200D02*
X142948065Y-66239104D01*
X142948065Y-66239104D02*
X142909970Y-66162914D01*
X142909970Y-66162914D02*
X142871874Y-66010533D01*
X142871874Y-66010533D02*
X142871874Y-65820057D01*
X142871874Y-65820057D02*
X142909970Y-65667676D01*
X142909970Y-65667676D02*
X142948065Y-65591485D01*
X142948065Y-65591485D02*
X142986160Y-65553390D01*
X142986160Y-65553390D02*
X143062351Y-65515295D01*
X136229969Y-65515295D02*
X136725207Y-65515295D01*
X136725207Y-65515295D02*
X136458541Y-65820057D01*
X136458541Y-65820057D02*
X136572826Y-65820057D01*
X136572826Y-65820057D02*
X136649017Y-65858152D01*
X136649017Y-65858152D02*
X136687112Y-65896247D01*
X136687112Y-65896247D02*
X136725207Y-65972438D01*
X136725207Y-65972438D02*
X136725207Y-66162914D01*
X136725207Y-66162914D02*
X136687112Y-66239104D01*
X136687112Y-66239104D02*
X136649017Y-66277200D01*
X136649017Y-66277200D02*
X136572826Y-66315295D01*
X136572826Y-66315295D02*
X136344255Y-66315295D01*
X136344255Y-66315295D02*
X136268064Y-66277200D01*
X136268064Y-66277200D02*
X136229969Y-66239104D01*
X137410922Y-65515295D02*
X137258541Y-65515295D01*
X137258541Y-65515295D02*
X137182350Y-65553390D01*
X137182350Y-65553390D02*
X137144255Y-65591485D01*
X137144255Y-65591485D02*
X137068065Y-65705771D01*
X137068065Y-65705771D02*
X137029969Y-65858152D01*
X137029969Y-65858152D02*
X137029969Y-66162914D01*
X137029969Y-66162914D02*
X137068065Y-66239104D01*
X137068065Y-66239104D02*
X137106160Y-66277200D01*
X137106160Y-66277200D02*
X137182350Y-66315295D01*
X137182350Y-66315295D02*
X137334731Y-66315295D01*
X137334731Y-66315295D02*
X137410922Y-66277200D01*
X137410922Y-66277200D02*
X137449017Y-66239104D01*
X137449017Y-66239104D02*
X137487112Y-66162914D01*
X137487112Y-66162914D02*
X137487112Y-65972438D01*
X137487112Y-65972438D02*
X137449017Y-65896247D01*
X137449017Y-65896247D02*
X137410922Y-65858152D01*
X137410922Y-65858152D02*
X137334731Y-65820057D01*
X137334731Y-65820057D02*
X137182350Y-65820057D01*
X137182350Y-65820057D02*
X137106160Y-65858152D01*
X137106160Y-65858152D02*
X137068065Y-65896247D01*
X137068065Y-65896247D02*
X137029969Y-65972438D01*
X138210922Y-65515295D02*
X137829970Y-65515295D01*
X137829970Y-65515295D02*
X137791874Y-65896247D01*
X137791874Y-65896247D02*
X137829970Y-65858152D01*
X137829970Y-65858152D02*
X137906160Y-65820057D01*
X137906160Y-65820057D02*
X138096636Y-65820057D01*
X138096636Y-65820057D02*
X138172827Y-65858152D01*
X138172827Y-65858152D02*
X138210922Y-65896247D01*
X138210922Y-65896247D02*
X138249017Y-65972438D01*
X138249017Y-65972438D02*
X138249017Y-66162914D01*
X138249017Y-66162914D02*
X138210922Y-66239104D01*
X138210922Y-66239104D02*
X138172827Y-66277200D01*
X138172827Y-66277200D02*
X138096636Y-66315295D01*
X138096636Y-66315295D02*
X137906160Y-66315295D01*
X137906160Y-66315295D02*
X137829970Y-66277200D01*
X137829970Y-66277200D02*
X137791874Y-66239104D01*
X144218207Y-65553390D02*
X144142017Y-65515295D01*
X144142017Y-65515295D02*
X144027731Y-65515295D01*
X144027731Y-65515295D02*
X143913445Y-65553390D01*
X143913445Y-65553390D02*
X143837255Y-65629580D01*
X143837255Y-65629580D02*
X143799160Y-65705771D01*
X143799160Y-65705771D02*
X143761064Y-65858152D01*
X143761064Y-65858152D02*
X143761064Y-65972438D01*
X143761064Y-65972438D02*
X143799160Y-66124819D01*
X143799160Y-66124819D02*
X143837255Y-66201009D01*
X143837255Y-66201009D02*
X143913445Y-66277200D01*
X143913445Y-66277200D02*
X144027731Y-66315295D01*
X144027731Y-66315295D02*
X144103922Y-66315295D01*
X144103922Y-66315295D02*
X144218207Y-66277200D01*
X144218207Y-66277200D02*
X144256303Y-66239104D01*
X144256303Y-66239104D02*
X144256303Y-65972438D01*
X144256303Y-65972438D02*
X144103922Y-65972438D01*
X144599160Y-66315295D02*
X144599160Y-65515295D01*
X144599160Y-65515295D02*
X145056303Y-66315295D01*
X145056303Y-66315295D02*
X145056303Y-65515295D01*
X145437255Y-66315295D02*
X145437255Y-65515295D01*
X145437255Y-65515295D02*
X145627731Y-65515295D01*
X145627731Y-65515295D02*
X145742017Y-65553390D01*
X145742017Y-65553390D02*
X145818207Y-65629580D01*
X145818207Y-65629580D02*
X145856302Y-65705771D01*
X145856302Y-65705771D02*
X145894398Y-65858152D01*
X145894398Y-65858152D02*
X145894398Y-65972438D01*
X145894398Y-65972438D02*
X145856302Y-66124819D01*
X145856302Y-66124819D02*
X145818207Y-66201009D01*
X145818207Y-66201009D02*
X145742017Y-66277200D01*
X145742017Y-66277200D02*
X145627731Y-66315295D01*
X145627731Y-66315295D02*
X145437255Y-66315295D01*
X159853333Y-87322819D02*
X159520000Y-86846628D01*
X159281905Y-87322819D02*
X159281905Y-86322819D01*
X159281905Y-86322819D02*
X159662857Y-86322819D01*
X159662857Y-86322819D02*
X159758095Y-86370438D01*
X159758095Y-86370438D02*
X159805714Y-86418057D01*
X159805714Y-86418057D02*
X159853333Y-86513295D01*
X159853333Y-86513295D02*
X159853333Y-86656152D01*
X159853333Y-86656152D02*
X159805714Y-86751390D01*
X159805714Y-86751390D02*
X159758095Y-86799009D01*
X159758095Y-86799009D02*
X159662857Y-86846628D01*
X159662857Y-86846628D02*
X159281905Y-86846628D01*
X160710476Y-86656152D02*
X160710476Y-87322819D01*
X160472381Y-86275200D02*
X160234286Y-86989485D01*
X160234286Y-86989485D02*
X160853333Y-86989485D01*
X152741333Y-94942819D02*
X152408000Y-94466628D01*
X152169905Y-94942819D02*
X152169905Y-93942819D01*
X152169905Y-93942819D02*
X152550857Y-93942819D01*
X152550857Y-93942819D02*
X152646095Y-93990438D01*
X152646095Y-93990438D02*
X152693714Y-94038057D01*
X152693714Y-94038057D02*
X152741333Y-94133295D01*
X152741333Y-94133295D02*
X152741333Y-94276152D01*
X152741333Y-94276152D02*
X152693714Y-94371390D01*
X152693714Y-94371390D02*
X152646095Y-94419009D01*
X152646095Y-94419009D02*
X152550857Y-94466628D01*
X152550857Y-94466628D02*
X152169905Y-94466628D01*
X153074667Y-93942819D02*
X153693714Y-93942819D01*
X153693714Y-93942819D02*
X153360381Y-94323771D01*
X153360381Y-94323771D02*
X153503238Y-94323771D01*
X153503238Y-94323771D02*
X153598476Y-94371390D01*
X153598476Y-94371390D02*
X153646095Y-94419009D01*
X153646095Y-94419009D02*
X153693714Y-94514247D01*
X153693714Y-94514247D02*
X153693714Y-94752342D01*
X153693714Y-94752342D02*
X153646095Y-94847580D01*
X153646095Y-94847580D02*
X153598476Y-94895200D01*
X153598476Y-94895200D02*
X153503238Y-94942819D01*
X153503238Y-94942819D02*
X153217524Y-94942819D01*
X153217524Y-94942819D02*
X153122286Y-94895200D01*
X153122286Y-94895200D02*
X153074667Y-94847580D01*
X162528333Y-100054580D02*
X162480714Y-100102200D01*
X162480714Y-100102200D02*
X162337857Y-100149819D01*
X162337857Y-100149819D02*
X162242619Y-100149819D01*
X162242619Y-100149819D02*
X162099762Y-100102200D01*
X162099762Y-100102200D02*
X162004524Y-100006961D01*
X162004524Y-100006961D02*
X161956905Y-99911723D01*
X161956905Y-99911723D02*
X161909286Y-99721247D01*
X161909286Y-99721247D02*
X161909286Y-99578390D01*
X161909286Y-99578390D02*
X161956905Y-99387914D01*
X161956905Y-99387914D02*
X162004524Y-99292676D01*
X162004524Y-99292676D02*
X162099762Y-99197438D01*
X162099762Y-99197438D02*
X162242619Y-99149819D01*
X162242619Y-99149819D02*
X162337857Y-99149819D01*
X162337857Y-99149819D02*
X162480714Y-99197438D01*
X162480714Y-99197438D02*
X162528333Y-99245057D01*
X163528333Y-100149819D02*
X163195000Y-99673628D01*
X162956905Y-100149819D02*
X162956905Y-99149819D01*
X162956905Y-99149819D02*
X163337857Y-99149819D01*
X163337857Y-99149819D02*
X163433095Y-99197438D01*
X163433095Y-99197438D02*
X163480714Y-99245057D01*
X163480714Y-99245057D02*
X163528333Y-99340295D01*
X163528333Y-99340295D02*
X163528333Y-99483152D01*
X163528333Y-99483152D02*
X163480714Y-99578390D01*
X163480714Y-99578390D02*
X163433095Y-99626009D01*
X163433095Y-99626009D02*
X163337857Y-99673628D01*
X163337857Y-99673628D02*
X162956905Y-99673628D01*
X164480714Y-100149819D02*
X163909286Y-100149819D01*
X164195000Y-100149819D02*
X164195000Y-99149819D01*
X164195000Y-99149819D02*
X164099762Y-99292676D01*
X164099762Y-99292676D02*
X164004524Y-99387914D01*
X164004524Y-99387914D02*
X163909286Y-99435533D01*
X144105333Y-96244580D02*
X144057714Y-96292200D01*
X144057714Y-96292200D02*
X143914857Y-96339819D01*
X143914857Y-96339819D02*
X143819619Y-96339819D01*
X143819619Y-96339819D02*
X143676762Y-96292200D01*
X143676762Y-96292200D02*
X143581524Y-96196961D01*
X143581524Y-96196961D02*
X143533905Y-96101723D01*
X143533905Y-96101723D02*
X143486286Y-95911247D01*
X143486286Y-95911247D02*
X143486286Y-95768390D01*
X143486286Y-95768390D02*
X143533905Y-95577914D01*
X143533905Y-95577914D02*
X143581524Y-95482676D01*
X143581524Y-95482676D02*
X143676762Y-95387438D01*
X143676762Y-95387438D02*
X143819619Y-95339819D01*
X143819619Y-95339819D02*
X143914857Y-95339819D01*
X143914857Y-95339819D02*
X144057714Y-95387438D01*
X144057714Y-95387438D02*
X144105333Y-95435057D01*
X144438667Y-95339819D02*
X145057714Y-95339819D01*
X145057714Y-95339819D02*
X144724381Y-95720771D01*
X144724381Y-95720771D02*
X144867238Y-95720771D01*
X144867238Y-95720771D02*
X144962476Y-95768390D01*
X144962476Y-95768390D02*
X145010095Y-95816009D01*
X145010095Y-95816009D02*
X145057714Y-95911247D01*
X145057714Y-95911247D02*
X145057714Y-96149342D01*
X145057714Y-96149342D02*
X145010095Y-96244580D01*
X145010095Y-96244580D02*
X144962476Y-96292200D01*
X144962476Y-96292200D02*
X144867238Y-96339819D01*
X144867238Y-96339819D02*
X144581524Y-96339819D01*
X144581524Y-96339819D02*
X144486286Y-96292200D01*
X144486286Y-96292200D02*
X144438667Y-96244580D01*
X134921666Y-75115009D02*
X134588333Y-75115009D01*
X134588333Y-75638819D02*
X134588333Y-74638819D01*
X134588333Y-74638819D02*
X135064523Y-74638819D01*
X135397857Y-74734057D02*
X135445476Y-74686438D01*
X135445476Y-74686438D02*
X135540714Y-74638819D01*
X135540714Y-74638819D02*
X135778809Y-74638819D01*
X135778809Y-74638819D02*
X135874047Y-74686438D01*
X135874047Y-74686438D02*
X135921666Y-74734057D01*
X135921666Y-74734057D02*
X135969285Y-74829295D01*
X135969285Y-74829295D02*
X135969285Y-74924533D01*
X135969285Y-74924533D02*
X135921666Y-75067390D01*
X135921666Y-75067390D02*
X135350238Y-75638819D01*
X135350238Y-75638819D02*
X135969285Y-75638819D01*
X146137333Y-101673819D02*
X145804000Y-101197628D01*
X145565905Y-101673819D02*
X145565905Y-100673819D01*
X145565905Y-100673819D02*
X145946857Y-100673819D01*
X145946857Y-100673819D02*
X146042095Y-100721438D01*
X146042095Y-100721438D02*
X146089714Y-100769057D01*
X146089714Y-100769057D02*
X146137333Y-100864295D01*
X146137333Y-100864295D02*
X146137333Y-101007152D01*
X146137333Y-101007152D02*
X146089714Y-101102390D01*
X146089714Y-101102390D02*
X146042095Y-101150009D01*
X146042095Y-101150009D02*
X145946857Y-101197628D01*
X145946857Y-101197628D02*
X145565905Y-101197628D01*
X146994476Y-100673819D02*
X146804000Y-100673819D01*
X146804000Y-100673819D02*
X146708762Y-100721438D01*
X146708762Y-100721438D02*
X146661143Y-100769057D01*
X146661143Y-100769057D02*
X146565905Y-100911914D01*
X146565905Y-100911914D02*
X146518286Y-101102390D01*
X146518286Y-101102390D02*
X146518286Y-101483342D01*
X146518286Y-101483342D02*
X146565905Y-101578580D01*
X146565905Y-101578580D02*
X146613524Y-101626200D01*
X146613524Y-101626200D02*
X146708762Y-101673819D01*
X146708762Y-101673819D02*
X146899238Y-101673819D01*
X146899238Y-101673819D02*
X146994476Y-101626200D01*
X146994476Y-101626200D02*
X147042095Y-101578580D01*
X147042095Y-101578580D02*
X147089714Y-101483342D01*
X147089714Y-101483342D02*
X147089714Y-101245247D01*
X147089714Y-101245247D02*
X147042095Y-101150009D01*
X147042095Y-101150009D02*
X146994476Y-101102390D01*
X146994476Y-101102390D02*
X146899238Y-101054771D01*
X146899238Y-101054771D02*
X146708762Y-101054771D01*
X146708762Y-101054771D02*
X146613524Y-101102390D01*
X146613524Y-101102390D02*
X146565905Y-101150009D01*
X146565905Y-101150009D02*
X146518286Y-101245247D01*
X128954666Y-70214295D02*
X128573714Y-70214295D01*
X128573714Y-70214295D02*
X128573714Y-69414295D01*
X129183237Y-69490485D02*
X129221333Y-69452390D01*
X129221333Y-69452390D02*
X129297523Y-69414295D01*
X129297523Y-69414295D02*
X129487999Y-69414295D01*
X129487999Y-69414295D02*
X129564190Y-69452390D01*
X129564190Y-69452390D02*
X129602285Y-69490485D01*
X129602285Y-69490485D02*
X129640380Y-69566676D01*
X129640380Y-69566676D02*
X129640380Y-69642866D01*
X129640380Y-69642866D02*
X129602285Y-69757152D01*
X129602285Y-69757152D02*
X129145142Y-70214295D01*
X129145142Y-70214295D02*
X129640380Y-70214295D01*
X157313333Y-91164580D02*
X157265714Y-91212200D01*
X157265714Y-91212200D02*
X157122857Y-91259819D01*
X157122857Y-91259819D02*
X157027619Y-91259819D01*
X157027619Y-91259819D02*
X156884762Y-91212200D01*
X156884762Y-91212200D02*
X156789524Y-91116961D01*
X156789524Y-91116961D02*
X156741905Y-91021723D01*
X156741905Y-91021723D02*
X156694286Y-90831247D01*
X156694286Y-90831247D02*
X156694286Y-90688390D01*
X156694286Y-90688390D02*
X156741905Y-90497914D01*
X156741905Y-90497914D02*
X156789524Y-90402676D01*
X156789524Y-90402676D02*
X156884762Y-90307438D01*
X156884762Y-90307438D02*
X157027619Y-90259819D01*
X157027619Y-90259819D02*
X157122857Y-90259819D01*
X157122857Y-90259819D02*
X157265714Y-90307438D01*
X157265714Y-90307438D02*
X157313333Y-90355057D01*
X158265714Y-91259819D02*
X157694286Y-91259819D01*
X157980000Y-91259819D02*
X157980000Y-90259819D01*
X157980000Y-90259819D02*
X157884762Y-90402676D01*
X157884762Y-90402676D02*
X157789524Y-90497914D01*
X157789524Y-90497914D02*
X157694286Y-90545533D01*
X165266905Y-69574819D02*
X165266905Y-68574819D01*
X165266905Y-68574819D02*
X165505000Y-68574819D01*
X165505000Y-68574819D02*
X165647857Y-68622438D01*
X165647857Y-68622438D02*
X165743095Y-68717676D01*
X165743095Y-68717676D02*
X165790714Y-68812914D01*
X165790714Y-68812914D02*
X165838333Y-69003390D01*
X165838333Y-69003390D02*
X165838333Y-69146247D01*
X165838333Y-69146247D02*
X165790714Y-69336723D01*
X165790714Y-69336723D02*
X165743095Y-69431961D01*
X165743095Y-69431961D02*
X165647857Y-69527200D01*
X165647857Y-69527200D02*
X165505000Y-69574819D01*
X165505000Y-69574819D02*
X165266905Y-69574819D01*
X166743095Y-68574819D02*
X166266905Y-68574819D01*
X166266905Y-68574819D02*
X166219286Y-69051009D01*
X166219286Y-69051009D02*
X166266905Y-69003390D01*
X166266905Y-69003390D02*
X166362143Y-68955771D01*
X166362143Y-68955771D02*
X166600238Y-68955771D01*
X166600238Y-68955771D02*
X166695476Y-69003390D01*
X166695476Y-69003390D02*
X166743095Y-69051009D01*
X166743095Y-69051009D02*
X166790714Y-69146247D01*
X166790714Y-69146247D02*
X166790714Y-69384342D01*
X166790714Y-69384342D02*
X166743095Y-69479580D01*
X166743095Y-69479580D02*
X166695476Y-69527200D01*
X166695476Y-69527200D02*
X166600238Y-69574819D01*
X166600238Y-69574819D02*
X166362143Y-69574819D01*
X166362143Y-69574819D02*
X166266905Y-69527200D01*
X166266905Y-69527200D02*
X166219286Y-69479580D01*
X163541200Y-70574819D02*
X163541200Y-70812914D01*
X163303105Y-70717676D02*
X163541200Y-70812914D01*
X163541200Y-70812914D02*
X163779295Y-70717676D01*
X163398343Y-71003390D02*
X163541200Y-70812914D01*
X163541200Y-70812914D02*
X163684057Y-71003390D01*
X157400666Y-85275009D02*
X157067333Y-85275009D01*
X157067333Y-85798819D02*
X157067333Y-84798819D01*
X157067333Y-84798819D02*
X157543523Y-84798819D01*
X158448285Y-85798819D02*
X157876857Y-85798819D01*
X158162571Y-85798819D02*
X158162571Y-84798819D01*
X158162571Y-84798819D02*
X158067333Y-84941676D01*
X158067333Y-84941676D02*
X157972095Y-85036914D01*
X157972095Y-85036914D02*
X157876857Y-85084533D01*
X130727533Y-97895580D02*
X130679914Y-97943200D01*
X130679914Y-97943200D02*
X130537057Y-97990819D01*
X130537057Y-97990819D02*
X130441819Y-97990819D01*
X130441819Y-97990819D02*
X130298962Y-97943200D01*
X130298962Y-97943200D02*
X130203724Y-97847961D01*
X130203724Y-97847961D02*
X130156105Y-97752723D01*
X130156105Y-97752723D02*
X130108486Y-97562247D01*
X130108486Y-97562247D02*
X130108486Y-97419390D01*
X130108486Y-97419390D02*
X130156105Y-97228914D01*
X130156105Y-97228914D02*
X130203724Y-97133676D01*
X130203724Y-97133676D02*
X130298962Y-97038438D01*
X130298962Y-97038438D02*
X130441819Y-96990819D01*
X130441819Y-96990819D02*
X130537057Y-96990819D01*
X130537057Y-96990819D02*
X130679914Y-97038438D01*
X130679914Y-97038438D02*
X130727533Y-97086057D01*
X131727533Y-97990819D02*
X131394200Y-97514628D01*
X131156105Y-97990819D02*
X131156105Y-96990819D01*
X131156105Y-96990819D02*
X131537057Y-96990819D01*
X131537057Y-96990819D02*
X131632295Y-97038438D01*
X131632295Y-97038438D02*
X131679914Y-97086057D01*
X131679914Y-97086057D02*
X131727533Y-97181295D01*
X131727533Y-97181295D02*
X131727533Y-97324152D01*
X131727533Y-97324152D02*
X131679914Y-97419390D01*
X131679914Y-97419390D02*
X131632295Y-97467009D01*
X131632295Y-97467009D02*
X131537057Y-97514628D01*
X131537057Y-97514628D02*
X131156105Y-97514628D01*
X132108486Y-97086057D02*
X132156105Y-97038438D01*
X132156105Y-97038438D02*
X132251343Y-96990819D01*
X132251343Y-96990819D02*
X132489438Y-96990819D01*
X132489438Y-96990819D02*
X132584676Y-97038438D01*
X132584676Y-97038438D02*
X132632295Y-97086057D01*
X132632295Y-97086057D02*
X132679914Y-97181295D01*
X132679914Y-97181295D02*
X132679914Y-97276533D01*
X132679914Y-97276533D02*
X132632295Y-97419390D01*
X132632295Y-97419390D02*
X132060867Y-97990819D01*
X132060867Y-97990819D02*
X132679914Y-97990819D01*
X162647333Y-73479819D02*
X162314000Y-73003628D01*
X162075905Y-73479819D02*
X162075905Y-72479819D01*
X162075905Y-72479819D02*
X162456857Y-72479819D01*
X162456857Y-72479819D02*
X162552095Y-72527438D01*
X162552095Y-72527438D02*
X162599714Y-72575057D01*
X162599714Y-72575057D02*
X162647333Y-72670295D01*
X162647333Y-72670295D02*
X162647333Y-72813152D01*
X162647333Y-72813152D02*
X162599714Y-72908390D01*
X162599714Y-72908390D02*
X162552095Y-72956009D01*
X162552095Y-72956009D02*
X162456857Y-73003628D01*
X162456857Y-73003628D02*
X162075905Y-73003628D01*
X163218762Y-72908390D02*
X163123524Y-72860771D01*
X163123524Y-72860771D02*
X163075905Y-72813152D01*
X163075905Y-72813152D02*
X163028286Y-72717914D01*
X163028286Y-72717914D02*
X163028286Y-72670295D01*
X163028286Y-72670295D02*
X163075905Y-72575057D01*
X163075905Y-72575057D02*
X163123524Y-72527438D01*
X163123524Y-72527438D02*
X163218762Y-72479819D01*
X163218762Y-72479819D02*
X163409238Y-72479819D01*
X163409238Y-72479819D02*
X163504476Y-72527438D01*
X163504476Y-72527438D02*
X163552095Y-72575057D01*
X163552095Y-72575057D02*
X163599714Y-72670295D01*
X163599714Y-72670295D02*
X163599714Y-72717914D01*
X163599714Y-72717914D02*
X163552095Y-72813152D01*
X163552095Y-72813152D02*
X163504476Y-72860771D01*
X163504476Y-72860771D02*
X163409238Y-72908390D01*
X163409238Y-72908390D02*
X163218762Y-72908390D01*
X163218762Y-72908390D02*
X163123524Y-72956009D01*
X163123524Y-72956009D02*
X163075905Y-73003628D01*
X163075905Y-73003628D02*
X163028286Y-73098866D01*
X163028286Y-73098866D02*
X163028286Y-73289342D01*
X163028286Y-73289342D02*
X163075905Y-73384580D01*
X163075905Y-73384580D02*
X163123524Y-73432200D01*
X163123524Y-73432200D02*
X163218762Y-73479819D01*
X163218762Y-73479819D02*
X163409238Y-73479819D01*
X163409238Y-73479819D02*
X163504476Y-73432200D01*
X163504476Y-73432200D02*
X163552095Y-73384580D01*
X163552095Y-73384580D02*
X163599714Y-73289342D01*
X163599714Y-73289342D02*
X163599714Y-73098866D01*
X163599714Y-73098866D02*
X163552095Y-73003628D01*
X163552095Y-73003628D02*
X163504476Y-72956009D01*
X163504476Y-72956009D02*
X163409238Y-72908390D01*
X147029871Y-69317819D02*
X147029871Y-68317819D01*
X147029871Y-68317819D02*
X147363204Y-69032104D01*
X147363204Y-69032104D02*
X147696537Y-68317819D01*
X147696537Y-68317819D02*
X147696537Y-69317819D01*
X148363204Y-68317819D02*
X148553680Y-68317819D01*
X148553680Y-68317819D02*
X148648918Y-68365438D01*
X148648918Y-68365438D02*
X148744156Y-68460676D01*
X148744156Y-68460676D02*
X148791775Y-68651152D01*
X148791775Y-68651152D02*
X148791775Y-68984485D01*
X148791775Y-68984485D02*
X148744156Y-69174961D01*
X148744156Y-69174961D02*
X148648918Y-69270200D01*
X148648918Y-69270200D02*
X148553680Y-69317819D01*
X148553680Y-69317819D02*
X148363204Y-69317819D01*
X148363204Y-69317819D02*
X148267966Y-69270200D01*
X148267966Y-69270200D02*
X148172728Y-69174961D01*
X148172728Y-69174961D02*
X148125109Y-68984485D01*
X148125109Y-68984485D02*
X148125109Y-68651152D01*
X148125109Y-68651152D02*
X148172728Y-68460676D01*
X148172728Y-68460676D02*
X148267966Y-68365438D01*
X148267966Y-68365438D02*
X148363204Y-68317819D01*
X149172728Y-69270200D02*
X149315585Y-69317819D01*
X149315585Y-69317819D02*
X149553680Y-69317819D01*
X149553680Y-69317819D02*
X149648918Y-69270200D01*
X149648918Y-69270200D02*
X149696537Y-69222580D01*
X149696537Y-69222580D02*
X149744156Y-69127342D01*
X149744156Y-69127342D02*
X149744156Y-69032104D01*
X149744156Y-69032104D02*
X149696537Y-68936866D01*
X149696537Y-68936866D02*
X149648918Y-68889247D01*
X149648918Y-68889247D02*
X149553680Y-68841628D01*
X149553680Y-68841628D02*
X149363204Y-68794009D01*
X149363204Y-68794009D02*
X149267966Y-68746390D01*
X149267966Y-68746390D02*
X149220347Y-68698771D01*
X149220347Y-68698771D02*
X149172728Y-68603533D01*
X149172728Y-68603533D02*
X149172728Y-68508295D01*
X149172728Y-68508295D02*
X149220347Y-68413057D01*
X149220347Y-68413057D02*
X149267966Y-68365438D01*
X149267966Y-68365438D02*
X149363204Y-68317819D01*
X149363204Y-68317819D02*
X149601299Y-68317819D01*
X149601299Y-68317819D02*
X149744156Y-68365438D01*
X150506061Y-68794009D02*
X150172728Y-68794009D01*
X150172728Y-69317819D02*
X150172728Y-68317819D01*
X150172728Y-68317819D02*
X150648918Y-68317819D01*
X151029871Y-68794009D02*
X151363204Y-68794009D01*
X151506061Y-69317819D02*
X151029871Y-69317819D01*
X151029871Y-69317819D02*
X151029871Y-68317819D01*
X151029871Y-68317819D02*
X151506061Y-68317819D01*
X151791776Y-68317819D02*
X152363204Y-68317819D01*
X152077490Y-69317819D02*
X152077490Y-68317819D01*
X153220347Y-69317819D02*
X152648919Y-69317819D01*
X152934633Y-69317819D02*
X152934633Y-68317819D01*
X152934633Y-68317819D02*
X152839395Y-68460676D01*
X152839395Y-68460676D02*
X152744157Y-68555914D01*
X152744157Y-68555914D02*
X152648919Y-68603533D01*
X138517333Y-88846819D02*
X138184000Y-88370628D01*
X137945905Y-88846819D02*
X137945905Y-87846819D01*
X137945905Y-87846819D02*
X138326857Y-87846819D01*
X138326857Y-87846819D02*
X138422095Y-87894438D01*
X138422095Y-87894438D02*
X138469714Y-87942057D01*
X138469714Y-87942057D02*
X138517333Y-88037295D01*
X138517333Y-88037295D02*
X138517333Y-88180152D01*
X138517333Y-88180152D02*
X138469714Y-88275390D01*
X138469714Y-88275390D02*
X138422095Y-88323009D01*
X138422095Y-88323009D02*
X138326857Y-88370628D01*
X138326857Y-88370628D02*
X137945905Y-88370628D01*
X138898286Y-87942057D02*
X138945905Y-87894438D01*
X138945905Y-87894438D02*
X139041143Y-87846819D01*
X139041143Y-87846819D02*
X139279238Y-87846819D01*
X139279238Y-87846819D02*
X139374476Y-87894438D01*
X139374476Y-87894438D02*
X139422095Y-87942057D01*
X139422095Y-87942057D02*
X139469714Y-88037295D01*
X139469714Y-88037295D02*
X139469714Y-88132533D01*
X139469714Y-88132533D02*
X139422095Y-88275390D01*
X139422095Y-88275390D02*
X138850667Y-88846819D01*
X138850667Y-88846819D02*
X139469714Y-88846819D01*
X137001333Y-97895580D02*
X136953714Y-97943200D01*
X136953714Y-97943200D02*
X136810857Y-97990819D01*
X136810857Y-97990819D02*
X136715619Y-97990819D01*
X136715619Y-97990819D02*
X136572762Y-97943200D01*
X136572762Y-97943200D02*
X136477524Y-97847961D01*
X136477524Y-97847961D02*
X136429905Y-97752723D01*
X136429905Y-97752723D02*
X136382286Y-97562247D01*
X136382286Y-97562247D02*
X136382286Y-97419390D01*
X136382286Y-97419390D02*
X136429905Y-97228914D01*
X136429905Y-97228914D02*
X136477524Y-97133676D01*
X136477524Y-97133676D02*
X136572762Y-97038438D01*
X136572762Y-97038438D02*
X136715619Y-96990819D01*
X136715619Y-96990819D02*
X136810857Y-96990819D01*
X136810857Y-96990819D02*
X136953714Y-97038438D01*
X136953714Y-97038438D02*
X137001333Y-97086057D01*
X138001333Y-97990819D02*
X137668000Y-97514628D01*
X137429905Y-97990819D02*
X137429905Y-96990819D01*
X137429905Y-96990819D02*
X137810857Y-96990819D01*
X137810857Y-96990819D02*
X137906095Y-97038438D01*
X137906095Y-97038438D02*
X137953714Y-97086057D01*
X137953714Y-97086057D02*
X138001333Y-97181295D01*
X138001333Y-97181295D02*
X138001333Y-97324152D01*
X138001333Y-97324152D02*
X137953714Y-97419390D01*
X137953714Y-97419390D02*
X137906095Y-97467009D01*
X137906095Y-97467009D02*
X137810857Y-97514628D01*
X137810857Y-97514628D02*
X137429905Y-97514628D01*
X138334667Y-96990819D02*
X138953714Y-96990819D01*
X138953714Y-96990819D02*
X138620381Y-97371771D01*
X138620381Y-97371771D02*
X138763238Y-97371771D01*
X138763238Y-97371771D02*
X138858476Y-97419390D01*
X138858476Y-97419390D02*
X138906095Y-97467009D01*
X138906095Y-97467009D02*
X138953714Y-97562247D01*
X138953714Y-97562247D02*
X138953714Y-97800342D01*
X138953714Y-97800342D02*
X138906095Y-97895580D01*
X138906095Y-97895580D02*
X138858476Y-97943200D01*
X138858476Y-97943200D02*
X138763238Y-97990819D01*
X138763238Y-97990819D02*
X138477524Y-97990819D01*
X138477524Y-97990819D02*
X138382286Y-97943200D01*
X138382286Y-97943200D02*
X138334667Y-97895580D01*
X131311666Y-101454295D02*
X130930714Y-101454295D01*
X130930714Y-101454295D02*
X130930714Y-100654295D01*
X131502142Y-100654295D02*
X131997380Y-100654295D01*
X131997380Y-100654295D02*
X131730714Y-100959057D01*
X131730714Y-100959057D02*
X131844999Y-100959057D01*
X131844999Y-100959057D02*
X131921190Y-100997152D01*
X131921190Y-100997152D02*
X131959285Y-101035247D01*
X131959285Y-101035247D02*
X131997380Y-101111438D01*
X131997380Y-101111438D02*
X131997380Y-101301914D01*
X131997380Y-101301914D02*
X131959285Y-101378104D01*
X131959285Y-101378104D02*
X131921190Y-101416200D01*
X131921190Y-101416200D02*
X131844999Y-101454295D01*
X131844999Y-101454295D02*
X131616428Y-101454295D01*
X131616428Y-101454295D02*
X131540237Y-101416200D01*
X131540237Y-101416200D02*
X131502142Y-101378104D01*
X160394666Y-92818295D02*
X160013714Y-92818295D01*
X160013714Y-92818295D02*
X160013714Y-92018295D01*
X161080380Y-92818295D02*
X160623237Y-92818295D01*
X160851809Y-92818295D02*
X160851809Y-92018295D01*
X160851809Y-92018295D02*
X160775618Y-92132580D01*
X160775618Y-92132580D02*
X160699428Y-92208771D01*
X160699428Y-92208771D02*
X160623237Y-92246866D01*
X159345333Y-78686819D02*
X159012000Y-78210628D01*
X158773905Y-78686819D02*
X158773905Y-77686819D01*
X158773905Y-77686819D02*
X159154857Y-77686819D01*
X159154857Y-77686819D02*
X159250095Y-77734438D01*
X159250095Y-77734438D02*
X159297714Y-77782057D01*
X159297714Y-77782057D02*
X159345333Y-77877295D01*
X159345333Y-77877295D02*
X159345333Y-78020152D01*
X159345333Y-78020152D02*
X159297714Y-78115390D01*
X159297714Y-78115390D02*
X159250095Y-78163009D01*
X159250095Y-78163009D02*
X159154857Y-78210628D01*
X159154857Y-78210628D02*
X158773905Y-78210628D01*
X160297714Y-78686819D02*
X159726286Y-78686819D01*
X160012000Y-78686819D02*
X160012000Y-77686819D01*
X160012000Y-77686819D02*
X159916762Y-77829676D01*
X159916762Y-77829676D02*
X159821524Y-77924914D01*
X159821524Y-77924914D02*
X159726286Y-77972533D01*
X137937642Y-72082819D02*
X137604309Y-71606628D01*
X137366214Y-72082819D02*
X137366214Y-71082819D01*
X137366214Y-71082819D02*
X137747166Y-71082819D01*
X137747166Y-71082819D02*
X137842404Y-71130438D01*
X137842404Y-71130438D02*
X137890023Y-71178057D01*
X137890023Y-71178057D02*
X137937642Y-71273295D01*
X137937642Y-71273295D02*
X137937642Y-71416152D01*
X137937642Y-71416152D02*
X137890023Y-71511390D01*
X137890023Y-71511390D02*
X137842404Y-71559009D01*
X137842404Y-71559009D02*
X137747166Y-71606628D01*
X137747166Y-71606628D02*
X137366214Y-71606628D01*
X138890023Y-72082819D02*
X138318595Y-72082819D01*
X138604309Y-72082819D02*
X138604309Y-71082819D01*
X138604309Y-71082819D02*
X138509071Y-71225676D01*
X138509071Y-71225676D02*
X138413833Y-71320914D01*
X138413833Y-71320914D02*
X138318595Y-71368533D01*
X139509071Y-71082819D02*
X139604309Y-71082819D01*
X139604309Y-71082819D02*
X139699547Y-71130438D01*
X139699547Y-71130438D02*
X139747166Y-71178057D01*
X139747166Y-71178057D02*
X139794785Y-71273295D01*
X139794785Y-71273295D02*
X139842404Y-71463771D01*
X139842404Y-71463771D02*
X139842404Y-71701866D01*
X139842404Y-71701866D02*
X139794785Y-71892342D01*
X139794785Y-71892342D02*
X139747166Y-71987580D01*
X139747166Y-71987580D02*
X139699547Y-72035200D01*
X139699547Y-72035200D02*
X139604309Y-72082819D01*
X139604309Y-72082819D02*
X139509071Y-72082819D01*
X139509071Y-72082819D02*
X139413833Y-72035200D01*
X139413833Y-72035200D02*
X139366214Y-71987580D01*
X139366214Y-71987580D02*
X139318595Y-71892342D01*
X139318595Y-71892342D02*
X139270976Y-71701866D01*
X139270976Y-71701866D02*
X139270976Y-71463771D01*
X139270976Y-71463771D02*
X139318595Y-71273295D01*
X139318595Y-71273295D02*
X139366214Y-71178057D01*
X139366214Y-71178057D02*
X139413833Y-71130438D01*
X139413833Y-71130438D02*
X139509071Y-71082819D01*
X138430095Y-81877819D02*
X138430095Y-82687342D01*
X138430095Y-82687342D02*
X138477714Y-82782580D01*
X138477714Y-82782580D02*
X138525333Y-82830200D01*
X138525333Y-82830200D02*
X138620571Y-82877819D01*
X138620571Y-82877819D02*
X138811047Y-82877819D01*
X138811047Y-82877819D02*
X138906285Y-82830200D01*
X138906285Y-82830200D02*
X138953904Y-82782580D01*
X138953904Y-82782580D02*
X139001523Y-82687342D01*
X139001523Y-82687342D02*
X139001523Y-81877819D01*
X139430095Y-81973057D02*
X139477714Y-81925438D01*
X139477714Y-81925438D02*
X139572952Y-81877819D01*
X139572952Y-81877819D02*
X139811047Y-81877819D01*
X139811047Y-81877819D02*
X139906285Y-81925438D01*
X139906285Y-81925438D02*
X139953904Y-81973057D01*
X139953904Y-81973057D02*
X140001523Y-82068295D01*
X140001523Y-82068295D02*
X140001523Y-82163533D01*
X140001523Y-82163533D02*
X139953904Y-82306390D01*
X139953904Y-82306390D02*
X139382476Y-82877819D01*
X139382476Y-82877819D02*
X140001523Y-82877819D01*
X141868905Y-72082819D02*
X141868905Y-71082819D01*
X141868905Y-71082819D02*
X142107000Y-71082819D01*
X142107000Y-71082819D02*
X142249857Y-71130438D01*
X142249857Y-71130438D02*
X142345095Y-71225676D01*
X142345095Y-71225676D02*
X142392714Y-71320914D01*
X142392714Y-71320914D02*
X142440333Y-71511390D01*
X142440333Y-71511390D02*
X142440333Y-71654247D01*
X142440333Y-71654247D02*
X142392714Y-71844723D01*
X142392714Y-71844723D02*
X142345095Y-71939961D01*
X142345095Y-71939961D02*
X142249857Y-72035200D01*
X142249857Y-72035200D02*
X142107000Y-72082819D01*
X142107000Y-72082819D02*
X141868905Y-72082819D01*
X143297476Y-71416152D02*
X143297476Y-72082819D01*
X143059381Y-71035200D02*
X142821286Y-71749485D01*
X142821286Y-71749485D02*
X143440333Y-71749485D01*
X142581333Y-75914819D02*
X142248000Y-75438628D01*
X142009905Y-75914819D02*
X142009905Y-74914819D01*
X142009905Y-74914819D02*
X142390857Y-74914819D01*
X142390857Y-74914819D02*
X142486095Y-74962438D01*
X142486095Y-74962438D02*
X142533714Y-75010057D01*
X142533714Y-75010057D02*
X142581333Y-75105295D01*
X142581333Y-75105295D02*
X142581333Y-75248152D01*
X142581333Y-75248152D02*
X142533714Y-75343390D01*
X142533714Y-75343390D02*
X142486095Y-75391009D01*
X142486095Y-75391009D02*
X142390857Y-75438628D01*
X142390857Y-75438628D02*
X142009905Y-75438628D01*
X143057524Y-75914819D02*
X143248000Y-75914819D01*
X143248000Y-75914819D02*
X143343238Y-75867200D01*
X143343238Y-75867200D02*
X143390857Y-75819580D01*
X143390857Y-75819580D02*
X143486095Y-75676723D01*
X143486095Y-75676723D02*
X143533714Y-75486247D01*
X143533714Y-75486247D02*
X143533714Y-75105295D01*
X143533714Y-75105295D02*
X143486095Y-75010057D01*
X143486095Y-75010057D02*
X143438476Y-74962438D01*
X143438476Y-74962438D02*
X143343238Y-74914819D01*
X143343238Y-74914819D02*
X143152762Y-74914819D01*
X143152762Y-74914819D02*
X143057524Y-74962438D01*
X143057524Y-74962438D02*
X143009905Y-75010057D01*
X143009905Y-75010057D02*
X142962286Y-75105295D01*
X142962286Y-75105295D02*
X142962286Y-75343390D01*
X142962286Y-75343390D02*
X143009905Y-75438628D01*
X143009905Y-75438628D02*
X143057524Y-75486247D01*
X143057524Y-75486247D02*
X143152762Y-75533866D01*
X143152762Y-75533866D02*
X143343238Y-75533866D01*
X143343238Y-75533866D02*
X143438476Y-75486247D01*
X143438476Y-75486247D02*
X143486095Y-75438628D01*
X143486095Y-75438628D02*
X143533714Y-75343390D01*
X127849333Y-79702819D02*
X127516000Y-79226628D01*
X127277905Y-79702819D02*
X127277905Y-78702819D01*
X127277905Y-78702819D02*
X127658857Y-78702819D01*
X127658857Y-78702819D02*
X127754095Y-78750438D01*
X127754095Y-78750438D02*
X127801714Y-78798057D01*
X127801714Y-78798057D02*
X127849333Y-78893295D01*
X127849333Y-78893295D02*
X127849333Y-79036152D01*
X127849333Y-79036152D02*
X127801714Y-79131390D01*
X127801714Y-79131390D02*
X127754095Y-79179009D01*
X127754095Y-79179009D02*
X127658857Y-79226628D01*
X127658857Y-79226628D02*
X127277905Y-79226628D01*
X128754095Y-78702819D02*
X128277905Y-78702819D01*
X128277905Y-78702819D02*
X128230286Y-79179009D01*
X128230286Y-79179009D02*
X128277905Y-79131390D01*
X128277905Y-79131390D02*
X128373143Y-79083771D01*
X128373143Y-79083771D02*
X128611238Y-79083771D01*
X128611238Y-79083771D02*
X128706476Y-79131390D01*
X128706476Y-79131390D02*
X128754095Y-79179009D01*
X128754095Y-79179009D02*
X128801714Y-79274247D01*
X128801714Y-79274247D02*
X128801714Y-79512342D01*
X128801714Y-79512342D02*
X128754095Y-79607580D01*
X128754095Y-79607580D02*
X128706476Y-79655200D01*
X128706476Y-79655200D02*
X128611238Y-79702819D01*
X128611238Y-79702819D02*
X128373143Y-79702819D01*
X128373143Y-79702819D02*
X128277905Y-79655200D01*
X128277905Y-79655200D02*
X128230286Y-79607580D01*
X135286761Y-73575057D02*
X135191523Y-73527438D01*
X135191523Y-73527438D02*
X135096285Y-73432200D01*
X135096285Y-73432200D02*
X134953428Y-73289342D01*
X134953428Y-73289342D02*
X134858190Y-73241723D01*
X134858190Y-73241723D02*
X134762952Y-73241723D01*
X134810571Y-73479819D02*
X134715333Y-73432200D01*
X134715333Y-73432200D02*
X134620095Y-73336961D01*
X134620095Y-73336961D02*
X134572476Y-73146485D01*
X134572476Y-73146485D02*
X134572476Y-72813152D01*
X134572476Y-72813152D02*
X134620095Y-72622676D01*
X134620095Y-72622676D02*
X134715333Y-72527438D01*
X134715333Y-72527438D02*
X134810571Y-72479819D01*
X134810571Y-72479819D02*
X135001047Y-72479819D01*
X135001047Y-72479819D02*
X135096285Y-72527438D01*
X135096285Y-72527438D02*
X135191523Y-72622676D01*
X135191523Y-72622676D02*
X135239142Y-72813152D01*
X135239142Y-72813152D02*
X135239142Y-73146485D01*
X135239142Y-73146485D02*
X135191523Y-73336961D01*
X135191523Y-73336961D02*
X135096285Y-73432200D01*
X135096285Y-73432200D02*
X135001047Y-73479819D01*
X135001047Y-73479819D02*
X134810571Y-73479819D01*
X136191523Y-73479819D02*
X135620095Y-73479819D01*
X135905809Y-73479819D02*
X135905809Y-72479819D01*
X135905809Y-72479819D02*
X135810571Y-72622676D01*
X135810571Y-72622676D02*
X135715333Y-72717914D01*
X135715333Y-72717914D02*
X135620095Y-72765533D01*
X143811666Y-92895009D02*
X143478333Y-92895009D01*
X143478333Y-93418819D02*
X143478333Y-92418819D01*
X143478333Y-92418819D02*
X143954523Y-92418819D01*
X144240238Y-92418819D02*
X144859285Y-92418819D01*
X144859285Y-92418819D02*
X144525952Y-92799771D01*
X144525952Y-92799771D02*
X144668809Y-92799771D01*
X144668809Y-92799771D02*
X144764047Y-92847390D01*
X144764047Y-92847390D02*
X144811666Y-92895009D01*
X144811666Y-92895009D02*
X144859285Y-92990247D01*
X144859285Y-92990247D02*
X144859285Y-93228342D01*
X144859285Y-93228342D02*
X144811666Y-93323580D01*
X144811666Y-93323580D02*
X144764047Y-93371200D01*
X144764047Y-93371200D02*
X144668809Y-93418819D01*
X144668809Y-93418819D02*
X144383095Y-93418819D01*
X144383095Y-93418819D02*
X144287857Y-93371200D01*
X144287857Y-93371200D02*
X144240238Y-93323580D01*
X159258095Y-84798819D02*
X159258095Y-85608342D01*
X159258095Y-85608342D02*
X159305714Y-85703580D01*
X159305714Y-85703580D02*
X159353333Y-85751200D01*
X159353333Y-85751200D02*
X159448571Y-85798819D01*
X159448571Y-85798819D02*
X159639047Y-85798819D01*
X159639047Y-85798819D02*
X159734285Y-85751200D01*
X159734285Y-85751200D02*
X159781904Y-85703580D01*
X159781904Y-85703580D02*
X159829523Y-85608342D01*
X159829523Y-85608342D02*
X159829523Y-84798819D01*
X160829523Y-85798819D02*
X160258095Y-85798819D01*
X160543809Y-85798819D02*
X160543809Y-84798819D01*
X160543809Y-84798819D02*
X160448571Y-84941676D01*
X160448571Y-84941676D02*
X160353333Y-85036914D01*
X160353333Y-85036914D02*
X160258095Y-85084533D01*
X145415095Y-98768819D02*
X145415095Y-99578342D01*
X145415095Y-99578342D02*
X145462714Y-99673580D01*
X145462714Y-99673580D02*
X145510333Y-99721200D01*
X145510333Y-99721200D02*
X145605571Y-99768819D01*
X145605571Y-99768819D02*
X145796047Y-99768819D01*
X145796047Y-99768819D02*
X145891285Y-99721200D01*
X145891285Y-99721200D02*
X145938904Y-99673580D01*
X145938904Y-99673580D02*
X145986523Y-99578342D01*
X145986523Y-99578342D02*
X145986523Y-98768819D01*
X146367476Y-98768819D02*
X146986523Y-98768819D01*
X146986523Y-98768819D02*
X146653190Y-99149771D01*
X146653190Y-99149771D02*
X146796047Y-99149771D01*
X146796047Y-99149771D02*
X146891285Y-99197390D01*
X146891285Y-99197390D02*
X146938904Y-99245009D01*
X146938904Y-99245009D02*
X146986523Y-99340247D01*
X146986523Y-99340247D02*
X146986523Y-99578342D01*
X146986523Y-99578342D02*
X146938904Y-99673580D01*
X146938904Y-99673580D02*
X146891285Y-99721200D01*
X146891285Y-99721200D02*
X146796047Y-99768819D01*
X146796047Y-99768819D02*
X146510333Y-99768819D01*
X146510333Y-99768819D02*
X146415095Y-99721200D01*
X146415095Y-99721200D02*
X146367476Y-99673580D01*
X139533333Y-77067580D02*
X139485714Y-77115200D01*
X139485714Y-77115200D02*
X139342857Y-77162819D01*
X139342857Y-77162819D02*
X139247619Y-77162819D01*
X139247619Y-77162819D02*
X139104762Y-77115200D01*
X139104762Y-77115200D02*
X139009524Y-77019961D01*
X139009524Y-77019961D02*
X138961905Y-76924723D01*
X138961905Y-76924723D02*
X138914286Y-76734247D01*
X138914286Y-76734247D02*
X138914286Y-76591390D01*
X138914286Y-76591390D02*
X138961905Y-76400914D01*
X138961905Y-76400914D02*
X139009524Y-76305676D01*
X139009524Y-76305676D02*
X139104762Y-76210438D01*
X139104762Y-76210438D02*
X139247619Y-76162819D01*
X139247619Y-76162819D02*
X139342857Y-76162819D01*
X139342857Y-76162819D02*
X139485714Y-76210438D01*
X139485714Y-76210438D02*
X139533333Y-76258057D01*
X139914286Y-76258057D02*
X139961905Y-76210438D01*
X139961905Y-76210438D02*
X140057143Y-76162819D01*
X140057143Y-76162819D02*
X140295238Y-76162819D01*
X140295238Y-76162819D02*
X140390476Y-76210438D01*
X140390476Y-76210438D02*
X140438095Y-76258057D01*
X140438095Y-76258057D02*
X140485714Y-76353295D01*
X140485714Y-76353295D02*
X140485714Y-76448533D01*
X140485714Y-76448533D02*
X140438095Y-76591390D01*
X140438095Y-76591390D02*
X139866667Y-77162819D01*
X139866667Y-77162819D02*
X140485714Y-77162819D01*
X155916333Y-71574819D02*
X155583000Y-71098628D01*
X155344905Y-71574819D02*
X155344905Y-70574819D01*
X155344905Y-70574819D02*
X155725857Y-70574819D01*
X155725857Y-70574819D02*
X155821095Y-70622438D01*
X155821095Y-70622438D02*
X155868714Y-70670057D01*
X155868714Y-70670057D02*
X155916333Y-70765295D01*
X155916333Y-70765295D02*
X155916333Y-70908152D01*
X155916333Y-70908152D02*
X155868714Y-71003390D01*
X155868714Y-71003390D02*
X155821095Y-71051009D01*
X155821095Y-71051009D02*
X155725857Y-71098628D01*
X155725857Y-71098628D02*
X155344905Y-71098628D01*
X156249667Y-70574819D02*
X156916333Y-70574819D01*
X156916333Y-70574819D02*
X156487762Y-71574819D01*
D11*
%TO.C,R4*%
X157734724Y-86345500D02*
X157225276Y-86345500D01*
X157734724Y-87390500D02*
X157225276Y-87390500D01*
D12*
%TO.C,R3*%
X148843000Y-97105000D02*
X156973000Y-97105000D01*
X148843000Y-104345000D02*
X148843000Y-97105000D01*
X148843000Y-104345000D02*
X149138000Y-104345000D01*
X156973000Y-97105000D02*
X156973000Y-104345000D01*
X156973000Y-104345000D02*
X156678000Y-104345000D01*
D13*
%TO.C,CR1*%
X162775900Y-96456500D02*
X162775900Y-96873060D01*
X162775900Y-99214940D02*
X162775900Y-99631500D01*
X162775900Y-99631500D02*
X167779700Y-99631500D01*
X167779700Y-96456500D02*
X162775900Y-96456500D01*
X167779700Y-96873060D02*
X167779700Y-96456500D01*
X167779700Y-99631500D02*
X167779700Y-99214940D01*
X161315400Y-98044000D02*
G75*
G02*
X161163000Y-98044000I-76200J0D01*
G01*
X161163000Y-98044000D02*
G75*
G02*
X161315400Y-98044000I76200J0D01*
G01*
D10*
%TO.C,Conn1*%
X131445000Y-50800000D02*
X147955000Y-50800000D01*
X131445000Y-62738000D02*
X131445000Y-50800000D01*
X133350000Y-62738000D02*
X131445000Y-62738000D01*
X133350000Y-62738000D02*
X146050000Y-62738000D01*
X133350000Y-65278000D02*
X133350000Y-62738000D01*
X135890000Y-50800000D02*
X135890000Y-51308000D01*
X135890000Y-55118000D02*
X135890000Y-51308000D01*
X135890000Y-55118000D02*
X135890000Y-56388000D01*
X135890000Y-56388000D02*
X143510000Y-56388000D01*
X138430000Y-56388000D02*
X138430000Y-58928000D01*
X138430000Y-58928000D02*
X140970000Y-58928000D01*
X140970000Y-58928000D02*
X140970000Y-56388000D01*
X143510000Y-51308000D02*
X143510000Y-50800000D01*
X143510000Y-55118000D02*
X143510000Y-51308000D01*
X143510000Y-56388000D02*
X143510000Y-55118000D01*
X146050000Y-62738000D02*
X146050000Y-65278000D01*
X146050000Y-62738000D02*
X147955000Y-62738000D01*
X146050000Y-65278000D02*
X133350000Y-65278000D01*
X147955000Y-62738000D02*
X147955000Y-50800000D01*
D11*
%TO.C,C3*%
X145569000Y-95750748D02*
X145569000Y-96273252D01*
X147039000Y-95750748D02*
X147039000Y-96273252D01*
D10*
%TO.C,J1*%
X148265000Y-50800000D02*
X157155000Y-50800000D01*
X148265000Y-62738000D02*
X148265000Y-50800000D01*
X148265000Y-62738000D02*
X157155000Y-62738000D01*
X150170000Y-65278000D02*
X150170000Y-62738000D01*
X155250000Y-62738000D02*
X155250000Y-65278000D01*
X155250000Y-65278000D02*
X150170000Y-65278000D01*
X157155000Y-62738000D02*
X157155000Y-50800000D01*
D11*
%TO.C,F2*%
X135371721Y-76071000D02*
X135697279Y-76071000D01*
X135371721Y-77091000D02*
X135697279Y-77091000D01*
%TO.C,R6*%
X145781500Y-103377276D02*
X145781500Y-103886724D01*
X146826500Y-103377276D02*
X146826500Y-103886724D01*
D12*
%TO.C,L2*%
X127048000Y-70660000D02*
X133048000Y-70660000D01*
X127048000Y-70860000D02*
X127048000Y-70660000D01*
X127048000Y-76460000D02*
X127048000Y-76660000D01*
X127048000Y-76660000D02*
X133048000Y-76660000D01*
X133048000Y-70660000D02*
X133048000Y-70860000D01*
X133048000Y-76660000D02*
X133048000Y-76460000D01*
D11*
%TO.C,C1*%
X157218748Y-88165000D02*
X157741252Y-88165000D01*
X157218748Y-89635000D02*
X157741252Y-89635000D01*
D13*
%TO.C,D5*%
X164455600Y-70091300D02*
X164455600Y-70431660D01*
X164455600Y-71808340D02*
X164455600Y-72148700D01*
X164455600Y-72148700D02*
X167554400Y-72148700D01*
X167554400Y-70091300D02*
X164455600Y-70091300D01*
X167554400Y-70431660D02*
X167554400Y-70091300D01*
X167554400Y-72148700D02*
X167554400Y-71808340D01*
D11*
%TO.C,F1*%
X157922279Y-83310000D02*
X157596721Y-83310000D01*
X157922279Y-84330000D02*
X157596721Y-84330000D01*
D13*
%TO.C,CR2*%
X128892300Y-93408500D02*
X128892300Y-93825060D01*
X128892300Y-96166940D02*
X128892300Y-96583500D01*
X128892300Y-96583500D02*
X133896100Y-96583500D01*
X133896100Y-93408500D02*
X128892300Y-93408500D01*
X133896100Y-93825060D02*
X133896100Y-93408500D01*
X133896100Y-96583500D02*
X133896100Y-96166940D01*
X135509000Y-94996000D02*
G75*
G02*
X135356600Y-94996000I-76200J0D01*
G01*
X135356600Y-94996000D02*
G75*
G02*
X135509000Y-94996000I76200J0D01*
G01*
D11*
%TO.C,R8*%
X160513500Y-71374724D02*
X160513500Y-70865276D01*
X161558500Y-71374724D02*
X161558500Y-70865276D01*
%TO.C,MOSFET1*%
X150101300Y-69703000D02*
X148151300Y-69703000D01*
X150101300Y-69703000D02*
X152051300Y-69703000D01*
X150101300Y-74823000D02*
X148151300Y-74823000D01*
X150101300Y-74823000D02*
X152051300Y-74823000D01*
X147401300Y-69798000D02*
X147161300Y-69468000D01*
X147641300Y-69468000D01*
X147401300Y-69798000D01*
G36*
X147401300Y-69798000D02*
G01*
X147161300Y-69468000D01*
X147641300Y-69468000D01*
X147401300Y-69798000D01*
G37*
D12*
%TO.C,R2*%
X128439000Y-84327000D02*
X128439000Y-84622000D01*
X128439000Y-84327000D02*
X135679000Y-84327000D01*
X128439000Y-92457000D02*
X128439000Y-92162000D01*
X135679000Y-84327000D02*
X135679000Y-92457000D01*
X135679000Y-92457000D02*
X128439000Y-92457000D01*
D13*
%TO.C,CR3*%
X137198100Y-93408500D02*
X137198100Y-93825060D01*
X137198100Y-96166940D02*
X137198100Y-96583500D01*
X137198100Y-96583500D02*
X142201900Y-96583500D01*
X142201900Y-93408500D02*
X137198100Y-93408500D01*
X142201900Y-93825060D02*
X142201900Y-93408500D01*
X142201900Y-96583500D02*
X142201900Y-96166940D01*
X143814800Y-94996000D02*
G75*
G02*
X143662400Y-94996000I-76200J0D01*
G01*
X143662400Y-94996000D02*
G75*
G02*
X143814800Y-94996000I76200J0D01*
G01*
D12*
%TO.C,L3*%
X132636000Y-99616000D02*
X132836000Y-99616000D01*
X132636000Y-105616000D02*
X132636000Y-99616000D01*
X132836000Y-105616000D02*
X132636000Y-105616000D01*
X138436000Y-105616000D02*
X138636000Y-105616000D01*
X138636000Y-99616000D02*
X138436000Y-99616000D01*
X138636000Y-105616000D02*
X138636000Y-99616000D01*
%TO.C,L1*%
X162057000Y-89456000D02*
X168057000Y-89456000D01*
X162057000Y-89656000D02*
X162057000Y-89456000D01*
X162057000Y-95256000D02*
X162057000Y-95456000D01*
X162057000Y-95456000D02*
X168057000Y-95456000D01*
X168057000Y-89456000D02*
X168057000Y-89656000D01*
X168057000Y-95456000D02*
X168057000Y-95256000D01*
%TO.C,R1*%
X160605000Y-74167000D02*
X167845000Y-74167000D01*
X160605000Y-82297000D02*
X160605000Y-74167000D01*
X167845000Y-74167000D02*
X167845000Y-74462000D01*
X167845000Y-82297000D02*
X160605000Y-82297000D01*
X167845000Y-82297000D02*
X167845000Y-82002000D01*
D11*
%TO.C,R10*%
X138325776Y-69581500D02*
X138835224Y-69581500D01*
X138325776Y-70626500D02*
X138835224Y-70626500D01*
D13*
%TO.C,U2*%
X132175250Y-83019900D02*
X136417050Y-83019900D01*
X136417050Y-77762100D02*
X132175250Y-77762100D01*
D10*
%TO.C,FanConn1*%
X156845000Y-50800000D02*
X165735000Y-50800000D01*
X156845000Y-62738000D02*
X156845000Y-50800000D01*
X156845000Y-62738000D02*
X165735000Y-62738000D01*
X158750000Y-65278000D02*
X158750000Y-62738000D01*
X163830000Y-62738000D02*
X163830000Y-65278000D01*
X163830000Y-65278000D02*
X158750000Y-65278000D01*
X165735000Y-62738000D02*
X165735000Y-50800000D01*
D11*
%TO.C,D4*%
X140947000Y-69369000D02*
X140947000Y-70839000D01*
X140947000Y-70839000D02*
X143407000Y-70839000D01*
X143407000Y-69369000D02*
X140947000Y-69369000D01*
D14*
X145036330Y-70104000D02*
G75*
G02*
X144837670Y-70104000I-99330J0D01*
G01*
X144837670Y-70104000D02*
G75*
G02*
X145036330Y-70104000I99330J0D01*
G01*
D11*
%TO.C,R5*%
X127493500Y-81939224D02*
X127493500Y-81429776D01*
X128538500Y-81939224D02*
X128538500Y-81429776D01*
%TO.C,Q1*%
X138254500Y-72608000D02*
X137604500Y-72608000D01*
X138254500Y-72608000D02*
X138904500Y-72608000D01*
X138254500Y-75728000D02*
X137604500Y-75728000D01*
X138254500Y-75728000D02*
X138904500Y-75728000D01*
%TO.C,F3*%
X146695279Y-92454000D02*
X146369721Y-92454000D01*
X146695279Y-93474000D02*
X146369721Y-93474000D01*
D13*
%TO.C,U1*%
X162655250Y-88353900D02*
X166897050Y-88353900D01*
X166897050Y-83096100D02*
X162655250Y-83096100D01*
%TO.C,U3*%
X139611100Y-99479100D02*
X139611100Y-103720900D01*
X144868900Y-103720900D02*
X144868900Y-99479100D01*
D11*
%TO.C,C2*%
X138965000Y-79487752D02*
X138965000Y-78965248D01*
X140435000Y-79487752D02*
X140435000Y-78965248D01*
%TO.C,R7*%
X157465500Y-71374724D02*
X157465500Y-70865276D01*
X158510500Y-71374724D02*
X158510500Y-70865276D01*
%TD*%
M02*
