%TF.GenerationSoftware,KiCad,Pcbnew,9.0.8-9.0.8~ubuntu22.04.1*%
%TF.CreationDate,2026-03-23T14:29:18-05:00*%
%TF.ProjectId,AutofluorescenceBoard,4175746f-666c-4756-9f72-657363656e63,rev?*%
%TF.SameCoordinates,Original*%
%TF.FileFunction,Paste,Top*%
%TF.FilePolarity,Positive*%
%FSLAX46Y46*%
G04 Gerber Fmt 4.6, Leading zero omitted, Abs format (unit mm)*
G04 Created by KiCad (PCBNEW 9.0.8-9.0.8~ubuntu22.04.1) date 2026-03-23 14:29:18*
%MOMM*%
%LPD*%
G01*
G04 APERTURE LIST*
G04 Aperture macros list*
%AMRoundRect*
0 Rectangle with rounded corners*
0 $1 Rounding radius*
0 $2 $3 $4 $5 $6 $7 $8 $9 X,Y pos of 4 corners*
0 Add a 4 corners polygon primitive as box body*
4,1,4,$2,$3,$4,$5,$6,$7,$8,$9,$2,$3,0*
0 Add four circle primitives for the rounded corners*
1,1,$1+$1,$2,$3*
1,1,$1+$1,$4,$5*
1,1,$1+$1,$6,$7*
1,1,$1+$1,$8,$9*
0 Add four rect primitives between the rounded corners*
20,1,$1+$1,$2,$3,$4,$5,0*
20,1,$1+$1,$4,$5,$6,$7,0*
20,1,$1+$1,$6,$7,$8,$9,0*
20,1,$1+$1,$8,$9,$2,$3,0*%
G04 Aperture macros list end*
%ADD10C,0.010000*%
%ADD11RoundRect,0.237500X0.250000X0.237500X-0.250000X0.237500X-0.250000X-0.237500X0.250000X-0.237500X0*%
%ADD12R,1.340000X2.990000*%
%ADD13R,1.879600X1.676400*%
%ADD14RoundRect,0.250000X-0.475000X0.337500X-0.475000X-0.337500X0.475000X-0.337500X0.475000X0.337500X0*%
%ADD15RoundRect,0.218750X-0.218750X-0.256250X0.218750X-0.256250X0.218750X0.256250X-0.218750X0.256250X0*%
%ADD16RoundRect,0.237500X-0.237500X0.250000X-0.237500X-0.250000X0.237500X-0.250000X0.237500X0.250000X0*%
%ADD17R,2.350000X5.100000*%
%ADD18RoundRect,0.250000X-0.337500X-0.475000X0.337500X-0.475000X0.337500X0.475000X-0.337500X0.475000X0*%
%ADD19R,0.914400X0.711200*%
%ADD20RoundRect,0.218750X0.218750X0.256250X-0.218750X0.256250X-0.218750X-0.256250X0.218750X-0.256250X0*%
%ADD21RoundRect,0.237500X0.237500X-0.250000X0.237500X0.250000X-0.237500X0.250000X-0.237500X-0.250000X0*%
%ADD22RoundRect,0.150000X-0.825000X-0.150000X0.825000X-0.150000X0.825000X0.150000X-0.825000X0.150000X0*%
%ADD23R,2.990000X1.340000*%
%ADD24R,5.100000X2.350000*%
%ADD25RoundRect,0.237500X-0.250000X-0.237500X0.250000X-0.237500X0.250000X0.237500X-0.250000X0.237500X0*%
%ADD26R,1.460500X0.533400*%
%ADD27R,2.286000X2.286000*%
%ADD28RoundRect,0.237500X-0.287500X-0.237500X0.287500X-0.237500X0.287500X0.237500X-0.287500X0.237500X0*%
%ADD29R,0.812800X0.939800*%
%ADD30RoundRect,0.150000X-0.587500X-0.150000X0.587500X-0.150000X0.587500X0.150000X-0.587500X0.150000X0*%
%ADD31R,0.533400X1.460500*%
%ADD32RoundRect,0.250000X0.475000X-0.337500X0.475000X0.337500X-0.475000X0.337500X-0.475000X-0.337500X0*%
G04 APERTURE END LIST*
D10*
%TO.C,R3*%
X151298000Y-99325000D02*
X149918000Y-99325000D01*
X149918000Y-97945000D01*
X151298000Y-97945000D01*
X151298000Y-99325000D01*
G36*
X151298000Y-99325000D02*
G01*
X149918000Y-99325000D01*
X149918000Y-97945000D01*
X151298000Y-97945000D01*
X151298000Y-99325000D01*
G37*
X151298000Y-101395000D02*
X149918000Y-101395000D01*
X149918000Y-100015000D01*
X151298000Y-100015000D01*
X151298000Y-101395000D01*
G36*
X151298000Y-101395000D02*
G01*
X149918000Y-101395000D01*
X149918000Y-100015000D01*
X151298000Y-100015000D01*
X151298000Y-101395000D01*
G37*
X151298000Y-103465000D02*
X149918000Y-103465000D01*
X149918000Y-102085000D01*
X151298000Y-102085000D01*
X151298000Y-103465000D01*
G36*
X151298000Y-103465000D02*
G01*
X149918000Y-103465000D01*
X149918000Y-102085000D01*
X151298000Y-102085000D01*
X151298000Y-103465000D01*
G37*
X151298000Y-105535000D02*
X149918000Y-105535000D01*
X149918000Y-104155000D01*
X151298000Y-104155000D01*
X151298000Y-105535000D01*
G36*
X151298000Y-105535000D02*
G01*
X149918000Y-105535000D01*
X149918000Y-104155000D01*
X151298000Y-104155000D01*
X151298000Y-105535000D01*
G37*
X153598000Y-99325000D02*
X152218000Y-99325000D01*
X152218000Y-97945000D01*
X153598000Y-97945000D01*
X153598000Y-99325000D01*
G36*
X153598000Y-99325000D02*
G01*
X152218000Y-99325000D01*
X152218000Y-97945000D01*
X153598000Y-97945000D01*
X153598000Y-99325000D01*
G37*
X153598000Y-101395000D02*
X152218000Y-101395000D01*
X152218000Y-100015000D01*
X153598000Y-100015000D01*
X153598000Y-101395000D01*
G36*
X153598000Y-101395000D02*
G01*
X152218000Y-101395000D01*
X152218000Y-100015000D01*
X153598000Y-100015000D01*
X153598000Y-101395000D01*
G37*
X153598000Y-103465000D02*
X152218000Y-103465000D01*
X152218000Y-102085000D01*
X153598000Y-102085000D01*
X153598000Y-103465000D01*
G36*
X153598000Y-103465000D02*
G01*
X152218000Y-103465000D01*
X152218000Y-102085000D01*
X153598000Y-102085000D01*
X153598000Y-103465000D01*
G37*
X153598000Y-105535000D02*
X152218000Y-105535000D01*
X152218000Y-104155000D01*
X153598000Y-104155000D01*
X153598000Y-105535000D01*
G36*
X153598000Y-105535000D02*
G01*
X152218000Y-105535000D01*
X152218000Y-104155000D01*
X153598000Y-104155000D01*
X153598000Y-105535000D01*
G37*
X155898000Y-99325000D02*
X154518000Y-99325000D01*
X154518000Y-97945000D01*
X155898000Y-97945000D01*
X155898000Y-99325000D01*
G36*
X155898000Y-99325000D02*
G01*
X154518000Y-99325000D01*
X154518000Y-97945000D01*
X155898000Y-97945000D01*
X155898000Y-99325000D01*
G37*
X155898000Y-101395000D02*
X154518000Y-101395000D01*
X154518000Y-100015000D01*
X155898000Y-100015000D01*
X155898000Y-101395000D01*
G36*
X155898000Y-101395000D02*
G01*
X154518000Y-101395000D01*
X154518000Y-100015000D01*
X155898000Y-100015000D01*
X155898000Y-101395000D01*
G37*
X155898000Y-103465000D02*
X154518000Y-103465000D01*
X154518000Y-102085000D01*
X155898000Y-102085000D01*
X155898000Y-103465000D01*
G36*
X155898000Y-103465000D02*
G01*
X154518000Y-103465000D01*
X154518000Y-102085000D01*
X155898000Y-102085000D01*
X155898000Y-103465000D01*
G37*
X155898000Y-105535000D02*
X154518000Y-105535000D01*
X154518000Y-104155000D01*
X155898000Y-104155000D01*
X155898000Y-105535000D01*
G36*
X155898000Y-105535000D02*
G01*
X154518000Y-105535000D01*
X154518000Y-104155000D01*
X155898000Y-104155000D01*
X155898000Y-105535000D01*
G37*
%TO.C,R2*%
X128629000Y-86782000D02*
X127249000Y-86782000D01*
X127249000Y-85402000D01*
X128629000Y-85402000D01*
X128629000Y-86782000D01*
G36*
X128629000Y-86782000D02*
G01*
X127249000Y-86782000D01*
X127249000Y-85402000D01*
X128629000Y-85402000D01*
X128629000Y-86782000D01*
G37*
X128629000Y-89082000D02*
X127249000Y-89082000D01*
X127249000Y-87702000D01*
X128629000Y-87702000D01*
X128629000Y-89082000D01*
G36*
X128629000Y-89082000D02*
G01*
X127249000Y-89082000D01*
X127249000Y-87702000D01*
X128629000Y-87702000D01*
X128629000Y-89082000D01*
G37*
X128629000Y-91382000D02*
X127249000Y-91382000D01*
X127249000Y-90002000D01*
X128629000Y-90002000D01*
X128629000Y-91382000D01*
G36*
X128629000Y-91382000D02*
G01*
X127249000Y-91382000D01*
X127249000Y-90002000D01*
X128629000Y-90002000D01*
X128629000Y-91382000D01*
G37*
X130699000Y-86782000D02*
X129319000Y-86782000D01*
X129319000Y-85402000D01*
X130699000Y-85402000D01*
X130699000Y-86782000D01*
G36*
X130699000Y-86782000D02*
G01*
X129319000Y-86782000D01*
X129319000Y-85402000D01*
X130699000Y-85402000D01*
X130699000Y-86782000D01*
G37*
X130699000Y-89082000D02*
X129319000Y-89082000D01*
X129319000Y-87702000D01*
X130699000Y-87702000D01*
X130699000Y-89082000D01*
G36*
X130699000Y-89082000D02*
G01*
X129319000Y-89082000D01*
X129319000Y-87702000D01*
X130699000Y-87702000D01*
X130699000Y-89082000D01*
G37*
X130699000Y-91382000D02*
X129319000Y-91382000D01*
X129319000Y-90002000D01*
X130699000Y-90002000D01*
X130699000Y-91382000D01*
G36*
X130699000Y-91382000D02*
G01*
X129319000Y-91382000D01*
X129319000Y-90002000D01*
X130699000Y-90002000D01*
X130699000Y-91382000D01*
G37*
X132769000Y-86782000D02*
X131389000Y-86782000D01*
X131389000Y-85402000D01*
X132769000Y-85402000D01*
X132769000Y-86782000D01*
G36*
X132769000Y-86782000D02*
G01*
X131389000Y-86782000D01*
X131389000Y-85402000D01*
X132769000Y-85402000D01*
X132769000Y-86782000D01*
G37*
X132769000Y-89082000D02*
X131389000Y-89082000D01*
X131389000Y-87702000D01*
X132769000Y-87702000D01*
X132769000Y-89082000D01*
G36*
X132769000Y-89082000D02*
G01*
X131389000Y-89082000D01*
X131389000Y-87702000D01*
X132769000Y-87702000D01*
X132769000Y-89082000D01*
G37*
X132769000Y-91382000D02*
X131389000Y-91382000D01*
X131389000Y-90002000D01*
X132769000Y-90002000D01*
X132769000Y-91382000D01*
G36*
X132769000Y-91382000D02*
G01*
X131389000Y-91382000D01*
X131389000Y-90002000D01*
X132769000Y-90002000D01*
X132769000Y-91382000D01*
G37*
X134839000Y-86782000D02*
X133459000Y-86782000D01*
X133459000Y-85402000D01*
X134839000Y-85402000D01*
X134839000Y-86782000D01*
G36*
X134839000Y-86782000D02*
G01*
X133459000Y-86782000D01*
X133459000Y-85402000D01*
X134839000Y-85402000D01*
X134839000Y-86782000D01*
G37*
X134839000Y-89082000D02*
X133459000Y-89082000D01*
X133459000Y-87702000D01*
X134839000Y-87702000D01*
X134839000Y-89082000D01*
G36*
X134839000Y-89082000D02*
G01*
X133459000Y-89082000D01*
X133459000Y-87702000D01*
X134839000Y-87702000D01*
X134839000Y-89082000D01*
G37*
X134839000Y-91382000D02*
X133459000Y-91382000D01*
X133459000Y-90002000D01*
X134839000Y-90002000D01*
X134839000Y-91382000D01*
G36*
X134839000Y-91382000D02*
G01*
X133459000Y-91382000D01*
X133459000Y-90002000D01*
X134839000Y-90002000D01*
X134839000Y-91382000D01*
G37*
%TO.C,R1*%
X162825000Y-76622000D02*
X161445000Y-76622000D01*
X161445000Y-75242000D01*
X162825000Y-75242000D01*
X162825000Y-76622000D01*
G36*
X162825000Y-76622000D02*
G01*
X161445000Y-76622000D01*
X161445000Y-75242000D01*
X162825000Y-75242000D01*
X162825000Y-76622000D01*
G37*
X162825000Y-78922000D02*
X161445000Y-78922000D01*
X161445000Y-77542000D01*
X162825000Y-77542000D01*
X162825000Y-78922000D01*
G36*
X162825000Y-78922000D02*
G01*
X161445000Y-78922000D01*
X161445000Y-77542000D01*
X162825000Y-77542000D01*
X162825000Y-78922000D01*
G37*
X162825000Y-81222000D02*
X161445000Y-81222000D01*
X161445000Y-79842000D01*
X162825000Y-79842000D01*
X162825000Y-81222000D01*
G36*
X162825000Y-81222000D02*
G01*
X161445000Y-81222000D01*
X161445000Y-79842000D01*
X162825000Y-79842000D01*
X162825000Y-81222000D01*
G37*
X164895000Y-76622000D02*
X163515000Y-76622000D01*
X163515000Y-75242000D01*
X164895000Y-75242000D01*
X164895000Y-76622000D01*
G36*
X164895000Y-76622000D02*
G01*
X163515000Y-76622000D01*
X163515000Y-75242000D01*
X164895000Y-75242000D01*
X164895000Y-76622000D01*
G37*
X164895000Y-78922000D02*
X163515000Y-78922000D01*
X163515000Y-77542000D01*
X164895000Y-77542000D01*
X164895000Y-78922000D01*
G36*
X164895000Y-78922000D02*
G01*
X163515000Y-78922000D01*
X163515000Y-77542000D01*
X164895000Y-77542000D01*
X164895000Y-78922000D01*
G37*
X164895000Y-81222000D02*
X163515000Y-81222000D01*
X163515000Y-79842000D01*
X164895000Y-79842000D01*
X164895000Y-81222000D01*
G36*
X164895000Y-81222000D02*
G01*
X163515000Y-81222000D01*
X163515000Y-79842000D01*
X164895000Y-79842000D01*
X164895000Y-81222000D01*
G37*
X166965000Y-76622000D02*
X165585000Y-76622000D01*
X165585000Y-75242000D01*
X166965000Y-75242000D01*
X166965000Y-76622000D01*
G36*
X166965000Y-76622000D02*
G01*
X165585000Y-76622000D01*
X165585000Y-75242000D01*
X166965000Y-75242000D01*
X166965000Y-76622000D01*
G37*
X166965000Y-78922000D02*
X165585000Y-78922000D01*
X165585000Y-77542000D01*
X166965000Y-77542000D01*
X166965000Y-78922000D01*
G36*
X166965000Y-78922000D02*
G01*
X165585000Y-78922000D01*
X165585000Y-77542000D01*
X166965000Y-77542000D01*
X166965000Y-78922000D01*
G37*
X166965000Y-81222000D02*
X165585000Y-81222000D01*
X165585000Y-79842000D01*
X166965000Y-79842000D01*
X166965000Y-81222000D01*
G36*
X166965000Y-81222000D02*
G01*
X165585000Y-81222000D01*
X165585000Y-79842000D01*
X166965000Y-79842000D01*
X166965000Y-81222000D01*
G37*
X169035000Y-76622000D02*
X167655000Y-76622000D01*
X167655000Y-75242000D01*
X169035000Y-75242000D01*
X169035000Y-76622000D01*
G36*
X169035000Y-76622000D02*
G01*
X167655000Y-76622000D01*
X167655000Y-75242000D01*
X169035000Y-75242000D01*
X169035000Y-76622000D01*
G37*
X169035000Y-78922000D02*
X167655000Y-78922000D01*
X167655000Y-77542000D01*
X169035000Y-77542000D01*
X169035000Y-78922000D01*
G36*
X169035000Y-78922000D02*
G01*
X167655000Y-78922000D01*
X167655000Y-77542000D01*
X169035000Y-77542000D01*
X169035000Y-78922000D01*
G37*
X169035000Y-81222000D02*
X167655000Y-81222000D01*
X167655000Y-79842000D01*
X169035000Y-79842000D01*
X169035000Y-81222000D01*
G36*
X169035000Y-81222000D02*
G01*
X167655000Y-81222000D01*
X167655000Y-79842000D01*
X169035000Y-79842000D01*
X169035000Y-81222000D01*
G37*
%TD*%
D11*
%TO.C,R4*%
X158392500Y-86868000D03*
X156567500Y-86868000D03*
%TD*%
D12*
%TO.C,R3*%
X155448000Y-93980000D03*
X150368000Y-93980000D03*
%TD*%
D13*
%TO.C,CR1*%
X163068000Y-98044000D03*
X167487600Y-98044000D03*
%TD*%
D14*
%TO.C,C3*%
X146304000Y-94974500D03*
X146304000Y-97049500D03*
%TD*%
D15*
%TO.C,F2*%
X134747000Y-76581000D03*
X136322000Y-76581000D03*
%TD*%
D16*
%TO.C,R6*%
X146304000Y-102719500D03*
X146304000Y-104544500D03*
%TD*%
D17*
%TO.C,L2*%
X127973000Y-73660000D03*
X132123000Y-73660000D03*
%TD*%
D18*
%TO.C,C1*%
X156442500Y-88900000D03*
X158517500Y-88900000D03*
%TD*%
D19*
%TO.C,D5*%
X164379400Y-71120000D03*
X167630600Y-71120000D03*
%TD*%
D20*
%TO.C,F1*%
X158547000Y-83820000D03*
X156972000Y-83820000D03*
%TD*%
D13*
%TO.C,CR2*%
X133604000Y-94996000D03*
X129184400Y-94996000D03*
%TD*%
D21*
%TO.C,R8*%
X161036000Y-72032500D03*
X161036000Y-70207500D03*
%TD*%
D22*
%TO.C,MOSFET1*%
X147626300Y-70358000D03*
X147626300Y-71628000D03*
X147626300Y-72898000D03*
X147626300Y-74168000D03*
X152576300Y-74168000D03*
X152576300Y-72898000D03*
X152576300Y-71628000D03*
X152576300Y-70358000D03*
%TD*%
D23*
%TO.C,R2*%
X138804000Y-90932000D03*
X138804000Y-85852000D03*
%TD*%
D13*
%TO.C,CR3*%
X141909800Y-94996000D03*
X137490200Y-94996000D03*
%TD*%
D24*
%TO.C,L3*%
X135636000Y-104691000D03*
X135636000Y-100541000D03*
%TD*%
D17*
%TO.C,L1*%
X162982000Y-92456000D03*
X167132000Y-92456000D03*
%TD*%
D23*
%TO.C,R1*%
X157480000Y-75692000D03*
X157480000Y-80772000D03*
%TD*%
D25*
%TO.C,R10*%
X137668000Y-70104000D03*
X139493000Y-70104000D03*
%TD*%
D26*
%TO.C,U2*%
X131572000Y-78486000D03*
X131572000Y-79756000D03*
X131572000Y-81026000D03*
X131572000Y-82296000D03*
X137020300Y-82296000D03*
X137020300Y-81026000D03*
X137020300Y-79756000D03*
X137020300Y-78486000D03*
D27*
X134296150Y-80391000D03*
%TD*%
D28*
%TO.C,D4*%
X141732000Y-70104000D03*
X143482000Y-70104000D03*
%TD*%
D29*
%TO.C,R9*%
X143497300Y-73660000D03*
X141998700Y-73660000D03*
%TD*%
D21*
%TO.C,R5*%
X128016000Y-82597000D03*
X128016000Y-80772000D03*
%TD*%
D30*
%TO.C,Q1*%
X137317000Y-73218000D03*
X137317000Y-75118000D03*
X139192000Y-74168000D03*
%TD*%
D20*
%TO.C,F3*%
X147320000Y-92964000D03*
X145745000Y-92964000D03*
%TD*%
D26*
%TO.C,U1*%
X162052000Y-83820000D03*
X162052000Y-85090000D03*
X162052000Y-86360000D03*
X162052000Y-87630000D03*
X167500300Y-87630000D03*
X167500300Y-86360000D03*
X167500300Y-85090000D03*
X167500300Y-83820000D03*
D27*
X164776150Y-85725000D03*
%TD*%
D31*
%TO.C,U3*%
X144145000Y-98875850D03*
X142875000Y-98875850D03*
X141605000Y-98875850D03*
X140335000Y-98875850D03*
X140335000Y-104324150D03*
X141605000Y-104324150D03*
X142875000Y-104324150D03*
X144145000Y-104324150D03*
D27*
X142240000Y-101600000D03*
%TD*%
D32*
%TO.C,C2*%
X139700000Y-80264000D03*
X139700000Y-78189000D03*
%TD*%
D21*
%TO.C,R7*%
X157988000Y-72032500D03*
X157988000Y-70207500D03*
%TD*%
M02*
